%TF.GenerationSoftware,KiCad,Pcbnew,8.0.4*%
%TF.CreationDate,2024-12-12T19:44:17+01:00*%
%TF.ProjectId,Combined_Module_Panel,436f6d62-696e-4656-945f-4d6f64756c65,rev?*%
%TF.SameCoordinates,Original*%
%TF.FileFunction,Drillmap*%
%TF.FilePolarity,Positive*%
%FSLAX45Y45*%
G04 Gerber Fmt 4.5, Leading zero omitted, Abs format (unit mm)*
G04 Created by KiCad (PCBNEW 8.0.4) date 2024-12-12 19:44:17*
%MOMM*%
%LPD*%
G01*
G04 APERTURE LIST*
%ADD10C,0.050000*%
%ADD11C,0.200000*%
%ADD12C,0.100000*%
G04 APERTURE END LIST*
D10*
X14015008Y-14707500D02*
X13544600Y-14707500D01*
X14015008Y-12436238D02*
G75*
G02*
X14015008Y-12586238I2J-75000D01*
G01*
X15305416Y-14507500D02*
X15305416Y-12636238D01*
X15305416Y-14507500D02*
G75*
G02*
X15105416Y-14707494I-199996J2D01*
G01*
X14015008Y-12436238D02*
X13544600Y-12436238D01*
X15105416Y-12436238D02*
G75*
G02*
X15305420Y-12636238I4J-200000D01*
G01*
X13544600Y-14707500D02*
G75*
G02*
X13344598Y-14507500I0J200002D01*
G01*
X14635008Y-14707500D02*
G75*
G02*
X14635008Y-14557496I2J75002D01*
G01*
X13344600Y-12636238D02*
G75*
G02*
X13544600Y-12436238I200000J0D01*
G01*
X15105416Y-12436238D02*
X14635008Y-12436238D01*
X14015008Y-14557500D02*
G75*
G02*
X14015008Y-14707496I2J-74998D01*
G01*
X14635008Y-14707500D02*
X15105416Y-14707500D01*
X13344600Y-12636238D02*
X13344600Y-14507500D01*
X14635008Y-12586238D02*
G75*
G02*
X14635008Y-12436238I2J75000D01*
G01*
X14015008Y-14557500D02*
X13644600Y-14557500D01*
X15005416Y-14557500D02*
X14635008Y-14557500D01*
X14635008Y-12586238D02*
X15005416Y-12586238D01*
X14015008Y-12586238D02*
X13644600Y-12586238D01*
X15105416Y-14457500D02*
G75*
G02*
X15005416Y-14557498I-99998J0D01*
G01*
X13644600Y-14557500D02*
G75*
G02*
X13544600Y-14457500I-3J99997D01*
G01*
X15105416Y-12686238D02*
X15105416Y-14457500D01*
X15005416Y-12586238D02*
G75*
G02*
X15105420Y-12686238I2J-100002D01*
G01*
X13544600Y-14457500D02*
X13544600Y-12686238D01*
X13544600Y-12686238D02*
G75*
G02*
X13644600Y-12586238I100005J-5D01*
G01*
X14015008Y-12030462D02*
X13544600Y-12030462D01*
X14015008Y-9759200D02*
G75*
G02*
X14015008Y-9909200I2J-75000D01*
G01*
X15305416Y-11830462D02*
X15305416Y-9959200D01*
X15305416Y-11830462D02*
G75*
G02*
X15105416Y-12030456I-199996J2D01*
G01*
X14015008Y-9759200D02*
X13544600Y-9759200D01*
X15105416Y-9759200D02*
G75*
G02*
X15305420Y-9959200I4J-200000D01*
G01*
X13544600Y-12030462D02*
G75*
G02*
X13344598Y-11830462I0J200002D01*
G01*
X14635008Y-12030462D02*
G75*
G02*
X14635008Y-11880458I2J75002D01*
G01*
X13344600Y-9959200D02*
G75*
G02*
X13544600Y-9759200I200000J0D01*
G01*
X15105416Y-9759200D02*
X14635008Y-9759200D01*
X14015008Y-11880462D02*
G75*
G02*
X14015008Y-12030458I2J-74998D01*
G01*
X14635008Y-12030462D02*
X15105416Y-12030462D01*
X13344600Y-9959200D02*
X13344600Y-11830462D01*
X14635008Y-9909200D02*
G75*
G02*
X14635008Y-9759200I2J75000D01*
G01*
X14015008Y-11880462D02*
X13644600Y-11880462D01*
X15005416Y-11880462D02*
X14635008Y-11880462D01*
X14635008Y-9909200D02*
X15005416Y-9909200D01*
X14015008Y-9909200D02*
X13644600Y-9909200D01*
X15105416Y-11780462D02*
G75*
G02*
X15005416Y-11880460I-99998J0D01*
G01*
X13644600Y-11880462D02*
G75*
G02*
X13544600Y-11780462I-3J99997D01*
G01*
X15105416Y-10009200D02*
X15105416Y-11780462D01*
X15005416Y-9909200D02*
G75*
G02*
X15105420Y-10009200I2J-100002D01*
G01*
X13544600Y-11780462D02*
X13544600Y-10009200D01*
X13544600Y-10009200D02*
G75*
G02*
X13644600Y-9909200I100005J-5D01*
G01*
X14015008Y-9355162D02*
X13544600Y-9355162D01*
X14015008Y-7083900D02*
G75*
G02*
X14015008Y-7233900I2J-75000D01*
G01*
X15305416Y-9155162D02*
X15305416Y-7283900D01*
X15305416Y-9155162D02*
G75*
G02*
X15105416Y-9355156I-199996J2D01*
G01*
X14015008Y-7083900D02*
X13544600Y-7083900D01*
X15105416Y-7083900D02*
G75*
G02*
X15305420Y-7283900I4J-200000D01*
G01*
X13544600Y-9355162D02*
G75*
G02*
X13344598Y-9155162I0J200002D01*
G01*
X14635008Y-9355162D02*
G75*
G02*
X14635008Y-9205158I2J75002D01*
G01*
X13344600Y-7283900D02*
G75*
G02*
X13544600Y-7083900I200000J0D01*
G01*
X15105416Y-7083900D02*
X14635008Y-7083900D01*
X14015008Y-9205162D02*
G75*
G02*
X14015008Y-9355158I2J-74998D01*
G01*
X14635008Y-9355162D02*
X15105416Y-9355162D01*
X13344600Y-7283900D02*
X13344600Y-9155162D01*
X14635008Y-7233900D02*
G75*
G02*
X14635008Y-7083900I2J75000D01*
G01*
X14015008Y-9205162D02*
X13644600Y-9205162D01*
X15005416Y-9205162D02*
X14635008Y-9205162D01*
X14635008Y-7233900D02*
X15005416Y-7233900D01*
X14015008Y-7233900D02*
X13644600Y-7233900D01*
X15105416Y-9105162D02*
G75*
G02*
X15005416Y-9205160I-99998J0D01*
G01*
X13644600Y-9205162D02*
G75*
G02*
X13544600Y-9105162I-3J99997D01*
G01*
X15105416Y-7333900D02*
X15105416Y-9105162D01*
X15005416Y-7233900D02*
G75*
G02*
X15105420Y-7333900I2J-100002D01*
G01*
X13544600Y-9105162D02*
X13544600Y-7333900D01*
X13544600Y-7333900D02*
G75*
G02*
X13644600Y-7233900I100005J-5D01*
G01*
X14015008Y-6529862D02*
X13644600Y-6529862D01*
X15005416Y-6529862D02*
X14635008Y-6529862D01*
X14635008Y-4558600D02*
X15005416Y-4558600D01*
X14015008Y-4558600D02*
X13644600Y-4558600D01*
X9255700Y-11918800D02*
X9105700Y-11918800D01*
X11716850Y-8977230D02*
X12785250Y-8977230D01*
X15505416Y-12041100D02*
G75*
G02*
X15705416Y-11841106I199994J0D01*
G01*
X17925416Y-15207500D02*
X8605700Y-15207500D01*
X16155416Y-13327500D02*
G75*
G02*
X16155416Y-13477500I4J-75000D01*
G01*
X10957500Y-9784400D02*
X10957500Y-11868800D01*
X10906700Y-9633600D02*
G75*
G02*
X10856700Y-9683600I-50000J0D01*
G01*
X13143550Y-14446560D02*
X13143550Y-13405160D01*
X10906700Y-4559400D02*
G75*
G02*
X10856700Y-4609400I-50000J0D01*
G01*
X9256500Y-7197300D02*
G75*
G02*
X9306500Y-7247300I0J-50000D01*
G01*
X12785250Y-5768600D02*
G75*
G02*
X12835250Y-5818600I0J-50000D01*
G01*
X16155416Y-13071100D02*
X15855416Y-13071100D01*
X9306500Y-9331700D02*
X9306500Y-7247300D01*
X9306500Y-11868800D02*
X9306500Y-9784400D01*
X9255700Y-6844600D02*
X9105700Y-6844600D01*
X9357300Y-7095700D02*
X9357300Y-6946200D01*
X16155416Y-7381600D02*
G75*
G02*
X16155416Y-7531600I4J-75000D01*
G01*
X11666850Y-14555860D02*
G75*
G02*
X11716850Y-14505860I50000J0D01*
G01*
X16775416Y-6045100D02*
G75*
G02*
X16775416Y-5895100I4J75000D01*
G01*
X11358550Y-10492740D02*
X11358550Y-11534140D01*
X12993550Y-9036530D02*
X13143550Y-9036530D01*
X11716850Y-11889650D02*
G75*
G02*
X11666850Y-11839650I0J50000D01*
G01*
X17225416Y-13627483D02*
X17225416Y-14407483D01*
X13143550Y-10077930D02*
X13143550Y-9036530D01*
X16155416Y-10354600D02*
X15705416Y-10354600D01*
X17225416Y-8868100D02*
X16775416Y-8868100D01*
X17225416Y-12921083D02*
G75*
G02*
X17075416Y-13071076I-149996J3D01*
G01*
X8605700Y-3908600D02*
X8605700Y-15207500D01*
X12785250Y-13049650D02*
X11716850Y-13049650D01*
X16155416Y-7125100D02*
G75*
G02*
X16155416Y-7275100I4J-75000D01*
G01*
X17425416Y-11534600D02*
X17425416Y-10554600D01*
X12835250Y-14555860D02*
X12835250Y-14707500D01*
X15505416Y-9068100D02*
G75*
G02*
X15705416Y-8868106I199994J0D01*
G01*
X17225416Y-10354600D02*
X16775416Y-10354600D01*
X11666850Y-10187230D02*
X11666850Y-10383440D01*
X12943550Y-4717900D02*
X12943550Y-5659300D01*
X12785250Y-8681020D02*
X11716850Y-8681020D01*
X17225416Y-9948083D02*
G75*
G02*
X17075416Y-10098076I-149996J3D01*
G01*
X16155416Y-13477500D02*
X15855416Y-13477500D01*
X10906700Y-4559400D02*
X10906700Y-4558600D01*
X16155416Y-8868100D02*
G75*
G02*
X16155416Y-9018100I4J-75000D01*
G01*
X12835250Y-14707500D02*
X11666850Y-14707500D01*
X12785250Y-11593440D02*
G75*
G02*
X12835250Y-11643440I0J-50000D01*
G01*
X12835250Y-5818600D02*
X12835250Y-6014810D01*
X15705416Y-9168083D02*
G75*
G02*
X15855416Y-9018076I150004J3D01*
G01*
X11558550Y-11484140D02*
X11558550Y-10542740D01*
X17075416Y-13477483D02*
G75*
G02*
X17225417Y-13627483I4J-149997D01*
G01*
X14015008Y-6529862D02*
G75*
G02*
X14015008Y-6679858I2J-74998D01*
G01*
X17225416Y-13327500D02*
X16775416Y-13327500D01*
X11008300Y-4660200D02*
X11158300Y-4660200D01*
X12835250Y-10383440D02*
G75*
G02*
X12785250Y-10433440I-50000J0D01*
G01*
X10957500Y-12321500D02*
X10957500Y-14405900D01*
X12785250Y-14505860D02*
G75*
G02*
X12835250Y-14555860I0J-50000D01*
G01*
X15705416Y-10654583D02*
G75*
G02*
X15855416Y-10504576I150004J3D01*
G01*
X16155416Y-4558600D02*
X15855416Y-4558600D01*
X17225416Y-10248100D02*
X16775416Y-10248100D01*
X17425416Y-14507500D02*
X17425416Y-13527500D01*
X9357300Y-12169900D02*
X9357300Y-12020400D01*
X11007500Y-6844600D02*
G75*
G02*
X10957500Y-6794600I0J50000D01*
G01*
X12785250Y-10137230D02*
G75*
G02*
X12835250Y-10187230I0J-50000D01*
G01*
X10906700Y-12020400D02*
X10906700Y-12019600D01*
X16155416Y-10248100D02*
X15705416Y-10248100D01*
X14635008Y-6679862D02*
X15105416Y-6679862D01*
X15705416Y-10248100D02*
G75*
G02*
X15505410Y-10048100I4J200010D01*
G01*
X10906700Y-7096500D02*
X10906700Y-7095700D01*
X17075416Y-7531583D02*
G75*
G02*
X17225417Y-7681583I4J-149997D01*
G01*
X17925416Y-3908600D02*
X8605700Y-3908600D01*
X12943550Y-9086530D02*
G75*
G02*
X12993550Y-9036530I50000J0D01*
G01*
X10906700Y-9483300D02*
X10906700Y-9482500D01*
X15705416Y-7681583D02*
G75*
G02*
X15855416Y-7531576I150004J3D01*
G01*
X11558550Y-7115510D02*
G75*
G02*
X11508550Y-7165510I-50000J0D01*
G01*
X11508550Y-4667900D02*
G75*
G02*
X11558550Y-4717900I0J-50000D01*
G01*
X15505416Y-4608600D02*
G75*
G02*
X15705416Y-4408596I200004J0D01*
G01*
X11508550Y-13405160D02*
X11358550Y-13405160D01*
X11508550Y-10492740D02*
G75*
G02*
X11558550Y-10542740I0J-50000D01*
G01*
X11358550Y-9036530D02*
X11358550Y-10077930D01*
X15855416Y-10098083D02*
G75*
G02*
X15705417Y-9948083I4J150003D01*
G01*
X12993550Y-11948950D02*
X13143550Y-11948950D01*
X12993550Y-4667900D02*
X13143550Y-4667900D01*
X17925416Y-15207500D02*
X17925416Y-3908600D01*
X12943550Y-11998950D02*
X12943550Y-12940350D01*
X10906700Y-6946200D02*
X10906700Y-6945400D01*
X15855416Y-7125083D02*
G75*
G02*
X15705417Y-6975083I4J150003D01*
G01*
X16775416Y-13477500D02*
X17075416Y-13477500D01*
X12993550Y-5709300D02*
X13143550Y-5709300D01*
X12943550Y-13455160D02*
X12943550Y-14396560D01*
X12993550Y-12990350D02*
X13143550Y-12990350D01*
X10957500Y-4710200D02*
X10957500Y-6794600D01*
X16155416Y-11991100D02*
X15855416Y-11991100D01*
X16155416Y-11841100D02*
G75*
G02*
X16155416Y-11991100I4J-75000D01*
G01*
X11558550Y-7115510D02*
X11558550Y-6174110D01*
X16775416Y-8761600D02*
G75*
G02*
X16775416Y-8611600I4J75000D01*
G01*
X17075416Y-10504583D02*
G75*
G02*
X17225417Y-10654583I4J-149997D01*
G01*
X17225416Y-11841100D02*
X16775416Y-11841100D01*
X11508550Y-11948950D02*
X11358550Y-11948950D01*
X17225416Y-8461583D02*
G75*
G02*
X17075416Y-8611576I-149996J3D01*
G01*
X11508550Y-10077930D02*
X11358550Y-10077930D01*
X15705416Y-6975083D02*
X15705416Y-6195083D01*
X15705416Y-14407483D02*
X15705416Y-13627483D01*
X16155416Y-5895100D02*
G75*
G02*
X16155416Y-6045100I4J-75000D01*
G01*
X17225416Y-11841100D02*
G75*
G02*
X17425410Y-12041100I4J-199990D01*
G01*
X10906700Y-14557500D02*
X10906700Y-14556700D01*
X11716850Y-10433440D02*
X12785250Y-10433440D01*
X16775416Y-11991100D02*
G75*
G02*
X16775416Y-11841100I4J75000D01*
G01*
X9256500Y-12271500D02*
G75*
G02*
X9306500Y-12321500I0J-50000D01*
G01*
X16155416Y-7381600D02*
X15705416Y-7381600D01*
X15705416Y-14707500D02*
G75*
G02*
X15505410Y-14507500I4J200010D01*
G01*
X15705416Y-11434583D02*
X15705416Y-10654583D01*
X10906700Y-14557500D02*
X10906700Y-14707500D01*
X16155416Y-8761600D02*
X15705416Y-8761600D01*
X9255700Y-7197300D02*
X9105700Y-7197300D01*
X17225416Y-5895100D02*
X16775416Y-5895100D01*
X11716850Y-6064810D02*
G75*
G02*
X11666850Y-6014810I0J50000D01*
G01*
X11508550Y-9036530D02*
X11358550Y-9036530D01*
X17425416Y-10048100D02*
G75*
G02*
X17225416Y-10248106I-200006J0D01*
G01*
X12993550Y-12990350D02*
G75*
G02*
X12943550Y-12940350I0J50000D01*
G01*
X12993550Y-14446560D02*
X13143550Y-14446560D01*
X15705416Y-6195083D02*
G75*
G02*
X15855416Y-6045076I150004J3D01*
G01*
X17225416Y-7381600D02*
G75*
G02*
X17425410Y-7581600I4J-199990D01*
G01*
X17225416Y-6195083D02*
X17225416Y-6975083D01*
X11158300Y-6844600D02*
X11158300Y-4660200D01*
X11158300Y-11918800D02*
X11158300Y-9734400D01*
X11716850Y-10433440D02*
G75*
G02*
X11666850Y-10383440I0J50000D01*
G01*
X11558550Y-8571720D02*
G75*
G02*
X11508550Y-8621720I-50000J0D01*
G01*
X11666850Y-7274810D02*
G75*
G02*
X11716850Y-7224810I50000J0D01*
G01*
X9105700Y-11918800D02*
X9105700Y-9734400D01*
X9255700Y-11918800D02*
X9256500Y-11918800D01*
X15105416Y-4408600D02*
X14635008Y-4408600D01*
X12835250Y-11643440D02*
X12835250Y-11839650D01*
X12993550Y-8621720D02*
X13143550Y-8621720D01*
X16155416Y-7125100D02*
X15855416Y-7125100D01*
X16775416Y-11991100D02*
X17075416Y-11991100D01*
X9357300Y-7095700D02*
X9357300Y-7096500D01*
X16775416Y-10504600D02*
G75*
G02*
X16775416Y-10354600I4J75000D01*
G01*
X17225416Y-13221100D02*
X16775416Y-13221100D01*
X11716850Y-4608600D02*
G75*
G02*
X11666850Y-4558600I0J50000D01*
G01*
X10906700Y-4408600D02*
X9357300Y-4408600D01*
X17075416Y-6045083D02*
G75*
G02*
X17225417Y-6195083I4J-149997D01*
G01*
X16155416Y-4408600D02*
X15705416Y-4408600D01*
X11158505Y-14455900D02*
X11158505Y-12271500D01*
X17425416Y-14507500D02*
G75*
G02*
X17225416Y-14707506I-200006J0D01*
G01*
X11716850Y-4608600D02*
X12785250Y-4608600D01*
X17225416Y-5895100D02*
G75*
G02*
X17425410Y-6095100I4J-199990D01*
G01*
X16775416Y-6045100D02*
X17075416Y-6045100D01*
X12993550Y-7580320D02*
X13143550Y-7580320D01*
X9306500Y-9331700D02*
G75*
G02*
X9256500Y-9381700I-50000J0D01*
G01*
X17425416Y-10048100D02*
X17425416Y-9068100D01*
X15705416Y-4708583D02*
G75*
G02*
X15855416Y-4558576I150004J3D01*
G01*
X9255700Y-9381700D02*
X9105700Y-9381700D01*
X17075416Y-11584583D02*
X16775416Y-11584583D01*
X11558550Y-10027930D02*
X11558550Y-9086530D01*
X10957500Y-12321500D02*
G75*
G02*
X11007500Y-12271500I50000J0D01*
G01*
X11007500Y-9381700D02*
X11008300Y-9381700D01*
X16155416Y-11584600D02*
X15855416Y-11584600D01*
X9357300Y-4558600D02*
X9357300Y-4409100D01*
X11008505Y-14455900D02*
X11158505Y-14455900D01*
X12835250Y-13295860D02*
G75*
G02*
X12785250Y-13345860I-50000J0D01*
G01*
X16775416Y-9018100D02*
X17075416Y-9018100D01*
X16155416Y-8868100D02*
X15705416Y-8868100D01*
X11358550Y-4667900D02*
X11358550Y-5709300D01*
X11008300Y-6844600D02*
X11158300Y-6844600D01*
X11508550Y-7165510D02*
X11358550Y-7165510D01*
X9105700Y-12271500D02*
X9105700Y-14455900D01*
X11558550Y-11484140D02*
G75*
G02*
X11508550Y-11534140I-50000J0D01*
G01*
X12993550Y-10077930D02*
X13143550Y-10077930D01*
X10856700Y-6895400D02*
X9407300Y-6895400D01*
X9306500Y-14405900D02*
G75*
G02*
X9256500Y-14455900I-50000J0D01*
G01*
X11716850Y-6064810D02*
X12785250Y-6064810D01*
X16155416Y-9018100D02*
X15855416Y-9018100D01*
X11508550Y-4667900D02*
X11358550Y-4667900D01*
X12943550Y-10542740D02*
G75*
G02*
X12993550Y-10492740I50000J0D01*
G01*
X9407300Y-12220700D02*
X10856700Y-12220700D01*
X11008300Y-9381700D02*
X11158300Y-9381700D01*
X12835250Y-10187230D02*
X12835250Y-10383440D01*
X12785250Y-10137230D02*
X11716850Y-10137230D01*
X14635008Y-4558600D02*
G75*
G02*
X14635008Y-4408600I2J75000D01*
G01*
X11666850Y-11643440D02*
G75*
G02*
X11716850Y-11593440I50000J0D01*
G01*
X16155416Y-5788600D02*
X15705416Y-5788600D01*
X11558550Y-8571720D02*
X11558550Y-7630320D01*
X16155416Y-8611600D02*
G75*
G02*
X16155416Y-8761600I4J-75000D01*
G01*
X16155416Y-14557500D02*
X15855416Y-14557500D01*
X16155416Y-14707500D02*
X15705416Y-14707500D01*
X10906700Y-14707500D02*
X9357300Y-14707500D01*
X12943550Y-6174110D02*
X12943550Y-7115510D01*
X9407300Y-4609400D02*
X10856700Y-4609400D01*
X13344600Y-4608600D02*
X13344600Y-6479862D01*
X11358550Y-11948950D02*
X11358550Y-12990350D01*
X11508550Y-8621720D02*
X11358550Y-8621720D01*
X12943550Y-13455160D02*
G75*
G02*
X12993550Y-13405160I50000J0D01*
G01*
X16155416Y-11734600D02*
X15705416Y-11734600D01*
X11716850Y-13345860D02*
X12785250Y-13345860D01*
X15855416Y-5638583D02*
G75*
G02*
X15705417Y-5488583I4J150003D01*
G01*
X17225416Y-10654583D02*
X17225416Y-11434583D01*
X9255700Y-4660200D02*
X9105700Y-4660200D01*
X16775416Y-11734600D02*
G75*
G02*
X16775416Y-11584600I4J75000D01*
G01*
X9357300Y-4558600D02*
X9357300Y-4559400D01*
X12993550Y-11534140D02*
X13143550Y-11534140D01*
X11666850Y-5818600D02*
G75*
G02*
X11716850Y-5768600I50000J0D01*
G01*
X9256500Y-9734400D02*
X9255700Y-9734400D01*
X10856700Y-11969600D02*
G75*
G02*
X10906700Y-12019600I0J-50000D01*
G01*
X14015008Y-4408600D02*
X13544600Y-4408600D01*
X12835250Y-8731020D02*
X12835250Y-8927230D01*
X14635008Y-6679862D02*
G75*
G02*
X14635008Y-6529858I2J75002D01*
G01*
X11558550Y-5659300D02*
G75*
G02*
X11508550Y-5709300I-50000J0D01*
G01*
X17075416Y-14557483D02*
X16775416Y-14557483D01*
X11008505Y-12271500D02*
X11158505Y-12271500D01*
X9255700Y-14455900D02*
X9105700Y-14455900D01*
X10906700Y-12170700D02*
X10906700Y-12169900D01*
X12943550Y-4717900D02*
G75*
G02*
X12993550Y-4667900I50000J0D01*
G01*
X16155416Y-11584600D02*
G75*
G02*
X16155416Y-11734600I4J-75000D01*
G01*
X17425416Y-13021100D02*
G75*
G02*
X17225416Y-13221106I-200006J0D01*
G01*
X9407300Y-9683600D02*
X10856700Y-9683600D01*
X11008300Y-4660200D02*
X11007500Y-4660200D01*
X15505416Y-7075100D02*
X15505416Y-6095100D01*
X15855416Y-13071083D02*
G75*
G02*
X15705417Y-12921083I4J150003D01*
G01*
X11666850Y-7274810D02*
X11666850Y-7471020D01*
X9357300Y-9482500D02*
G75*
G02*
X9407300Y-9432500I50000J0D01*
G01*
X12943550Y-9086530D02*
X12943550Y-10027930D01*
X16155416Y-10504600D02*
X15855416Y-10504600D01*
X10906700Y-7095700D02*
X10906700Y-6946200D01*
X11008300Y-11918800D02*
X11158300Y-11918800D01*
X17225416Y-7681583D02*
X17225416Y-8461583D01*
X12835250Y-7274810D02*
X12835250Y-7471020D01*
X11508550Y-14446560D02*
X11358550Y-14446560D01*
X12835250Y-8927230D02*
G75*
G02*
X12785250Y-8977230I-50000J0D01*
G01*
X16155416Y-6045100D02*
X15855416Y-6045100D01*
X11666850Y-11643440D02*
X11666850Y-11839650D01*
X15705416Y-11734600D02*
G75*
G02*
X15505410Y-11534600I4J200010D01*
G01*
X11558550Y-12940350D02*
G75*
G02*
X11508550Y-12990350I-50000J0D01*
G01*
X11508550Y-11948950D02*
G75*
G02*
X11558550Y-11998950I0J-50000D01*
G01*
X9255700Y-12271500D02*
X9105700Y-12271500D01*
X9407300Y-4609400D02*
G75*
G02*
X9357300Y-4559400I0J50000D01*
G01*
X17225416Y-11434583D02*
G75*
G02*
X17075416Y-11584576I-149996J3D01*
G01*
X9357300Y-9482500D02*
X9357300Y-9483300D01*
X10906700Y-9632800D02*
X10906700Y-9483300D01*
X17425416Y-5588600D02*
X17425416Y-4608600D01*
X12993550Y-14446560D02*
G75*
G02*
X12943550Y-14396560I0J50000D01*
G01*
X16155416Y-13327500D02*
X15705416Y-13327500D01*
X16155416Y-10354600D02*
G75*
G02*
X16155416Y-10504600I4J-75000D01*
G01*
X16775416Y-7531600D02*
G75*
G02*
X16775416Y-7381600I4J75000D01*
G01*
X9105700Y-6844600D02*
X9105700Y-4660200D01*
X12993550Y-7165510D02*
G75*
G02*
X12943550Y-7115510I0J50000D01*
G01*
X16155416Y-10098100D02*
G75*
G02*
X16155416Y-10248100I4J-75000D01*
G01*
X16775416Y-5788600D02*
G75*
G02*
X16775416Y-5638600I4J75000D01*
G01*
X9256500Y-4660200D02*
G75*
G02*
X9306500Y-4710200I0J-50000D01*
G01*
X11508550Y-10492740D02*
X11358550Y-10492740D01*
X16155416Y-10098100D02*
X15855416Y-10098100D01*
X10856700Y-9432500D02*
G75*
G02*
X10906700Y-9482500I0J-50000D01*
G01*
X9306500Y-6794600D02*
G75*
G02*
X9256500Y-6844600I-50000J0D01*
G01*
X10906700Y-9633600D02*
X10906700Y-9632800D01*
X10856700Y-9432500D02*
X9407300Y-9432500D01*
X15855416Y-14557483D02*
G75*
G02*
X15705417Y-14407483I4J150003D01*
G01*
X9357300Y-12019600D02*
X9357300Y-12020400D01*
X9306500Y-11868800D02*
G75*
G02*
X9256500Y-11918800I-50000J0D01*
G01*
X11508550Y-11534140D02*
X11358550Y-11534140D01*
X9357300Y-9632800D02*
X9357300Y-9633600D01*
X13143550Y-12990350D02*
X13143550Y-11948950D01*
X12785250Y-13049650D02*
G75*
G02*
X12835250Y-13099650I0J-50000D01*
G01*
X15705416Y-12921083D02*
X15705416Y-12141083D01*
X12835250Y-7471020D02*
G75*
G02*
X12785250Y-7521020I-50000J0D01*
G01*
X15705416Y-13221100D02*
G75*
G02*
X15505410Y-13021100I4J200010D01*
G01*
X11666850Y-8731020D02*
G75*
G02*
X11716850Y-8681020I50000J0D01*
G01*
X17225416Y-8761600D02*
X16775416Y-8761600D01*
X17225416Y-7381600D02*
X16775416Y-7381600D01*
X17225416Y-11734600D02*
X16775416Y-11734600D01*
X10856700Y-6895400D02*
G75*
G02*
X10906700Y-6945400I0J-50000D01*
G01*
X17225416Y-4708583D02*
X17225416Y-5488583D01*
X9357300Y-12169900D02*
X9357300Y-12170700D01*
X17425416Y-13021100D02*
X17425416Y-12041100D01*
X16155416Y-13071100D02*
G75*
G02*
X16155416Y-13221100I4J-75000D01*
G01*
X9357300Y-14556700D02*
G75*
G02*
X9407300Y-14506700I50000J0D01*
G01*
X11007500Y-14455900D02*
X11008300Y-14455900D01*
X12943550Y-10542740D02*
X12943550Y-11484140D01*
X11558550Y-14396560D02*
X11558550Y-13455160D01*
X17075416Y-7125083D02*
X16775416Y-7125083D01*
X9407300Y-7146500D02*
X10856700Y-7146500D01*
X12993550Y-8621720D02*
G75*
G02*
X12943550Y-8571720I0J50000D01*
G01*
X11666850Y-10187230D02*
G75*
G02*
X11716850Y-10137230I50000J0D01*
G01*
X16155416Y-5638600D02*
X15855416Y-5638600D01*
X12785250Y-7224810D02*
X11716850Y-7224810D01*
X17225416Y-7275100D02*
X16775416Y-7275100D01*
X11008300Y-9734400D02*
X11007500Y-9734400D01*
X10906700Y-12170700D02*
G75*
G02*
X10856700Y-12220700I-50000J0D01*
G01*
X12835250Y-4558600D02*
X12835250Y-4408600D01*
X15855416Y-8611583D02*
G75*
G02*
X15705417Y-8461583I4J150003D01*
G01*
X15505416Y-6095100D02*
G75*
G02*
X15705416Y-5895106I199994J0D01*
G01*
X16155416Y-11841100D02*
X15705416Y-11841100D01*
X11508550Y-9036530D02*
G75*
G02*
X11558550Y-9086530I0J-50000D01*
G01*
X12993550Y-11534140D02*
G75*
G02*
X12943550Y-11484140I0J50000D01*
G01*
X12993550Y-13405160D02*
X13143550Y-13405160D01*
X17225416Y-9168083D02*
X17225416Y-9948083D01*
X10856700Y-11969600D02*
X9407300Y-11969600D01*
X11508550Y-7580320D02*
G75*
G02*
X11558550Y-7630320I0J-50000D01*
G01*
X17425416Y-7075100D02*
G75*
G02*
X17225416Y-7275106I-200006J0D01*
G01*
X9255700Y-6844600D02*
X9256500Y-6844600D01*
X9105700Y-9381700D02*
X9105700Y-7197300D01*
X11716850Y-11889650D02*
X12785250Y-11889650D01*
X9357300Y-14556700D02*
X9357300Y-14557500D01*
X11558550Y-14396560D02*
G75*
G02*
X11508550Y-14446560I-50000J0D01*
G01*
X11716850Y-7521020D02*
G75*
G02*
X11666850Y-7471020I0J50000D01*
G01*
X17425416Y-7075100D02*
X17425416Y-6095100D01*
X15855416Y-11584583D02*
G75*
G02*
X15705417Y-11434583I4J150003D01*
G01*
X10957500Y-9784400D02*
G75*
G02*
X11007500Y-9734400I50000J0D01*
G01*
X15705416Y-7275100D02*
G75*
G02*
X15505410Y-7075100I4J200010D01*
G01*
X9306500Y-14405900D02*
X9306500Y-12321500D01*
X11508550Y-6124110D02*
G75*
G02*
X11558550Y-6174110I0J-50000D01*
G01*
X10906700Y-4558600D02*
X10906700Y-4408600D01*
X12993550Y-10492740D02*
X13143550Y-10492740D01*
X17225416Y-13327500D02*
G75*
G02*
X17425410Y-13527500I4J-199990D01*
G01*
X11558550Y-10027930D02*
G75*
G02*
X11508550Y-10077930I-50000J0D01*
G01*
X16155416Y-14557500D02*
G75*
G02*
X16155416Y-14707500I4J-75000D01*
G01*
X13143550Y-5709300D02*
X13143550Y-4667900D01*
X11508550Y-5709300D02*
X11358550Y-5709300D01*
X12835250Y-4408600D02*
X11666850Y-4408600D01*
X12943550Y-11998950D02*
G75*
G02*
X12993550Y-11948950I50000J0D01*
G01*
X15505416Y-13527500D02*
G75*
G02*
X15705416Y-13327506I199994J0D01*
G01*
X11666850Y-14555860D02*
X11666850Y-14707500D01*
X11508550Y-6124110D02*
X11358550Y-6124110D01*
X10957500Y-4710200D02*
G75*
G02*
X11007500Y-4660200I50000J0D01*
G01*
X11558550Y-12940350D02*
X11558550Y-11998950D01*
X10906700Y-12169900D02*
X10906700Y-12020400D01*
X11358550Y-6124110D02*
X11358550Y-7165510D01*
X11716850Y-7521020D02*
X12785250Y-7521020D01*
X12993550Y-10077930D02*
G75*
G02*
X12943550Y-10027930I0J50000D01*
G01*
X11007500Y-11918800D02*
X11008300Y-11918800D01*
X12785250Y-5768600D02*
X11716850Y-5768600D01*
X12993550Y-6124110D02*
X13143550Y-6124110D01*
X15505416Y-13021100D02*
X15505416Y-12041100D01*
X12785250Y-14505860D02*
X11716850Y-14505860D01*
X11508550Y-7580320D02*
X11358550Y-7580320D01*
X16775416Y-7531600D02*
X17075416Y-7531600D01*
X13143550Y-8621720D02*
X13143550Y-7580320D01*
X17075416Y-5638583D02*
X16775416Y-5638583D01*
X17225416Y-5488583D02*
G75*
G02*
X17075416Y-5638576I-149996J3D01*
G01*
X16155416Y-7531600D02*
X15855416Y-7531600D01*
X9357300Y-6945400D02*
G75*
G02*
X9407300Y-6895400I50000J0D01*
G01*
X15705416Y-9948083D02*
X15705416Y-9168083D01*
X9256500Y-9734400D02*
G75*
G02*
X9306500Y-9784400I0J-50000D01*
G01*
X9357300Y-12019600D02*
G75*
G02*
X9407300Y-11969600I50000J0D01*
G01*
X15705416Y-8761600D02*
G75*
G02*
X15505410Y-8561600I4J200010D01*
G01*
X16775416Y-10248100D02*
G75*
G02*
X16775416Y-10098100I4J75000D01*
G01*
X17225416Y-4408600D02*
X16775416Y-4408600D01*
X16775416Y-7275100D02*
G75*
G02*
X16775416Y-7125100I4J75000D01*
G01*
X11007500Y-11918800D02*
G75*
G02*
X10957500Y-11868800I0J50000D01*
G01*
X9357300Y-6945400D02*
X9357300Y-6946200D01*
X10906700Y-7096500D02*
G75*
G02*
X10856700Y-7146500I-50000J0D01*
G01*
X11358550Y-13405160D02*
X11358550Y-14446560D01*
X12785250Y-7224810D02*
G75*
G02*
X12835250Y-7274810I0J-50000D01*
G01*
X11716850Y-13345860D02*
G75*
G02*
X11666850Y-13295860I0J50000D01*
G01*
X11666850Y-8731020D02*
X11666850Y-8927230D01*
X12943550Y-6174110D02*
G75*
G02*
X12993550Y-6124110I50000J0D01*
G01*
X9256500Y-4660200D02*
X9255700Y-4660200D01*
X15505416Y-8561600D02*
X15505416Y-7581600D01*
X10856700Y-14506700D02*
X9407300Y-14506700D01*
X11007500Y-6844600D02*
X11008300Y-6844600D01*
X11008300Y-7197300D02*
X11007500Y-7197300D01*
X12835250Y-13099650D02*
X12835250Y-13295860D01*
X11716850Y-8977230D02*
G75*
G02*
X11666850Y-8927230I0J50000D01*
G01*
X9255700Y-9734400D02*
X9105700Y-9734400D01*
X9256500Y-7197300D02*
X9255700Y-7197300D01*
X17225416Y-5788600D02*
X16775416Y-5788600D01*
X17225416Y-6975083D02*
G75*
G02*
X17075416Y-7125076I-149996J3D01*
G01*
X17225416Y-10354600D02*
G75*
G02*
X17425410Y-10554600I4J-199990D01*
G01*
X16155416Y-13221100D02*
X15705416Y-13221100D01*
X15505416Y-10048100D02*
X15505416Y-9068100D01*
X10957500Y-7247300D02*
G75*
G02*
X11007500Y-7197300I50000J0D01*
G01*
X11007500Y-14455900D02*
G75*
G02*
X10957500Y-14405900I0J50000D01*
G01*
X16155416Y-5638600D02*
G75*
G02*
X16155416Y-5788600I4J-75000D01*
G01*
X17425416Y-8561600D02*
X17425416Y-7581600D01*
X16775416Y-4558600D02*
X17075416Y-4558600D01*
X16775416Y-10504600D02*
X17075416Y-10504600D01*
X12993550Y-7165510D02*
X13143550Y-7165510D01*
X16155416Y-8611600D02*
X15855416Y-8611600D01*
X12943550Y-7630320D02*
X12943550Y-8571720D01*
X10957500Y-7247300D02*
X10957500Y-9331700D01*
X15705416Y-5788600D02*
G75*
G02*
X15505420Y-5588600I4J200000D01*
G01*
X16775416Y-4558600D02*
G75*
G02*
X16775416Y-4408600I4J75000D01*
G01*
X9407300Y-9683600D02*
G75*
G02*
X9357300Y-9633600I0J50000D01*
G01*
X16775416Y-9018100D02*
G75*
G02*
X16775416Y-8868100I4J75000D01*
G01*
X15505416Y-5588600D02*
X15505416Y-4608600D01*
X9256500Y-12271500D02*
X9255700Y-12271500D01*
X11158300Y-9381700D02*
X11158300Y-7197300D01*
X11358550Y-7580320D02*
X11358550Y-8621720D01*
X15305416Y-6479862D02*
X15305416Y-4608600D01*
X9306500Y-6794600D02*
X9306500Y-4710200D01*
X17225416Y-12141083D02*
X17225416Y-12921083D01*
X11008300Y-12271500D02*
X11007500Y-12271500D01*
X13143550Y-7165510D02*
X13143550Y-6124110D01*
X11007500Y-9381700D02*
G75*
G02*
X10957500Y-9331700I0J50000D01*
G01*
X15505416Y-10554600D02*
G75*
G02*
X15705416Y-10354606I199994J0D01*
G01*
X14015008Y-6679862D02*
X13544600Y-6679862D01*
X17425416Y-11534600D02*
G75*
G02*
X17225416Y-11734606I-200006J0D01*
G01*
X9407300Y-12220700D02*
G75*
G02*
X9357300Y-12170700I0J50000D01*
G01*
X17075416Y-10098083D02*
X16775416Y-10098083D01*
X15505416Y-7581600D02*
G75*
G02*
X15705416Y-7381606I199994J0D01*
G01*
X16775416Y-13477500D02*
G75*
G02*
X16775416Y-13327500I4J75000D01*
G01*
X11508550Y-12990350D02*
X11358550Y-12990350D01*
X16155416Y-5895100D02*
X15705416Y-5895100D01*
X17225416Y-14707500D02*
X16775416Y-14707500D01*
X15505416Y-11534600D02*
X15505416Y-10554600D01*
X17425416Y-8561600D02*
G75*
G02*
X17225416Y-8761606I-200006J0D01*
G01*
X12993550Y-5709300D02*
G75*
G02*
X12943550Y-5659300I0J50000D01*
G01*
X9357300Y-9632800D02*
X9357300Y-9483300D01*
X12785250Y-8681020D02*
G75*
G02*
X12835250Y-8731020I0J-50000D01*
G01*
X15705416Y-5488583D02*
X15705416Y-4708583D01*
X15505416Y-14507500D02*
X15505416Y-13527500D01*
X16775416Y-14707500D02*
G75*
G02*
X16775416Y-14557500I4J75000D01*
G01*
X17225416Y-8868100D02*
G75*
G02*
X17425410Y-9068100I4J-199990D01*
G01*
X17075416Y-9018083D02*
G75*
G02*
X17225417Y-9168083I4J-149997D01*
G01*
X9357300Y-14557500D02*
X9357300Y-14707500D01*
X17075416Y-8611583D02*
X16775416Y-8611583D01*
X11558550Y-5659300D02*
X11558550Y-4717900D01*
X13143550Y-11534140D02*
X13143550Y-10492740D01*
X11666850Y-13099650D02*
X11666850Y-13295860D01*
X11666850Y-4558600D02*
X11666850Y-4408600D01*
X15705416Y-12141083D02*
G75*
G02*
X15855416Y-11991076I150004J3D01*
G01*
X12835250Y-11839650D02*
G75*
G02*
X12785250Y-11889650I-50000J0D01*
G01*
X10856700Y-14506700D02*
G75*
G02*
X10906700Y-14556700I0J-50000D01*
G01*
X17075416Y-11991083D02*
G75*
G02*
X17225417Y-12141083I4J-149997D01*
G01*
X15705416Y-13627483D02*
G75*
G02*
X15855416Y-13477476I150004J3D01*
G01*
X15705416Y-8461583D02*
X15705416Y-7681583D01*
X11008300Y-9734400D02*
X11158300Y-9734400D01*
X17225416Y-4408600D02*
G75*
G02*
X17425420Y-4608600I4J-200000D01*
G01*
X17075416Y-13071083D02*
X16775416Y-13071083D01*
X16155416Y-7275100D02*
X15705416Y-7275100D01*
X17225416Y-14407483D02*
G75*
G02*
X17075416Y-14557476I-149996J3D01*
G01*
X9407300Y-7146500D02*
G75*
G02*
X9357300Y-7096500I0J50000D01*
G01*
X11508550Y-13405160D02*
G75*
G02*
X11558550Y-13455160I0J-50000D01*
G01*
X16775416Y-13221100D02*
G75*
G02*
X16775416Y-13071100I4J75000D01*
G01*
X11666850Y-13099650D02*
G75*
G02*
X11716850Y-13049650I50000J0D01*
G01*
X11666850Y-5818600D02*
X11666850Y-6014810D01*
X12785250Y-11593440D02*
X11716850Y-11593440D01*
X12835250Y-6014810D02*
G75*
G02*
X12785250Y-6064810I-50000J0D01*
G01*
X9255700Y-14455900D02*
X9256500Y-14455900D01*
X17425416Y-5588600D02*
G75*
G02*
X17225416Y-5788596I-199996J0D01*
G01*
X17075416Y-4558583D02*
G75*
G02*
X17225417Y-4708583I4J-149997D01*
G01*
X12943550Y-7630320D02*
G75*
G02*
X12993550Y-7580320I50000J0D01*
G01*
X16155416Y-4408600D02*
G75*
G02*
X16155416Y-4558600I4J-75000D01*
G01*
X9255700Y-9381700D02*
X9256500Y-9381700D01*
X12835250Y-4558600D02*
G75*
G02*
X12785250Y-4608600I-50000J0D01*
G01*
X11008300Y-7197300D02*
X11158300Y-7197300D01*
X13344600Y-4608600D02*
G75*
G02*
X13544600Y-4408600I200000J0D01*
G01*
X15305416Y-6479862D02*
G75*
G02*
X15105416Y-6679856I-199996J2D01*
G01*
X13544600Y-6679862D02*
G75*
G02*
X13344598Y-6479862I0J200002D01*
G01*
X13544600Y-4658600D02*
G75*
G02*
X13644600Y-4558600I100005J-5D01*
G01*
X13544600Y-6429862D02*
X13544600Y-4658600D01*
X15005416Y-4558600D02*
G75*
G02*
X15105420Y-4658600I2J-100002D01*
G01*
X15105416Y-4658600D02*
X15105416Y-6429862D01*
X15105416Y-6429862D02*
G75*
G02*
X15005416Y-6529860I-99998J0D01*
G01*
X13644600Y-6529862D02*
G75*
G02*
X13544600Y-6429862I-3J99997D01*
G01*
X14015008Y-4408600D02*
G75*
G02*
X14015008Y-4558600I2J-75000D01*
G01*
X15105416Y-4408600D02*
G75*
G02*
X15305420Y-4608600I4J-200000D01*
G01*
D11*
D12*
X8655700Y-4607260D02*
X8715700Y-4667260D01*
X8715700Y-4607260D02*
X8655700Y-4667260D01*
X8655700Y-14449340D02*
X8715700Y-14509340D01*
X8715700Y-14449340D02*
X8655700Y-14509340D01*
X8745700Y-4607260D02*
X8805700Y-4667260D01*
X8805700Y-4607260D02*
X8745700Y-4667260D01*
X8745700Y-14449340D02*
X8805700Y-14509340D01*
X8805700Y-14449340D02*
X8745700Y-14509340D01*
X8835700Y-4607260D02*
X8895700Y-4667260D01*
X8895700Y-4607260D02*
X8835700Y-4667260D01*
X8835700Y-14449340D02*
X8895700Y-14509340D01*
X8895700Y-14449340D02*
X8835700Y-14509340D01*
X8925700Y-4607260D02*
X8985700Y-4667260D01*
X8985700Y-4607260D02*
X8925700Y-4667260D01*
X8925700Y-14449340D02*
X8985700Y-14509340D01*
X8985700Y-14449340D02*
X8925700Y-14509340D01*
X9015700Y-4607260D02*
X9075700Y-4667260D01*
X9075700Y-4607260D02*
X9015700Y-4667260D01*
X9015700Y-14449340D02*
X9075700Y-14509340D01*
X9075700Y-14449340D02*
X9015700Y-14509340D01*
X9096913Y-4400313D02*
X9156913Y-4460313D01*
X9156913Y-4400313D02*
X9096913Y-4460313D01*
X9096913Y-6937413D02*
X9156913Y-6997413D01*
X9156913Y-6937413D02*
X9096913Y-6997413D01*
X9096913Y-9474513D02*
X9156913Y-9534513D01*
X9156913Y-9474513D02*
X9096913Y-9534513D01*
X9096913Y-12011613D02*
X9156913Y-12071613D01*
X9156913Y-12011613D02*
X9096913Y-12071613D01*
X9096913Y-14548713D02*
X9156913Y-14608713D01*
X9156913Y-14548713D02*
X9096913Y-14608713D01*
X9096968Y-4507887D02*
X9156968Y-4567887D01*
X9156968Y-4507887D02*
X9096968Y-4567887D01*
X9096968Y-7044987D02*
X9156968Y-7104987D01*
X9156968Y-7044987D02*
X9096968Y-7104987D01*
X9096968Y-9582087D02*
X9156968Y-9642087D01*
X9156968Y-9582087D02*
X9096968Y-9642087D01*
X9096968Y-12119187D02*
X9156968Y-12179187D01*
X9156968Y-12119187D02*
X9096968Y-12179187D01*
X9096968Y-14656287D02*
X9156968Y-14716287D01*
X9156968Y-14656287D02*
X9096968Y-14716287D01*
X9105700Y-4607260D02*
X9165700Y-4667260D01*
X9165700Y-4607260D02*
X9105700Y-4667260D01*
X9105700Y-6838040D02*
X9165700Y-6898040D01*
X9165700Y-6838040D02*
X9105700Y-6898040D01*
X9105700Y-7144360D02*
X9165700Y-7204360D01*
X9165700Y-7144360D02*
X9105700Y-7204360D01*
X9105700Y-9375140D02*
X9165700Y-9435140D01*
X9165700Y-9375140D02*
X9105700Y-9435140D01*
X9105700Y-9681460D02*
X9165700Y-9741460D01*
X9165700Y-9681460D02*
X9105700Y-9741460D01*
X9105700Y-11912240D02*
X9165700Y-11972240D01*
X9165700Y-11912240D02*
X9105700Y-11972240D01*
X9105700Y-12218560D02*
X9165700Y-12278560D01*
X9165700Y-12218560D02*
X9105700Y-12278560D01*
X9105700Y-14449340D02*
X9165700Y-14509340D01*
X9165700Y-14449340D02*
X9105700Y-14509340D01*
X9195700Y-4607260D02*
X9255700Y-4667260D01*
X9255700Y-4607260D02*
X9195700Y-4667260D01*
X9195700Y-6838040D02*
X9255700Y-6898040D01*
X9255700Y-6838040D02*
X9195700Y-6898040D01*
X9195700Y-7144360D02*
X9255700Y-7204360D01*
X9255700Y-7144360D02*
X9195700Y-7204360D01*
X9195700Y-9375140D02*
X9255700Y-9435140D01*
X9255700Y-9375140D02*
X9195700Y-9435140D01*
X9195700Y-9681460D02*
X9255700Y-9741460D01*
X9255700Y-9681460D02*
X9195700Y-9741460D01*
X9195700Y-11912240D02*
X9255700Y-11972240D01*
X9255700Y-11912240D02*
X9195700Y-11972240D01*
X9195700Y-12218560D02*
X9255700Y-12278560D01*
X9255700Y-12218560D02*
X9195700Y-12278560D01*
X9195700Y-14449340D02*
X9255700Y-14509340D01*
X9255700Y-14449340D02*
X9195700Y-14509340D01*
X9204432Y-4400313D02*
X9264432Y-4460313D01*
X9264432Y-4400313D02*
X9204432Y-4460313D01*
X9204432Y-6937413D02*
X9264432Y-6997413D01*
X9264432Y-6937413D02*
X9204432Y-6997413D01*
X9204432Y-9474513D02*
X9264432Y-9534513D01*
X9264432Y-9474513D02*
X9204432Y-9534513D01*
X9204432Y-12011613D02*
X9264432Y-12071613D01*
X9264432Y-12011613D02*
X9204432Y-12071613D01*
X9204432Y-14548713D02*
X9264432Y-14608713D01*
X9264432Y-14548713D02*
X9204432Y-14608713D01*
X9204487Y-4507887D02*
X9264487Y-4567887D01*
X9264487Y-4507887D02*
X9204487Y-4567887D01*
X9204487Y-7044987D02*
X9264487Y-7104987D01*
X9264487Y-7044987D02*
X9204487Y-7104987D01*
X9204487Y-9582087D02*
X9264487Y-9642087D01*
X9264487Y-9582087D02*
X9204487Y-9642087D01*
X9204487Y-12119187D02*
X9264487Y-12179187D01*
X9264487Y-12119187D02*
X9204487Y-12179187D01*
X9204487Y-14656287D02*
X9264487Y-14716287D01*
X9264487Y-14656287D02*
X9204487Y-14716287D01*
X9304432Y-3958700D02*
X9364432Y-4018700D01*
X9364432Y-3958700D02*
X9304432Y-4018700D01*
X9304432Y-4048700D02*
X9364432Y-4108700D01*
X9364432Y-4048700D02*
X9304432Y-4108700D01*
X9304432Y-4138700D02*
X9364432Y-4198700D01*
X9364432Y-4138700D02*
X9304432Y-4198700D01*
X9304432Y-4228700D02*
X9364432Y-4288700D01*
X9364432Y-4228700D02*
X9304432Y-4288700D01*
X9304432Y-4318700D02*
X9364432Y-4378700D01*
X9364432Y-4318700D02*
X9304432Y-4378700D01*
X9304432Y-4408700D02*
X9364432Y-4468700D01*
X9364432Y-4408700D02*
X9304432Y-4468700D01*
X9304432Y-6945800D02*
X9364432Y-7005800D01*
X9364432Y-6945800D02*
X9304432Y-7005800D01*
X9304432Y-9482900D02*
X9364432Y-9542900D01*
X9364432Y-9482900D02*
X9304432Y-9542900D01*
X9304432Y-12020000D02*
X9364432Y-12080000D01*
X9364432Y-12020000D02*
X9304432Y-12080000D01*
X9304432Y-14557100D02*
X9364432Y-14617100D01*
X9364432Y-14557100D02*
X9304432Y-14617100D01*
X9304900Y-4499100D02*
X9364900Y-4559100D01*
X9364900Y-4499100D02*
X9304900Y-4559100D01*
X9304900Y-7036200D02*
X9364900Y-7096200D01*
X9364900Y-7036200D02*
X9304900Y-7096200D01*
X9304900Y-9573300D02*
X9364900Y-9633300D01*
X9364900Y-9573300D02*
X9304900Y-9633300D01*
X9304900Y-12110400D02*
X9364900Y-12170400D01*
X9364900Y-12110400D02*
X9304900Y-12170400D01*
X9304900Y-14647500D02*
X9364900Y-14707500D01*
X9364900Y-14647500D02*
X9304900Y-14707500D01*
X9304900Y-14737500D02*
X9364900Y-14797500D01*
X9364900Y-14737500D02*
X9304900Y-14797500D01*
X9304900Y-14827500D02*
X9364900Y-14887500D01*
X9364900Y-14827500D02*
X9304900Y-14887500D01*
X9304900Y-14917500D02*
X9364900Y-14977500D01*
X9364900Y-14917500D02*
X9304900Y-14977500D01*
X9304900Y-15007500D02*
X9364900Y-15067500D01*
X9364900Y-15007500D02*
X9304900Y-15067500D01*
X9304900Y-15097500D02*
X9364900Y-15157500D01*
X9364900Y-15097500D02*
X9304900Y-15157500D01*
X10899100Y-4409100D02*
X10959100Y-4469100D01*
X10959100Y-4409100D02*
X10899100Y-4469100D01*
X10899100Y-6946200D02*
X10959100Y-7006200D01*
X10959100Y-6946200D02*
X10899100Y-7006200D01*
X10899100Y-9483300D02*
X10959100Y-9543300D01*
X10959100Y-9483300D02*
X10899100Y-9543300D01*
X10899100Y-12020400D02*
X10959100Y-12080400D01*
X10959100Y-12020400D02*
X10899100Y-12080400D01*
X10899100Y-14557500D02*
X10959100Y-14617500D01*
X10959100Y-14557500D02*
X10899100Y-14617500D01*
X10899568Y-4499500D02*
X10959568Y-4559500D01*
X10959568Y-4499500D02*
X10899568Y-4559500D01*
X10899568Y-7036600D02*
X10959568Y-7096600D01*
X10959568Y-7036600D02*
X10899568Y-7096600D01*
X10899568Y-9573700D02*
X10959568Y-9633700D01*
X10959568Y-9573700D02*
X10899568Y-9633700D01*
X10899568Y-12110800D02*
X10959568Y-12170800D01*
X10959568Y-12110800D02*
X10899568Y-12170800D01*
X10899568Y-14647900D02*
X10959568Y-14707900D01*
X10959568Y-14647900D02*
X10899568Y-14707900D01*
X10999513Y-4400313D02*
X11059513Y-4460313D01*
X11059513Y-4400313D02*
X10999513Y-4460313D01*
X10999513Y-6937413D02*
X11059513Y-6997413D01*
X11059513Y-6937413D02*
X10999513Y-6997413D01*
X10999513Y-9474513D02*
X11059513Y-9534513D01*
X11059513Y-9474513D02*
X10999513Y-9534513D01*
X10999513Y-12011613D02*
X11059513Y-12071613D01*
X11059513Y-12011613D02*
X10999513Y-12071613D01*
X10999513Y-14548713D02*
X11059513Y-14608713D01*
X11059513Y-14548713D02*
X10999513Y-14608713D01*
X10999568Y-4507887D02*
X11059568Y-4567887D01*
X11059568Y-4507887D02*
X10999568Y-4567887D01*
X10999568Y-7044987D02*
X11059568Y-7104987D01*
X11059568Y-7044987D02*
X10999568Y-7104987D01*
X10999568Y-9582087D02*
X11059568Y-9642087D01*
X11059568Y-9582087D02*
X10999568Y-9642087D01*
X10999568Y-12119187D02*
X11059568Y-12179187D01*
X11059568Y-12119187D02*
X10999568Y-12179187D01*
X10999568Y-14656287D02*
X11059568Y-14716287D01*
X11059568Y-14656287D02*
X10999568Y-14716287D01*
X11008300Y-4607260D02*
X11068300Y-4667260D01*
X11068300Y-4607260D02*
X11008300Y-4667260D01*
X11008300Y-6838040D02*
X11068300Y-6898040D01*
X11068300Y-6838040D02*
X11008300Y-6898040D01*
X11008300Y-7144360D02*
X11068300Y-7204360D01*
X11068300Y-7144360D02*
X11008300Y-7204360D01*
X11008300Y-9375140D02*
X11068300Y-9435140D01*
X11068300Y-9375140D02*
X11008300Y-9435140D01*
X11008300Y-9681460D02*
X11068300Y-9741460D01*
X11068300Y-9681460D02*
X11008300Y-9741460D01*
X11008300Y-11912240D02*
X11068300Y-11972240D01*
X11068300Y-11912240D02*
X11008300Y-11972240D01*
X11008300Y-12218560D02*
X11068300Y-12278560D01*
X11068300Y-12218560D02*
X11008300Y-12278560D01*
X11008300Y-14449340D02*
X11068300Y-14509340D01*
X11068300Y-14449340D02*
X11008300Y-14509340D01*
X11098300Y-4607260D02*
X11158300Y-4667260D01*
X11158300Y-4607260D02*
X11098300Y-4667260D01*
X11098300Y-6838040D02*
X11158300Y-6898040D01*
X11158300Y-6838040D02*
X11098300Y-6898040D01*
X11098300Y-7144360D02*
X11158300Y-7204360D01*
X11158300Y-7144360D02*
X11098300Y-7204360D01*
X11098300Y-9375140D02*
X11158300Y-9435140D01*
X11158300Y-9375140D02*
X11098300Y-9435140D01*
X11098300Y-9681460D02*
X11158300Y-9741460D01*
X11158300Y-9681460D02*
X11098300Y-9741460D01*
X11098300Y-11912240D02*
X11158300Y-11972240D01*
X11158300Y-11912240D02*
X11098300Y-11972240D01*
X11098300Y-12218560D02*
X11158300Y-12278560D01*
X11158300Y-12218560D02*
X11098300Y-12278560D01*
X11098300Y-14449340D02*
X11158300Y-14509340D01*
X11158300Y-14449340D02*
X11098300Y-14509340D01*
X11107032Y-4400313D02*
X11167032Y-4460313D01*
X11167032Y-4400313D02*
X11107032Y-4460313D01*
X11107032Y-6937413D02*
X11167032Y-6997413D01*
X11167032Y-6937413D02*
X11107032Y-6997413D01*
X11107032Y-9474513D02*
X11167032Y-9534513D01*
X11167032Y-9474513D02*
X11107032Y-9534513D01*
X11107032Y-12011613D02*
X11167032Y-12071613D01*
X11167032Y-12011613D02*
X11107032Y-12071613D01*
X11107032Y-14548713D02*
X11167032Y-14608713D01*
X11167032Y-14548713D02*
X11107032Y-14608713D01*
X11107087Y-4507887D02*
X11167087Y-4567887D01*
X11167087Y-4507887D02*
X11107087Y-4567887D01*
X11107087Y-7044987D02*
X11167087Y-7104987D01*
X11167087Y-7044987D02*
X11107087Y-7104987D01*
X11107087Y-9582087D02*
X11167087Y-9642087D01*
X11167087Y-9582087D02*
X11107087Y-9642087D01*
X11107087Y-12119187D02*
X11167087Y-12179187D01*
X11167087Y-12119187D02*
X11107087Y-12179187D01*
X11107087Y-14656287D02*
X11167087Y-14716287D01*
X11167087Y-14656287D02*
X11107087Y-14716287D01*
X11349763Y-4399813D02*
X11409763Y-4459813D01*
X11409763Y-4399813D02*
X11349763Y-4459813D01*
X11349763Y-4507387D02*
X11409763Y-4567387D01*
X11409763Y-4507387D02*
X11349763Y-4567387D01*
X11349763Y-5809813D02*
X11409763Y-5869813D01*
X11409763Y-5809813D02*
X11349763Y-5869813D01*
X11349763Y-5963597D02*
X11409763Y-6023597D01*
X11409763Y-5963597D02*
X11349763Y-6023597D01*
X11349763Y-7266023D02*
X11409763Y-7326023D01*
X11409763Y-7266023D02*
X11349763Y-7326023D01*
X11349763Y-7419807D02*
X11409763Y-7479807D01*
X11409763Y-7419807D02*
X11349763Y-7479807D01*
X11349763Y-8722233D02*
X11409763Y-8782233D01*
X11409763Y-8722233D02*
X11349763Y-8782233D01*
X11349763Y-8876017D02*
X11409763Y-8936017D01*
X11409763Y-8876017D02*
X11349763Y-8936017D01*
X11349763Y-10178443D02*
X11409763Y-10238443D01*
X11409763Y-10178443D02*
X11349763Y-10238443D01*
X11349763Y-10332227D02*
X11409763Y-10392227D01*
X11409763Y-10332227D02*
X11349763Y-10392227D01*
X11349763Y-11634653D02*
X11409763Y-11694653D01*
X11409763Y-11634653D02*
X11349763Y-11694653D01*
X11349763Y-11788437D02*
X11409763Y-11848437D01*
X11409763Y-11788437D02*
X11349763Y-11848437D01*
X11349763Y-13090863D02*
X11409763Y-13150863D01*
X11409763Y-13090863D02*
X11349763Y-13150863D01*
X11349763Y-13244647D02*
X11409763Y-13304647D01*
X11409763Y-13244647D02*
X11349763Y-13304647D01*
X11349763Y-14547073D02*
X11409763Y-14607073D01*
X11409763Y-14547073D02*
X11349763Y-14607073D01*
X11349763Y-14654647D02*
X11409763Y-14714647D01*
X11409763Y-14654647D02*
X11349763Y-14714647D01*
X11358550Y-4614300D02*
X11418550Y-4674300D01*
X11418550Y-4614300D02*
X11358550Y-4674300D01*
X11358550Y-5702900D02*
X11418550Y-5762900D01*
X11418550Y-5702900D02*
X11358550Y-5762900D01*
X11358550Y-6070510D02*
X11418550Y-6130510D01*
X11418550Y-6070510D02*
X11358550Y-6130510D01*
X11358550Y-7159110D02*
X11418550Y-7219110D01*
X11418550Y-7159110D02*
X11358550Y-7219110D01*
X11358550Y-7526720D02*
X11418550Y-7586720D01*
X11418550Y-7526720D02*
X11358550Y-7586720D01*
X11358550Y-8615320D02*
X11418550Y-8675320D01*
X11418550Y-8615320D02*
X11358550Y-8675320D01*
X11358550Y-8982930D02*
X11418550Y-9042930D01*
X11418550Y-8982930D02*
X11358550Y-9042930D01*
X11358550Y-10071530D02*
X11418550Y-10131530D01*
X11418550Y-10071530D02*
X11358550Y-10131530D01*
X11358550Y-10439140D02*
X11418550Y-10499140D01*
X11418550Y-10439140D02*
X11358550Y-10499140D01*
X11358550Y-11527740D02*
X11418550Y-11587740D01*
X11418550Y-11527740D02*
X11358550Y-11587740D01*
X11358550Y-11895350D02*
X11418550Y-11955350D01*
X11418550Y-11895350D02*
X11358550Y-11955350D01*
X11358550Y-12983950D02*
X11418550Y-13043950D01*
X11418550Y-12983950D02*
X11358550Y-13043950D01*
X11358550Y-13351560D02*
X11418550Y-13411560D01*
X11418550Y-13351560D02*
X11358550Y-13411560D01*
X11358550Y-14440160D02*
X11418550Y-14500160D01*
X11418550Y-14440160D02*
X11358550Y-14500160D01*
X11448550Y-4614300D02*
X11508550Y-4674300D01*
X11508550Y-4614300D02*
X11448550Y-4674300D01*
X11448550Y-5702900D02*
X11508550Y-5762900D01*
X11508550Y-5702900D02*
X11448550Y-5762900D01*
X11448550Y-6070510D02*
X11508550Y-6130510D01*
X11508550Y-6070510D02*
X11448550Y-6130510D01*
X11448550Y-7159110D02*
X11508550Y-7219110D01*
X11508550Y-7159110D02*
X11448550Y-7219110D01*
X11448550Y-7526720D02*
X11508550Y-7586720D01*
X11508550Y-7526720D02*
X11448550Y-7586720D01*
X11448550Y-8615320D02*
X11508550Y-8675320D01*
X11508550Y-8615320D02*
X11448550Y-8675320D01*
X11448550Y-8982930D02*
X11508550Y-9042930D01*
X11508550Y-8982930D02*
X11448550Y-9042930D01*
X11448550Y-10071530D02*
X11508550Y-10131530D01*
X11508550Y-10071530D02*
X11448550Y-10131530D01*
X11448550Y-10439140D02*
X11508550Y-10499140D01*
X11508550Y-10439140D02*
X11448550Y-10499140D01*
X11448550Y-11527740D02*
X11508550Y-11587740D01*
X11508550Y-11527740D02*
X11448550Y-11587740D01*
X11448550Y-11895350D02*
X11508550Y-11955350D01*
X11508550Y-11895350D02*
X11448550Y-11955350D01*
X11448550Y-12983950D02*
X11508550Y-13043950D01*
X11508550Y-12983950D02*
X11448550Y-13043950D01*
X11448550Y-13351560D02*
X11508550Y-13411560D01*
X11508550Y-13351560D02*
X11448550Y-13411560D01*
X11448550Y-14440160D02*
X11508550Y-14500160D01*
X11508550Y-14440160D02*
X11448550Y-14500160D01*
X11457337Y-4399813D02*
X11517337Y-4459813D01*
X11517337Y-4399813D02*
X11457337Y-4459813D01*
X11457337Y-4507387D02*
X11517337Y-4567387D01*
X11517337Y-4507387D02*
X11457337Y-4567387D01*
X11457337Y-5809813D02*
X11517337Y-5869813D01*
X11517337Y-5809813D02*
X11457337Y-5869813D01*
X11457337Y-5963597D02*
X11517337Y-6023597D01*
X11517337Y-5963597D02*
X11457337Y-6023597D01*
X11457337Y-7266023D02*
X11517337Y-7326023D01*
X11517337Y-7266023D02*
X11457337Y-7326023D01*
X11457337Y-7419807D02*
X11517337Y-7479807D01*
X11517337Y-7419807D02*
X11457337Y-7479807D01*
X11457337Y-8722233D02*
X11517337Y-8782233D01*
X11517337Y-8722233D02*
X11457337Y-8782233D01*
X11457337Y-8876017D02*
X11517337Y-8936017D01*
X11517337Y-8876017D02*
X11457337Y-8936017D01*
X11457337Y-10178443D02*
X11517337Y-10238443D01*
X11517337Y-10178443D02*
X11457337Y-10238443D01*
X11457337Y-10332227D02*
X11517337Y-10392227D01*
X11517337Y-10332227D02*
X11457337Y-10392227D01*
X11457337Y-11634653D02*
X11517337Y-11694653D01*
X11517337Y-11634653D02*
X11457337Y-11694653D01*
X11457337Y-11788437D02*
X11517337Y-11848437D01*
X11517337Y-11788437D02*
X11457337Y-11848437D01*
X11457337Y-13090863D02*
X11517337Y-13150863D01*
X11517337Y-13090863D02*
X11457337Y-13150863D01*
X11457337Y-13244647D02*
X11517337Y-13304647D01*
X11517337Y-13244647D02*
X11457337Y-13304647D01*
X11457337Y-14547073D02*
X11517337Y-14607073D01*
X11517337Y-14547073D02*
X11457337Y-14607073D01*
X11457337Y-14654647D02*
X11517337Y-14714647D01*
X11517337Y-14654647D02*
X11457337Y-14714647D01*
X11547337Y-4408600D02*
X11607337Y-4468600D01*
X11607337Y-4408600D02*
X11547337Y-4468600D01*
X11547337Y-4498600D02*
X11607337Y-4558600D01*
X11607337Y-4498600D02*
X11547337Y-4558600D01*
X11547337Y-5818600D02*
X11607337Y-5878600D01*
X11607337Y-5818600D02*
X11547337Y-5878600D01*
X11547337Y-5954810D02*
X11607337Y-6014810D01*
X11607337Y-5954810D02*
X11547337Y-6014810D01*
X11547337Y-7274810D02*
X11607337Y-7334810D01*
X11607337Y-7274810D02*
X11547337Y-7334810D01*
X11547337Y-7411020D02*
X11607337Y-7471020D01*
X11607337Y-7411020D02*
X11547337Y-7471020D01*
X11547337Y-8731020D02*
X11607337Y-8791020D01*
X11607337Y-8731020D02*
X11547337Y-8791020D01*
X11547337Y-8867230D02*
X11607337Y-8927230D01*
X11607337Y-8867230D02*
X11547337Y-8927230D01*
X11547337Y-10187230D02*
X11607337Y-10247230D01*
X11607337Y-10187230D02*
X11547337Y-10247230D01*
X11547337Y-10323440D02*
X11607337Y-10383440D01*
X11607337Y-10323440D02*
X11547337Y-10383440D01*
X11547337Y-11643440D02*
X11607337Y-11703440D01*
X11607337Y-11643440D02*
X11547337Y-11703440D01*
X11547337Y-11779650D02*
X11607337Y-11839650D01*
X11607337Y-11779650D02*
X11547337Y-11839650D01*
X11547337Y-13099650D02*
X11607337Y-13159650D01*
X11607337Y-13099650D02*
X11547337Y-13159650D01*
X11547337Y-13235860D02*
X11607337Y-13295860D01*
X11607337Y-13235860D02*
X11547337Y-13295860D01*
X11547337Y-14555860D02*
X11607337Y-14615860D01*
X11607337Y-14555860D02*
X11547337Y-14615860D01*
X11547337Y-14645860D02*
X11607337Y-14705860D01*
X11607337Y-14645860D02*
X11547337Y-14705860D01*
X11637337Y-4408600D02*
X11697337Y-4468600D01*
X11697337Y-4408600D02*
X11637337Y-4468600D01*
X11637337Y-4498600D02*
X11697337Y-4558600D01*
X11697337Y-4498600D02*
X11637337Y-4558600D01*
X11637337Y-5818600D02*
X11697337Y-5878600D01*
X11697337Y-5818600D02*
X11637337Y-5878600D01*
X11637337Y-5954810D02*
X11697337Y-6014810D01*
X11697337Y-5954810D02*
X11637337Y-6014810D01*
X11637337Y-7274810D02*
X11697337Y-7334810D01*
X11697337Y-7274810D02*
X11637337Y-7334810D01*
X11637337Y-7411020D02*
X11697337Y-7471020D01*
X11697337Y-7411020D02*
X11637337Y-7471020D01*
X11637337Y-8731020D02*
X11697337Y-8791020D01*
X11697337Y-8731020D02*
X11637337Y-8791020D01*
X11637337Y-8867230D02*
X11697337Y-8927230D01*
X11697337Y-8867230D02*
X11637337Y-8927230D01*
X11637337Y-10187230D02*
X11697337Y-10247230D01*
X11697337Y-10187230D02*
X11637337Y-10247230D01*
X11637337Y-10323440D02*
X11697337Y-10383440D01*
X11697337Y-10323440D02*
X11637337Y-10383440D01*
X11637337Y-11643440D02*
X11697337Y-11703440D01*
X11697337Y-11643440D02*
X11637337Y-11703440D01*
X11637337Y-11779650D02*
X11697337Y-11839650D01*
X11697337Y-11779650D02*
X11637337Y-11839650D01*
X11637337Y-13099650D02*
X11697337Y-13159650D01*
X11697337Y-13099650D02*
X11637337Y-13159650D01*
X11637337Y-13235860D02*
X11697337Y-13295860D01*
X11697337Y-13235860D02*
X11637337Y-13295860D01*
X11637337Y-14555860D02*
X11697337Y-14615860D01*
X11697337Y-14555860D02*
X11637337Y-14615860D01*
X11637337Y-14645860D02*
X11697337Y-14705860D01*
X11697337Y-14645860D02*
X11637337Y-14705860D01*
X12804763Y-4408600D02*
X12864763Y-4468600D01*
X12864763Y-4408600D02*
X12804763Y-4468600D01*
X12804763Y-4498600D02*
X12864763Y-4558600D01*
X12864763Y-4498600D02*
X12804763Y-4558600D01*
X12804763Y-5817955D02*
X12864763Y-5877955D01*
X12864763Y-5817955D02*
X12804763Y-5877955D01*
X12804763Y-5954810D02*
X12864763Y-6014810D01*
X12864763Y-5954810D02*
X12804763Y-6014810D01*
X12804763Y-7274165D02*
X12864763Y-7334165D01*
X12864763Y-7274165D02*
X12804763Y-7334165D01*
X12804763Y-7411020D02*
X12864763Y-7471020D01*
X12864763Y-7411020D02*
X12804763Y-7471020D01*
X12804763Y-8730375D02*
X12864763Y-8790375D01*
X12864763Y-8730375D02*
X12804763Y-8790375D01*
X12804763Y-8867230D02*
X12864763Y-8927230D01*
X12864763Y-8867230D02*
X12804763Y-8927230D01*
X12804763Y-10187230D02*
X12864763Y-10247230D01*
X12864763Y-10187230D02*
X12804763Y-10247230D01*
X12804763Y-10324085D02*
X12864763Y-10384085D01*
X12864763Y-10324085D02*
X12804763Y-10384085D01*
X12804763Y-11643440D02*
X12864763Y-11703440D01*
X12864763Y-11643440D02*
X12804763Y-11703440D01*
X12804763Y-11780295D02*
X12864763Y-11840295D01*
X12864763Y-11780295D02*
X12804763Y-11840295D01*
X12804763Y-13099650D02*
X12864763Y-13159650D01*
X12864763Y-13099650D02*
X12804763Y-13159650D01*
X12804763Y-13236505D02*
X12864763Y-13296505D01*
X12864763Y-13236505D02*
X12804763Y-13296505D01*
X12804763Y-14555860D02*
X12864763Y-14615860D01*
X12864763Y-14555860D02*
X12804763Y-14615860D01*
X12804763Y-14645860D02*
X12864763Y-14705860D01*
X12864763Y-14645860D02*
X12804763Y-14705860D01*
X12894763Y-4408600D02*
X12954763Y-4468600D01*
X12954763Y-4408600D02*
X12894763Y-4468600D01*
X12894763Y-4498600D02*
X12954763Y-4558600D01*
X12954763Y-4498600D02*
X12894763Y-4558600D01*
X12894763Y-5817955D02*
X12954763Y-5877955D01*
X12954763Y-5817955D02*
X12894763Y-5877955D01*
X12894763Y-5954810D02*
X12954763Y-6014810D01*
X12954763Y-5954810D02*
X12894763Y-6014810D01*
X12894763Y-7274165D02*
X12954763Y-7334165D01*
X12954763Y-7274165D02*
X12894763Y-7334165D01*
X12894763Y-7411020D02*
X12954763Y-7471020D01*
X12954763Y-7411020D02*
X12894763Y-7471020D01*
X12894763Y-8730375D02*
X12954763Y-8790375D01*
X12954763Y-8730375D02*
X12894763Y-8790375D01*
X12894763Y-8867230D02*
X12954763Y-8927230D01*
X12954763Y-8867230D02*
X12894763Y-8927230D01*
X12894763Y-10187230D02*
X12954763Y-10247230D01*
X12954763Y-10187230D02*
X12894763Y-10247230D01*
X12894763Y-10324085D02*
X12954763Y-10384085D01*
X12954763Y-10324085D02*
X12894763Y-10384085D01*
X12894763Y-11643440D02*
X12954763Y-11703440D01*
X12954763Y-11643440D02*
X12894763Y-11703440D01*
X12894763Y-11780295D02*
X12954763Y-11840295D01*
X12954763Y-11780295D02*
X12894763Y-11840295D01*
X12894763Y-13099650D02*
X12954763Y-13159650D01*
X12954763Y-13099650D02*
X12894763Y-13159650D01*
X12894763Y-13236505D02*
X12954763Y-13296505D01*
X12954763Y-13236505D02*
X12894763Y-13296505D01*
X12894763Y-14555860D02*
X12954763Y-14615860D01*
X12954763Y-14555860D02*
X12894763Y-14615860D01*
X12894763Y-14645860D02*
X12954763Y-14705860D01*
X12954763Y-14645860D02*
X12894763Y-14705860D01*
X12984763Y-4399813D02*
X13044763Y-4459813D01*
X13044763Y-4399813D02*
X12984763Y-4459813D01*
X12984763Y-4507387D02*
X13044763Y-4567387D01*
X13044763Y-4507387D02*
X12984763Y-4567387D01*
X12984763Y-5809168D02*
X13044763Y-5869168D01*
X13044763Y-5809168D02*
X12984763Y-5869168D01*
X12984763Y-5963597D02*
X13044763Y-6023597D01*
X13044763Y-5963597D02*
X12984763Y-6023597D01*
X12984763Y-7265378D02*
X13044763Y-7325378D01*
X13044763Y-7265378D02*
X12984763Y-7325378D01*
X12984763Y-7419807D02*
X13044763Y-7479807D01*
X13044763Y-7419807D02*
X12984763Y-7479807D01*
X12984763Y-8721588D02*
X13044763Y-8781588D01*
X13044763Y-8721588D02*
X12984763Y-8781588D01*
X12984763Y-8876017D02*
X13044763Y-8936017D01*
X13044763Y-8876017D02*
X12984763Y-8936017D01*
X12984763Y-10178443D02*
X13044763Y-10238443D01*
X13044763Y-10178443D02*
X12984763Y-10238443D01*
X12984763Y-10332872D02*
X13044763Y-10392872D01*
X13044763Y-10332872D02*
X12984763Y-10392872D01*
X12984763Y-11634653D02*
X13044763Y-11694653D01*
X13044763Y-11634653D02*
X12984763Y-11694653D01*
X12984763Y-11789082D02*
X13044763Y-11849082D01*
X13044763Y-11789082D02*
X12984763Y-11849082D01*
X12984763Y-13090863D02*
X13044763Y-13150863D01*
X13044763Y-13090863D02*
X12984763Y-13150863D01*
X12984763Y-13245292D02*
X13044763Y-13305292D01*
X13044763Y-13245292D02*
X12984763Y-13305292D01*
X12984763Y-14547073D02*
X13044763Y-14607073D01*
X13044763Y-14547073D02*
X12984763Y-14607073D01*
X12984763Y-14654647D02*
X13044763Y-14714647D01*
X13044763Y-14654647D02*
X12984763Y-14714647D01*
X12993550Y-4614300D02*
X13053550Y-4674300D01*
X13053550Y-4614300D02*
X12993550Y-4674300D01*
X12993550Y-5702255D02*
X13053550Y-5762255D01*
X13053550Y-5702255D02*
X12993550Y-5762255D01*
X12993550Y-6070510D02*
X13053550Y-6130510D01*
X13053550Y-6070510D02*
X12993550Y-6130510D01*
X12993550Y-7158465D02*
X13053550Y-7218465D01*
X13053550Y-7158465D02*
X12993550Y-7218465D01*
X12993550Y-7526720D02*
X13053550Y-7586720D01*
X13053550Y-7526720D02*
X12993550Y-7586720D01*
X12993550Y-8614675D02*
X13053550Y-8674675D01*
X13053550Y-8614675D02*
X12993550Y-8674675D01*
X12993550Y-8982930D02*
X13053550Y-9042930D01*
X13053550Y-8982930D02*
X12993550Y-9042930D01*
X12993550Y-10071530D02*
X13053550Y-10131530D01*
X13053550Y-10071530D02*
X12993550Y-10131530D01*
X12993550Y-10439785D02*
X13053550Y-10499785D01*
X13053550Y-10439785D02*
X12993550Y-10499785D01*
X12993550Y-11527740D02*
X13053550Y-11587740D01*
X13053550Y-11527740D02*
X12993550Y-11587740D01*
X12993550Y-11895995D02*
X13053550Y-11955995D01*
X13053550Y-11895995D02*
X12993550Y-11955995D01*
X12993550Y-12983950D02*
X13053550Y-13043950D01*
X13053550Y-12983950D02*
X12993550Y-13043950D01*
X12993550Y-13352205D02*
X13053550Y-13412205D01*
X13053550Y-13352205D02*
X12993550Y-13412205D01*
X12993550Y-14440160D02*
X13053550Y-14500160D01*
X13053550Y-14440160D02*
X12993550Y-14500160D01*
X13083550Y-4614300D02*
X13143550Y-4674300D01*
X13143550Y-4614300D02*
X13083550Y-4674300D01*
X13083550Y-5702255D02*
X13143550Y-5762255D01*
X13143550Y-5702255D02*
X13083550Y-5762255D01*
X13083550Y-6070510D02*
X13143550Y-6130510D01*
X13143550Y-6070510D02*
X13083550Y-6130510D01*
X13083550Y-7158465D02*
X13143550Y-7218465D01*
X13143550Y-7158465D02*
X13083550Y-7218465D01*
X13083550Y-7526720D02*
X13143550Y-7586720D01*
X13143550Y-7526720D02*
X13083550Y-7586720D01*
X13083550Y-8614675D02*
X13143550Y-8674675D01*
X13143550Y-8614675D02*
X13083550Y-8674675D01*
X13083550Y-8982930D02*
X13143550Y-9042930D01*
X13143550Y-8982930D02*
X13083550Y-9042930D01*
X13083550Y-10071530D02*
X13143550Y-10131530D01*
X13143550Y-10071530D02*
X13083550Y-10131530D01*
X13083550Y-10439785D02*
X13143550Y-10499785D01*
X13143550Y-10439785D02*
X13083550Y-10499785D01*
X13083550Y-11527740D02*
X13143550Y-11587740D01*
X13143550Y-11527740D02*
X13083550Y-11587740D01*
X13083550Y-11895995D02*
X13143550Y-11955995D01*
X13143550Y-11895995D02*
X13083550Y-11955995D01*
X13083550Y-12983950D02*
X13143550Y-13043950D01*
X13143550Y-12983950D02*
X13083550Y-13043950D01*
X13083550Y-13352205D02*
X13143550Y-13412205D01*
X13143550Y-13352205D02*
X13083550Y-13412205D01*
X13083550Y-14440160D02*
X13143550Y-14500160D01*
X13143550Y-14440160D02*
X13083550Y-14500160D01*
X13092337Y-4399813D02*
X13152337Y-4459813D01*
X13152337Y-4399813D02*
X13092337Y-4459813D01*
X13092337Y-4507387D02*
X13152337Y-4567387D01*
X13152337Y-4507387D02*
X13092337Y-4567387D01*
X13092337Y-5809168D02*
X13152337Y-5869168D01*
X13152337Y-5809168D02*
X13092337Y-5869168D01*
X13092337Y-5963597D02*
X13152337Y-6023597D01*
X13152337Y-5963597D02*
X13092337Y-6023597D01*
X13092337Y-7265378D02*
X13152337Y-7325378D01*
X13152337Y-7265378D02*
X13092337Y-7325378D01*
X13092337Y-7419807D02*
X13152337Y-7479807D01*
X13152337Y-7419807D02*
X13092337Y-7479807D01*
X13092337Y-8721588D02*
X13152337Y-8781588D01*
X13152337Y-8721588D02*
X13092337Y-8781588D01*
X13092337Y-8876017D02*
X13152337Y-8936017D01*
X13152337Y-8876017D02*
X13092337Y-8936017D01*
X13092337Y-10178443D02*
X13152337Y-10238443D01*
X13152337Y-10178443D02*
X13092337Y-10238443D01*
X13092337Y-10332872D02*
X13152337Y-10392872D01*
X13152337Y-10332872D02*
X13092337Y-10392872D01*
X13092337Y-11634653D02*
X13152337Y-11694653D01*
X13152337Y-11634653D02*
X13092337Y-11694653D01*
X13092337Y-11789082D02*
X13152337Y-11849082D01*
X13152337Y-11789082D02*
X13092337Y-11849082D01*
X13092337Y-13090863D02*
X13152337Y-13150863D01*
X13152337Y-13090863D02*
X13092337Y-13150863D01*
X13092337Y-13245292D02*
X13152337Y-13305292D01*
X13152337Y-13245292D02*
X13092337Y-13305292D01*
X13092337Y-14547073D02*
X13152337Y-14607073D01*
X13152337Y-14547073D02*
X13092337Y-14607073D01*
X13092337Y-14654647D02*
X13152337Y-14714647D01*
X13152337Y-14654647D02*
X13092337Y-14714647D01*
X14115008Y-4453600D02*
X14175008Y-4513600D01*
X14175008Y-4453600D02*
X14115008Y-4513600D01*
X14115008Y-4453600D02*
X14175008Y-4513600D01*
X14175008Y-4453600D02*
X14115008Y-4513600D01*
X14115008Y-4453600D02*
X14175008Y-4513600D01*
X14175008Y-4453600D02*
X14115008Y-4513600D01*
X14115008Y-4453600D02*
X14175008Y-4513600D01*
X14175008Y-4453600D02*
X14115008Y-4513600D01*
X14115008Y-6574862D02*
X14175008Y-6634862D01*
X14175008Y-6574862D02*
X14115008Y-6634862D01*
X14115008Y-6574862D02*
X14175008Y-6634862D01*
X14175008Y-6574862D02*
X14115008Y-6634862D01*
X14115008Y-6574862D02*
X14175008Y-6634862D01*
X14175008Y-6574862D02*
X14115008Y-6634862D01*
X14115008Y-6574862D02*
X14175008Y-6634862D01*
X14175008Y-6574862D02*
X14115008Y-6634862D01*
X14115008Y-6574862D02*
X14175008Y-6634862D01*
X14175008Y-6574862D02*
X14115008Y-6634862D01*
X14115008Y-7128900D02*
X14175008Y-7188900D01*
X14175008Y-7128900D02*
X14115008Y-7188900D01*
X14115008Y-7128900D02*
X14175008Y-7188900D01*
X14175008Y-7128900D02*
X14115008Y-7188900D01*
X14115008Y-7128900D02*
X14175008Y-7188900D01*
X14175008Y-7128900D02*
X14115008Y-7188900D01*
X14115008Y-7128900D02*
X14175008Y-7188900D01*
X14175008Y-7128900D02*
X14115008Y-7188900D01*
X14115008Y-9250162D02*
X14175008Y-9310162D01*
X14175008Y-9250162D02*
X14115008Y-9310162D01*
X14115008Y-9250162D02*
X14175008Y-9310162D01*
X14175008Y-9250162D02*
X14115008Y-9310162D01*
X14115008Y-9250162D02*
X14175008Y-9310162D01*
X14175008Y-9250162D02*
X14115008Y-9310162D01*
X14115008Y-9250162D02*
X14175008Y-9310162D01*
X14175008Y-9250162D02*
X14115008Y-9310162D01*
X14115008Y-9250162D02*
X14175008Y-9310162D01*
X14175008Y-9250162D02*
X14115008Y-9310162D01*
X14115008Y-9804200D02*
X14175008Y-9864200D01*
X14175008Y-9804200D02*
X14115008Y-9864200D01*
X14115008Y-9804200D02*
X14175008Y-9864200D01*
X14175008Y-9804200D02*
X14115008Y-9864200D01*
X14115008Y-9804200D02*
X14175008Y-9864200D01*
X14175008Y-9804200D02*
X14115008Y-9864200D01*
X14115008Y-9804200D02*
X14175008Y-9864200D01*
X14175008Y-9804200D02*
X14115008Y-9864200D01*
X14115008Y-11925462D02*
X14175008Y-11985462D01*
X14175008Y-11925462D02*
X14115008Y-11985462D01*
X14115008Y-11925462D02*
X14175008Y-11985462D01*
X14175008Y-11925462D02*
X14115008Y-11985462D01*
X14115008Y-11925462D02*
X14175008Y-11985462D01*
X14175008Y-11925462D02*
X14115008Y-11985462D01*
X14115008Y-11925462D02*
X14175008Y-11985462D01*
X14175008Y-11925462D02*
X14115008Y-11985462D01*
X14115008Y-11925462D02*
X14175008Y-11985462D01*
X14175008Y-11925462D02*
X14115008Y-11985462D01*
X14115008Y-12481238D02*
X14175008Y-12541238D01*
X14175008Y-12481238D02*
X14115008Y-12541238D01*
X14115008Y-12481238D02*
X14175008Y-12541238D01*
X14175008Y-12481238D02*
X14115008Y-12541238D01*
X14115008Y-12481238D02*
X14175008Y-12541238D01*
X14175008Y-12481238D02*
X14115008Y-12541238D01*
X14115008Y-12481238D02*
X14175008Y-12541238D01*
X14175008Y-12481238D02*
X14115008Y-12541238D01*
X14115008Y-14602500D02*
X14175008Y-14662500D01*
X14175008Y-14602500D02*
X14115008Y-14662500D01*
X14115008Y-14602500D02*
X14175008Y-14662500D01*
X14175008Y-14602500D02*
X14115008Y-14662500D01*
X14115008Y-14602500D02*
X14175008Y-14662500D01*
X14175008Y-14602500D02*
X14115008Y-14662500D01*
X14115008Y-14602500D02*
X14175008Y-14662500D01*
X14175008Y-14602500D02*
X14115008Y-14662500D01*
X14115008Y-14602500D02*
X14175008Y-14662500D01*
X14175008Y-14602500D02*
X14115008Y-14662500D01*
X14205008Y-4453600D02*
X14265008Y-4513600D01*
X14265008Y-4453600D02*
X14205008Y-4513600D01*
X14205008Y-4453600D02*
X14265008Y-4513600D01*
X14265008Y-4453600D02*
X14205008Y-4513600D01*
X14205008Y-4453600D02*
X14265008Y-4513600D01*
X14265008Y-4453600D02*
X14205008Y-4513600D01*
X14205008Y-4453600D02*
X14265008Y-4513600D01*
X14265008Y-4453600D02*
X14205008Y-4513600D01*
X14205008Y-6574862D02*
X14265008Y-6634862D01*
X14265008Y-6574862D02*
X14205008Y-6634862D01*
X14205008Y-6574862D02*
X14265008Y-6634862D01*
X14265008Y-6574862D02*
X14205008Y-6634862D01*
X14205008Y-6574862D02*
X14265008Y-6634862D01*
X14265008Y-6574862D02*
X14205008Y-6634862D01*
X14205008Y-6574862D02*
X14265008Y-6634862D01*
X14265008Y-6574862D02*
X14205008Y-6634862D01*
X14205008Y-7128900D02*
X14265008Y-7188900D01*
X14265008Y-7128900D02*
X14205008Y-7188900D01*
X14205008Y-7128900D02*
X14265008Y-7188900D01*
X14265008Y-7128900D02*
X14205008Y-7188900D01*
X14205008Y-7128900D02*
X14265008Y-7188900D01*
X14265008Y-7128900D02*
X14205008Y-7188900D01*
X14205008Y-7128900D02*
X14265008Y-7188900D01*
X14265008Y-7128900D02*
X14205008Y-7188900D01*
X14205008Y-9250162D02*
X14265008Y-9310162D01*
X14265008Y-9250162D02*
X14205008Y-9310162D01*
X14205008Y-9250162D02*
X14265008Y-9310162D01*
X14265008Y-9250162D02*
X14205008Y-9310162D01*
X14205008Y-9250162D02*
X14265008Y-9310162D01*
X14265008Y-9250162D02*
X14205008Y-9310162D01*
X14205008Y-9250162D02*
X14265008Y-9310162D01*
X14265008Y-9250162D02*
X14205008Y-9310162D01*
X14205008Y-9804200D02*
X14265008Y-9864200D01*
X14265008Y-9804200D02*
X14205008Y-9864200D01*
X14205008Y-9804200D02*
X14265008Y-9864200D01*
X14265008Y-9804200D02*
X14205008Y-9864200D01*
X14205008Y-9804200D02*
X14265008Y-9864200D01*
X14265008Y-9804200D02*
X14205008Y-9864200D01*
X14205008Y-9804200D02*
X14265008Y-9864200D01*
X14265008Y-9804200D02*
X14205008Y-9864200D01*
X14205008Y-11925462D02*
X14265008Y-11985462D01*
X14265008Y-11925462D02*
X14205008Y-11985462D01*
X14205008Y-11925462D02*
X14265008Y-11985462D01*
X14265008Y-11925462D02*
X14205008Y-11985462D01*
X14205008Y-11925462D02*
X14265008Y-11985462D01*
X14265008Y-11925462D02*
X14205008Y-11985462D01*
X14205008Y-11925462D02*
X14265008Y-11985462D01*
X14265008Y-11925462D02*
X14205008Y-11985462D01*
X14205008Y-12481238D02*
X14265008Y-12541238D01*
X14265008Y-12481238D02*
X14205008Y-12541238D01*
X14205008Y-12481238D02*
X14265008Y-12541238D01*
X14265008Y-12481238D02*
X14205008Y-12541238D01*
X14205008Y-12481238D02*
X14265008Y-12541238D01*
X14265008Y-12481238D02*
X14205008Y-12541238D01*
X14205008Y-12481238D02*
X14265008Y-12541238D01*
X14265008Y-12481238D02*
X14205008Y-12541238D01*
X14205008Y-14602500D02*
X14265008Y-14662500D01*
X14265008Y-14602500D02*
X14205008Y-14662500D01*
X14205008Y-14602500D02*
X14265008Y-14662500D01*
X14265008Y-14602500D02*
X14205008Y-14662500D01*
X14205008Y-14602500D02*
X14265008Y-14662500D01*
X14265008Y-14602500D02*
X14205008Y-14662500D01*
X14205008Y-14602500D02*
X14265008Y-14662500D01*
X14265008Y-14602500D02*
X14205008Y-14662500D01*
X14295008Y-4453600D02*
X14355008Y-4513600D01*
X14355008Y-4453600D02*
X14295008Y-4513600D01*
X14295008Y-4453600D02*
X14355008Y-4513600D01*
X14355008Y-4453600D02*
X14295008Y-4513600D01*
X14295008Y-4453600D02*
X14355008Y-4513600D01*
X14355008Y-4453600D02*
X14295008Y-4513600D01*
X14295008Y-4453600D02*
X14355008Y-4513600D01*
X14355008Y-4453600D02*
X14295008Y-4513600D01*
X14295008Y-6574862D02*
X14355008Y-6634862D01*
X14355008Y-6574862D02*
X14295008Y-6634862D01*
X14295008Y-6574862D02*
X14355008Y-6634862D01*
X14355008Y-6574862D02*
X14295008Y-6634862D01*
X14295008Y-6574862D02*
X14355008Y-6634862D01*
X14355008Y-6574862D02*
X14295008Y-6634862D01*
X14295008Y-6574862D02*
X14355008Y-6634862D01*
X14355008Y-6574862D02*
X14295008Y-6634862D01*
X14295008Y-7128900D02*
X14355008Y-7188900D01*
X14355008Y-7128900D02*
X14295008Y-7188900D01*
X14295008Y-7128900D02*
X14355008Y-7188900D01*
X14355008Y-7128900D02*
X14295008Y-7188900D01*
X14295008Y-7128900D02*
X14355008Y-7188900D01*
X14355008Y-7128900D02*
X14295008Y-7188900D01*
X14295008Y-7128900D02*
X14355008Y-7188900D01*
X14355008Y-7128900D02*
X14295008Y-7188900D01*
X14295008Y-9250162D02*
X14355008Y-9310162D01*
X14355008Y-9250162D02*
X14295008Y-9310162D01*
X14295008Y-9250162D02*
X14355008Y-9310162D01*
X14355008Y-9250162D02*
X14295008Y-9310162D01*
X14295008Y-9250162D02*
X14355008Y-9310162D01*
X14355008Y-9250162D02*
X14295008Y-9310162D01*
X14295008Y-9250162D02*
X14355008Y-9310162D01*
X14355008Y-9250162D02*
X14295008Y-9310162D01*
X14295008Y-9804200D02*
X14355008Y-9864200D01*
X14355008Y-9804200D02*
X14295008Y-9864200D01*
X14295008Y-9804200D02*
X14355008Y-9864200D01*
X14355008Y-9804200D02*
X14295008Y-9864200D01*
X14295008Y-9804200D02*
X14355008Y-9864200D01*
X14355008Y-9804200D02*
X14295008Y-9864200D01*
X14295008Y-9804200D02*
X14355008Y-9864200D01*
X14355008Y-9804200D02*
X14295008Y-9864200D01*
X14295008Y-11925462D02*
X14355008Y-11985462D01*
X14355008Y-11925462D02*
X14295008Y-11985462D01*
X14295008Y-11925462D02*
X14355008Y-11985462D01*
X14355008Y-11925462D02*
X14295008Y-11985462D01*
X14295008Y-11925462D02*
X14355008Y-11985462D01*
X14355008Y-11925462D02*
X14295008Y-11985462D01*
X14295008Y-11925462D02*
X14355008Y-11985462D01*
X14355008Y-11925462D02*
X14295008Y-11985462D01*
X14295008Y-12481238D02*
X14355008Y-12541238D01*
X14355008Y-12481238D02*
X14295008Y-12541238D01*
X14295008Y-12481238D02*
X14355008Y-12541238D01*
X14355008Y-12481238D02*
X14295008Y-12541238D01*
X14295008Y-12481238D02*
X14355008Y-12541238D01*
X14355008Y-12481238D02*
X14295008Y-12541238D01*
X14295008Y-12481238D02*
X14355008Y-12541238D01*
X14355008Y-12481238D02*
X14295008Y-12541238D01*
X14295008Y-14602500D02*
X14355008Y-14662500D01*
X14355008Y-14602500D02*
X14295008Y-14662500D01*
X14295008Y-14602500D02*
X14355008Y-14662500D01*
X14355008Y-14602500D02*
X14295008Y-14662500D01*
X14295008Y-14602500D02*
X14355008Y-14662500D01*
X14355008Y-14602500D02*
X14295008Y-14662500D01*
X14295008Y-14602500D02*
X14355008Y-14662500D01*
X14355008Y-14602500D02*
X14295008Y-14662500D01*
X14385008Y-4453600D02*
X14445008Y-4513600D01*
X14445008Y-4453600D02*
X14385008Y-4513600D01*
X14385008Y-4453600D02*
X14445008Y-4513600D01*
X14445008Y-4453600D02*
X14385008Y-4513600D01*
X14385008Y-4453600D02*
X14445008Y-4513600D01*
X14445008Y-4453600D02*
X14385008Y-4513600D01*
X14385008Y-4453600D02*
X14445008Y-4513600D01*
X14445008Y-4453600D02*
X14385008Y-4513600D01*
X14385008Y-6574862D02*
X14445008Y-6634862D01*
X14445008Y-6574862D02*
X14385008Y-6634862D01*
X14385008Y-6574862D02*
X14445008Y-6634862D01*
X14445008Y-6574862D02*
X14385008Y-6634862D01*
X14385008Y-6574862D02*
X14445008Y-6634862D01*
X14445008Y-6574862D02*
X14385008Y-6634862D01*
X14385008Y-6574862D02*
X14445008Y-6634862D01*
X14445008Y-6574862D02*
X14385008Y-6634862D01*
X14385008Y-7128900D02*
X14445008Y-7188900D01*
X14445008Y-7128900D02*
X14385008Y-7188900D01*
X14385008Y-7128900D02*
X14445008Y-7188900D01*
X14445008Y-7128900D02*
X14385008Y-7188900D01*
X14385008Y-7128900D02*
X14445008Y-7188900D01*
X14445008Y-7128900D02*
X14385008Y-7188900D01*
X14385008Y-7128900D02*
X14445008Y-7188900D01*
X14445008Y-7128900D02*
X14385008Y-7188900D01*
X14385008Y-9250162D02*
X14445008Y-9310162D01*
X14445008Y-9250162D02*
X14385008Y-9310162D01*
X14385008Y-9250162D02*
X14445008Y-9310162D01*
X14445008Y-9250162D02*
X14385008Y-9310162D01*
X14385008Y-9250162D02*
X14445008Y-9310162D01*
X14445008Y-9250162D02*
X14385008Y-9310162D01*
X14385008Y-9250162D02*
X14445008Y-9310162D01*
X14445008Y-9250162D02*
X14385008Y-9310162D01*
X14385008Y-9804200D02*
X14445008Y-9864200D01*
X14445008Y-9804200D02*
X14385008Y-9864200D01*
X14385008Y-9804200D02*
X14445008Y-9864200D01*
X14445008Y-9804200D02*
X14385008Y-9864200D01*
X14385008Y-9804200D02*
X14445008Y-9864200D01*
X14445008Y-9804200D02*
X14385008Y-9864200D01*
X14385008Y-9804200D02*
X14445008Y-9864200D01*
X14445008Y-9804200D02*
X14385008Y-9864200D01*
X14385008Y-11925462D02*
X14445008Y-11985462D01*
X14445008Y-11925462D02*
X14385008Y-11985462D01*
X14385008Y-11925462D02*
X14445008Y-11985462D01*
X14445008Y-11925462D02*
X14385008Y-11985462D01*
X14385008Y-11925462D02*
X14445008Y-11985462D01*
X14445008Y-11925462D02*
X14385008Y-11985462D01*
X14385008Y-11925462D02*
X14445008Y-11985462D01*
X14445008Y-11925462D02*
X14385008Y-11985462D01*
X14385008Y-12481238D02*
X14445008Y-12541238D01*
X14445008Y-12481238D02*
X14385008Y-12541238D01*
X14385008Y-12481238D02*
X14445008Y-12541238D01*
X14445008Y-12481238D02*
X14385008Y-12541238D01*
X14385008Y-12481238D02*
X14445008Y-12541238D01*
X14445008Y-12481238D02*
X14385008Y-12541238D01*
X14385008Y-12481238D02*
X14445008Y-12541238D01*
X14445008Y-12481238D02*
X14385008Y-12541238D01*
X14385008Y-14602500D02*
X14445008Y-14662500D01*
X14445008Y-14602500D02*
X14385008Y-14662500D01*
X14385008Y-14602500D02*
X14445008Y-14662500D01*
X14445008Y-14602500D02*
X14385008Y-14662500D01*
X14385008Y-14602500D02*
X14445008Y-14662500D01*
X14445008Y-14602500D02*
X14385008Y-14662500D01*
X14385008Y-14602500D02*
X14445008Y-14662500D01*
X14445008Y-14602500D02*
X14385008Y-14662500D01*
X14475008Y-4453600D02*
X14535008Y-4513600D01*
X14535008Y-4453600D02*
X14475008Y-4513600D01*
X14475008Y-4453600D02*
X14535008Y-4513600D01*
X14535008Y-4453600D02*
X14475008Y-4513600D01*
X14475008Y-4453600D02*
X14535008Y-4513600D01*
X14535008Y-4453600D02*
X14475008Y-4513600D01*
X14475008Y-4453600D02*
X14535008Y-4513600D01*
X14535008Y-4453600D02*
X14475008Y-4513600D01*
X14475008Y-4453600D02*
X14535008Y-4513600D01*
X14535008Y-4453600D02*
X14475008Y-4513600D01*
X14475008Y-6574862D02*
X14535008Y-6634862D01*
X14535008Y-6574862D02*
X14475008Y-6634862D01*
X14475008Y-6574862D02*
X14535008Y-6634862D01*
X14535008Y-6574862D02*
X14475008Y-6634862D01*
X14475008Y-6574862D02*
X14535008Y-6634862D01*
X14535008Y-6574862D02*
X14475008Y-6634862D01*
X14475008Y-6574862D02*
X14535008Y-6634862D01*
X14535008Y-6574862D02*
X14475008Y-6634862D01*
X14475008Y-7128900D02*
X14535008Y-7188900D01*
X14535008Y-7128900D02*
X14475008Y-7188900D01*
X14475008Y-7128900D02*
X14535008Y-7188900D01*
X14535008Y-7128900D02*
X14475008Y-7188900D01*
X14475008Y-7128900D02*
X14535008Y-7188900D01*
X14535008Y-7128900D02*
X14475008Y-7188900D01*
X14475008Y-7128900D02*
X14535008Y-7188900D01*
X14535008Y-7128900D02*
X14475008Y-7188900D01*
X14475008Y-7128900D02*
X14535008Y-7188900D01*
X14535008Y-7128900D02*
X14475008Y-7188900D01*
X14475008Y-9250162D02*
X14535008Y-9310162D01*
X14535008Y-9250162D02*
X14475008Y-9310162D01*
X14475008Y-9250162D02*
X14535008Y-9310162D01*
X14535008Y-9250162D02*
X14475008Y-9310162D01*
X14475008Y-9250162D02*
X14535008Y-9310162D01*
X14535008Y-9250162D02*
X14475008Y-9310162D01*
X14475008Y-9250162D02*
X14535008Y-9310162D01*
X14535008Y-9250162D02*
X14475008Y-9310162D01*
X14475008Y-9804200D02*
X14535008Y-9864200D01*
X14535008Y-9804200D02*
X14475008Y-9864200D01*
X14475008Y-9804200D02*
X14535008Y-9864200D01*
X14535008Y-9804200D02*
X14475008Y-9864200D01*
X14475008Y-9804200D02*
X14535008Y-9864200D01*
X14535008Y-9804200D02*
X14475008Y-9864200D01*
X14475008Y-9804200D02*
X14535008Y-9864200D01*
X14535008Y-9804200D02*
X14475008Y-9864200D01*
X14475008Y-9804200D02*
X14535008Y-9864200D01*
X14535008Y-9804200D02*
X14475008Y-9864200D01*
X14475008Y-11925462D02*
X14535008Y-11985462D01*
X14535008Y-11925462D02*
X14475008Y-11985462D01*
X14475008Y-11925462D02*
X14535008Y-11985462D01*
X14535008Y-11925462D02*
X14475008Y-11985462D01*
X14475008Y-11925462D02*
X14535008Y-11985462D01*
X14535008Y-11925462D02*
X14475008Y-11985462D01*
X14475008Y-11925462D02*
X14535008Y-11985462D01*
X14535008Y-11925462D02*
X14475008Y-11985462D01*
X14475008Y-12481238D02*
X14535008Y-12541238D01*
X14535008Y-12481238D02*
X14475008Y-12541238D01*
X14475008Y-12481238D02*
X14535008Y-12541238D01*
X14535008Y-12481238D02*
X14475008Y-12541238D01*
X14475008Y-12481238D02*
X14535008Y-12541238D01*
X14535008Y-12481238D02*
X14475008Y-12541238D01*
X14475008Y-12481238D02*
X14535008Y-12541238D01*
X14535008Y-12481238D02*
X14475008Y-12541238D01*
X14475008Y-12481238D02*
X14535008Y-12541238D01*
X14535008Y-12481238D02*
X14475008Y-12541238D01*
X14475008Y-14602500D02*
X14535008Y-14662500D01*
X14535008Y-14602500D02*
X14475008Y-14662500D01*
X14475008Y-14602500D02*
X14535008Y-14662500D01*
X14535008Y-14602500D02*
X14475008Y-14662500D01*
X14475008Y-14602500D02*
X14535008Y-14662500D01*
X14535008Y-14602500D02*
X14475008Y-14662500D01*
X14475008Y-14602500D02*
X14535008Y-14662500D01*
X14535008Y-14602500D02*
X14475008Y-14662500D01*
X16255416Y-4453600D02*
X16315416Y-4513600D01*
X16315416Y-4453600D02*
X16255416Y-4513600D01*
X16255416Y-4453600D02*
X16315416Y-4513600D01*
X16315416Y-4453600D02*
X16255416Y-4513600D01*
X16255416Y-4453600D02*
X16315416Y-4513600D01*
X16315416Y-4453600D02*
X16255416Y-4513600D01*
X16255416Y-4453600D02*
X16315416Y-4513600D01*
X16315416Y-4453600D02*
X16255416Y-4513600D01*
X16255416Y-5683600D02*
X16315416Y-5743600D01*
X16315416Y-5683600D02*
X16255416Y-5743600D01*
X16255416Y-5683600D02*
X16315416Y-5743600D01*
X16315416Y-5683600D02*
X16255416Y-5743600D01*
X16255416Y-5683600D02*
X16315416Y-5743600D01*
X16315416Y-5683600D02*
X16255416Y-5743600D01*
X16255416Y-5683600D02*
X16315416Y-5743600D01*
X16315416Y-5683600D02*
X16255416Y-5743600D01*
X16255416Y-5683600D02*
X16315416Y-5743600D01*
X16315416Y-5683600D02*
X16255416Y-5743600D01*
X16255416Y-5940100D02*
X16315416Y-6000100D01*
X16315416Y-5940100D02*
X16255416Y-6000100D01*
X16255416Y-5940100D02*
X16315416Y-6000100D01*
X16315416Y-5940100D02*
X16255416Y-6000100D01*
X16255416Y-5940100D02*
X16315416Y-6000100D01*
X16315416Y-5940100D02*
X16255416Y-6000100D01*
X16255416Y-5940100D02*
X16315416Y-6000100D01*
X16315416Y-5940100D02*
X16255416Y-6000100D01*
X16255416Y-7170100D02*
X16315416Y-7230100D01*
X16315416Y-7170100D02*
X16255416Y-7230100D01*
X16255416Y-7170100D02*
X16315416Y-7230100D01*
X16315416Y-7170100D02*
X16255416Y-7230100D01*
X16255416Y-7170100D02*
X16315416Y-7230100D01*
X16315416Y-7170100D02*
X16255416Y-7230100D01*
X16255416Y-7170100D02*
X16315416Y-7230100D01*
X16315416Y-7170100D02*
X16255416Y-7230100D01*
X16255416Y-7170100D02*
X16315416Y-7230100D01*
X16315416Y-7170100D02*
X16255416Y-7230100D01*
X16255416Y-7426600D02*
X16315416Y-7486600D01*
X16315416Y-7426600D02*
X16255416Y-7486600D01*
X16255416Y-7426600D02*
X16315416Y-7486600D01*
X16315416Y-7426600D02*
X16255416Y-7486600D01*
X16255416Y-7426600D02*
X16315416Y-7486600D01*
X16315416Y-7426600D02*
X16255416Y-7486600D01*
X16255416Y-7426600D02*
X16315416Y-7486600D01*
X16315416Y-7426600D02*
X16255416Y-7486600D01*
X16255416Y-8656600D02*
X16315416Y-8716600D01*
X16315416Y-8656600D02*
X16255416Y-8716600D01*
X16255416Y-8656600D02*
X16315416Y-8716600D01*
X16315416Y-8656600D02*
X16255416Y-8716600D01*
X16255416Y-8656600D02*
X16315416Y-8716600D01*
X16315416Y-8656600D02*
X16255416Y-8716600D01*
X16255416Y-8656600D02*
X16315416Y-8716600D01*
X16315416Y-8656600D02*
X16255416Y-8716600D01*
X16255416Y-8656600D02*
X16315416Y-8716600D01*
X16315416Y-8656600D02*
X16255416Y-8716600D01*
X16255416Y-8913100D02*
X16315416Y-8973100D01*
X16315416Y-8913100D02*
X16255416Y-8973100D01*
X16255416Y-8913100D02*
X16315416Y-8973100D01*
X16315416Y-8913100D02*
X16255416Y-8973100D01*
X16255416Y-8913100D02*
X16315416Y-8973100D01*
X16315416Y-8913100D02*
X16255416Y-8973100D01*
X16255416Y-8913100D02*
X16315416Y-8973100D01*
X16315416Y-8913100D02*
X16255416Y-8973100D01*
X16255416Y-10143100D02*
X16315416Y-10203100D01*
X16315416Y-10143100D02*
X16255416Y-10203100D01*
X16255416Y-10143100D02*
X16315416Y-10203100D01*
X16315416Y-10143100D02*
X16255416Y-10203100D01*
X16255416Y-10143100D02*
X16315416Y-10203100D01*
X16315416Y-10143100D02*
X16255416Y-10203100D01*
X16255416Y-10143100D02*
X16315416Y-10203100D01*
X16315416Y-10143100D02*
X16255416Y-10203100D01*
X16255416Y-10143100D02*
X16315416Y-10203100D01*
X16315416Y-10143100D02*
X16255416Y-10203100D01*
X16255416Y-10399600D02*
X16315416Y-10459600D01*
X16315416Y-10399600D02*
X16255416Y-10459600D01*
X16255416Y-10399600D02*
X16315416Y-10459600D01*
X16315416Y-10399600D02*
X16255416Y-10459600D01*
X16255416Y-10399600D02*
X16315416Y-10459600D01*
X16315416Y-10399600D02*
X16255416Y-10459600D01*
X16255416Y-10399600D02*
X16315416Y-10459600D01*
X16315416Y-10399600D02*
X16255416Y-10459600D01*
X16255416Y-11629600D02*
X16315416Y-11689600D01*
X16315416Y-11629600D02*
X16255416Y-11689600D01*
X16255416Y-11629600D02*
X16315416Y-11689600D01*
X16315416Y-11629600D02*
X16255416Y-11689600D01*
X16255416Y-11629600D02*
X16315416Y-11689600D01*
X16315416Y-11629600D02*
X16255416Y-11689600D01*
X16255416Y-11629600D02*
X16315416Y-11689600D01*
X16315416Y-11629600D02*
X16255416Y-11689600D01*
X16255416Y-11629600D02*
X16315416Y-11689600D01*
X16315416Y-11629600D02*
X16255416Y-11689600D01*
X16255416Y-11886100D02*
X16315416Y-11946100D01*
X16315416Y-11886100D02*
X16255416Y-11946100D01*
X16255416Y-11886100D02*
X16315416Y-11946100D01*
X16315416Y-11886100D02*
X16255416Y-11946100D01*
X16255416Y-11886100D02*
X16315416Y-11946100D01*
X16315416Y-11886100D02*
X16255416Y-11946100D01*
X16255416Y-11886100D02*
X16315416Y-11946100D01*
X16315416Y-11886100D02*
X16255416Y-11946100D01*
X16255416Y-13116100D02*
X16315416Y-13176100D01*
X16315416Y-13116100D02*
X16255416Y-13176100D01*
X16255416Y-13116100D02*
X16315416Y-13176100D01*
X16315416Y-13116100D02*
X16255416Y-13176100D01*
X16255416Y-13116100D02*
X16315416Y-13176100D01*
X16315416Y-13116100D02*
X16255416Y-13176100D01*
X16255416Y-13116100D02*
X16315416Y-13176100D01*
X16315416Y-13116100D02*
X16255416Y-13176100D01*
X16255416Y-13116100D02*
X16315416Y-13176100D01*
X16315416Y-13116100D02*
X16255416Y-13176100D01*
X16255416Y-13372500D02*
X16315416Y-13432500D01*
X16315416Y-13372500D02*
X16255416Y-13432500D01*
X16255416Y-13372500D02*
X16315416Y-13432500D01*
X16315416Y-13372500D02*
X16255416Y-13432500D01*
X16255416Y-13372500D02*
X16315416Y-13432500D01*
X16315416Y-13372500D02*
X16255416Y-13432500D01*
X16255416Y-13372500D02*
X16315416Y-13432500D01*
X16315416Y-13372500D02*
X16255416Y-13432500D01*
X16255416Y-14602500D02*
X16315416Y-14662500D01*
X16315416Y-14602500D02*
X16255416Y-14662500D01*
X16255416Y-14602500D02*
X16315416Y-14662500D01*
X16315416Y-14602500D02*
X16255416Y-14662500D01*
X16255416Y-14602500D02*
X16315416Y-14662500D01*
X16315416Y-14602500D02*
X16255416Y-14662500D01*
X16255416Y-14602500D02*
X16315416Y-14662500D01*
X16315416Y-14602500D02*
X16255416Y-14662500D01*
X16255416Y-14602500D02*
X16315416Y-14662500D01*
X16315416Y-14602500D02*
X16255416Y-14662500D01*
X16345416Y-4453600D02*
X16405416Y-4513600D01*
X16405416Y-4453600D02*
X16345416Y-4513600D01*
X16345416Y-4453600D02*
X16405416Y-4513600D01*
X16405416Y-4453600D02*
X16345416Y-4513600D01*
X16345416Y-4453600D02*
X16405416Y-4513600D01*
X16405416Y-4453600D02*
X16345416Y-4513600D01*
X16345416Y-4453600D02*
X16405416Y-4513600D01*
X16405416Y-4453600D02*
X16345416Y-4513600D01*
X16345416Y-5683600D02*
X16405416Y-5743600D01*
X16405416Y-5683600D02*
X16345416Y-5743600D01*
X16345416Y-5683600D02*
X16405416Y-5743600D01*
X16405416Y-5683600D02*
X16345416Y-5743600D01*
X16345416Y-5683600D02*
X16405416Y-5743600D01*
X16405416Y-5683600D02*
X16345416Y-5743600D01*
X16345416Y-5683600D02*
X16405416Y-5743600D01*
X16405416Y-5683600D02*
X16345416Y-5743600D01*
X16345416Y-5940100D02*
X16405416Y-6000100D01*
X16405416Y-5940100D02*
X16345416Y-6000100D01*
X16345416Y-5940100D02*
X16405416Y-6000100D01*
X16405416Y-5940100D02*
X16345416Y-6000100D01*
X16345416Y-5940100D02*
X16405416Y-6000100D01*
X16405416Y-5940100D02*
X16345416Y-6000100D01*
X16345416Y-5940100D02*
X16405416Y-6000100D01*
X16405416Y-5940100D02*
X16345416Y-6000100D01*
X16345416Y-7170100D02*
X16405416Y-7230100D01*
X16405416Y-7170100D02*
X16345416Y-7230100D01*
X16345416Y-7170100D02*
X16405416Y-7230100D01*
X16405416Y-7170100D02*
X16345416Y-7230100D01*
X16345416Y-7170100D02*
X16405416Y-7230100D01*
X16405416Y-7170100D02*
X16345416Y-7230100D01*
X16345416Y-7170100D02*
X16405416Y-7230100D01*
X16405416Y-7170100D02*
X16345416Y-7230100D01*
X16345416Y-7426600D02*
X16405416Y-7486600D01*
X16405416Y-7426600D02*
X16345416Y-7486600D01*
X16345416Y-7426600D02*
X16405416Y-7486600D01*
X16405416Y-7426600D02*
X16345416Y-7486600D01*
X16345416Y-7426600D02*
X16405416Y-7486600D01*
X16405416Y-7426600D02*
X16345416Y-7486600D01*
X16345416Y-7426600D02*
X16405416Y-7486600D01*
X16405416Y-7426600D02*
X16345416Y-7486600D01*
X16345416Y-8656600D02*
X16405416Y-8716600D01*
X16405416Y-8656600D02*
X16345416Y-8716600D01*
X16345416Y-8656600D02*
X16405416Y-8716600D01*
X16405416Y-8656600D02*
X16345416Y-8716600D01*
X16345416Y-8656600D02*
X16405416Y-8716600D01*
X16405416Y-8656600D02*
X16345416Y-8716600D01*
X16345416Y-8656600D02*
X16405416Y-8716600D01*
X16405416Y-8656600D02*
X16345416Y-8716600D01*
X16345416Y-8913100D02*
X16405416Y-8973100D01*
X16405416Y-8913100D02*
X16345416Y-8973100D01*
X16345416Y-8913100D02*
X16405416Y-8973100D01*
X16405416Y-8913100D02*
X16345416Y-8973100D01*
X16345416Y-8913100D02*
X16405416Y-8973100D01*
X16405416Y-8913100D02*
X16345416Y-8973100D01*
X16345416Y-8913100D02*
X16405416Y-8973100D01*
X16405416Y-8913100D02*
X16345416Y-8973100D01*
X16345416Y-10143100D02*
X16405416Y-10203100D01*
X16405416Y-10143100D02*
X16345416Y-10203100D01*
X16345416Y-10143100D02*
X16405416Y-10203100D01*
X16405416Y-10143100D02*
X16345416Y-10203100D01*
X16345416Y-10143100D02*
X16405416Y-10203100D01*
X16405416Y-10143100D02*
X16345416Y-10203100D01*
X16345416Y-10143100D02*
X16405416Y-10203100D01*
X16405416Y-10143100D02*
X16345416Y-10203100D01*
X16345416Y-10399600D02*
X16405416Y-10459600D01*
X16405416Y-10399600D02*
X16345416Y-10459600D01*
X16345416Y-10399600D02*
X16405416Y-10459600D01*
X16405416Y-10399600D02*
X16345416Y-10459600D01*
X16345416Y-10399600D02*
X16405416Y-10459600D01*
X16405416Y-10399600D02*
X16345416Y-10459600D01*
X16345416Y-10399600D02*
X16405416Y-10459600D01*
X16405416Y-10399600D02*
X16345416Y-10459600D01*
X16345416Y-11629600D02*
X16405416Y-11689600D01*
X16405416Y-11629600D02*
X16345416Y-11689600D01*
X16345416Y-11629600D02*
X16405416Y-11689600D01*
X16405416Y-11629600D02*
X16345416Y-11689600D01*
X16345416Y-11629600D02*
X16405416Y-11689600D01*
X16405416Y-11629600D02*
X16345416Y-11689600D01*
X16345416Y-11629600D02*
X16405416Y-11689600D01*
X16405416Y-11629600D02*
X16345416Y-11689600D01*
X16345416Y-11886100D02*
X16405416Y-11946100D01*
X16405416Y-11886100D02*
X16345416Y-11946100D01*
X16345416Y-11886100D02*
X16405416Y-11946100D01*
X16405416Y-11886100D02*
X16345416Y-11946100D01*
X16345416Y-11886100D02*
X16405416Y-11946100D01*
X16405416Y-11886100D02*
X16345416Y-11946100D01*
X16345416Y-11886100D02*
X16405416Y-11946100D01*
X16405416Y-11886100D02*
X16345416Y-11946100D01*
X16345416Y-13116100D02*
X16405416Y-13176100D01*
X16405416Y-13116100D02*
X16345416Y-13176100D01*
X16345416Y-13116100D02*
X16405416Y-13176100D01*
X16405416Y-13116100D02*
X16345416Y-13176100D01*
X16345416Y-13116100D02*
X16405416Y-13176100D01*
X16405416Y-13116100D02*
X16345416Y-13176100D01*
X16345416Y-13116100D02*
X16405416Y-13176100D01*
X16405416Y-13116100D02*
X16345416Y-13176100D01*
X16345416Y-13372500D02*
X16405416Y-13432500D01*
X16405416Y-13372500D02*
X16345416Y-13432500D01*
X16345416Y-13372500D02*
X16405416Y-13432500D01*
X16405416Y-13372500D02*
X16345416Y-13432500D01*
X16345416Y-13372500D02*
X16405416Y-13432500D01*
X16405416Y-13372500D02*
X16345416Y-13432500D01*
X16345416Y-13372500D02*
X16405416Y-13432500D01*
X16405416Y-13372500D02*
X16345416Y-13432500D01*
X16345416Y-14602500D02*
X16405416Y-14662500D01*
X16405416Y-14602500D02*
X16345416Y-14662500D01*
X16345416Y-14602500D02*
X16405416Y-14662500D01*
X16405416Y-14602500D02*
X16345416Y-14662500D01*
X16345416Y-14602500D02*
X16405416Y-14662500D01*
X16405416Y-14602500D02*
X16345416Y-14662500D01*
X16345416Y-14602500D02*
X16405416Y-14662500D01*
X16405416Y-14602500D02*
X16345416Y-14662500D01*
X16435416Y-4453600D02*
X16495416Y-4513600D01*
X16495416Y-4453600D02*
X16435416Y-4513600D01*
X16435416Y-4453600D02*
X16495416Y-4513600D01*
X16495416Y-4453600D02*
X16435416Y-4513600D01*
X16435416Y-4453600D02*
X16495416Y-4513600D01*
X16495416Y-4453600D02*
X16435416Y-4513600D01*
X16435416Y-4453600D02*
X16495416Y-4513600D01*
X16495416Y-4453600D02*
X16435416Y-4513600D01*
X16435416Y-5683600D02*
X16495416Y-5743600D01*
X16495416Y-5683600D02*
X16435416Y-5743600D01*
X16435416Y-5683600D02*
X16495416Y-5743600D01*
X16495416Y-5683600D02*
X16435416Y-5743600D01*
X16435416Y-5683600D02*
X16495416Y-5743600D01*
X16495416Y-5683600D02*
X16435416Y-5743600D01*
X16435416Y-5683600D02*
X16495416Y-5743600D01*
X16495416Y-5683600D02*
X16435416Y-5743600D01*
X16435416Y-5940100D02*
X16495416Y-6000100D01*
X16495416Y-5940100D02*
X16435416Y-6000100D01*
X16435416Y-5940100D02*
X16495416Y-6000100D01*
X16495416Y-5940100D02*
X16435416Y-6000100D01*
X16435416Y-5940100D02*
X16495416Y-6000100D01*
X16495416Y-5940100D02*
X16435416Y-6000100D01*
X16435416Y-5940100D02*
X16495416Y-6000100D01*
X16495416Y-5940100D02*
X16435416Y-6000100D01*
X16435416Y-7170100D02*
X16495416Y-7230100D01*
X16495416Y-7170100D02*
X16435416Y-7230100D01*
X16435416Y-7170100D02*
X16495416Y-7230100D01*
X16495416Y-7170100D02*
X16435416Y-7230100D01*
X16435416Y-7170100D02*
X16495416Y-7230100D01*
X16495416Y-7170100D02*
X16435416Y-7230100D01*
X16435416Y-7170100D02*
X16495416Y-7230100D01*
X16495416Y-7170100D02*
X16435416Y-7230100D01*
X16435416Y-7426600D02*
X16495416Y-7486600D01*
X16495416Y-7426600D02*
X16435416Y-7486600D01*
X16435416Y-7426600D02*
X16495416Y-7486600D01*
X16495416Y-7426600D02*
X16435416Y-7486600D01*
X16435416Y-7426600D02*
X16495416Y-7486600D01*
X16495416Y-7426600D02*
X16435416Y-7486600D01*
X16435416Y-7426600D02*
X16495416Y-7486600D01*
X16495416Y-7426600D02*
X16435416Y-7486600D01*
X16435416Y-8656600D02*
X16495416Y-8716600D01*
X16495416Y-8656600D02*
X16435416Y-8716600D01*
X16435416Y-8656600D02*
X16495416Y-8716600D01*
X16495416Y-8656600D02*
X16435416Y-8716600D01*
X16435416Y-8656600D02*
X16495416Y-8716600D01*
X16495416Y-8656600D02*
X16435416Y-8716600D01*
X16435416Y-8656600D02*
X16495416Y-8716600D01*
X16495416Y-8656600D02*
X16435416Y-8716600D01*
X16435416Y-8913100D02*
X16495416Y-8973100D01*
X16495416Y-8913100D02*
X16435416Y-8973100D01*
X16435416Y-8913100D02*
X16495416Y-8973100D01*
X16495416Y-8913100D02*
X16435416Y-8973100D01*
X16435416Y-8913100D02*
X16495416Y-8973100D01*
X16495416Y-8913100D02*
X16435416Y-8973100D01*
X16435416Y-8913100D02*
X16495416Y-8973100D01*
X16495416Y-8913100D02*
X16435416Y-8973100D01*
X16435416Y-10143100D02*
X16495416Y-10203100D01*
X16495416Y-10143100D02*
X16435416Y-10203100D01*
X16435416Y-10143100D02*
X16495416Y-10203100D01*
X16495416Y-10143100D02*
X16435416Y-10203100D01*
X16435416Y-10143100D02*
X16495416Y-10203100D01*
X16495416Y-10143100D02*
X16435416Y-10203100D01*
X16435416Y-10143100D02*
X16495416Y-10203100D01*
X16495416Y-10143100D02*
X16435416Y-10203100D01*
X16435416Y-10399600D02*
X16495416Y-10459600D01*
X16495416Y-10399600D02*
X16435416Y-10459600D01*
X16435416Y-10399600D02*
X16495416Y-10459600D01*
X16495416Y-10399600D02*
X16435416Y-10459600D01*
X16435416Y-10399600D02*
X16495416Y-10459600D01*
X16495416Y-10399600D02*
X16435416Y-10459600D01*
X16435416Y-10399600D02*
X16495416Y-10459600D01*
X16495416Y-10399600D02*
X16435416Y-10459600D01*
X16435416Y-11629600D02*
X16495416Y-11689600D01*
X16495416Y-11629600D02*
X16435416Y-11689600D01*
X16435416Y-11629600D02*
X16495416Y-11689600D01*
X16495416Y-11629600D02*
X16435416Y-11689600D01*
X16435416Y-11629600D02*
X16495416Y-11689600D01*
X16495416Y-11629600D02*
X16435416Y-11689600D01*
X16435416Y-11629600D02*
X16495416Y-11689600D01*
X16495416Y-11629600D02*
X16435416Y-11689600D01*
X16435416Y-11886100D02*
X16495416Y-11946100D01*
X16495416Y-11886100D02*
X16435416Y-11946100D01*
X16435416Y-11886100D02*
X16495416Y-11946100D01*
X16495416Y-11886100D02*
X16435416Y-11946100D01*
X16435416Y-11886100D02*
X16495416Y-11946100D01*
X16495416Y-11886100D02*
X16435416Y-11946100D01*
X16435416Y-11886100D02*
X16495416Y-11946100D01*
X16495416Y-11886100D02*
X16435416Y-11946100D01*
X16435416Y-13116100D02*
X16495416Y-13176100D01*
X16495416Y-13116100D02*
X16435416Y-13176100D01*
X16435416Y-13116100D02*
X16495416Y-13176100D01*
X16495416Y-13116100D02*
X16435416Y-13176100D01*
X16435416Y-13116100D02*
X16495416Y-13176100D01*
X16495416Y-13116100D02*
X16435416Y-13176100D01*
X16435416Y-13116100D02*
X16495416Y-13176100D01*
X16495416Y-13116100D02*
X16435416Y-13176100D01*
X16435416Y-13372500D02*
X16495416Y-13432500D01*
X16495416Y-13372500D02*
X16435416Y-13432500D01*
X16435416Y-13372500D02*
X16495416Y-13432500D01*
X16495416Y-13372500D02*
X16435416Y-13432500D01*
X16435416Y-13372500D02*
X16495416Y-13432500D01*
X16495416Y-13372500D02*
X16435416Y-13432500D01*
X16435416Y-13372500D02*
X16495416Y-13432500D01*
X16495416Y-13372500D02*
X16435416Y-13432500D01*
X16435416Y-14602500D02*
X16495416Y-14662500D01*
X16495416Y-14602500D02*
X16435416Y-14662500D01*
X16435416Y-14602500D02*
X16495416Y-14662500D01*
X16495416Y-14602500D02*
X16435416Y-14662500D01*
X16435416Y-14602500D02*
X16495416Y-14662500D01*
X16495416Y-14602500D02*
X16435416Y-14662500D01*
X16435416Y-14602500D02*
X16495416Y-14662500D01*
X16495416Y-14602500D02*
X16435416Y-14662500D01*
X16525416Y-4453600D02*
X16585416Y-4513600D01*
X16585416Y-4453600D02*
X16525416Y-4513600D01*
X16525416Y-4453600D02*
X16585416Y-4513600D01*
X16585416Y-4453600D02*
X16525416Y-4513600D01*
X16525416Y-4453600D02*
X16585416Y-4513600D01*
X16585416Y-4453600D02*
X16525416Y-4513600D01*
X16525416Y-4453600D02*
X16585416Y-4513600D01*
X16585416Y-4453600D02*
X16525416Y-4513600D01*
X16525416Y-5683600D02*
X16585416Y-5743600D01*
X16585416Y-5683600D02*
X16525416Y-5743600D01*
X16525416Y-5683600D02*
X16585416Y-5743600D01*
X16585416Y-5683600D02*
X16525416Y-5743600D01*
X16525416Y-5683600D02*
X16585416Y-5743600D01*
X16585416Y-5683600D02*
X16525416Y-5743600D01*
X16525416Y-5683600D02*
X16585416Y-5743600D01*
X16585416Y-5683600D02*
X16525416Y-5743600D01*
X16525416Y-5940100D02*
X16585416Y-6000100D01*
X16585416Y-5940100D02*
X16525416Y-6000100D01*
X16525416Y-5940100D02*
X16585416Y-6000100D01*
X16585416Y-5940100D02*
X16525416Y-6000100D01*
X16525416Y-5940100D02*
X16585416Y-6000100D01*
X16585416Y-5940100D02*
X16525416Y-6000100D01*
X16525416Y-5940100D02*
X16585416Y-6000100D01*
X16585416Y-5940100D02*
X16525416Y-6000100D01*
X16525416Y-7170100D02*
X16585416Y-7230100D01*
X16585416Y-7170100D02*
X16525416Y-7230100D01*
X16525416Y-7170100D02*
X16585416Y-7230100D01*
X16585416Y-7170100D02*
X16525416Y-7230100D01*
X16525416Y-7170100D02*
X16585416Y-7230100D01*
X16585416Y-7170100D02*
X16525416Y-7230100D01*
X16525416Y-7170100D02*
X16585416Y-7230100D01*
X16585416Y-7170100D02*
X16525416Y-7230100D01*
X16525416Y-7426600D02*
X16585416Y-7486600D01*
X16585416Y-7426600D02*
X16525416Y-7486600D01*
X16525416Y-7426600D02*
X16585416Y-7486600D01*
X16585416Y-7426600D02*
X16525416Y-7486600D01*
X16525416Y-7426600D02*
X16585416Y-7486600D01*
X16585416Y-7426600D02*
X16525416Y-7486600D01*
X16525416Y-7426600D02*
X16585416Y-7486600D01*
X16585416Y-7426600D02*
X16525416Y-7486600D01*
X16525416Y-8656600D02*
X16585416Y-8716600D01*
X16585416Y-8656600D02*
X16525416Y-8716600D01*
X16525416Y-8656600D02*
X16585416Y-8716600D01*
X16585416Y-8656600D02*
X16525416Y-8716600D01*
X16525416Y-8656600D02*
X16585416Y-8716600D01*
X16585416Y-8656600D02*
X16525416Y-8716600D01*
X16525416Y-8656600D02*
X16585416Y-8716600D01*
X16585416Y-8656600D02*
X16525416Y-8716600D01*
X16525416Y-8913100D02*
X16585416Y-8973100D01*
X16585416Y-8913100D02*
X16525416Y-8973100D01*
X16525416Y-8913100D02*
X16585416Y-8973100D01*
X16585416Y-8913100D02*
X16525416Y-8973100D01*
X16525416Y-8913100D02*
X16585416Y-8973100D01*
X16585416Y-8913100D02*
X16525416Y-8973100D01*
X16525416Y-8913100D02*
X16585416Y-8973100D01*
X16585416Y-8913100D02*
X16525416Y-8973100D01*
X16525416Y-10143100D02*
X16585416Y-10203100D01*
X16585416Y-10143100D02*
X16525416Y-10203100D01*
X16525416Y-10143100D02*
X16585416Y-10203100D01*
X16585416Y-10143100D02*
X16525416Y-10203100D01*
X16525416Y-10143100D02*
X16585416Y-10203100D01*
X16585416Y-10143100D02*
X16525416Y-10203100D01*
X16525416Y-10143100D02*
X16585416Y-10203100D01*
X16585416Y-10143100D02*
X16525416Y-10203100D01*
X16525416Y-10399600D02*
X16585416Y-10459600D01*
X16585416Y-10399600D02*
X16525416Y-10459600D01*
X16525416Y-10399600D02*
X16585416Y-10459600D01*
X16585416Y-10399600D02*
X16525416Y-10459600D01*
X16525416Y-10399600D02*
X16585416Y-10459600D01*
X16585416Y-10399600D02*
X16525416Y-10459600D01*
X16525416Y-10399600D02*
X16585416Y-10459600D01*
X16585416Y-10399600D02*
X16525416Y-10459600D01*
X16525416Y-11629600D02*
X16585416Y-11689600D01*
X16585416Y-11629600D02*
X16525416Y-11689600D01*
X16525416Y-11629600D02*
X16585416Y-11689600D01*
X16585416Y-11629600D02*
X16525416Y-11689600D01*
X16525416Y-11629600D02*
X16585416Y-11689600D01*
X16585416Y-11629600D02*
X16525416Y-11689600D01*
X16525416Y-11629600D02*
X16585416Y-11689600D01*
X16585416Y-11629600D02*
X16525416Y-11689600D01*
X16525416Y-11886100D02*
X16585416Y-11946100D01*
X16585416Y-11886100D02*
X16525416Y-11946100D01*
X16525416Y-11886100D02*
X16585416Y-11946100D01*
X16585416Y-11886100D02*
X16525416Y-11946100D01*
X16525416Y-11886100D02*
X16585416Y-11946100D01*
X16585416Y-11886100D02*
X16525416Y-11946100D01*
X16525416Y-11886100D02*
X16585416Y-11946100D01*
X16585416Y-11886100D02*
X16525416Y-11946100D01*
X16525416Y-13116100D02*
X16585416Y-13176100D01*
X16585416Y-13116100D02*
X16525416Y-13176100D01*
X16525416Y-13116100D02*
X16585416Y-13176100D01*
X16585416Y-13116100D02*
X16525416Y-13176100D01*
X16525416Y-13116100D02*
X16585416Y-13176100D01*
X16585416Y-13116100D02*
X16525416Y-13176100D01*
X16525416Y-13116100D02*
X16585416Y-13176100D01*
X16585416Y-13116100D02*
X16525416Y-13176100D01*
X16525416Y-13372500D02*
X16585416Y-13432500D01*
X16585416Y-13372500D02*
X16525416Y-13432500D01*
X16525416Y-13372500D02*
X16585416Y-13432500D01*
X16585416Y-13372500D02*
X16525416Y-13432500D01*
X16525416Y-13372500D02*
X16585416Y-13432500D01*
X16585416Y-13372500D02*
X16525416Y-13432500D01*
X16525416Y-13372500D02*
X16585416Y-13432500D01*
X16585416Y-13372500D02*
X16525416Y-13432500D01*
X16525416Y-14602500D02*
X16585416Y-14662500D01*
X16585416Y-14602500D02*
X16525416Y-14662500D01*
X16525416Y-14602500D02*
X16585416Y-14662500D01*
X16585416Y-14602500D02*
X16525416Y-14662500D01*
X16525416Y-14602500D02*
X16585416Y-14662500D01*
X16585416Y-14602500D02*
X16525416Y-14662500D01*
X16525416Y-14602500D02*
X16585416Y-14662500D01*
X16585416Y-14602500D02*
X16525416Y-14662500D01*
X16615416Y-4453600D02*
X16675416Y-4513600D01*
X16675416Y-4453600D02*
X16615416Y-4513600D01*
X16615416Y-4453600D02*
X16675416Y-4513600D01*
X16675416Y-4453600D02*
X16615416Y-4513600D01*
X16615416Y-4453600D02*
X16675416Y-4513600D01*
X16675416Y-4453600D02*
X16615416Y-4513600D01*
X16615416Y-4453600D02*
X16675416Y-4513600D01*
X16675416Y-4453600D02*
X16615416Y-4513600D01*
X16615416Y-4453600D02*
X16675416Y-4513600D01*
X16675416Y-4453600D02*
X16615416Y-4513600D01*
X16615416Y-5683600D02*
X16675416Y-5743600D01*
X16675416Y-5683600D02*
X16615416Y-5743600D01*
X16615416Y-5683600D02*
X16675416Y-5743600D01*
X16675416Y-5683600D02*
X16615416Y-5743600D01*
X16615416Y-5683600D02*
X16675416Y-5743600D01*
X16675416Y-5683600D02*
X16615416Y-5743600D01*
X16615416Y-5683600D02*
X16675416Y-5743600D01*
X16675416Y-5683600D02*
X16615416Y-5743600D01*
X16615416Y-5940100D02*
X16675416Y-6000100D01*
X16675416Y-5940100D02*
X16615416Y-6000100D01*
X16615416Y-5940100D02*
X16675416Y-6000100D01*
X16675416Y-5940100D02*
X16615416Y-6000100D01*
X16615416Y-5940100D02*
X16675416Y-6000100D01*
X16675416Y-5940100D02*
X16615416Y-6000100D01*
X16615416Y-5940100D02*
X16675416Y-6000100D01*
X16675416Y-5940100D02*
X16615416Y-6000100D01*
X16615416Y-5940100D02*
X16675416Y-6000100D01*
X16675416Y-5940100D02*
X16615416Y-6000100D01*
X16615416Y-7170100D02*
X16675416Y-7230100D01*
X16675416Y-7170100D02*
X16615416Y-7230100D01*
X16615416Y-7170100D02*
X16675416Y-7230100D01*
X16675416Y-7170100D02*
X16615416Y-7230100D01*
X16615416Y-7170100D02*
X16675416Y-7230100D01*
X16675416Y-7170100D02*
X16615416Y-7230100D01*
X16615416Y-7170100D02*
X16675416Y-7230100D01*
X16675416Y-7170100D02*
X16615416Y-7230100D01*
X16615416Y-7426600D02*
X16675416Y-7486600D01*
X16675416Y-7426600D02*
X16615416Y-7486600D01*
X16615416Y-7426600D02*
X16675416Y-7486600D01*
X16675416Y-7426600D02*
X16615416Y-7486600D01*
X16615416Y-7426600D02*
X16675416Y-7486600D01*
X16675416Y-7426600D02*
X16615416Y-7486600D01*
X16615416Y-7426600D02*
X16675416Y-7486600D01*
X16675416Y-7426600D02*
X16615416Y-7486600D01*
X16615416Y-7426600D02*
X16675416Y-7486600D01*
X16675416Y-7426600D02*
X16615416Y-7486600D01*
X16615416Y-8656600D02*
X16675416Y-8716600D01*
X16675416Y-8656600D02*
X16615416Y-8716600D01*
X16615416Y-8656600D02*
X16675416Y-8716600D01*
X16675416Y-8656600D02*
X16615416Y-8716600D01*
X16615416Y-8656600D02*
X16675416Y-8716600D01*
X16675416Y-8656600D02*
X16615416Y-8716600D01*
X16615416Y-8656600D02*
X16675416Y-8716600D01*
X16675416Y-8656600D02*
X16615416Y-8716600D01*
X16615416Y-8913100D02*
X16675416Y-8973100D01*
X16675416Y-8913100D02*
X16615416Y-8973100D01*
X16615416Y-8913100D02*
X16675416Y-8973100D01*
X16675416Y-8913100D02*
X16615416Y-8973100D01*
X16615416Y-8913100D02*
X16675416Y-8973100D01*
X16675416Y-8913100D02*
X16615416Y-8973100D01*
X16615416Y-8913100D02*
X16675416Y-8973100D01*
X16675416Y-8913100D02*
X16615416Y-8973100D01*
X16615416Y-8913100D02*
X16675416Y-8973100D01*
X16675416Y-8913100D02*
X16615416Y-8973100D01*
X16615416Y-10143100D02*
X16675416Y-10203100D01*
X16675416Y-10143100D02*
X16615416Y-10203100D01*
X16615416Y-10143100D02*
X16675416Y-10203100D01*
X16675416Y-10143100D02*
X16615416Y-10203100D01*
X16615416Y-10143100D02*
X16675416Y-10203100D01*
X16675416Y-10143100D02*
X16615416Y-10203100D01*
X16615416Y-10143100D02*
X16675416Y-10203100D01*
X16675416Y-10143100D02*
X16615416Y-10203100D01*
X16615416Y-10399600D02*
X16675416Y-10459600D01*
X16675416Y-10399600D02*
X16615416Y-10459600D01*
X16615416Y-10399600D02*
X16675416Y-10459600D01*
X16675416Y-10399600D02*
X16615416Y-10459600D01*
X16615416Y-10399600D02*
X16675416Y-10459600D01*
X16675416Y-10399600D02*
X16615416Y-10459600D01*
X16615416Y-10399600D02*
X16675416Y-10459600D01*
X16675416Y-10399600D02*
X16615416Y-10459600D01*
X16615416Y-10399600D02*
X16675416Y-10459600D01*
X16675416Y-10399600D02*
X16615416Y-10459600D01*
X16615416Y-11629600D02*
X16675416Y-11689600D01*
X16675416Y-11629600D02*
X16615416Y-11689600D01*
X16615416Y-11629600D02*
X16675416Y-11689600D01*
X16675416Y-11629600D02*
X16615416Y-11689600D01*
X16615416Y-11629600D02*
X16675416Y-11689600D01*
X16675416Y-11629600D02*
X16615416Y-11689600D01*
X16615416Y-11629600D02*
X16675416Y-11689600D01*
X16675416Y-11629600D02*
X16615416Y-11689600D01*
X16615416Y-11886100D02*
X16675416Y-11946100D01*
X16675416Y-11886100D02*
X16615416Y-11946100D01*
X16615416Y-11886100D02*
X16675416Y-11946100D01*
X16675416Y-11886100D02*
X16615416Y-11946100D01*
X16615416Y-11886100D02*
X16675416Y-11946100D01*
X16675416Y-11886100D02*
X16615416Y-11946100D01*
X16615416Y-11886100D02*
X16675416Y-11946100D01*
X16675416Y-11886100D02*
X16615416Y-11946100D01*
X16615416Y-11886100D02*
X16675416Y-11946100D01*
X16675416Y-11886100D02*
X16615416Y-11946100D01*
X16615416Y-13116100D02*
X16675416Y-13176100D01*
X16675416Y-13116100D02*
X16615416Y-13176100D01*
X16615416Y-13116100D02*
X16675416Y-13176100D01*
X16675416Y-13116100D02*
X16615416Y-13176100D01*
X16615416Y-13116100D02*
X16675416Y-13176100D01*
X16675416Y-13116100D02*
X16615416Y-13176100D01*
X16615416Y-13116100D02*
X16675416Y-13176100D01*
X16675416Y-13116100D02*
X16615416Y-13176100D01*
X16615416Y-13372500D02*
X16675416Y-13432500D01*
X16675416Y-13372500D02*
X16615416Y-13432500D01*
X16615416Y-13372500D02*
X16675416Y-13432500D01*
X16675416Y-13372500D02*
X16615416Y-13432500D01*
X16615416Y-13372500D02*
X16675416Y-13432500D01*
X16675416Y-13372500D02*
X16615416Y-13432500D01*
X16615416Y-13372500D02*
X16675416Y-13432500D01*
X16675416Y-13372500D02*
X16615416Y-13432500D01*
X16615416Y-13372500D02*
X16675416Y-13432500D01*
X16675416Y-13372500D02*
X16615416Y-13432500D01*
X16615416Y-14602500D02*
X16675416Y-14662500D01*
X16675416Y-14602500D02*
X16615416Y-14662500D01*
X16615416Y-14602500D02*
X16675416Y-14662500D01*
X16675416Y-14602500D02*
X16615416Y-14662500D01*
X16615416Y-14602500D02*
X16675416Y-14662500D01*
X16675416Y-14602500D02*
X16615416Y-14662500D01*
X16615416Y-14602500D02*
X16675416Y-14662500D01*
X16675416Y-14602500D02*
X16615416Y-14662500D01*
X17166684Y-14737400D02*
X17226684Y-14797400D01*
X17226684Y-14737400D02*
X17166684Y-14797400D01*
X17166684Y-14827400D02*
X17226684Y-14887400D01*
X17226684Y-14827400D02*
X17166684Y-14887400D01*
X17166684Y-14917400D02*
X17226684Y-14977400D01*
X17226684Y-14917400D02*
X17166684Y-14977400D01*
X17166684Y-15007400D02*
X17226684Y-15067400D01*
X17226684Y-15007400D02*
X17166684Y-15067400D01*
X17166684Y-15097400D02*
X17226684Y-15157400D01*
X17226684Y-15097400D02*
X17166684Y-15157400D01*
X17166756Y-3958600D02*
X17226756Y-4018600D01*
X17226756Y-3958600D02*
X17166756Y-4018600D01*
X17166756Y-4048600D02*
X17226756Y-4108600D01*
X17226756Y-4048600D02*
X17166756Y-4108600D01*
X17166756Y-4138600D02*
X17226756Y-4198600D01*
X17226756Y-4138600D02*
X17166756Y-4198600D01*
X17166756Y-4228600D02*
X17226756Y-4288600D01*
X17226756Y-4228600D02*
X17166756Y-4288600D01*
X17166756Y-4318600D02*
X17226756Y-4378600D01*
X17226756Y-4318600D02*
X17166756Y-4378600D01*
X17455316Y-4607332D02*
X17515316Y-4667332D01*
X17515316Y-4607332D02*
X17455316Y-4667332D01*
X17455416Y-14448840D02*
X17515416Y-14508840D01*
X17515416Y-14448840D02*
X17455416Y-14508840D01*
X17545316Y-4607332D02*
X17605316Y-4667332D01*
X17605316Y-4607332D02*
X17545316Y-4667332D01*
X17545416Y-14448840D02*
X17605416Y-14508840D01*
X17605416Y-14448840D02*
X17545416Y-14508840D01*
X17635316Y-4607332D02*
X17695316Y-4667332D01*
X17695316Y-4607332D02*
X17635316Y-4667332D01*
X17635416Y-14448840D02*
X17695416Y-14508840D01*
X17695416Y-14448840D02*
X17635416Y-14508840D01*
X17725316Y-4607332D02*
X17785316Y-4667332D01*
X17785316Y-4607332D02*
X17725316Y-4667332D01*
X17725416Y-14448840D02*
X17785416Y-14508840D01*
X17785416Y-14448840D02*
X17725416Y-14508840D01*
X17815316Y-4607332D02*
X17875316Y-4667332D01*
X17875316Y-4607332D02*
X17815316Y-4667332D01*
X17815416Y-14448840D02*
X17875416Y-14508840D01*
X17875416Y-14448840D02*
X17815416Y-14508840D01*
D11*
X8955700Y-4158600D02*
G75*
G02*
X8755700Y-4158600I-100000J0D01*
G01*
X8755700Y-4158600D02*
G75*
G02*
X8955700Y-4158600I100000J0D01*
G01*
X8955700Y-14957500D02*
G75*
G02*
X8755700Y-14957500I-100000J0D01*
G01*
X8755700Y-14957500D02*
G75*
G02*
X8955700Y-14957500I100000J0D01*
G01*
X17775416Y-4158600D02*
G75*
G02*
X17575416Y-4158600I-100000J0D01*
G01*
X17575416Y-4158600D02*
G75*
G02*
X17775416Y-4158600I100000J0D01*
G01*
X17775416Y-14957500D02*
G75*
G02*
X17575416Y-14957500I-100000J0D01*
G01*
X17575416Y-14957500D02*
G75*
G02*
X17775416Y-14957500I100000J0D01*
G01*
X8863977Y-15521484D02*
X8863977Y-15321484D01*
X8863977Y-15321484D02*
X8911596Y-15321484D01*
X8911596Y-15321484D02*
X8940167Y-15331008D01*
X8940167Y-15331008D02*
X8959215Y-15350055D01*
X8959215Y-15350055D02*
X8968739Y-15369103D01*
X8968739Y-15369103D02*
X8978263Y-15407198D01*
X8978263Y-15407198D02*
X8978263Y-15435769D01*
X8978263Y-15435769D02*
X8968739Y-15473865D01*
X8968739Y-15473865D02*
X8959215Y-15492912D01*
X8959215Y-15492912D02*
X8940167Y-15511960D01*
X8940167Y-15511960D02*
X8911596Y-15521484D01*
X8911596Y-15521484D02*
X8863977Y-15521484D01*
X9063977Y-15521484D02*
X9063977Y-15388150D01*
X9063977Y-15426246D02*
X9073501Y-15407198D01*
X9073501Y-15407198D02*
X9083024Y-15397674D01*
X9083024Y-15397674D02*
X9102072Y-15388150D01*
X9102072Y-15388150D02*
X9121120Y-15388150D01*
X9187786Y-15521484D02*
X9187786Y-15388150D01*
X9187786Y-15321484D02*
X9178263Y-15331008D01*
X9178263Y-15331008D02*
X9187786Y-15340531D01*
X9187786Y-15340531D02*
X9197310Y-15331008D01*
X9197310Y-15331008D02*
X9187786Y-15321484D01*
X9187786Y-15321484D02*
X9187786Y-15340531D01*
X9311596Y-15521484D02*
X9292548Y-15511960D01*
X9292548Y-15511960D02*
X9283024Y-15492912D01*
X9283024Y-15492912D02*
X9283024Y-15321484D01*
X9416358Y-15521484D02*
X9397310Y-15511960D01*
X9397310Y-15511960D02*
X9387786Y-15492912D01*
X9387786Y-15492912D02*
X9387786Y-15321484D01*
X9644929Y-15521484D02*
X9644929Y-15321484D01*
X9644929Y-15321484D02*
X9711596Y-15464341D01*
X9711596Y-15464341D02*
X9778263Y-15321484D01*
X9778263Y-15321484D02*
X9778263Y-15521484D01*
X9959215Y-15521484D02*
X9959215Y-15416722D01*
X9959215Y-15416722D02*
X9949691Y-15397674D01*
X9949691Y-15397674D02*
X9930644Y-15388150D01*
X9930644Y-15388150D02*
X9892548Y-15388150D01*
X9892548Y-15388150D02*
X9873501Y-15397674D01*
X9959215Y-15511960D02*
X9940167Y-15521484D01*
X9940167Y-15521484D02*
X9892548Y-15521484D01*
X9892548Y-15521484D02*
X9873501Y-15511960D01*
X9873501Y-15511960D02*
X9863977Y-15492912D01*
X9863977Y-15492912D02*
X9863977Y-15473865D01*
X9863977Y-15473865D02*
X9873501Y-15454817D01*
X9873501Y-15454817D02*
X9892548Y-15445293D01*
X9892548Y-15445293D02*
X9940167Y-15445293D01*
X9940167Y-15445293D02*
X9959215Y-15435769D01*
X10054453Y-15388150D02*
X10054453Y-15588150D01*
X10054453Y-15397674D02*
X10073501Y-15388150D01*
X10073501Y-15388150D02*
X10111596Y-15388150D01*
X10111596Y-15388150D02*
X10130644Y-15397674D01*
X10130644Y-15397674D02*
X10140167Y-15407198D01*
X10140167Y-15407198D02*
X10149691Y-15426246D01*
X10149691Y-15426246D02*
X10149691Y-15483388D01*
X10149691Y-15483388D02*
X10140167Y-15502436D01*
X10140167Y-15502436D02*
X10130644Y-15511960D01*
X10130644Y-15511960D02*
X10111596Y-15521484D01*
X10111596Y-15521484D02*
X10073501Y-15521484D01*
X10073501Y-15521484D02*
X10054453Y-15511960D01*
X10235405Y-15502436D02*
X10244929Y-15511960D01*
X10244929Y-15511960D02*
X10235405Y-15521484D01*
X10235405Y-15521484D02*
X10225882Y-15511960D01*
X10225882Y-15511960D02*
X10235405Y-15502436D01*
X10235405Y-15502436D02*
X10235405Y-15521484D01*
X10235405Y-15397674D02*
X10244929Y-15407198D01*
X10244929Y-15407198D02*
X10235405Y-15416722D01*
X10235405Y-15416722D02*
X10225882Y-15407198D01*
X10225882Y-15407198D02*
X10235405Y-15397674D01*
X10235405Y-15397674D02*
X10235405Y-15416722D01*
D12*
X8543200Y-15820000D02*
X8603200Y-15880000D01*
X8603200Y-15820000D02*
X8543200Y-15880000D01*
D11*
X8902072Y-15741484D02*
X8921120Y-15741484D01*
X8921120Y-15741484D02*
X8940167Y-15751008D01*
X8940167Y-15751008D02*
X8949691Y-15760531D01*
X8949691Y-15760531D02*
X8959215Y-15779579D01*
X8959215Y-15779579D02*
X8968739Y-15817674D01*
X8968739Y-15817674D02*
X8968739Y-15865293D01*
X8968739Y-15865293D02*
X8959215Y-15903388D01*
X8959215Y-15903388D02*
X8949691Y-15922436D01*
X8949691Y-15922436D02*
X8940167Y-15931960D01*
X8940167Y-15931960D02*
X8921120Y-15941484D01*
X8921120Y-15941484D02*
X8902072Y-15941484D01*
X8902072Y-15941484D02*
X8883024Y-15931960D01*
X8883024Y-15931960D02*
X8873501Y-15922436D01*
X8873501Y-15922436D02*
X8863977Y-15903388D01*
X8863977Y-15903388D02*
X8854453Y-15865293D01*
X8854453Y-15865293D02*
X8854453Y-15817674D01*
X8854453Y-15817674D02*
X8863977Y-15779579D01*
X8863977Y-15779579D02*
X8873501Y-15760531D01*
X8873501Y-15760531D02*
X8883024Y-15751008D01*
X8883024Y-15751008D02*
X8902072Y-15741484D01*
X9054453Y-15922436D02*
X9063977Y-15931960D01*
X9063977Y-15931960D02*
X9054453Y-15941484D01*
X9054453Y-15941484D02*
X9044929Y-15931960D01*
X9044929Y-15931960D02*
X9054453Y-15922436D01*
X9054453Y-15922436D02*
X9054453Y-15941484D01*
X9235405Y-15741484D02*
X9197310Y-15741484D01*
X9197310Y-15741484D02*
X9178263Y-15751008D01*
X9178263Y-15751008D02*
X9168739Y-15760531D01*
X9168739Y-15760531D02*
X9149691Y-15789103D01*
X9149691Y-15789103D02*
X9140167Y-15827198D01*
X9140167Y-15827198D02*
X9140167Y-15903388D01*
X9140167Y-15903388D02*
X9149691Y-15922436D01*
X9149691Y-15922436D02*
X9159215Y-15931960D01*
X9159215Y-15931960D02*
X9178263Y-15941484D01*
X9178263Y-15941484D02*
X9216358Y-15941484D01*
X9216358Y-15941484D02*
X9235405Y-15931960D01*
X9235405Y-15931960D02*
X9244929Y-15922436D01*
X9244929Y-15922436D02*
X9254453Y-15903388D01*
X9254453Y-15903388D02*
X9254453Y-15855769D01*
X9254453Y-15855769D02*
X9244929Y-15836722D01*
X9244929Y-15836722D02*
X9235405Y-15827198D01*
X9235405Y-15827198D02*
X9216358Y-15817674D01*
X9216358Y-15817674D02*
X9178263Y-15817674D01*
X9178263Y-15817674D02*
X9159215Y-15827198D01*
X9159215Y-15827198D02*
X9149691Y-15836722D01*
X9149691Y-15836722D02*
X9140167Y-15855769D01*
X9378263Y-15741484D02*
X9397310Y-15741484D01*
X9397310Y-15741484D02*
X9416358Y-15751008D01*
X9416358Y-15751008D02*
X9425882Y-15760531D01*
X9425882Y-15760531D02*
X9435405Y-15779579D01*
X9435405Y-15779579D02*
X9444929Y-15817674D01*
X9444929Y-15817674D02*
X9444929Y-15865293D01*
X9444929Y-15865293D02*
X9435405Y-15903388D01*
X9435405Y-15903388D02*
X9425882Y-15922436D01*
X9425882Y-15922436D02*
X9416358Y-15931960D01*
X9416358Y-15931960D02*
X9397310Y-15941484D01*
X9397310Y-15941484D02*
X9378263Y-15941484D01*
X9378263Y-15941484D02*
X9359215Y-15931960D01*
X9359215Y-15931960D02*
X9349691Y-15922436D01*
X9349691Y-15922436D02*
X9340167Y-15903388D01*
X9340167Y-15903388D02*
X9330644Y-15865293D01*
X9330644Y-15865293D02*
X9330644Y-15817674D01*
X9330644Y-15817674D02*
X9340167Y-15779579D01*
X9340167Y-15779579D02*
X9349691Y-15760531D01*
X9349691Y-15760531D02*
X9359215Y-15751008D01*
X9359215Y-15751008D02*
X9378263Y-15741484D01*
X9568739Y-15741484D02*
X9587786Y-15741484D01*
X9587786Y-15741484D02*
X9606834Y-15751008D01*
X9606834Y-15751008D02*
X9616358Y-15760531D01*
X9616358Y-15760531D02*
X9625882Y-15779579D01*
X9625882Y-15779579D02*
X9635405Y-15817674D01*
X9635405Y-15817674D02*
X9635405Y-15865293D01*
X9635405Y-15865293D02*
X9625882Y-15903388D01*
X9625882Y-15903388D02*
X9616358Y-15922436D01*
X9616358Y-15922436D02*
X9606834Y-15931960D01*
X9606834Y-15931960D02*
X9587786Y-15941484D01*
X9587786Y-15941484D02*
X9568739Y-15941484D01*
X9568739Y-15941484D02*
X9549691Y-15931960D01*
X9549691Y-15931960D02*
X9540167Y-15922436D01*
X9540167Y-15922436D02*
X9530644Y-15903388D01*
X9530644Y-15903388D02*
X9521120Y-15865293D01*
X9521120Y-15865293D02*
X9521120Y-15817674D01*
X9521120Y-15817674D02*
X9530644Y-15779579D01*
X9530644Y-15779579D02*
X9540167Y-15760531D01*
X9540167Y-15760531D02*
X9549691Y-15751008D01*
X9549691Y-15751008D02*
X9568739Y-15741484D01*
X9721120Y-15941484D02*
X9721120Y-15808150D01*
X9721120Y-15827198D02*
X9730644Y-15817674D01*
X9730644Y-15817674D02*
X9749691Y-15808150D01*
X9749691Y-15808150D02*
X9778263Y-15808150D01*
X9778263Y-15808150D02*
X9797310Y-15817674D01*
X9797310Y-15817674D02*
X9806834Y-15836722D01*
X9806834Y-15836722D02*
X9806834Y-15941484D01*
X9806834Y-15836722D02*
X9816358Y-15817674D01*
X9816358Y-15817674D02*
X9835405Y-15808150D01*
X9835405Y-15808150D02*
X9863977Y-15808150D01*
X9863977Y-15808150D02*
X9883025Y-15817674D01*
X9883025Y-15817674D02*
X9892548Y-15836722D01*
X9892548Y-15836722D02*
X9892548Y-15941484D01*
X9987786Y-15941484D02*
X9987786Y-15808150D01*
X9987786Y-15827198D02*
X9997310Y-15817674D01*
X9997310Y-15817674D02*
X10016358Y-15808150D01*
X10016358Y-15808150D02*
X10044929Y-15808150D01*
X10044929Y-15808150D02*
X10063977Y-15817674D01*
X10063977Y-15817674D02*
X10073501Y-15836722D01*
X10073501Y-15836722D02*
X10073501Y-15941484D01*
X10073501Y-15836722D02*
X10083025Y-15817674D01*
X10083025Y-15817674D02*
X10102072Y-15808150D01*
X10102072Y-15808150D02*
X10130644Y-15808150D01*
X10130644Y-15808150D02*
X10149691Y-15817674D01*
X10149691Y-15817674D02*
X10159215Y-15836722D01*
X10159215Y-15836722D02*
X10159215Y-15941484D01*
X10549691Y-15731960D02*
X10378263Y-15989103D01*
X10806834Y-15741484D02*
X10825882Y-15741484D01*
X10825882Y-15741484D02*
X10844929Y-15751008D01*
X10844929Y-15751008D02*
X10854453Y-15760531D01*
X10854453Y-15760531D02*
X10863977Y-15779579D01*
X10863977Y-15779579D02*
X10873501Y-15817674D01*
X10873501Y-15817674D02*
X10873501Y-15865293D01*
X10873501Y-15865293D02*
X10863977Y-15903388D01*
X10863977Y-15903388D02*
X10854453Y-15922436D01*
X10854453Y-15922436D02*
X10844929Y-15931960D01*
X10844929Y-15931960D02*
X10825882Y-15941484D01*
X10825882Y-15941484D02*
X10806834Y-15941484D01*
X10806834Y-15941484D02*
X10787787Y-15931960D01*
X10787787Y-15931960D02*
X10778263Y-15922436D01*
X10778263Y-15922436D02*
X10768739Y-15903388D01*
X10768739Y-15903388D02*
X10759215Y-15865293D01*
X10759215Y-15865293D02*
X10759215Y-15817674D01*
X10759215Y-15817674D02*
X10768739Y-15779579D01*
X10768739Y-15779579D02*
X10778263Y-15760531D01*
X10778263Y-15760531D02*
X10787787Y-15751008D01*
X10787787Y-15751008D02*
X10806834Y-15741484D01*
X10959215Y-15922436D02*
X10968739Y-15931960D01*
X10968739Y-15931960D02*
X10959215Y-15941484D01*
X10959215Y-15941484D02*
X10949691Y-15931960D01*
X10949691Y-15931960D02*
X10959215Y-15922436D01*
X10959215Y-15922436D02*
X10959215Y-15941484D01*
X11092548Y-15741484D02*
X11111596Y-15741484D01*
X11111596Y-15741484D02*
X11130644Y-15751008D01*
X11130644Y-15751008D02*
X11140168Y-15760531D01*
X11140168Y-15760531D02*
X11149691Y-15779579D01*
X11149691Y-15779579D02*
X11159215Y-15817674D01*
X11159215Y-15817674D02*
X11159215Y-15865293D01*
X11159215Y-15865293D02*
X11149691Y-15903388D01*
X11149691Y-15903388D02*
X11140168Y-15922436D01*
X11140168Y-15922436D02*
X11130644Y-15931960D01*
X11130644Y-15931960D02*
X11111596Y-15941484D01*
X11111596Y-15941484D02*
X11092548Y-15941484D01*
X11092548Y-15941484D02*
X11073501Y-15931960D01*
X11073501Y-15931960D02*
X11063977Y-15922436D01*
X11063977Y-15922436D02*
X11054453Y-15903388D01*
X11054453Y-15903388D02*
X11044929Y-15865293D01*
X11044929Y-15865293D02*
X11044929Y-15817674D01*
X11044929Y-15817674D02*
X11054453Y-15779579D01*
X11054453Y-15779579D02*
X11063977Y-15760531D01*
X11063977Y-15760531D02*
X11073501Y-15751008D01*
X11073501Y-15751008D02*
X11092548Y-15741484D01*
X11235406Y-15760531D02*
X11244929Y-15751008D01*
X11244929Y-15751008D02*
X11263977Y-15741484D01*
X11263977Y-15741484D02*
X11311596Y-15741484D01*
X11311596Y-15741484D02*
X11330644Y-15751008D01*
X11330644Y-15751008D02*
X11340167Y-15760531D01*
X11340167Y-15760531D02*
X11349691Y-15779579D01*
X11349691Y-15779579D02*
X11349691Y-15798627D01*
X11349691Y-15798627D02*
X11340167Y-15827198D01*
X11340167Y-15827198D02*
X11225882Y-15941484D01*
X11225882Y-15941484D02*
X11349691Y-15941484D01*
X11416358Y-15741484D02*
X11540167Y-15741484D01*
X11540167Y-15741484D02*
X11473501Y-15817674D01*
X11473501Y-15817674D02*
X11502072Y-15817674D01*
X11502072Y-15817674D02*
X11521120Y-15827198D01*
X11521120Y-15827198D02*
X11530644Y-15836722D01*
X11530644Y-15836722D02*
X11540167Y-15855769D01*
X11540167Y-15855769D02*
X11540167Y-15903388D01*
X11540167Y-15903388D02*
X11530644Y-15922436D01*
X11530644Y-15922436D02*
X11521120Y-15931960D01*
X11521120Y-15931960D02*
X11502072Y-15941484D01*
X11502072Y-15941484D02*
X11444929Y-15941484D01*
X11444929Y-15941484D02*
X11425882Y-15931960D01*
X11425882Y-15931960D02*
X11416358Y-15922436D01*
X11711596Y-15741484D02*
X11673501Y-15741484D01*
X11673501Y-15741484D02*
X11654453Y-15751008D01*
X11654453Y-15751008D02*
X11644929Y-15760531D01*
X11644929Y-15760531D02*
X11625882Y-15789103D01*
X11625882Y-15789103D02*
X11616358Y-15827198D01*
X11616358Y-15827198D02*
X11616358Y-15903388D01*
X11616358Y-15903388D02*
X11625882Y-15922436D01*
X11625882Y-15922436D02*
X11635406Y-15931960D01*
X11635406Y-15931960D02*
X11654453Y-15941484D01*
X11654453Y-15941484D02*
X11692548Y-15941484D01*
X11692548Y-15941484D02*
X11711596Y-15931960D01*
X11711596Y-15931960D02*
X11721120Y-15922436D01*
X11721120Y-15922436D02*
X11730644Y-15903388D01*
X11730644Y-15903388D02*
X11730644Y-15855769D01*
X11730644Y-15855769D02*
X11721120Y-15836722D01*
X11721120Y-15836722D02*
X11711596Y-15827198D01*
X11711596Y-15827198D02*
X11692548Y-15817674D01*
X11692548Y-15817674D02*
X11654453Y-15817674D01*
X11654453Y-15817674D02*
X11635406Y-15827198D01*
X11635406Y-15827198D02*
X11625882Y-15836722D01*
X11625882Y-15836722D02*
X11616358Y-15855769D01*
X11806834Y-15741484D02*
X11806834Y-15779579D01*
X11883025Y-15741484D02*
X11883025Y-15779579D01*
X12178263Y-16017674D02*
X12168739Y-16008150D01*
X12168739Y-16008150D02*
X12149691Y-15979579D01*
X12149691Y-15979579D02*
X12140168Y-15960531D01*
X12140168Y-15960531D02*
X12130644Y-15931960D01*
X12130644Y-15931960D02*
X12121120Y-15884341D01*
X12121120Y-15884341D02*
X12121120Y-15846246D01*
X12121120Y-15846246D02*
X12130644Y-15798627D01*
X12130644Y-15798627D02*
X12140168Y-15770055D01*
X12140168Y-15770055D02*
X12149691Y-15751008D01*
X12149691Y-15751008D02*
X12168739Y-15722436D01*
X12168739Y-15722436D02*
X12178263Y-15712912D01*
X12235406Y-15741484D02*
X12368739Y-15741484D01*
X12368739Y-15741484D02*
X12283025Y-15941484D01*
X12425882Y-15741484D02*
X12559215Y-15741484D01*
X12559215Y-15741484D02*
X12473501Y-15941484D01*
X12663977Y-15827198D02*
X12644929Y-15817674D01*
X12644929Y-15817674D02*
X12635406Y-15808150D01*
X12635406Y-15808150D02*
X12625882Y-15789103D01*
X12625882Y-15789103D02*
X12625882Y-15779579D01*
X12625882Y-15779579D02*
X12635406Y-15760531D01*
X12635406Y-15760531D02*
X12644929Y-15751008D01*
X12644929Y-15751008D02*
X12663977Y-15741484D01*
X12663977Y-15741484D02*
X12702072Y-15741484D01*
X12702072Y-15741484D02*
X12721120Y-15751008D01*
X12721120Y-15751008D02*
X12730644Y-15760531D01*
X12730644Y-15760531D02*
X12740168Y-15779579D01*
X12740168Y-15779579D02*
X12740168Y-15789103D01*
X12740168Y-15789103D02*
X12730644Y-15808150D01*
X12730644Y-15808150D02*
X12721120Y-15817674D01*
X12721120Y-15817674D02*
X12702072Y-15827198D01*
X12702072Y-15827198D02*
X12663977Y-15827198D01*
X12663977Y-15827198D02*
X12644929Y-15836722D01*
X12644929Y-15836722D02*
X12635406Y-15846246D01*
X12635406Y-15846246D02*
X12625882Y-15865293D01*
X12625882Y-15865293D02*
X12625882Y-15903388D01*
X12625882Y-15903388D02*
X12635406Y-15922436D01*
X12635406Y-15922436D02*
X12644929Y-15931960D01*
X12644929Y-15931960D02*
X12663977Y-15941484D01*
X12663977Y-15941484D02*
X12702072Y-15941484D01*
X12702072Y-15941484D02*
X12721120Y-15931960D01*
X12721120Y-15931960D02*
X12730644Y-15922436D01*
X12730644Y-15922436D02*
X12740168Y-15903388D01*
X12740168Y-15903388D02*
X12740168Y-15865293D01*
X12740168Y-15865293D02*
X12730644Y-15846246D01*
X12730644Y-15846246D02*
X12721120Y-15836722D01*
X12721120Y-15836722D02*
X12702072Y-15827198D01*
X12978263Y-15941484D02*
X12978263Y-15741484D01*
X13063977Y-15941484D02*
X13063977Y-15836722D01*
X13063977Y-15836722D02*
X13054453Y-15817674D01*
X13054453Y-15817674D02*
X13035406Y-15808150D01*
X13035406Y-15808150D02*
X13006834Y-15808150D01*
X13006834Y-15808150D02*
X12987787Y-15817674D01*
X12987787Y-15817674D02*
X12978263Y-15827198D01*
X13187787Y-15941484D02*
X13168739Y-15931960D01*
X13168739Y-15931960D02*
X13159215Y-15922436D01*
X13159215Y-15922436D02*
X13149691Y-15903388D01*
X13149691Y-15903388D02*
X13149691Y-15846246D01*
X13149691Y-15846246D02*
X13159215Y-15827198D01*
X13159215Y-15827198D02*
X13168739Y-15817674D01*
X13168739Y-15817674D02*
X13187787Y-15808150D01*
X13187787Y-15808150D02*
X13216358Y-15808150D01*
X13216358Y-15808150D02*
X13235406Y-15817674D01*
X13235406Y-15817674D02*
X13244930Y-15827198D01*
X13244930Y-15827198D02*
X13254453Y-15846246D01*
X13254453Y-15846246D02*
X13254453Y-15903388D01*
X13254453Y-15903388D02*
X13244930Y-15922436D01*
X13244930Y-15922436D02*
X13235406Y-15931960D01*
X13235406Y-15931960D02*
X13216358Y-15941484D01*
X13216358Y-15941484D02*
X13187787Y-15941484D01*
X13368739Y-15941484D02*
X13349691Y-15931960D01*
X13349691Y-15931960D02*
X13340168Y-15912912D01*
X13340168Y-15912912D02*
X13340168Y-15741484D01*
X13521120Y-15931960D02*
X13502072Y-15941484D01*
X13502072Y-15941484D02*
X13463977Y-15941484D01*
X13463977Y-15941484D02*
X13444930Y-15931960D01*
X13444930Y-15931960D02*
X13435406Y-15912912D01*
X13435406Y-15912912D02*
X13435406Y-15836722D01*
X13435406Y-15836722D02*
X13444930Y-15817674D01*
X13444930Y-15817674D02*
X13463977Y-15808150D01*
X13463977Y-15808150D02*
X13502072Y-15808150D01*
X13502072Y-15808150D02*
X13521120Y-15817674D01*
X13521120Y-15817674D02*
X13530644Y-15836722D01*
X13530644Y-15836722D02*
X13530644Y-15855769D01*
X13530644Y-15855769D02*
X13435406Y-15874817D01*
X13606834Y-15931960D02*
X13625882Y-15941484D01*
X13625882Y-15941484D02*
X13663977Y-15941484D01*
X13663977Y-15941484D02*
X13683025Y-15931960D01*
X13683025Y-15931960D02*
X13692549Y-15912912D01*
X13692549Y-15912912D02*
X13692549Y-15903388D01*
X13692549Y-15903388D02*
X13683025Y-15884341D01*
X13683025Y-15884341D02*
X13663977Y-15874817D01*
X13663977Y-15874817D02*
X13635406Y-15874817D01*
X13635406Y-15874817D02*
X13616358Y-15865293D01*
X13616358Y-15865293D02*
X13606834Y-15846246D01*
X13606834Y-15846246D02*
X13606834Y-15836722D01*
X13606834Y-15836722D02*
X13616358Y-15817674D01*
X13616358Y-15817674D02*
X13635406Y-15808150D01*
X13635406Y-15808150D02*
X13663977Y-15808150D01*
X13663977Y-15808150D02*
X13683025Y-15817674D01*
X13759215Y-16017674D02*
X13768739Y-16008150D01*
X13768739Y-16008150D02*
X13787787Y-15979579D01*
X13787787Y-15979579D02*
X13797311Y-15960531D01*
X13797311Y-15960531D02*
X13806834Y-15931960D01*
X13806834Y-15931960D02*
X13816358Y-15884341D01*
X13816358Y-15884341D02*
X13816358Y-15846246D01*
X13816358Y-15846246D02*
X13806834Y-15798627D01*
X13806834Y-15798627D02*
X13797311Y-15770055D01*
X13797311Y-15770055D02*
X13787787Y-15751008D01*
X13787787Y-15751008D02*
X13768739Y-15722436D01*
X13768739Y-15722436D02*
X13759215Y-15712912D01*
X14121120Y-16017674D02*
X14111596Y-16008150D01*
X14111596Y-16008150D02*
X14092549Y-15979579D01*
X14092549Y-15979579D02*
X14083025Y-15960531D01*
X14083025Y-15960531D02*
X14073501Y-15931960D01*
X14073501Y-15931960D02*
X14063977Y-15884341D01*
X14063977Y-15884341D02*
X14063977Y-15846246D01*
X14063977Y-15846246D02*
X14073501Y-15798627D01*
X14073501Y-15798627D02*
X14083025Y-15770055D01*
X14083025Y-15770055D02*
X14092549Y-15751008D01*
X14092549Y-15751008D02*
X14111596Y-15722436D01*
X14111596Y-15722436D02*
X14121120Y-15712912D01*
X14197311Y-15808150D02*
X14197311Y-15941484D01*
X14197311Y-15827198D02*
X14206834Y-15817674D01*
X14206834Y-15817674D02*
X14225882Y-15808150D01*
X14225882Y-15808150D02*
X14254453Y-15808150D01*
X14254453Y-15808150D02*
X14273501Y-15817674D01*
X14273501Y-15817674D02*
X14283025Y-15836722D01*
X14283025Y-15836722D02*
X14283025Y-15941484D01*
X14406834Y-15941484D02*
X14387787Y-15931960D01*
X14387787Y-15931960D02*
X14378263Y-15922436D01*
X14378263Y-15922436D02*
X14368739Y-15903388D01*
X14368739Y-15903388D02*
X14368739Y-15846246D01*
X14368739Y-15846246D02*
X14378263Y-15827198D01*
X14378263Y-15827198D02*
X14387787Y-15817674D01*
X14387787Y-15817674D02*
X14406834Y-15808150D01*
X14406834Y-15808150D02*
X14435406Y-15808150D01*
X14435406Y-15808150D02*
X14454453Y-15817674D01*
X14454453Y-15817674D02*
X14463977Y-15827198D01*
X14463977Y-15827198D02*
X14473501Y-15846246D01*
X14473501Y-15846246D02*
X14473501Y-15903388D01*
X14473501Y-15903388D02*
X14463977Y-15922436D01*
X14463977Y-15922436D02*
X14454453Y-15931960D01*
X14454453Y-15931960D02*
X14435406Y-15941484D01*
X14435406Y-15941484D02*
X14406834Y-15941484D01*
X14530644Y-15808150D02*
X14606834Y-15808150D01*
X14559215Y-15741484D02*
X14559215Y-15912912D01*
X14559215Y-15912912D02*
X14568739Y-15931960D01*
X14568739Y-15931960D02*
X14587787Y-15941484D01*
X14587787Y-15941484D02*
X14606834Y-15941484D01*
X14825882Y-15808150D02*
X14825882Y-16008150D01*
X14825882Y-15817674D02*
X14844930Y-15808150D01*
X14844930Y-15808150D02*
X14883025Y-15808150D01*
X14883025Y-15808150D02*
X14902073Y-15817674D01*
X14902073Y-15817674D02*
X14911596Y-15827198D01*
X14911596Y-15827198D02*
X14921120Y-15846246D01*
X14921120Y-15846246D02*
X14921120Y-15903388D01*
X14921120Y-15903388D02*
X14911596Y-15922436D01*
X14911596Y-15922436D02*
X14902073Y-15931960D01*
X14902073Y-15931960D02*
X14883025Y-15941484D01*
X14883025Y-15941484D02*
X14844930Y-15941484D01*
X14844930Y-15941484D02*
X14825882Y-15931960D01*
X15035406Y-15941484D02*
X15016358Y-15931960D01*
X15016358Y-15931960D02*
X15006834Y-15912912D01*
X15006834Y-15912912D02*
X15006834Y-15741484D01*
X15197311Y-15941484D02*
X15197311Y-15836722D01*
X15197311Y-15836722D02*
X15187787Y-15817674D01*
X15187787Y-15817674D02*
X15168739Y-15808150D01*
X15168739Y-15808150D02*
X15130644Y-15808150D01*
X15130644Y-15808150D02*
X15111596Y-15817674D01*
X15197311Y-15931960D02*
X15178263Y-15941484D01*
X15178263Y-15941484D02*
X15130644Y-15941484D01*
X15130644Y-15941484D02*
X15111596Y-15931960D01*
X15111596Y-15931960D02*
X15102073Y-15912912D01*
X15102073Y-15912912D02*
X15102073Y-15893865D01*
X15102073Y-15893865D02*
X15111596Y-15874817D01*
X15111596Y-15874817D02*
X15130644Y-15865293D01*
X15130644Y-15865293D02*
X15178263Y-15865293D01*
X15178263Y-15865293D02*
X15197311Y-15855769D01*
X15263977Y-15808150D02*
X15340168Y-15808150D01*
X15292549Y-15741484D02*
X15292549Y-15912912D01*
X15292549Y-15912912D02*
X15302073Y-15931960D01*
X15302073Y-15931960D02*
X15321120Y-15941484D01*
X15321120Y-15941484D02*
X15340168Y-15941484D01*
X15483025Y-15931960D02*
X15463977Y-15941484D01*
X15463977Y-15941484D02*
X15425882Y-15941484D01*
X15425882Y-15941484D02*
X15406834Y-15931960D01*
X15406834Y-15931960D02*
X15397311Y-15912912D01*
X15397311Y-15912912D02*
X15397311Y-15836722D01*
X15397311Y-15836722D02*
X15406834Y-15817674D01*
X15406834Y-15817674D02*
X15425882Y-15808150D01*
X15425882Y-15808150D02*
X15463977Y-15808150D01*
X15463977Y-15808150D02*
X15483025Y-15817674D01*
X15483025Y-15817674D02*
X15492549Y-15836722D01*
X15492549Y-15836722D02*
X15492549Y-15855769D01*
X15492549Y-15855769D02*
X15397311Y-15874817D01*
X15663977Y-15941484D02*
X15663977Y-15741484D01*
X15663977Y-15931960D02*
X15644930Y-15941484D01*
X15644930Y-15941484D02*
X15606834Y-15941484D01*
X15606834Y-15941484D02*
X15587787Y-15931960D01*
X15587787Y-15931960D02*
X15578263Y-15922436D01*
X15578263Y-15922436D02*
X15568739Y-15903388D01*
X15568739Y-15903388D02*
X15568739Y-15846246D01*
X15568739Y-15846246D02*
X15578263Y-15827198D01*
X15578263Y-15827198D02*
X15587787Y-15817674D01*
X15587787Y-15817674D02*
X15606834Y-15808150D01*
X15606834Y-15808150D02*
X15644930Y-15808150D01*
X15644930Y-15808150D02*
X15663977Y-15817674D01*
X15740168Y-16017674D02*
X15749692Y-16008150D01*
X15749692Y-16008150D02*
X15768739Y-15979579D01*
X15768739Y-15979579D02*
X15778263Y-15960531D01*
X15778263Y-15960531D02*
X15787787Y-15931960D01*
X15787787Y-15931960D02*
X15797311Y-15884341D01*
X15797311Y-15884341D02*
X15797311Y-15846246D01*
X15797311Y-15846246D02*
X15787787Y-15798627D01*
X15787787Y-15798627D02*
X15778263Y-15770055D01*
X15778263Y-15770055D02*
X15768739Y-15751008D01*
X15768739Y-15751008D02*
X15749692Y-15722436D01*
X15749692Y-15722436D02*
X15740168Y-15712912D01*
X8603200Y-16114000D02*
G75*
G02*
X8403200Y-16114000I-100000J0D01*
G01*
X8403200Y-16114000D02*
G75*
G02*
X8603200Y-16114000I100000J0D01*
G01*
X8854453Y-16024531D02*
X8863977Y-16015008D01*
X8863977Y-16015008D02*
X8883024Y-16005484D01*
X8883024Y-16005484D02*
X8930644Y-16005484D01*
X8930644Y-16005484D02*
X8949691Y-16015008D01*
X8949691Y-16015008D02*
X8959215Y-16024531D01*
X8959215Y-16024531D02*
X8968739Y-16043579D01*
X8968739Y-16043579D02*
X8968739Y-16062627D01*
X8968739Y-16062627D02*
X8959215Y-16091198D01*
X8959215Y-16091198D02*
X8844929Y-16205484D01*
X8844929Y-16205484D02*
X8968739Y-16205484D01*
X9054453Y-16186436D02*
X9063977Y-16195960D01*
X9063977Y-16195960D02*
X9054453Y-16205484D01*
X9054453Y-16205484D02*
X9044929Y-16195960D01*
X9044929Y-16195960D02*
X9054453Y-16186436D01*
X9054453Y-16186436D02*
X9054453Y-16205484D01*
X9187786Y-16005484D02*
X9206834Y-16005484D01*
X9206834Y-16005484D02*
X9225882Y-16015008D01*
X9225882Y-16015008D02*
X9235405Y-16024531D01*
X9235405Y-16024531D02*
X9244929Y-16043579D01*
X9244929Y-16043579D02*
X9254453Y-16081674D01*
X9254453Y-16081674D02*
X9254453Y-16129293D01*
X9254453Y-16129293D02*
X9244929Y-16167388D01*
X9244929Y-16167388D02*
X9235405Y-16186436D01*
X9235405Y-16186436D02*
X9225882Y-16195960D01*
X9225882Y-16195960D02*
X9206834Y-16205484D01*
X9206834Y-16205484D02*
X9187786Y-16205484D01*
X9187786Y-16205484D02*
X9168739Y-16195960D01*
X9168739Y-16195960D02*
X9159215Y-16186436D01*
X9159215Y-16186436D02*
X9149691Y-16167388D01*
X9149691Y-16167388D02*
X9140167Y-16129293D01*
X9140167Y-16129293D02*
X9140167Y-16081674D01*
X9140167Y-16081674D02*
X9149691Y-16043579D01*
X9149691Y-16043579D02*
X9159215Y-16024531D01*
X9159215Y-16024531D02*
X9168739Y-16015008D01*
X9168739Y-16015008D02*
X9187786Y-16005484D01*
X9378263Y-16005484D02*
X9397310Y-16005484D01*
X9397310Y-16005484D02*
X9416358Y-16015008D01*
X9416358Y-16015008D02*
X9425882Y-16024531D01*
X9425882Y-16024531D02*
X9435405Y-16043579D01*
X9435405Y-16043579D02*
X9444929Y-16081674D01*
X9444929Y-16081674D02*
X9444929Y-16129293D01*
X9444929Y-16129293D02*
X9435405Y-16167388D01*
X9435405Y-16167388D02*
X9425882Y-16186436D01*
X9425882Y-16186436D02*
X9416358Y-16195960D01*
X9416358Y-16195960D02*
X9397310Y-16205484D01*
X9397310Y-16205484D02*
X9378263Y-16205484D01*
X9378263Y-16205484D02*
X9359215Y-16195960D01*
X9359215Y-16195960D02*
X9349691Y-16186436D01*
X9349691Y-16186436D02*
X9340167Y-16167388D01*
X9340167Y-16167388D02*
X9330644Y-16129293D01*
X9330644Y-16129293D02*
X9330644Y-16081674D01*
X9330644Y-16081674D02*
X9340167Y-16043579D01*
X9340167Y-16043579D02*
X9349691Y-16024531D01*
X9349691Y-16024531D02*
X9359215Y-16015008D01*
X9359215Y-16015008D02*
X9378263Y-16005484D01*
X9568739Y-16005484D02*
X9587786Y-16005484D01*
X9587786Y-16005484D02*
X9606834Y-16015008D01*
X9606834Y-16015008D02*
X9616358Y-16024531D01*
X9616358Y-16024531D02*
X9625882Y-16043579D01*
X9625882Y-16043579D02*
X9635405Y-16081674D01*
X9635405Y-16081674D02*
X9635405Y-16129293D01*
X9635405Y-16129293D02*
X9625882Y-16167388D01*
X9625882Y-16167388D02*
X9616358Y-16186436D01*
X9616358Y-16186436D02*
X9606834Y-16195960D01*
X9606834Y-16195960D02*
X9587786Y-16205484D01*
X9587786Y-16205484D02*
X9568739Y-16205484D01*
X9568739Y-16205484D02*
X9549691Y-16195960D01*
X9549691Y-16195960D02*
X9540167Y-16186436D01*
X9540167Y-16186436D02*
X9530644Y-16167388D01*
X9530644Y-16167388D02*
X9521120Y-16129293D01*
X9521120Y-16129293D02*
X9521120Y-16081674D01*
X9521120Y-16081674D02*
X9530644Y-16043579D01*
X9530644Y-16043579D02*
X9540167Y-16024531D01*
X9540167Y-16024531D02*
X9549691Y-16015008D01*
X9549691Y-16015008D02*
X9568739Y-16005484D01*
X9721120Y-16205484D02*
X9721120Y-16072150D01*
X9721120Y-16091198D02*
X9730644Y-16081674D01*
X9730644Y-16081674D02*
X9749691Y-16072150D01*
X9749691Y-16072150D02*
X9778263Y-16072150D01*
X9778263Y-16072150D02*
X9797310Y-16081674D01*
X9797310Y-16081674D02*
X9806834Y-16100722D01*
X9806834Y-16100722D02*
X9806834Y-16205484D01*
X9806834Y-16100722D02*
X9816358Y-16081674D01*
X9816358Y-16081674D02*
X9835405Y-16072150D01*
X9835405Y-16072150D02*
X9863977Y-16072150D01*
X9863977Y-16072150D02*
X9883025Y-16081674D01*
X9883025Y-16081674D02*
X9892548Y-16100722D01*
X9892548Y-16100722D02*
X9892548Y-16205484D01*
X9987786Y-16205484D02*
X9987786Y-16072150D01*
X9987786Y-16091198D02*
X9997310Y-16081674D01*
X9997310Y-16081674D02*
X10016358Y-16072150D01*
X10016358Y-16072150D02*
X10044929Y-16072150D01*
X10044929Y-16072150D02*
X10063977Y-16081674D01*
X10063977Y-16081674D02*
X10073501Y-16100722D01*
X10073501Y-16100722D02*
X10073501Y-16205484D01*
X10073501Y-16100722D02*
X10083025Y-16081674D01*
X10083025Y-16081674D02*
X10102072Y-16072150D01*
X10102072Y-16072150D02*
X10130644Y-16072150D01*
X10130644Y-16072150D02*
X10149691Y-16081674D01*
X10149691Y-16081674D02*
X10159215Y-16100722D01*
X10159215Y-16100722D02*
X10159215Y-16205484D01*
X10549691Y-15995960D02*
X10378263Y-16253103D01*
X10806834Y-16005484D02*
X10825882Y-16005484D01*
X10825882Y-16005484D02*
X10844929Y-16015008D01*
X10844929Y-16015008D02*
X10854453Y-16024531D01*
X10854453Y-16024531D02*
X10863977Y-16043579D01*
X10863977Y-16043579D02*
X10873501Y-16081674D01*
X10873501Y-16081674D02*
X10873501Y-16129293D01*
X10873501Y-16129293D02*
X10863977Y-16167388D01*
X10863977Y-16167388D02*
X10854453Y-16186436D01*
X10854453Y-16186436D02*
X10844929Y-16195960D01*
X10844929Y-16195960D02*
X10825882Y-16205484D01*
X10825882Y-16205484D02*
X10806834Y-16205484D01*
X10806834Y-16205484D02*
X10787787Y-16195960D01*
X10787787Y-16195960D02*
X10778263Y-16186436D01*
X10778263Y-16186436D02*
X10768739Y-16167388D01*
X10768739Y-16167388D02*
X10759215Y-16129293D01*
X10759215Y-16129293D02*
X10759215Y-16081674D01*
X10759215Y-16081674D02*
X10768739Y-16043579D01*
X10768739Y-16043579D02*
X10778263Y-16024531D01*
X10778263Y-16024531D02*
X10787787Y-16015008D01*
X10787787Y-16015008D02*
X10806834Y-16005484D01*
X10959215Y-16186436D02*
X10968739Y-16195960D01*
X10968739Y-16195960D02*
X10959215Y-16205484D01*
X10959215Y-16205484D02*
X10949691Y-16195960D01*
X10949691Y-16195960D02*
X10959215Y-16186436D01*
X10959215Y-16186436D02*
X10959215Y-16205484D01*
X11092548Y-16005484D02*
X11111596Y-16005484D01*
X11111596Y-16005484D02*
X11130644Y-16015008D01*
X11130644Y-16015008D02*
X11140168Y-16024531D01*
X11140168Y-16024531D02*
X11149691Y-16043579D01*
X11149691Y-16043579D02*
X11159215Y-16081674D01*
X11159215Y-16081674D02*
X11159215Y-16129293D01*
X11159215Y-16129293D02*
X11149691Y-16167388D01*
X11149691Y-16167388D02*
X11140168Y-16186436D01*
X11140168Y-16186436D02*
X11130644Y-16195960D01*
X11130644Y-16195960D02*
X11111596Y-16205484D01*
X11111596Y-16205484D02*
X11092548Y-16205484D01*
X11092548Y-16205484D02*
X11073501Y-16195960D01*
X11073501Y-16195960D02*
X11063977Y-16186436D01*
X11063977Y-16186436D02*
X11054453Y-16167388D01*
X11054453Y-16167388D02*
X11044929Y-16129293D01*
X11044929Y-16129293D02*
X11044929Y-16081674D01*
X11044929Y-16081674D02*
X11054453Y-16043579D01*
X11054453Y-16043579D02*
X11063977Y-16024531D01*
X11063977Y-16024531D02*
X11073501Y-16015008D01*
X11073501Y-16015008D02*
X11092548Y-16005484D01*
X11225882Y-16005484D02*
X11359215Y-16005484D01*
X11359215Y-16005484D02*
X11273501Y-16205484D01*
X11463977Y-16091198D02*
X11444929Y-16081674D01*
X11444929Y-16081674D02*
X11435406Y-16072150D01*
X11435406Y-16072150D02*
X11425882Y-16053103D01*
X11425882Y-16053103D02*
X11425882Y-16043579D01*
X11425882Y-16043579D02*
X11435406Y-16024531D01*
X11435406Y-16024531D02*
X11444929Y-16015008D01*
X11444929Y-16015008D02*
X11463977Y-16005484D01*
X11463977Y-16005484D02*
X11502072Y-16005484D01*
X11502072Y-16005484D02*
X11521120Y-16015008D01*
X11521120Y-16015008D02*
X11530644Y-16024531D01*
X11530644Y-16024531D02*
X11540167Y-16043579D01*
X11540167Y-16043579D02*
X11540167Y-16053103D01*
X11540167Y-16053103D02*
X11530644Y-16072150D01*
X11530644Y-16072150D02*
X11521120Y-16081674D01*
X11521120Y-16081674D02*
X11502072Y-16091198D01*
X11502072Y-16091198D02*
X11463977Y-16091198D01*
X11463977Y-16091198D02*
X11444929Y-16100722D01*
X11444929Y-16100722D02*
X11435406Y-16110246D01*
X11435406Y-16110246D02*
X11425882Y-16129293D01*
X11425882Y-16129293D02*
X11425882Y-16167388D01*
X11425882Y-16167388D02*
X11435406Y-16186436D01*
X11435406Y-16186436D02*
X11444929Y-16195960D01*
X11444929Y-16195960D02*
X11463977Y-16205484D01*
X11463977Y-16205484D02*
X11502072Y-16205484D01*
X11502072Y-16205484D02*
X11521120Y-16195960D01*
X11521120Y-16195960D02*
X11530644Y-16186436D01*
X11530644Y-16186436D02*
X11540167Y-16167388D01*
X11540167Y-16167388D02*
X11540167Y-16129293D01*
X11540167Y-16129293D02*
X11530644Y-16110246D01*
X11530644Y-16110246D02*
X11521120Y-16100722D01*
X11521120Y-16100722D02*
X11502072Y-16091198D01*
X11606834Y-16005484D02*
X11740167Y-16005484D01*
X11740167Y-16005484D02*
X11654453Y-16205484D01*
X11806834Y-16005484D02*
X11806834Y-16043579D01*
X11883025Y-16005484D02*
X11883025Y-16043579D01*
X12178263Y-16281674D02*
X12168739Y-16272150D01*
X12168739Y-16272150D02*
X12149691Y-16243579D01*
X12149691Y-16243579D02*
X12140168Y-16224531D01*
X12140168Y-16224531D02*
X12130644Y-16195960D01*
X12130644Y-16195960D02*
X12121120Y-16148341D01*
X12121120Y-16148341D02*
X12121120Y-16110246D01*
X12121120Y-16110246D02*
X12130644Y-16062627D01*
X12130644Y-16062627D02*
X12140168Y-16034055D01*
X12140168Y-16034055D02*
X12149691Y-16015008D01*
X12149691Y-16015008D02*
X12168739Y-15986436D01*
X12168739Y-15986436D02*
X12178263Y-15976912D01*
X12340168Y-16072150D02*
X12340168Y-16205484D01*
X12292548Y-15995960D02*
X12244929Y-16138817D01*
X12244929Y-16138817D02*
X12368739Y-16138817D01*
X12597310Y-16205484D02*
X12597310Y-16005484D01*
X12683025Y-16205484D02*
X12683025Y-16100722D01*
X12683025Y-16100722D02*
X12673501Y-16081674D01*
X12673501Y-16081674D02*
X12654453Y-16072150D01*
X12654453Y-16072150D02*
X12625882Y-16072150D01*
X12625882Y-16072150D02*
X12606834Y-16081674D01*
X12606834Y-16081674D02*
X12597310Y-16091198D01*
X12806834Y-16205484D02*
X12787787Y-16195960D01*
X12787787Y-16195960D02*
X12778263Y-16186436D01*
X12778263Y-16186436D02*
X12768739Y-16167388D01*
X12768739Y-16167388D02*
X12768739Y-16110246D01*
X12768739Y-16110246D02*
X12778263Y-16091198D01*
X12778263Y-16091198D02*
X12787787Y-16081674D01*
X12787787Y-16081674D02*
X12806834Y-16072150D01*
X12806834Y-16072150D02*
X12835406Y-16072150D01*
X12835406Y-16072150D02*
X12854453Y-16081674D01*
X12854453Y-16081674D02*
X12863977Y-16091198D01*
X12863977Y-16091198D02*
X12873501Y-16110246D01*
X12873501Y-16110246D02*
X12873501Y-16167388D01*
X12873501Y-16167388D02*
X12863977Y-16186436D01*
X12863977Y-16186436D02*
X12854453Y-16195960D01*
X12854453Y-16195960D02*
X12835406Y-16205484D01*
X12835406Y-16205484D02*
X12806834Y-16205484D01*
X12987787Y-16205484D02*
X12968739Y-16195960D01*
X12968739Y-16195960D02*
X12959215Y-16176912D01*
X12959215Y-16176912D02*
X12959215Y-16005484D01*
X13140168Y-16195960D02*
X13121120Y-16205484D01*
X13121120Y-16205484D02*
X13083025Y-16205484D01*
X13083025Y-16205484D02*
X13063977Y-16195960D01*
X13063977Y-16195960D02*
X13054453Y-16176912D01*
X13054453Y-16176912D02*
X13054453Y-16100722D01*
X13054453Y-16100722D02*
X13063977Y-16081674D01*
X13063977Y-16081674D02*
X13083025Y-16072150D01*
X13083025Y-16072150D02*
X13121120Y-16072150D01*
X13121120Y-16072150D02*
X13140168Y-16081674D01*
X13140168Y-16081674D02*
X13149691Y-16100722D01*
X13149691Y-16100722D02*
X13149691Y-16119769D01*
X13149691Y-16119769D02*
X13054453Y-16138817D01*
X13225882Y-16195960D02*
X13244930Y-16205484D01*
X13244930Y-16205484D02*
X13283025Y-16205484D01*
X13283025Y-16205484D02*
X13302072Y-16195960D01*
X13302072Y-16195960D02*
X13311596Y-16176912D01*
X13311596Y-16176912D02*
X13311596Y-16167388D01*
X13311596Y-16167388D02*
X13302072Y-16148341D01*
X13302072Y-16148341D02*
X13283025Y-16138817D01*
X13283025Y-16138817D02*
X13254453Y-16138817D01*
X13254453Y-16138817D02*
X13235406Y-16129293D01*
X13235406Y-16129293D02*
X13225882Y-16110246D01*
X13225882Y-16110246D02*
X13225882Y-16100722D01*
X13225882Y-16100722D02*
X13235406Y-16081674D01*
X13235406Y-16081674D02*
X13254453Y-16072150D01*
X13254453Y-16072150D02*
X13283025Y-16072150D01*
X13283025Y-16072150D02*
X13302072Y-16081674D01*
X13378263Y-16281674D02*
X13387787Y-16272150D01*
X13387787Y-16272150D02*
X13406834Y-16243579D01*
X13406834Y-16243579D02*
X13416358Y-16224531D01*
X13416358Y-16224531D02*
X13425882Y-16195960D01*
X13425882Y-16195960D02*
X13435406Y-16148341D01*
X13435406Y-16148341D02*
X13435406Y-16110246D01*
X13435406Y-16110246D02*
X13425882Y-16062627D01*
X13425882Y-16062627D02*
X13416358Y-16034055D01*
X13416358Y-16034055D02*
X13406834Y-16015008D01*
X13406834Y-16015008D02*
X13387787Y-15986436D01*
X13387787Y-15986436D02*
X13378263Y-15976912D01*
X13740168Y-16281674D02*
X13730644Y-16272150D01*
X13730644Y-16272150D02*
X13711596Y-16243579D01*
X13711596Y-16243579D02*
X13702072Y-16224531D01*
X13702072Y-16224531D02*
X13692549Y-16195960D01*
X13692549Y-16195960D02*
X13683025Y-16148341D01*
X13683025Y-16148341D02*
X13683025Y-16110246D01*
X13683025Y-16110246D02*
X13692549Y-16062627D01*
X13692549Y-16062627D02*
X13702072Y-16034055D01*
X13702072Y-16034055D02*
X13711596Y-16015008D01*
X13711596Y-16015008D02*
X13730644Y-15986436D01*
X13730644Y-15986436D02*
X13740168Y-15976912D01*
X13816358Y-16072150D02*
X13816358Y-16205484D01*
X13816358Y-16091198D02*
X13825882Y-16081674D01*
X13825882Y-16081674D02*
X13844930Y-16072150D01*
X13844930Y-16072150D02*
X13873501Y-16072150D01*
X13873501Y-16072150D02*
X13892549Y-16081674D01*
X13892549Y-16081674D02*
X13902072Y-16100722D01*
X13902072Y-16100722D02*
X13902072Y-16205484D01*
X14025882Y-16205484D02*
X14006834Y-16195960D01*
X14006834Y-16195960D02*
X13997311Y-16186436D01*
X13997311Y-16186436D02*
X13987787Y-16167388D01*
X13987787Y-16167388D02*
X13987787Y-16110246D01*
X13987787Y-16110246D02*
X13997311Y-16091198D01*
X13997311Y-16091198D02*
X14006834Y-16081674D01*
X14006834Y-16081674D02*
X14025882Y-16072150D01*
X14025882Y-16072150D02*
X14054453Y-16072150D01*
X14054453Y-16072150D02*
X14073501Y-16081674D01*
X14073501Y-16081674D02*
X14083025Y-16091198D01*
X14083025Y-16091198D02*
X14092549Y-16110246D01*
X14092549Y-16110246D02*
X14092549Y-16167388D01*
X14092549Y-16167388D02*
X14083025Y-16186436D01*
X14083025Y-16186436D02*
X14073501Y-16195960D01*
X14073501Y-16195960D02*
X14054453Y-16205484D01*
X14054453Y-16205484D02*
X14025882Y-16205484D01*
X14149692Y-16072150D02*
X14225882Y-16072150D01*
X14178263Y-16005484D02*
X14178263Y-16176912D01*
X14178263Y-16176912D02*
X14187787Y-16195960D01*
X14187787Y-16195960D02*
X14206834Y-16205484D01*
X14206834Y-16205484D02*
X14225882Y-16205484D01*
X14444930Y-16072150D02*
X14444930Y-16272150D01*
X14444930Y-16081674D02*
X14463977Y-16072150D01*
X14463977Y-16072150D02*
X14502073Y-16072150D01*
X14502073Y-16072150D02*
X14521120Y-16081674D01*
X14521120Y-16081674D02*
X14530644Y-16091198D01*
X14530644Y-16091198D02*
X14540168Y-16110246D01*
X14540168Y-16110246D02*
X14540168Y-16167388D01*
X14540168Y-16167388D02*
X14530644Y-16186436D01*
X14530644Y-16186436D02*
X14521120Y-16195960D01*
X14521120Y-16195960D02*
X14502073Y-16205484D01*
X14502073Y-16205484D02*
X14463977Y-16205484D01*
X14463977Y-16205484D02*
X14444930Y-16195960D01*
X14654453Y-16205484D02*
X14635406Y-16195960D01*
X14635406Y-16195960D02*
X14625882Y-16176912D01*
X14625882Y-16176912D02*
X14625882Y-16005484D01*
X14816358Y-16205484D02*
X14816358Y-16100722D01*
X14816358Y-16100722D02*
X14806834Y-16081674D01*
X14806834Y-16081674D02*
X14787787Y-16072150D01*
X14787787Y-16072150D02*
X14749692Y-16072150D01*
X14749692Y-16072150D02*
X14730644Y-16081674D01*
X14816358Y-16195960D02*
X14797311Y-16205484D01*
X14797311Y-16205484D02*
X14749692Y-16205484D01*
X14749692Y-16205484D02*
X14730644Y-16195960D01*
X14730644Y-16195960D02*
X14721120Y-16176912D01*
X14721120Y-16176912D02*
X14721120Y-16157865D01*
X14721120Y-16157865D02*
X14730644Y-16138817D01*
X14730644Y-16138817D02*
X14749692Y-16129293D01*
X14749692Y-16129293D02*
X14797311Y-16129293D01*
X14797311Y-16129293D02*
X14816358Y-16119769D01*
X14883025Y-16072150D02*
X14959215Y-16072150D01*
X14911596Y-16005484D02*
X14911596Y-16176912D01*
X14911596Y-16176912D02*
X14921120Y-16195960D01*
X14921120Y-16195960D02*
X14940168Y-16205484D01*
X14940168Y-16205484D02*
X14959215Y-16205484D01*
X15102073Y-16195960D02*
X15083025Y-16205484D01*
X15083025Y-16205484D02*
X15044930Y-16205484D01*
X15044930Y-16205484D02*
X15025882Y-16195960D01*
X15025882Y-16195960D02*
X15016358Y-16176912D01*
X15016358Y-16176912D02*
X15016358Y-16100722D01*
X15016358Y-16100722D02*
X15025882Y-16081674D01*
X15025882Y-16081674D02*
X15044930Y-16072150D01*
X15044930Y-16072150D02*
X15083025Y-16072150D01*
X15083025Y-16072150D02*
X15102073Y-16081674D01*
X15102073Y-16081674D02*
X15111596Y-16100722D01*
X15111596Y-16100722D02*
X15111596Y-16119769D01*
X15111596Y-16119769D02*
X15016358Y-16138817D01*
X15283025Y-16205484D02*
X15283025Y-16005484D01*
X15283025Y-16195960D02*
X15263977Y-16205484D01*
X15263977Y-16205484D02*
X15225882Y-16205484D01*
X15225882Y-16205484D02*
X15206834Y-16195960D01*
X15206834Y-16195960D02*
X15197311Y-16186436D01*
X15197311Y-16186436D02*
X15187787Y-16167388D01*
X15187787Y-16167388D02*
X15187787Y-16110246D01*
X15187787Y-16110246D02*
X15197311Y-16091198D01*
X15197311Y-16091198D02*
X15206834Y-16081674D01*
X15206834Y-16081674D02*
X15225882Y-16072150D01*
X15225882Y-16072150D02*
X15263977Y-16072150D01*
X15263977Y-16072150D02*
X15283025Y-16081674D01*
X15359215Y-16281674D02*
X15368739Y-16272150D01*
X15368739Y-16272150D02*
X15387787Y-16243579D01*
X15387787Y-16243579D02*
X15397311Y-16224531D01*
X15397311Y-16224531D02*
X15406834Y-16195960D01*
X15406834Y-16195960D02*
X15416358Y-16148341D01*
X15416358Y-16148341D02*
X15416358Y-16110246D01*
X15416358Y-16110246D02*
X15406834Y-16062627D01*
X15406834Y-16062627D02*
X15397311Y-16034055D01*
X15397311Y-16034055D02*
X15387787Y-16015008D01*
X15387787Y-16015008D02*
X15368739Y-15986436D01*
X15368739Y-15986436D02*
X15359215Y-15976912D01*
M02*
