G04 #@! TF.GenerationSoftware,KiCad,Pcbnew,8.0.4*
G04 #@! TF.CreationDate,2024-12-12T19:44:17+01:00*
G04 #@! TF.ProjectId,Combined_Module_Panel,436f6d62-696e-4656-945f-4d6f64756c65,rev?*
G04 #@! TF.SameCoordinates,Original*
G04 #@! TF.FileFunction,Other,User*
%FSLAX46Y46*%
G04 Gerber Fmt 4.6, Leading zero omitted, Abs format (unit mm)*
G04 Created by KiCad (PCBNEW 8.0.4) date 2024-12-12 19:44:17*
%MOMM*%
%LPD*%
G01*
G04 APERTURE LIST*
%ADD10C,0.050000*%
G04 APERTURE END LIST*
D10*
G04 #@! TO.C,REF\u002A\u002A*
X179004162Y-149575000D02*
G75*
G02*
X174504162Y-149575000I-2250000J0D01*
G01*
X174504162Y-149575000D02*
G75*
G02*
X179004162Y-149575000I2250000J0D01*
G01*
G04 #@! TO.C,U19*
X164729162Y-46655833D02*
X164729162Y-55315833D01*
X164729162Y-55315833D02*
X171229162Y-55315833D01*
X165229162Y-47655833D02*
X165229162Y-54315833D01*
X165229162Y-54315833D02*
X170729162Y-54315833D01*
X170729162Y-47655833D02*
X165229162Y-47655833D01*
X170729162Y-54315833D02*
X170729162Y-47655833D01*
X171229162Y-46655833D02*
X164729162Y-46655833D01*
X171229162Y-55315833D02*
X171229162Y-46655833D01*
G04 #@! TO.C,REF\u002A\u002A*
X176654162Y-48586000D02*
G75*
G02*
X174154162Y-48586000I-1250000J0D01*
G01*
X174154162Y-48586000D02*
G75*
G02*
X176654162Y-48586000I1250000J0D01*
G01*
G04 #@! TO.C,U18*
X158079162Y-61520833D02*
X158079162Y-70180833D01*
X158079162Y-70180833D02*
X164579162Y-70180833D01*
X158579162Y-62520833D02*
X158579162Y-69180833D01*
X158579162Y-69180833D02*
X164079162Y-69180833D01*
X164079162Y-62520833D02*
X158579162Y-62520833D01*
X164079162Y-69180833D02*
X164079162Y-62520833D01*
X164579162Y-61520833D02*
X158079162Y-61520833D01*
X164579162Y-70180833D02*
X164579162Y-61520833D01*
X158079162Y-91250833D02*
X158079162Y-99910833D01*
X158079162Y-99910833D02*
X164579162Y-99910833D01*
X158579162Y-92250833D02*
X158579162Y-98910833D01*
X158579162Y-98910833D02*
X164079162Y-98910833D01*
X164079162Y-92250833D02*
X158579162Y-92250833D01*
X164079162Y-98910833D02*
X164079162Y-92250833D01*
X164579162Y-91250833D02*
X158079162Y-91250833D01*
X164579162Y-99910833D02*
X164579162Y-91250833D01*
G04 #@! TO.C,REF\u002A\u002A*
X90807000Y-149575000D02*
G75*
G02*
X86307000Y-149575000I-2250000J0D01*
G01*
X86307000Y-149575000D02*
G75*
G02*
X90807000Y-149575000I2250000J0D01*
G01*
X91157000Y-48586000D02*
G75*
G02*
X88657000Y-48586000I-1250000J0D01*
G01*
X88657000Y-48586000D02*
G75*
G02*
X91157000Y-48586000I1250000J0D01*
G01*
G04 #@! TO.C,U19*
X164729162Y-120980833D02*
X164729162Y-129640833D01*
X164729162Y-129640833D02*
X171229162Y-129640833D01*
X165229162Y-121980833D02*
X165229162Y-128640833D01*
X165229162Y-128640833D02*
X170729162Y-128640833D01*
X170729162Y-121980833D02*
X165229162Y-121980833D01*
X170729162Y-128640833D02*
X170729162Y-121980833D01*
X171229162Y-120980833D02*
X164729162Y-120980833D01*
X171229162Y-129640833D02*
X171229162Y-120980833D01*
X164729162Y-106115833D02*
X164729162Y-114775833D01*
X164729162Y-114775833D02*
X171229162Y-114775833D01*
X165229162Y-107115833D02*
X165229162Y-113775833D01*
X165229162Y-113775833D02*
X170729162Y-113775833D01*
X170729162Y-107115833D02*
X165229162Y-107115833D01*
X170729162Y-113775833D02*
X170729162Y-107115833D01*
X171229162Y-106115833D02*
X164729162Y-106115833D01*
X171229162Y-114775833D02*
X171229162Y-106115833D01*
G04 #@! TO.C,U18*
X158079162Y-46655833D02*
X158079162Y-55315833D01*
X158079162Y-55315833D02*
X164579162Y-55315833D01*
X158579162Y-47655833D02*
X158579162Y-54315833D01*
X158579162Y-54315833D02*
X164079162Y-54315833D01*
X164079162Y-47655833D02*
X158579162Y-47655833D01*
X164079162Y-54315833D02*
X164079162Y-47655833D01*
X164579162Y-46655833D02*
X158079162Y-46655833D01*
X164579162Y-55315833D02*
X164579162Y-46655833D01*
G04 #@! TO.C,U19*
X164729162Y-61520833D02*
X164729162Y-70180833D01*
X164729162Y-70180833D02*
X171229162Y-70180833D01*
X165229162Y-62520833D02*
X165229162Y-69180833D01*
X165229162Y-69180833D02*
X170729162Y-69180833D01*
X170729162Y-62520833D02*
X165229162Y-62520833D01*
X170729162Y-69180833D02*
X170729162Y-62520833D01*
X171229162Y-61520833D02*
X164729162Y-61520833D01*
X171229162Y-70180833D02*
X171229162Y-61520833D01*
G04 #@! TO.C,REF\u002A\u002A*
X179004162Y-41586000D02*
G75*
G02*
X174504162Y-41586000I-2250000J0D01*
G01*
X174504162Y-41586000D02*
G75*
G02*
X179004162Y-41586000I2250000J0D01*
G01*
G04 #@! TO.C,U18*
X158079162Y-120980833D02*
X158079162Y-129640833D01*
X158079162Y-129640833D02*
X164579162Y-129640833D01*
X158579162Y-121980833D02*
X158579162Y-128640833D01*
X158579162Y-128640833D02*
X164079162Y-128640833D01*
X164079162Y-121980833D02*
X158579162Y-121980833D01*
X164079162Y-128640833D02*
X164079162Y-121980833D01*
X164579162Y-120980833D02*
X158079162Y-120980833D01*
X164579162Y-129640833D02*
X164579162Y-120980833D01*
X158079162Y-135844833D02*
X158079162Y-144504833D01*
X158079162Y-144504833D02*
X164579162Y-144504833D01*
X158579162Y-136844833D02*
X158579162Y-143504833D01*
X158579162Y-143504833D02*
X164079162Y-143504833D01*
X164079162Y-136844833D02*
X158579162Y-136844833D01*
X164079162Y-143504833D02*
X164079162Y-136844833D01*
X164579162Y-135844833D02*
X158079162Y-135844833D01*
X164579162Y-144504833D02*
X164579162Y-135844833D01*
G04 #@! TO.C,U19*
X164729162Y-91250833D02*
X164729162Y-99910833D01*
X164729162Y-99910833D02*
X171229162Y-99910833D01*
X165229162Y-92250833D02*
X165229162Y-98910833D01*
X165229162Y-98910833D02*
X170729162Y-98910833D01*
X170729162Y-92250833D02*
X165229162Y-92250833D01*
X170729162Y-98910833D02*
X170729162Y-92250833D01*
X171229162Y-91250833D02*
X164729162Y-91250833D01*
X171229162Y-99910833D02*
X171229162Y-91250833D01*
G04 #@! TO.C,U16*
X96220000Y-101261000D02*
X96220000Y-111461000D01*
X96220000Y-111461000D02*
X106420000Y-111461000D01*
X106420000Y-101261000D02*
X96220000Y-101261000D01*
X106420000Y-111461000D02*
X106420000Y-101261000D01*
X96220000Y-50519000D02*
X96220000Y-60719000D01*
X96220000Y-60719000D02*
X106420000Y-60719000D01*
X106420000Y-50519000D02*
X96220000Y-50519000D01*
X106420000Y-60719000D02*
X106420000Y-50519000D01*
X96220000Y-75890000D02*
X96220000Y-86090000D01*
X96220000Y-86090000D02*
X106420000Y-86090000D01*
X106420000Y-75890000D02*
X96220000Y-75890000D01*
X106420000Y-86090000D02*
X106420000Y-75890000D01*
X96220000Y-126632000D02*
X96220000Y-136832000D01*
X96220000Y-136832000D02*
X106420000Y-136832000D01*
X106420000Y-126632000D02*
X96220000Y-126632000D01*
X106420000Y-136832000D02*
X106420000Y-126632000D01*
G04 #@! TO.C,REF\u002A\u002A*
X176654162Y-142575000D02*
G75*
G02*
X174154162Y-142575000I-1250000J0D01*
G01*
X174154162Y-142575000D02*
G75*
G02*
X176654162Y-142575000I1250000J0D01*
G01*
G04 #@! TO.C,U18*
X158079162Y-76385833D02*
X158079162Y-85045833D01*
X158079162Y-85045833D02*
X164579162Y-85045833D01*
X158579162Y-77385833D02*
X158579162Y-84045833D01*
X158579162Y-84045833D02*
X164079162Y-84045833D01*
X164079162Y-77385833D02*
X158579162Y-77385833D01*
X164079162Y-84045833D02*
X164079162Y-77385833D01*
X164579162Y-76385833D02*
X158079162Y-76385833D01*
X164579162Y-85045833D02*
X164579162Y-76385833D01*
G04 #@! TO.C,REF\u002A\u002A*
X90807000Y-41586000D02*
G75*
G02*
X86307000Y-41586000I-2250000J0D01*
G01*
X86307000Y-41586000D02*
G75*
G02*
X90807000Y-41586000I2250000J0D01*
G01*
X91157000Y-142575000D02*
G75*
G02*
X88657000Y-142575000I-1250000J0D01*
G01*
X88657000Y-142575000D02*
G75*
G02*
X91157000Y-142575000I1250000J0D01*
G01*
G04 #@! TO.C,U19*
X164729162Y-135844833D02*
X164729162Y-144504833D01*
X164729162Y-144504833D02*
X171229162Y-144504833D01*
X165229162Y-136844833D02*
X165229162Y-143504833D01*
X165229162Y-143504833D02*
X170729162Y-143504833D01*
X170729162Y-136844833D02*
X165229162Y-136844833D01*
X170729162Y-143504833D02*
X170729162Y-136844833D01*
X171229162Y-135844833D02*
X164729162Y-135844833D01*
X171229162Y-144504833D02*
X171229162Y-135844833D01*
G04 #@! TO.C,U18*
X158079162Y-106115833D02*
X158079162Y-114775833D01*
X158079162Y-114775833D02*
X164579162Y-114775833D01*
X158579162Y-107115833D02*
X158579162Y-113775833D01*
X158579162Y-113775833D02*
X164079162Y-113775833D01*
X164079162Y-107115833D02*
X158579162Y-107115833D01*
X164079162Y-113775833D02*
X164079162Y-107115833D01*
X164579162Y-106115833D02*
X158079162Y-106115833D01*
X164579162Y-114775833D02*
X164579162Y-106115833D01*
G04 #@! TO.C,U19*
X164729162Y-76385833D02*
X164729162Y-85045833D01*
X164729162Y-85045833D02*
X171229162Y-85045833D01*
X165229162Y-77385833D02*
X165229162Y-84045833D01*
X165229162Y-84045833D02*
X170729162Y-84045833D01*
X170729162Y-77385833D02*
X165229162Y-77385833D01*
X170729162Y-84045833D02*
X170729162Y-77385833D01*
X171229162Y-76385833D02*
X164729162Y-76385833D01*
X171229162Y-85045833D02*
X171229162Y-76385833D01*
G04 #@! TD*
M02*
