G04 #@! TF.GenerationSoftware,KiCad,Pcbnew,8.0.4*
G04 #@! TF.CreationDate,2024-12-12T19:44:16+01:00*
G04 #@! TF.ProjectId,Combined_Module_Panel,436f6d62-696e-4656-945f-4d6f64756c65,rev?*
G04 #@! TF.SameCoordinates,Original*
G04 #@! TF.FileFunction,Paste,Bot*
G04 #@! TF.FilePolarity,Positive*
%FSLAX46Y46*%
G04 Gerber Fmt 4.6, Leading zero omitted, Abs format (unit mm)*
G04 Created by KiCad (PCBNEW 8.0.4) date 2024-12-12 19:44:16*
%MOMM*%
%LPD*%
G01*
G04 APERTURE LIST*
G04 Aperture macros list*
%AMRoundRect*
0 Rectangle with rounded corners*
0 $1 Rounding radius*
0 $2 $3 $4 $5 $6 $7 $8 $9 X,Y pos of 4 corners*
0 Add a 4 corners polygon primitive as box body*
4,1,4,$2,$3,$4,$5,$6,$7,$8,$9,$2,$3,0*
0 Add four circle primitives for the rounded corners*
1,1,$1+$1,$2,$3*
1,1,$1+$1,$4,$5*
1,1,$1+$1,$6,$7*
1,1,$1+$1,$8,$9*
0 Add four rect primitives between the rounded corners*
20,1,$1+$1,$2,$3,$4,$5,0*
20,1,$1+$1,$4,$5,$6,$7,0*
20,1,$1+$1,$6,$7,$8,$9,0*
20,1,$1+$1,$8,$9,$2,$3,0*%
G04 Aperture macros list end*
%ADD10RoundRect,0.142500X0.142500X0.167500X-0.142500X0.167500X-0.142500X-0.167500X0.142500X-0.167500X0*%
%ADD11RoundRect,0.105000X0.420000X1.170000X-0.420000X1.170000X-0.420000X-1.170000X0.420000X-1.170000X0*%
%ADD12RoundRect,0.060000X0.240000X0.060000X-0.240000X0.060000X-0.240000X-0.060000X0.240000X-0.060000X0*%
%ADD13RoundRect,0.137500X-0.137500X-0.262500X0.137500X-0.262500X0.137500X0.262500X-0.137500X0.262500X0*%
%ADD14RoundRect,0.175000X-0.175000X-0.225000X0.175000X-0.225000X0.175000X0.225000X-0.175000X0.225000X0*%
%ADD15RoundRect,0.142500X-0.142500X-0.167500X0.142500X-0.167500X0.142500X0.167500X-0.142500X0.167500X0*%
%ADD16RoundRect,0.050000X-0.050000X0.232500X-0.050000X-0.232500X0.050000X-0.232500X0.050000X0.232500X0*%
%ADD17RoundRect,0.100000X-0.100000X0.182500X-0.100000X-0.182500X0.100000X-0.182500X0.100000X0.182500X0*%
%ADD18RoundRect,0.142500X-0.167500X0.142500X-0.167500X-0.142500X0.167500X-0.142500X0.167500X0.142500X0*%
%ADD19RoundRect,0.150000X-0.400000X-0.150000X0.400000X-0.150000X0.400000X0.150000X-0.400000X0.150000X0*%
%ADD20RoundRect,0.142500X0.167500X-0.142500X0.167500X0.142500X-0.167500X0.142500X-0.167500X-0.142500X0*%
G04 APERTURE END LIST*
D10*
G04 #@! TO.C,C30*
X148385581Y-135751103D03*
X149345581Y-135751103D03*
G04 #@! TD*
D11*
G04 #@! TO.C,U3*
X139915581Y-134811103D03*
D12*
X138515581Y-133811103D03*
X138515581Y-134311103D03*
X138515581Y-134811103D03*
X138515581Y-135311103D03*
X138515581Y-135811103D03*
X141315581Y-135811103D03*
X141315581Y-135311103D03*
X141315581Y-134811103D03*
X141315581Y-134311103D03*
X141315581Y-133811103D03*
G04 #@! TD*
D13*
G04 #@! TO.C,J10*
X140388581Y-126790703D03*
X136338581Y-126790703D03*
D14*
X139363581Y-130790703D03*
X138363581Y-130790703D03*
X137363581Y-130790703D03*
G04 #@! TD*
D10*
G04 #@! TO.C,C17*
X140380581Y-132731103D03*
X141340581Y-132731103D03*
G04 #@! TD*
D15*
G04 #@! TO.C,R61*
X143460581Y-132741103D03*
X142500581Y-132741103D03*
G04 #@! TD*
G04 #@! TO.C,C18*
X139590581Y-132721103D03*
X138630581Y-132721103D03*
G04 #@! TD*
G04 #@! TO.C,C79*
X145380581Y-132761103D03*
X144420581Y-132761103D03*
G04 #@! TD*
G04 #@! TO.C,R62*
X143460581Y-133671103D03*
X142500581Y-133671103D03*
G04 #@! TD*
G04 #@! TO.C,C80*
X145380581Y-133681103D03*
X144420581Y-133681103D03*
G04 #@! TD*
D16*
G04 #@! TO.C,U7*
X141598059Y-130157603D03*
X142098059Y-130157603D03*
D17*
X142598059Y-130157603D03*
D16*
X143098059Y-130157603D03*
X143598059Y-130157603D03*
X143598059Y-129322603D03*
X143098059Y-129322603D03*
D17*
X142598059Y-129322603D03*
D16*
X142098059Y-129322603D03*
X141598059Y-129322603D03*
G04 #@! TD*
D10*
G04 #@! TO.C,R3*
X143460581Y-135716103D03*
X144420581Y-135716103D03*
G04 #@! TD*
D18*
G04 #@! TO.C,R4*
X137325581Y-135716103D03*
X137325581Y-134756103D03*
G04 #@! TD*
D10*
G04 #@! TO.C,R10*
X143460581Y-134756103D03*
X144420581Y-134756103D03*
G04 #@! TD*
D19*
G04 #@! TO.C,U23*
X149085581Y-134731103D03*
X149085581Y-133781103D03*
X149085581Y-132831103D03*
X146485581Y-132831103D03*
X146485581Y-133781103D03*
X146485581Y-134731103D03*
G04 #@! TD*
D18*
G04 #@! TO.C,C29*
X142500581Y-135716103D03*
X142500581Y-134756103D03*
G04 #@! TD*
D20*
G04 #@! TO.C,C27*
X144693381Y-129260103D03*
X144693381Y-130220103D03*
G04 #@! TD*
D13*
G04 #@! TO.C,J12*
X150161581Y-126790703D03*
X146111581Y-126790703D03*
D14*
X149136581Y-130790703D03*
X148136581Y-130790703D03*
X147136581Y-130790703D03*
G04 #@! TD*
D10*
G04 #@! TO.C,C30*
X148385581Y-108980722D03*
X149345581Y-108980722D03*
G04 #@! TD*
D11*
G04 #@! TO.C,U3*
X139915581Y-108040722D03*
D12*
X138515581Y-107040722D03*
X138515581Y-107540722D03*
X138515581Y-108040722D03*
X138515581Y-108540722D03*
X138515581Y-109040722D03*
X141315581Y-109040722D03*
X141315581Y-108540722D03*
X141315581Y-108040722D03*
X141315581Y-107540722D03*
X141315581Y-107040722D03*
G04 #@! TD*
D13*
G04 #@! TO.C,J10*
X140388581Y-100020322D03*
X136338581Y-100020322D03*
D14*
X139363581Y-104020322D03*
X138363581Y-104020322D03*
X137363581Y-104020322D03*
G04 #@! TD*
D10*
G04 #@! TO.C,C17*
X140380581Y-105960722D03*
X141340581Y-105960722D03*
G04 #@! TD*
D15*
G04 #@! TO.C,R61*
X143460581Y-105970722D03*
X142500581Y-105970722D03*
G04 #@! TD*
G04 #@! TO.C,C18*
X139590581Y-105950722D03*
X138630581Y-105950722D03*
G04 #@! TD*
G04 #@! TO.C,C79*
X145380581Y-105990722D03*
X144420581Y-105990722D03*
G04 #@! TD*
G04 #@! TO.C,R62*
X143460581Y-106900722D03*
X142500581Y-106900722D03*
G04 #@! TD*
G04 #@! TO.C,C80*
X145380581Y-106910722D03*
X144420581Y-106910722D03*
G04 #@! TD*
D16*
G04 #@! TO.C,U7*
X141598059Y-103387222D03*
X142098059Y-103387222D03*
D17*
X142598059Y-103387222D03*
D16*
X143098059Y-103387222D03*
X143598059Y-103387222D03*
X143598059Y-102552222D03*
X143098059Y-102552222D03*
D17*
X142598059Y-102552222D03*
D16*
X142098059Y-102552222D03*
X141598059Y-102552222D03*
G04 #@! TD*
D10*
G04 #@! TO.C,R3*
X143460581Y-108945722D03*
X144420581Y-108945722D03*
G04 #@! TD*
D18*
G04 #@! TO.C,R4*
X137325581Y-108945722D03*
X137325581Y-107985722D03*
G04 #@! TD*
D10*
G04 #@! TO.C,R10*
X143460581Y-107985722D03*
X144420581Y-107985722D03*
G04 #@! TD*
D19*
G04 #@! TO.C,U23*
X149085581Y-107960722D03*
X149085581Y-107010722D03*
X149085581Y-106060722D03*
X146485581Y-106060722D03*
X146485581Y-107010722D03*
X146485581Y-107960722D03*
G04 #@! TD*
D18*
G04 #@! TO.C,C29*
X142500581Y-108945722D03*
X142500581Y-107985722D03*
G04 #@! TD*
D20*
G04 #@! TO.C,C27*
X144693381Y-102489722D03*
X144693381Y-103449722D03*
G04 #@! TD*
D13*
G04 #@! TO.C,J12*
X150161581Y-100020322D03*
X146111581Y-100020322D03*
D14*
X149136581Y-104020322D03*
X148136581Y-104020322D03*
X147136581Y-104020322D03*
G04 #@! TD*
D10*
G04 #@! TO.C,C30*
X148385581Y-82227722D03*
X149345581Y-82227722D03*
G04 #@! TD*
D11*
G04 #@! TO.C,U3*
X139915581Y-81287722D03*
D12*
X138515581Y-80287722D03*
X138515581Y-80787722D03*
X138515581Y-81287722D03*
X138515581Y-81787722D03*
X138515581Y-82287722D03*
X141315581Y-82287722D03*
X141315581Y-81787722D03*
X141315581Y-81287722D03*
X141315581Y-80787722D03*
X141315581Y-80287722D03*
G04 #@! TD*
D13*
G04 #@! TO.C,J10*
X140388581Y-73267322D03*
X136338581Y-73267322D03*
D14*
X139363581Y-77267322D03*
X138363581Y-77267322D03*
X137363581Y-77267322D03*
G04 #@! TD*
D10*
G04 #@! TO.C,C17*
X140380581Y-79207722D03*
X141340581Y-79207722D03*
G04 #@! TD*
D15*
G04 #@! TO.C,R61*
X143460581Y-79217722D03*
X142500581Y-79217722D03*
G04 #@! TD*
G04 #@! TO.C,C18*
X139590581Y-79197722D03*
X138630581Y-79197722D03*
G04 #@! TD*
G04 #@! TO.C,C79*
X145380581Y-79237722D03*
X144420581Y-79237722D03*
G04 #@! TD*
G04 #@! TO.C,R62*
X143460581Y-80147722D03*
X142500581Y-80147722D03*
G04 #@! TD*
G04 #@! TO.C,C80*
X145380581Y-80157722D03*
X144420581Y-80157722D03*
G04 #@! TD*
D16*
G04 #@! TO.C,U7*
X141598059Y-76634222D03*
X142098059Y-76634222D03*
D17*
X142598059Y-76634222D03*
D16*
X143098059Y-76634222D03*
X143598059Y-76634222D03*
X143598059Y-75799222D03*
X143098059Y-75799222D03*
D17*
X142598059Y-75799222D03*
D16*
X142098059Y-75799222D03*
X141598059Y-75799222D03*
G04 #@! TD*
D10*
G04 #@! TO.C,R3*
X143460581Y-82192722D03*
X144420581Y-82192722D03*
G04 #@! TD*
D18*
G04 #@! TO.C,R4*
X137325581Y-82192722D03*
X137325581Y-81232722D03*
G04 #@! TD*
D10*
G04 #@! TO.C,R10*
X143460581Y-81232722D03*
X144420581Y-81232722D03*
G04 #@! TD*
D19*
G04 #@! TO.C,U23*
X149085581Y-81207722D03*
X149085581Y-80257722D03*
X149085581Y-79307722D03*
X146485581Y-79307722D03*
X146485581Y-80257722D03*
X146485581Y-81207722D03*
G04 #@! TD*
D18*
G04 #@! TO.C,C29*
X142500581Y-82192722D03*
X142500581Y-81232722D03*
G04 #@! TD*
D20*
G04 #@! TO.C,C27*
X144693381Y-75736722D03*
X144693381Y-76696722D03*
G04 #@! TD*
D13*
G04 #@! TO.C,J12*
X150161581Y-73267322D03*
X146111581Y-73267322D03*
D14*
X149136581Y-77267322D03*
X148136581Y-77267322D03*
X147136581Y-77267322D03*
G04 #@! TD*
D20*
G04 #@! TO.C,C27*
X144693381Y-48983722D03*
X144693381Y-49943722D03*
G04 #@! TD*
D18*
G04 #@! TO.C,C29*
X142500581Y-55439722D03*
X142500581Y-54479722D03*
G04 #@! TD*
D13*
G04 #@! TO.C,J12*
X150161581Y-46514322D03*
X146111581Y-46514322D03*
D14*
X149136581Y-50514322D03*
X148136581Y-50514322D03*
X147136581Y-50514322D03*
G04 #@! TD*
D19*
G04 #@! TO.C,U23*
X149085581Y-54454722D03*
X149085581Y-53504722D03*
X149085581Y-52554722D03*
X146485581Y-52554722D03*
X146485581Y-53504722D03*
X146485581Y-54454722D03*
G04 #@! TD*
D10*
G04 #@! TO.C,R10*
X143460581Y-54479722D03*
X144420581Y-54479722D03*
G04 #@! TD*
D18*
G04 #@! TO.C,R4*
X137325581Y-55439722D03*
X137325581Y-54479722D03*
G04 #@! TD*
D15*
G04 #@! TO.C,C79*
X145380581Y-52484722D03*
X144420581Y-52484722D03*
G04 #@! TD*
D10*
G04 #@! TO.C,C17*
X140380581Y-52454722D03*
X141340581Y-52454722D03*
G04 #@! TD*
D15*
G04 #@! TO.C,C18*
X139590581Y-52444722D03*
X138630581Y-52444722D03*
G04 #@! TD*
D13*
G04 #@! TO.C,J10*
X140388581Y-46514322D03*
X136338581Y-46514322D03*
D14*
X139363581Y-50514322D03*
X138363581Y-50514322D03*
X137363581Y-50514322D03*
G04 #@! TD*
D15*
G04 #@! TO.C,R61*
X143460581Y-52464722D03*
X142500581Y-52464722D03*
G04 #@! TD*
D11*
G04 #@! TO.C,U3*
X139915581Y-54534722D03*
D12*
X138515581Y-53534722D03*
X138515581Y-54034722D03*
X138515581Y-54534722D03*
X138515581Y-55034722D03*
X138515581Y-55534722D03*
X141315581Y-55534722D03*
X141315581Y-55034722D03*
X141315581Y-54534722D03*
X141315581Y-54034722D03*
X141315581Y-53534722D03*
G04 #@! TD*
D15*
G04 #@! TO.C,C80*
X145380581Y-53404722D03*
X144420581Y-53404722D03*
G04 #@! TD*
D10*
G04 #@! TO.C,C30*
X148385581Y-55474722D03*
X149345581Y-55474722D03*
G04 #@! TD*
D16*
G04 #@! TO.C,U7*
X141598059Y-49881222D03*
X142098059Y-49881222D03*
D17*
X142598059Y-49881222D03*
D16*
X143098059Y-49881222D03*
X143598059Y-49881222D03*
X143598059Y-49046222D03*
X143098059Y-49046222D03*
D17*
X142598059Y-49046222D03*
D16*
X142098059Y-49046222D03*
X141598059Y-49046222D03*
G04 #@! TD*
D15*
G04 #@! TO.C,R62*
X143460581Y-53394722D03*
X142500581Y-53394722D03*
G04 #@! TD*
D10*
G04 #@! TO.C,R3*
X143460581Y-55439722D03*
X144420581Y-55439722D03*
G04 #@! TD*
M02*
