G04 #@! TF.GenerationSoftware,KiCad,Pcbnew,8.0.4*
G04 #@! TF.CreationDate,2024-12-12T19:44:16+01:00*
G04 #@! TF.ProjectId,Combined_Module_Panel,436f6d62-696e-4656-945f-4d6f64756c65,rev?*
G04 #@! TF.SameCoordinates,Original*
G04 #@! TF.FileFunction,Soldermask,Top*
G04 #@! TF.FilePolarity,Negative*
%FSLAX46Y46*%
G04 Gerber Fmt 4.6, Leading zero omitted, Abs format (unit mm)*
G04 Created by KiCad (PCBNEW 8.0.4) date 2024-12-12 19:44:16*
%MOMM*%
%LPD*%
G01*
G04 APERTURE LIST*
G04 Aperture macros list*
%AMRoundRect*
0 Rectangle with rounded corners*
0 $1 Rounding radius*
0 $2 $3 $4 $5 $6 $7 $8 $9 X,Y pos of 4 corners*
0 Add a 4 corners polygon primitive as box body*
4,1,4,$2,$3,$4,$5,$6,$7,$8,$9,$2,$3,0*
0 Add four circle primitives for the rounded corners*
1,1,$1+$1,$2,$3*
1,1,$1+$1,$4,$5*
1,1,$1+$1,$6,$7*
1,1,$1+$1,$8,$9*
0 Add four rect primitives between the rounded corners*
20,1,$1+$1,$2,$3,$4,$5,0*
20,1,$1+$1,$4,$5,$6,$7,0*
20,1,$1+$1,$6,$7,$8,$9,0*
20,1,$1+$1,$8,$9,$2,$3,0*%
G04 Aperture macros list end*
%ADD10RoundRect,0.167500X-0.192500X0.167500X-0.192500X-0.167500X0.192500X-0.167500X0.192500X0.167500X0*%
%ADD11RoundRect,0.167500X0.167500X0.192500X-0.167500X0.192500X-0.167500X-0.192500X0.167500X-0.192500X0*%
%ADD12RoundRect,0.162500X0.162500X0.287500X-0.162500X0.287500X-0.162500X-0.287500X0.162500X-0.287500X0*%
%ADD13RoundRect,0.200000X0.200000X0.250000X-0.200000X0.250000X-0.200000X-0.250000X0.200000X-0.250000X0*%
%ADD14RoundRect,0.167500X-0.167500X-0.192500X0.167500X-0.192500X0.167500X0.192500X-0.167500X0.192500X0*%
%ADD15RoundRect,0.175000X-0.425000X-0.175000X0.425000X-0.175000X0.425000X0.175000X-0.425000X0.175000X0*%
%ADD16RoundRect,0.165000X1.035000X-0.660000X1.035000X0.660000X-1.035000X0.660000X-1.035000X-0.660000X0*%
%ADD17RoundRect,0.060000X0.060000X-0.240000X0.060000X0.240000X-0.060000X0.240000X-0.060000X-0.240000X0*%
%ADD18RoundRect,0.225000X0.415000X-0.225000X0.415000X0.225000X-0.415000X0.225000X-0.415000X-0.225000X0*%
%ADD19RoundRect,0.167500X0.192500X-0.167500X0.192500X0.167500X-0.192500X0.167500X-0.192500X-0.167500X0*%
%ADD20C,0.350000*%
%ADD21C,0.300000*%
%ADD22C,0.600000*%
%ADD23RoundRect,0.142500X-0.142500X-0.167500X0.142500X-0.167500X0.142500X0.167500X-0.142500X0.167500X0*%
%ADD24RoundRect,0.237500X-0.237500X-0.262500X0.237500X-0.262500X0.237500X0.262500X-0.237500X0.262500X0*%
%ADD25RoundRect,0.067500X-0.067500X0.282500X-0.067500X-0.282500X0.067500X-0.282500X0.067500X0.282500X0*%
%ADD26C,2.000000*%
%ADD27RoundRect,0.142500X0.142500X0.167500X-0.142500X0.167500X-0.142500X-0.167500X0.142500X-0.167500X0*%
%ADD28RoundRect,0.142500X-0.167500X0.142500X-0.167500X-0.142500X0.167500X-0.142500X0.167500X0.142500X0*%
%ADD29RoundRect,0.125000X0.125000X-0.200000X0.125000X0.200000X-0.125000X0.200000X-0.125000X-0.200000X0*%
%ADD30RoundRect,0.125000X0.125000X-0.250000X0.125000X0.250000X-0.125000X0.250000X-0.125000X-0.250000X0*%
%ADD31R,4.300000X3.400000*%
%ADD32RoundRect,0.142500X0.167500X-0.142500X0.167500X0.142500X-0.167500X0.142500X-0.167500X-0.142500X0*%
%ADD33RoundRect,0.225000X-0.415000X0.225000X-0.415000X-0.225000X0.415000X-0.225000X0.415000X0.225000X0*%
%ADD34RoundRect,0.237500X0.237500X0.262500X-0.237500X0.262500X-0.237500X-0.262500X0.237500X-0.262500X0*%
%ADD35C,0.330000*%
%ADD36RoundRect,0.237500X-0.262500X0.237500X-0.262500X-0.237500X0.262500X-0.237500X0.262500X0.237500X0*%
%ADD37RoundRect,0.068750X-0.068750X0.281250X-0.068750X-0.281250X0.068750X-0.281250X0.068750X0.281250X0*%
%ADD38RoundRect,0.068750X-0.068750X0.231250X-0.068750X-0.231250X0.068750X-0.231250X0.068750X0.231250X0*%
%ADD39RoundRect,0.068750X0.281250X0.068750X-0.281250X0.068750X-0.281250X-0.068750X0.281250X-0.068750X0*%
%ADD40RoundRect,0.068750X0.231250X0.068750X-0.231250X0.068750X-0.231250X-0.068750X0.231250X-0.068750X0*%
%ADD41RoundRect,0.200000X0.200000X0.700000X-0.200000X0.700000X-0.200000X-0.700000X0.200000X-0.700000X0*%
%ADD42RoundRect,0.225000X0.225000X0.415000X-0.225000X0.415000X-0.225000X-0.415000X0.225000X-0.415000X0*%
%ADD43RoundRect,0.225000X-0.225000X-0.415000X0.225000X-0.415000X0.225000X0.415000X-0.225000X0.415000X0*%
%ADD44RoundRect,0.075000X0.075000X-0.387500X0.075000X0.387500X-0.075000X0.387500X-0.075000X-0.387500X0*%
%ADD45RoundRect,0.075000X0.387500X-0.075000X0.387500X0.075000X-0.387500X0.075000X-0.387500X-0.075000X0*%
%ADD46RoundRect,0.075000X-0.387500X-0.075000X0.387500X-0.075000X0.387500X0.075000X-0.387500X0.075000X0*%
%ADD47RoundRect,0.050000X2.875000X-2.875000X2.875000X2.875000X-2.875000X2.875000X-2.875000X-2.875000X0*%
G04 APERTURE END LIST*
D10*
G04 #@! TO.C,R60*
X148104503Y-139602781D03*
X148104503Y-138642781D03*
G04 #@! TD*
D11*
G04 #@! TO.C,R12*
X140540581Y-144746381D03*
X141500581Y-144746381D03*
G04 #@! TD*
G04 #@! TO.C,R64*
X140540581Y-134267703D03*
X141500581Y-134267703D03*
G04 #@! TD*
D12*
G04 #@! TO.C,J2*
X136338581Y-126790703D03*
X140388581Y-126790703D03*
D13*
X137363581Y-130790703D03*
X138363581Y-130790703D03*
X139363581Y-130790703D03*
G04 #@! TD*
D14*
G04 #@! TO.C,C20*
X141500581Y-139552981D03*
X140540581Y-139552981D03*
G04 #@! TD*
G04 #@! TO.C,C21*
X146167503Y-143707781D03*
X145207503Y-143707781D03*
G04 #@! TD*
G04 #@! TO.C,R14*
X146167503Y-140621381D03*
X145207503Y-140621381D03*
G04 #@! TD*
G04 #@! TO.C,R19*
X148104503Y-142685981D03*
X147144503Y-142685981D03*
G04 #@! TD*
D11*
G04 #@! TO.C,C31*
X138370581Y-144746381D03*
X139330581Y-144746381D03*
G04 #@! TD*
D14*
G04 #@! TO.C,C78*
X143450581Y-143707781D03*
X142490581Y-143707781D03*
G04 #@! TD*
D10*
G04 #@! TO.C,R15*
X148104503Y-137607381D03*
X148104503Y-136647381D03*
G04 #@! TD*
D14*
G04 #@! TO.C,C19*
X143450581Y-135336103D03*
X142490581Y-135336103D03*
G04 #@! TD*
D15*
G04 #@! TO.C,U25*
X141235581Y-142685981D03*
X141235581Y-141735981D03*
X141235581Y-143635981D03*
X138635581Y-143635981D03*
X138635581Y-142685981D03*
X138635581Y-141735981D03*
G04 #@! TD*
D14*
G04 #@! TO.C,R59*
X148092503Y-135336103D03*
X147132503Y-135336103D03*
G04 #@! TD*
G04 #@! TO.C,R58*
X148104503Y-140621381D03*
X147144503Y-140621381D03*
G04 #@! TD*
G04 #@! TO.C,R16*
X148104503Y-143707781D03*
X147144503Y-143707781D03*
G04 #@! TD*
D15*
G04 #@! TO.C,U24*
X141235581Y-137488381D03*
X141235581Y-136538381D03*
X141235581Y-138438381D03*
X138635581Y-138438381D03*
X138635581Y-137488381D03*
X138635581Y-136538381D03*
G04 #@! TD*
D16*
G04 #@! TO.C,U6*
X145901303Y-137978742D03*
D17*
X144901303Y-136578742D03*
X145401303Y-136578742D03*
X145901303Y-136578742D03*
X146401303Y-136578742D03*
X146901303Y-136578742D03*
X146901303Y-139378742D03*
X146401303Y-139378742D03*
X145901303Y-139378742D03*
X145401303Y-139378742D03*
X144901303Y-139378742D03*
G04 #@! TD*
D14*
G04 #@! TO.C,R11*
X139330581Y-139552981D03*
X138370581Y-139552981D03*
G04 #@! TD*
D11*
G04 #@! TO.C,C25*
X142490581Y-134267703D03*
X143450581Y-134267703D03*
G04 #@! TD*
D14*
G04 #@! TO.C,C23*
X146167503Y-141640581D03*
X145207503Y-141640581D03*
G04 #@! TD*
D11*
G04 #@! TO.C,C26*
X145207503Y-135336103D03*
X146167503Y-135336103D03*
G04 #@! TD*
G04 #@! TO.C,C82*
X140540581Y-135336103D03*
X141500581Y-135336103D03*
G04 #@! TD*
D14*
G04 #@! TO.C,C24*
X146167503Y-142685981D03*
X145207503Y-142685981D03*
G04 #@! TD*
G04 #@! TO.C,R18*
X148104503Y-141641981D03*
X147144503Y-141641981D03*
G04 #@! TD*
D11*
G04 #@! TO.C,C81*
X140540581Y-140621381D03*
X141500581Y-140621381D03*
G04 #@! TD*
D14*
G04 #@! TO.C,C22*
X146167503Y-144746381D03*
X145207503Y-144746381D03*
G04 #@! TD*
D18*
G04 #@! TO.C,J13*
X151054162Y-137696703D03*
X151054162Y-138966703D03*
X151054162Y-140236703D03*
X151054162Y-141506703D03*
X151054162Y-142776703D03*
X151054162Y-144046703D03*
X135446000Y-144046703D03*
X135446000Y-142776703D03*
X135446000Y-141506703D03*
X135446000Y-140236703D03*
X135446000Y-138966703D03*
X135446000Y-137696703D03*
G04 #@! TD*
D14*
G04 #@! TO.C,C83*
X143460581Y-144746381D03*
X142500581Y-144746381D03*
G04 #@! TD*
D11*
G04 #@! TO.C,C32*
X138370581Y-140621381D03*
X139330581Y-140621381D03*
G04 #@! TD*
D14*
G04 #@! TO.C,C33*
X143450581Y-139552981D03*
X142490581Y-139552981D03*
G04 #@! TD*
D19*
G04 #@! TO.C,FB2*
X144324703Y-143767781D03*
X144324703Y-144727781D03*
G04 #@! TD*
D12*
G04 #@! TO.C,J11*
X146111581Y-126790703D03*
X150161581Y-126790703D03*
D13*
X147136581Y-130790703D03*
X148136581Y-130790703D03*
X149136581Y-130790703D03*
G04 #@! TD*
D14*
G04 #@! TO.C,R17*
X148104503Y-144746381D03*
X147144503Y-144746381D03*
G04 #@! TD*
G04 #@! TO.C,C77*
X143450581Y-140621381D03*
X142490581Y-140621381D03*
G04 #@! TD*
G04 #@! TO.C,R13*
X139330581Y-134267703D03*
X138370581Y-134267703D03*
G04 #@! TD*
D20*
G04 #@! TO.C,U5*
X143170581Y-137110342D03*
X142770581Y-137110342D03*
X143170581Y-136710342D03*
X142770581Y-136710342D03*
G04 #@! TD*
D14*
G04 #@! TO.C,C28*
X143450581Y-138484581D03*
X142490581Y-138484581D03*
G04 #@! TD*
D21*
G04 #@! TO.C,U4*
X143170581Y-141964581D03*
X143170581Y-142364581D03*
X142770581Y-141964581D03*
X142770581Y-142364581D03*
G04 #@! TD*
D14*
G04 #@! TO.C,R63*
X139330581Y-135336103D03*
X138370581Y-135336103D03*
G04 #@! TD*
D22*
G04 #@! TO.C,*
X142350081Y-146325000D03*
G04 #@! TD*
G04 #@! TO.C,*
X145050081Y-125112382D03*
G04 #@! TD*
G04 #@! TO.C,*
X142350081Y-146325000D03*
G04 #@! TD*
G04 #@! TO.C,*
X144150081Y-146325000D03*
G04 #@! TD*
G04 #@! TO.C,*
X142350081Y-146325000D03*
G04 #@! TD*
G04 #@! TO.C,*
X141450081Y-146325000D03*
G04 #@! TD*
G04 #@! TO.C,*
X143250081Y-146325000D03*
G04 #@! TD*
G04 #@! TO.C,*
X145050081Y-125112382D03*
G04 #@! TD*
G04 #@! TO.C,*
X143250081Y-125112382D03*
G04 #@! TD*
G04 #@! TO.C,*
X142350081Y-125112382D03*
G04 #@! TD*
G04 #@! TO.C,*
X144150081Y-125112382D03*
G04 #@! TD*
G04 #@! TO.C,*
X141450081Y-146325000D03*
G04 #@! TD*
G04 #@! TO.C,*
X144150081Y-146325000D03*
G04 #@! TD*
G04 #@! TO.C,*
X142350081Y-125112382D03*
G04 #@! TD*
G04 #@! TO.C,*
X143250081Y-146325000D03*
G04 #@! TD*
G04 #@! TO.C,*
X141450081Y-146325000D03*
G04 #@! TD*
G04 #@! TO.C,*
X141450081Y-125112382D03*
G04 #@! TD*
G04 #@! TO.C,*
X141450081Y-125112382D03*
G04 #@! TD*
G04 #@! TO.C,*
X142350081Y-146325000D03*
G04 #@! TD*
G04 #@! TO.C,*
X145050081Y-146325000D03*
G04 #@! TD*
G04 #@! TO.C,*
X144150081Y-125112382D03*
G04 #@! TD*
G04 #@! TO.C,*
X145050081Y-146325000D03*
G04 #@! TD*
G04 #@! TO.C,*
X143250081Y-125112382D03*
G04 #@! TD*
G04 #@! TO.C,*
X141450081Y-125112382D03*
G04 #@! TD*
G04 #@! TO.C,*
X145050081Y-125112382D03*
G04 #@! TD*
G04 #@! TO.C,*
X144150081Y-146325000D03*
G04 #@! TD*
G04 #@! TO.C,*
X141450081Y-146325000D03*
G04 #@! TD*
G04 #@! TO.C,*
X143250081Y-146325000D03*
G04 #@! TD*
G04 #@! TO.C,*
X145050081Y-125112382D03*
G04 #@! TD*
G04 #@! TO.C,*
X143250081Y-146325000D03*
G04 #@! TD*
G04 #@! TO.C,*
X145050081Y-146325000D03*
G04 #@! TD*
G04 #@! TO.C,*
X145050081Y-125112382D03*
G04 #@! TD*
G04 #@! TO.C,*
X144150081Y-125112382D03*
G04 #@! TD*
G04 #@! TO.C,*
X141450081Y-146325000D03*
G04 #@! TD*
G04 #@! TO.C,*
X143250081Y-125112382D03*
G04 #@! TD*
G04 #@! TO.C,*
X144150081Y-146325000D03*
G04 #@! TD*
G04 #@! TO.C,*
X142350081Y-125112382D03*
G04 #@! TD*
G04 #@! TO.C,*
X145050081Y-146325000D03*
G04 #@! TD*
G04 #@! TO.C,*
X142350081Y-125112382D03*
G04 #@! TD*
G04 #@! TO.C,*
X143250081Y-125112382D03*
G04 #@! TD*
G04 #@! TO.C,*
X144150081Y-125112382D03*
G04 #@! TD*
G04 #@! TO.C,*
X141450081Y-125112382D03*
G04 #@! TD*
D10*
G04 #@! TO.C,R60*
X148104503Y-112832400D03*
X148104503Y-111872400D03*
G04 #@! TD*
D11*
G04 #@! TO.C,R12*
X140540581Y-117976000D03*
X141500581Y-117976000D03*
G04 #@! TD*
G04 #@! TO.C,R64*
X140540581Y-107497322D03*
X141500581Y-107497322D03*
G04 #@! TD*
D12*
G04 #@! TO.C,J2*
X136338581Y-100020322D03*
X140388581Y-100020322D03*
D13*
X137363581Y-104020322D03*
X138363581Y-104020322D03*
X139363581Y-104020322D03*
G04 #@! TD*
D14*
G04 #@! TO.C,C20*
X141500581Y-112782600D03*
X140540581Y-112782600D03*
G04 #@! TD*
G04 #@! TO.C,C21*
X146167503Y-116937400D03*
X145207503Y-116937400D03*
G04 #@! TD*
G04 #@! TO.C,R14*
X146167503Y-113851000D03*
X145207503Y-113851000D03*
G04 #@! TD*
G04 #@! TO.C,R19*
X148104503Y-115915600D03*
X147144503Y-115915600D03*
G04 #@! TD*
D11*
G04 #@! TO.C,C31*
X138370581Y-117976000D03*
X139330581Y-117976000D03*
G04 #@! TD*
D14*
G04 #@! TO.C,C78*
X143450581Y-116937400D03*
X142490581Y-116937400D03*
G04 #@! TD*
D10*
G04 #@! TO.C,R15*
X148104503Y-110837000D03*
X148104503Y-109877000D03*
G04 #@! TD*
D14*
G04 #@! TO.C,C19*
X143450581Y-108565722D03*
X142490581Y-108565722D03*
G04 #@! TD*
D15*
G04 #@! TO.C,U25*
X141235581Y-115915600D03*
X141235581Y-114965600D03*
X141235581Y-116865600D03*
X138635581Y-116865600D03*
X138635581Y-115915600D03*
X138635581Y-114965600D03*
G04 #@! TD*
D14*
G04 #@! TO.C,R59*
X148092503Y-108565722D03*
X147132503Y-108565722D03*
G04 #@! TD*
G04 #@! TO.C,R58*
X148104503Y-113851000D03*
X147144503Y-113851000D03*
G04 #@! TD*
G04 #@! TO.C,R16*
X148104503Y-116937400D03*
X147144503Y-116937400D03*
G04 #@! TD*
D15*
G04 #@! TO.C,U24*
X141235581Y-110718000D03*
X141235581Y-109768000D03*
X141235581Y-111668000D03*
X138635581Y-111668000D03*
X138635581Y-110718000D03*
X138635581Y-109768000D03*
G04 #@! TD*
D16*
G04 #@! TO.C,U6*
X145901303Y-111208361D03*
D17*
X144901303Y-109808361D03*
X145401303Y-109808361D03*
X145901303Y-109808361D03*
X146401303Y-109808361D03*
X146901303Y-109808361D03*
X146901303Y-112608361D03*
X146401303Y-112608361D03*
X145901303Y-112608361D03*
X145401303Y-112608361D03*
X144901303Y-112608361D03*
G04 #@! TD*
D14*
G04 #@! TO.C,R11*
X139330581Y-112782600D03*
X138370581Y-112782600D03*
G04 #@! TD*
D11*
G04 #@! TO.C,C25*
X142490581Y-107497322D03*
X143450581Y-107497322D03*
G04 #@! TD*
D14*
G04 #@! TO.C,C23*
X146167503Y-114870200D03*
X145207503Y-114870200D03*
G04 #@! TD*
D11*
G04 #@! TO.C,C26*
X145207503Y-108565722D03*
X146167503Y-108565722D03*
G04 #@! TD*
G04 #@! TO.C,C82*
X140540581Y-108565722D03*
X141500581Y-108565722D03*
G04 #@! TD*
D14*
G04 #@! TO.C,C24*
X146167503Y-115915600D03*
X145207503Y-115915600D03*
G04 #@! TD*
G04 #@! TO.C,R18*
X148104503Y-114871600D03*
X147144503Y-114871600D03*
G04 #@! TD*
D11*
G04 #@! TO.C,C81*
X140540581Y-113851000D03*
X141500581Y-113851000D03*
G04 #@! TD*
D14*
G04 #@! TO.C,C22*
X146167503Y-117976000D03*
X145207503Y-117976000D03*
G04 #@! TD*
D18*
G04 #@! TO.C,J13*
X151054162Y-110926322D03*
X151054162Y-112196322D03*
X151054162Y-113466322D03*
X151054162Y-114736322D03*
X151054162Y-116006322D03*
X151054162Y-117276322D03*
X135446000Y-117276322D03*
X135446000Y-116006322D03*
X135446000Y-114736322D03*
X135446000Y-113466322D03*
X135446000Y-112196322D03*
X135446000Y-110926322D03*
G04 #@! TD*
D14*
G04 #@! TO.C,C83*
X143460581Y-117976000D03*
X142500581Y-117976000D03*
G04 #@! TD*
D11*
G04 #@! TO.C,C32*
X138370581Y-113851000D03*
X139330581Y-113851000D03*
G04 #@! TD*
D14*
G04 #@! TO.C,C33*
X143450581Y-112782600D03*
X142490581Y-112782600D03*
G04 #@! TD*
D19*
G04 #@! TO.C,FB2*
X144324703Y-116997400D03*
X144324703Y-117957400D03*
G04 #@! TD*
D12*
G04 #@! TO.C,J11*
X146111581Y-100020322D03*
X150161581Y-100020322D03*
D13*
X147136581Y-104020322D03*
X148136581Y-104020322D03*
X149136581Y-104020322D03*
G04 #@! TD*
D14*
G04 #@! TO.C,R17*
X148104503Y-117976000D03*
X147144503Y-117976000D03*
G04 #@! TD*
G04 #@! TO.C,C77*
X143450581Y-113851000D03*
X142490581Y-113851000D03*
G04 #@! TD*
G04 #@! TO.C,R13*
X139330581Y-107497322D03*
X138370581Y-107497322D03*
G04 #@! TD*
D20*
G04 #@! TO.C,U5*
X143170581Y-110339961D03*
X142770581Y-110339961D03*
X143170581Y-109939961D03*
X142770581Y-109939961D03*
G04 #@! TD*
D14*
G04 #@! TO.C,C28*
X143450581Y-111714200D03*
X142490581Y-111714200D03*
G04 #@! TD*
D21*
G04 #@! TO.C,U4*
X143170581Y-115194200D03*
X143170581Y-115594200D03*
X142770581Y-115194200D03*
X142770581Y-115594200D03*
G04 #@! TD*
D14*
G04 #@! TO.C,R63*
X139330581Y-108565722D03*
X138370581Y-108565722D03*
G04 #@! TD*
D22*
G04 #@! TO.C,*
X142350081Y-119554619D03*
G04 #@! TD*
G04 #@! TO.C,*
X145050081Y-98342001D03*
G04 #@! TD*
G04 #@! TO.C,*
X142350081Y-119554619D03*
G04 #@! TD*
G04 #@! TO.C,*
X144150081Y-119554619D03*
G04 #@! TD*
G04 #@! TO.C,*
X142350081Y-119554619D03*
G04 #@! TD*
G04 #@! TO.C,*
X141450081Y-119554619D03*
G04 #@! TD*
G04 #@! TO.C,*
X143250081Y-119554619D03*
G04 #@! TD*
G04 #@! TO.C,*
X145050081Y-98342001D03*
G04 #@! TD*
G04 #@! TO.C,*
X143250081Y-98342001D03*
G04 #@! TD*
G04 #@! TO.C,*
X142350081Y-98342001D03*
G04 #@! TD*
G04 #@! TO.C,*
X144150081Y-98342001D03*
G04 #@! TD*
G04 #@! TO.C,*
X141450081Y-119554619D03*
G04 #@! TD*
G04 #@! TO.C,*
X144150081Y-119554619D03*
G04 #@! TD*
G04 #@! TO.C,*
X142350081Y-98342001D03*
G04 #@! TD*
G04 #@! TO.C,*
X143250081Y-119554619D03*
G04 #@! TD*
G04 #@! TO.C,*
X141450081Y-119554619D03*
G04 #@! TD*
G04 #@! TO.C,*
X141450081Y-98342001D03*
G04 #@! TD*
G04 #@! TO.C,*
X141450081Y-98342001D03*
G04 #@! TD*
G04 #@! TO.C,*
X142350081Y-119554619D03*
G04 #@! TD*
G04 #@! TO.C,*
X145050081Y-119554619D03*
G04 #@! TD*
G04 #@! TO.C,*
X144150081Y-98342001D03*
G04 #@! TD*
G04 #@! TO.C,*
X145050081Y-119554619D03*
G04 #@! TD*
G04 #@! TO.C,*
X143250081Y-98342001D03*
G04 #@! TD*
G04 #@! TO.C,*
X141450081Y-98342001D03*
G04 #@! TD*
G04 #@! TO.C,*
X145050081Y-98342001D03*
G04 #@! TD*
G04 #@! TO.C,*
X144150081Y-119554619D03*
G04 #@! TD*
G04 #@! TO.C,*
X141450081Y-119554619D03*
G04 #@! TD*
G04 #@! TO.C,*
X143250081Y-119554619D03*
G04 #@! TD*
G04 #@! TO.C,*
X145050081Y-98342001D03*
G04 #@! TD*
G04 #@! TO.C,*
X143250081Y-119554619D03*
G04 #@! TD*
G04 #@! TO.C,*
X145050081Y-119554619D03*
G04 #@! TD*
G04 #@! TO.C,*
X145050081Y-98342001D03*
G04 #@! TD*
G04 #@! TO.C,*
X144150081Y-98342001D03*
G04 #@! TD*
G04 #@! TO.C,*
X141450081Y-119554619D03*
G04 #@! TD*
G04 #@! TO.C,*
X143250081Y-98342001D03*
G04 #@! TD*
G04 #@! TO.C,*
X144150081Y-119554619D03*
G04 #@! TD*
G04 #@! TO.C,*
X142350081Y-98342001D03*
G04 #@! TD*
G04 #@! TO.C,*
X145050081Y-119554619D03*
G04 #@! TD*
G04 #@! TO.C,*
X142350081Y-98342001D03*
G04 #@! TD*
G04 #@! TO.C,*
X143250081Y-98342001D03*
G04 #@! TD*
G04 #@! TO.C,*
X144150081Y-98342001D03*
G04 #@! TD*
G04 #@! TO.C,*
X141450081Y-98342001D03*
G04 #@! TD*
D10*
G04 #@! TO.C,R60*
X148104503Y-86079400D03*
X148104503Y-85119400D03*
G04 #@! TD*
D11*
G04 #@! TO.C,R12*
X140540581Y-91223000D03*
X141500581Y-91223000D03*
G04 #@! TD*
G04 #@! TO.C,R64*
X140540581Y-80744322D03*
X141500581Y-80744322D03*
G04 #@! TD*
D12*
G04 #@! TO.C,J2*
X136338581Y-73267322D03*
X140388581Y-73267322D03*
D13*
X137363581Y-77267322D03*
X138363581Y-77267322D03*
X139363581Y-77267322D03*
G04 #@! TD*
D14*
G04 #@! TO.C,C20*
X141500581Y-86029600D03*
X140540581Y-86029600D03*
G04 #@! TD*
G04 #@! TO.C,C21*
X146167503Y-90184400D03*
X145207503Y-90184400D03*
G04 #@! TD*
G04 #@! TO.C,R14*
X146167503Y-87098000D03*
X145207503Y-87098000D03*
G04 #@! TD*
G04 #@! TO.C,R19*
X148104503Y-89162600D03*
X147144503Y-89162600D03*
G04 #@! TD*
D11*
G04 #@! TO.C,C31*
X138370581Y-91223000D03*
X139330581Y-91223000D03*
G04 #@! TD*
D14*
G04 #@! TO.C,C78*
X143450581Y-90184400D03*
X142490581Y-90184400D03*
G04 #@! TD*
D10*
G04 #@! TO.C,R15*
X148104503Y-84084000D03*
X148104503Y-83124000D03*
G04 #@! TD*
D14*
G04 #@! TO.C,C19*
X143450581Y-81812722D03*
X142490581Y-81812722D03*
G04 #@! TD*
D15*
G04 #@! TO.C,U25*
X141235581Y-89162600D03*
X141235581Y-88212600D03*
X141235581Y-90112600D03*
X138635581Y-90112600D03*
X138635581Y-89162600D03*
X138635581Y-88212600D03*
G04 #@! TD*
D14*
G04 #@! TO.C,R59*
X148092503Y-81812722D03*
X147132503Y-81812722D03*
G04 #@! TD*
G04 #@! TO.C,R58*
X148104503Y-87098000D03*
X147144503Y-87098000D03*
G04 #@! TD*
G04 #@! TO.C,R16*
X148104503Y-90184400D03*
X147144503Y-90184400D03*
G04 #@! TD*
D15*
G04 #@! TO.C,U24*
X141235581Y-83965000D03*
X141235581Y-83015000D03*
X141235581Y-84915000D03*
X138635581Y-84915000D03*
X138635581Y-83965000D03*
X138635581Y-83015000D03*
G04 #@! TD*
D16*
G04 #@! TO.C,U6*
X145901303Y-84455361D03*
D17*
X144901303Y-83055361D03*
X145401303Y-83055361D03*
X145901303Y-83055361D03*
X146401303Y-83055361D03*
X146901303Y-83055361D03*
X146901303Y-85855361D03*
X146401303Y-85855361D03*
X145901303Y-85855361D03*
X145401303Y-85855361D03*
X144901303Y-85855361D03*
G04 #@! TD*
D14*
G04 #@! TO.C,R11*
X139330581Y-86029600D03*
X138370581Y-86029600D03*
G04 #@! TD*
D11*
G04 #@! TO.C,C25*
X142490581Y-80744322D03*
X143450581Y-80744322D03*
G04 #@! TD*
D14*
G04 #@! TO.C,C23*
X146167503Y-88117200D03*
X145207503Y-88117200D03*
G04 #@! TD*
D11*
G04 #@! TO.C,C26*
X145207503Y-81812722D03*
X146167503Y-81812722D03*
G04 #@! TD*
G04 #@! TO.C,C82*
X140540581Y-81812722D03*
X141500581Y-81812722D03*
G04 #@! TD*
D14*
G04 #@! TO.C,C24*
X146167503Y-89162600D03*
X145207503Y-89162600D03*
G04 #@! TD*
G04 #@! TO.C,R18*
X148104503Y-88118600D03*
X147144503Y-88118600D03*
G04 #@! TD*
D11*
G04 #@! TO.C,C81*
X140540581Y-87098000D03*
X141500581Y-87098000D03*
G04 #@! TD*
D14*
G04 #@! TO.C,C22*
X146167503Y-91223000D03*
X145207503Y-91223000D03*
G04 #@! TD*
D18*
G04 #@! TO.C,J13*
X151054162Y-84173322D03*
X151054162Y-85443322D03*
X151054162Y-86713322D03*
X151054162Y-87983322D03*
X151054162Y-89253322D03*
X151054162Y-90523322D03*
X135446000Y-90523322D03*
X135446000Y-89253322D03*
X135446000Y-87983322D03*
X135446000Y-86713322D03*
X135446000Y-85443322D03*
X135446000Y-84173322D03*
G04 #@! TD*
D14*
G04 #@! TO.C,C83*
X143460581Y-91223000D03*
X142500581Y-91223000D03*
G04 #@! TD*
D11*
G04 #@! TO.C,C32*
X138370581Y-87098000D03*
X139330581Y-87098000D03*
G04 #@! TD*
D14*
G04 #@! TO.C,C33*
X143450581Y-86029600D03*
X142490581Y-86029600D03*
G04 #@! TD*
D19*
G04 #@! TO.C,FB2*
X144324703Y-90244400D03*
X144324703Y-91204400D03*
G04 #@! TD*
D12*
G04 #@! TO.C,J11*
X146111581Y-73267322D03*
X150161581Y-73267322D03*
D13*
X147136581Y-77267322D03*
X148136581Y-77267322D03*
X149136581Y-77267322D03*
G04 #@! TD*
D14*
G04 #@! TO.C,R17*
X148104503Y-91223000D03*
X147144503Y-91223000D03*
G04 #@! TD*
G04 #@! TO.C,C77*
X143450581Y-87098000D03*
X142490581Y-87098000D03*
G04 #@! TD*
G04 #@! TO.C,R13*
X139330581Y-80744322D03*
X138370581Y-80744322D03*
G04 #@! TD*
D20*
G04 #@! TO.C,U5*
X143170581Y-83586961D03*
X142770581Y-83586961D03*
X143170581Y-83186961D03*
X142770581Y-83186961D03*
G04 #@! TD*
D14*
G04 #@! TO.C,C28*
X143450581Y-84961200D03*
X142490581Y-84961200D03*
G04 #@! TD*
D21*
G04 #@! TO.C,U4*
X143170581Y-88441200D03*
X143170581Y-88841200D03*
X142770581Y-88441200D03*
X142770581Y-88841200D03*
G04 #@! TD*
D14*
G04 #@! TO.C,R63*
X139330581Y-81812722D03*
X138370581Y-81812722D03*
G04 #@! TD*
D22*
G04 #@! TO.C,*
X142350081Y-92801619D03*
G04 #@! TD*
G04 #@! TO.C,*
X145050081Y-71589001D03*
G04 #@! TD*
G04 #@! TO.C,*
X142350081Y-92801619D03*
G04 #@! TD*
G04 #@! TO.C,*
X144150081Y-92801619D03*
G04 #@! TD*
G04 #@! TO.C,*
X142350081Y-92801619D03*
G04 #@! TD*
G04 #@! TO.C,*
X141450081Y-92801619D03*
G04 #@! TD*
G04 #@! TO.C,*
X143250081Y-92801619D03*
G04 #@! TD*
G04 #@! TO.C,*
X145050081Y-71589001D03*
G04 #@! TD*
G04 #@! TO.C,*
X143250081Y-71589001D03*
G04 #@! TD*
G04 #@! TO.C,*
X142350081Y-71589001D03*
G04 #@! TD*
G04 #@! TO.C,*
X144150081Y-71589001D03*
G04 #@! TD*
G04 #@! TO.C,*
X141450081Y-92801619D03*
G04 #@! TD*
G04 #@! TO.C,*
X144150081Y-92801619D03*
G04 #@! TD*
G04 #@! TO.C,*
X142350081Y-71589001D03*
G04 #@! TD*
G04 #@! TO.C,*
X143250081Y-92801619D03*
G04 #@! TD*
G04 #@! TO.C,*
X141450081Y-92801619D03*
G04 #@! TD*
G04 #@! TO.C,*
X141450081Y-71589001D03*
G04 #@! TD*
G04 #@! TO.C,*
X141450081Y-71589001D03*
G04 #@! TD*
G04 #@! TO.C,*
X142350081Y-92801619D03*
G04 #@! TD*
G04 #@! TO.C,*
X145050081Y-92801619D03*
G04 #@! TD*
G04 #@! TO.C,*
X144150081Y-71589001D03*
G04 #@! TD*
G04 #@! TO.C,*
X145050081Y-92801619D03*
G04 #@! TD*
G04 #@! TO.C,*
X143250081Y-71589001D03*
G04 #@! TD*
G04 #@! TO.C,*
X141450081Y-71589001D03*
G04 #@! TD*
G04 #@! TO.C,*
X145050081Y-71589001D03*
G04 #@! TD*
G04 #@! TO.C,*
X144150081Y-92801619D03*
G04 #@! TD*
G04 #@! TO.C,*
X141450081Y-92801619D03*
G04 #@! TD*
G04 #@! TO.C,*
X143250081Y-92801619D03*
G04 #@! TD*
G04 #@! TO.C,*
X145050081Y-71589001D03*
G04 #@! TD*
G04 #@! TO.C,*
X143250081Y-92801619D03*
G04 #@! TD*
G04 #@! TO.C,*
X145050081Y-92801619D03*
G04 #@! TD*
G04 #@! TO.C,*
X145050081Y-71589001D03*
G04 #@! TD*
G04 #@! TO.C,*
X144150081Y-71589001D03*
G04 #@! TD*
G04 #@! TO.C,*
X141450081Y-92801619D03*
G04 #@! TD*
G04 #@! TO.C,*
X143250081Y-71589001D03*
G04 #@! TD*
G04 #@! TO.C,*
X144150081Y-92801619D03*
G04 #@! TD*
G04 #@! TO.C,*
X142350081Y-71589001D03*
G04 #@! TD*
G04 #@! TO.C,*
X145050081Y-92801619D03*
G04 #@! TD*
G04 #@! TO.C,*
X142350081Y-71589001D03*
G04 #@! TD*
G04 #@! TO.C,*
X143250081Y-71589001D03*
G04 #@! TD*
G04 #@! TO.C,*
X144150081Y-71589001D03*
G04 #@! TD*
G04 #@! TO.C,*
X141450081Y-71589001D03*
G04 #@! TD*
G04 #@! TO.C,*
X129247632Y-88972300D03*
G04 #@! TD*
G04 #@! TO.C,*
X165554162Y-146325000D03*
G04 #@! TD*
D23*
G04 #@! TO.C,R50*
X165139162Y-70683333D03*
X166099162Y-70683333D03*
G04 #@! TD*
D22*
G04 #@! TO.C,*
X163754162Y-59701000D03*
G04 #@! TD*
D24*
G04 #@! TO.C,C9*
X125273000Y-50198500D03*
X126873000Y-50198500D03*
G04 #@! TD*
D22*
G04 #@! TO.C,*
X130235500Y-101015300D03*
G04 #@! TD*
G04 #@! TO.C,*
X130147632Y-45373868D03*
G04 #@! TD*
D25*
G04 #@! TO.C,U22*
X104294000Y-139414000D03*
X103944000Y-139414000D03*
X103594000Y-139414000D03*
X103594000Y-140214000D03*
X103944000Y-140214000D03*
X104294000Y-140214000D03*
G04 #@! TD*
D22*
G04 #@! TO.C,*
X163754162Y-134025000D03*
G04 #@! TD*
D26*
G04 #@! TO.C,REF\u002A\u002A*
X176754162Y-149575000D03*
G04 #@! TD*
D20*
G04 #@! TO.C,U17*
X98553000Y-141580000D03*
X97053000Y-141580000D03*
X96553000Y-141580000D03*
X99053000Y-141080000D03*
X98053000Y-141080000D03*
X97553000Y-141080000D03*
X96553000Y-141080000D03*
X99053000Y-140580000D03*
X98053000Y-140580000D03*
X97553000Y-140580000D03*
X96553000Y-140580000D03*
X99053000Y-140080000D03*
X98053000Y-140080000D03*
X97553000Y-140080000D03*
X96553000Y-140080000D03*
X99053000Y-139580000D03*
X98053000Y-139580000D03*
X97553000Y-139580000D03*
X96553000Y-139580000D03*
X98553000Y-139080000D03*
X97053000Y-139080000D03*
G04 #@! TD*
D22*
G04 #@! TO.C,*
X165554162Y-74566000D03*
G04 #@! TD*
D27*
G04 #@! TO.C,R51*
X169814162Y-100413333D03*
X168854162Y-100413333D03*
G04 #@! TD*
D22*
G04 #@! TO.C,*
X166454162Y-89431000D03*
G04 #@! TD*
G04 #@! TO.C,2*
X175754162Y-144788400D03*
G04 #@! TD*
D23*
G04 #@! TO.C,R49*
X160346662Y-120473333D03*
X161306662Y-120473333D03*
G04 #@! TD*
D22*
G04 #@! TO.C,*
X163754162Y-116596000D03*
G04 #@! TD*
G04 #@! TO.C,*
X113885500Y-104691400D03*
G04 #@! TD*
G04 #@! TO.C,*
X166454162Y-131461000D03*
G04 #@! TD*
D27*
G04 #@! TO.C,C16*
X119503000Y-137396100D03*
X118543000Y-137396100D03*
G04 #@! TD*
D22*
G04 #@! TO.C,*
X145050081Y-66048619D03*
G04 #@! TD*
D28*
G04 #@! TO.C,R8*
X120673000Y-106066900D03*
X120673000Y-107026900D03*
G04 #@! TD*
D22*
G04 #@! TO.C,*
X166454162Y-57136000D03*
G04 #@! TD*
D11*
G04 #@! TO.C,C72*
X102691669Y-114554500D03*
X101731669Y-114554500D03*
G04 #@! TD*
D22*
G04 #@! TO.C,*
X163754162Y-86866000D03*
G04 #@! TD*
D10*
G04 #@! TO.C,C75*
X105087000Y-63221000D03*
X105087000Y-64181000D03*
G04 #@! TD*
D22*
G04 #@! TO.C,*
X92257000Y-71743600D03*
G04 #@! TD*
D23*
G04 #@! TO.C,R49*
X160346662Y-61013333D03*
X161306662Y-61013333D03*
G04 #@! TD*
D22*
G04 #@! TO.C,*
X110295680Y-146862868D03*
G04 #@! TD*
G04 #@! TO.C,1*
X174853162Y-46373320D03*
G04 #@! TD*
G04 #@! TO.C,*
X163754162Y-44836000D03*
G04 #@! TD*
G04 #@! TO.C,*
X91357000Y-71743600D03*
G04 #@! TD*
G04 #@! TO.C,*
X163754162Y-72001000D03*
G04 #@! TD*
D14*
G04 #@! TO.C,C66*
X95877000Y-86959000D03*
X96837000Y-86959000D03*
G04 #@! TD*
D23*
G04 #@! TO.C,C1*
X117318000Y-53223500D03*
X118278000Y-53223500D03*
G04 #@! TD*
D22*
G04 #@! TO.C,*
X128347632Y-118102953D03*
G04 #@! TD*
D29*
G04 #@! TO.C,U19*
X166074162Y-54735833D03*
D30*
X166074162Y-53685833D03*
D29*
X167344162Y-54735833D03*
D30*
X167344162Y-53685833D03*
D29*
X168614162Y-54735833D03*
D30*
X168614162Y-53685833D03*
D29*
X169884162Y-54735833D03*
D30*
X169884162Y-53685833D03*
X169884162Y-48285833D03*
D29*
X169884162Y-47235833D03*
D30*
X168614162Y-48285833D03*
D29*
X168614162Y-47235833D03*
D30*
X167344162Y-48285833D03*
D29*
X167344162Y-47235833D03*
D30*
X166074162Y-48285833D03*
D29*
X166074162Y-47235833D03*
D31*
X167979162Y-50985833D03*
G04 #@! TD*
D22*
G04 #@! TO.C,*
X165554162Y-44836000D03*
G04 #@! TD*
G04 #@! TO.C,*
X116673368Y-88972300D03*
G04 #@! TD*
G04 #@! TO.C,*
X162854162Y-134025000D03*
G04 #@! TD*
G04 #@! TO.C,*
X163754162Y-57136000D03*
G04 #@! TD*
G04 #@! TO.C,*
X114873368Y-87522332D03*
G04 #@! TD*
D32*
G04 #@! TO.C,C15*
X123348000Y-107026900D03*
X123348000Y-106066900D03*
G04 #@! TD*
D28*
G04 #@! TO.C,R5*
X127698000Y-62380600D03*
X127698000Y-63340600D03*
G04 #@! TD*
D10*
G04 #@! TO.C,R41*
X95224000Y-134046000D03*
X95224000Y-135006000D03*
G04 #@! TD*
D11*
G04 #@! TO.C,C76*
X102691669Y-92050000D03*
X101731669Y-92050000D03*
G04 #@! TD*
D22*
G04 #@! TO.C,*
X142350081Y-66048619D03*
G04 #@! TD*
G04 #@! TO.C,*
X166454162Y-44836000D03*
G04 #@! TD*
D33*
G04 #@! TO.C,J9*
X172254162Y-128485833D03*
X172254162Y-127215833D03*
X172254162Y-125945833D03*
X172254162Y-124675833D03*
X172254162Y-123405833D03*
X172254162Y-122135833D03*
X157054162Y-122135833D03*
X157054162Y-123405833D03*
X157054162Y-124675833D03*
X157054162Y-125945833D03*
X157054162Y-127215833D03*
X157054162Y-128485833D03*
G04 #@! TD*
D27*
G04 #@! TO.C,C60*
X159449162Y-105613333D03*
X158489162Y-105613333D03*
G04 #@! TD*
D22*
G04 #@! TO.C,*
X114873368Y-145770732D03*
G04 #@! TD*
G04 #@! TO.C,*
X114785500Y-144701600D03*
G04 #@! TD*
G04 #@! TO.C,*
X162854162Y-57136000D03*
G04 #@! TD*
D28*
G04 #@! TO.C,R5*
X127698000Y-76942700D03*
X127698000Y-77902700D03*
G04 #@! TD*
D22*
G04 #@! TO.C,*
X115773368Y-45286000D03*
G04 #@! TD*
G04 #@! TO.C,*
X165554162Y-57136000D03*
G04 #@! TD*
D32*
G04 #@! TO.C,C11*
X121498000Y-107026900D03*
X121498000Y-106066900D03*
G04 #@! TD*
D26*
G04 #@! TO.C,REF\u002A\u002A*
X175404162Y-48586000D03*
G04 #@! TD*
D27*
G04 #@! TO.C,C60*
X159449162Y-90748333D03*
X158489162Y-90748333D03*
G04 #@! TD*
D22*
G04 #@! TO.C,*
X164654162Y-104296000D03*
G04 #@! TD*
G04 #@! TO.C,*
X165554162Y-86866000D03*
G04 #@! TD*
D32*
G04 #@! TO.C,R2*
X118148000Y-136151100D03*
X118148000Y-135191100D03*
G04 #@! TD*
G04 #@! TO.C,R57*
X126048000Y-85102700D03*
X126048000Y-84142700D03*
G04 #@! TD*
D22*
G04 #@! TO.C,*
X111370868Y-121491868D03*
G04 #@! TD*
G04 #@! TO.C,*
X166454162Y-89431000D03*
G04 #@! TD*
D24*
G04 #@! TO.C,C7*
X125273000Y-96684800D03*
X126873000Y-96684800D03*
G04 #@! TD*
D11*
G04 #@! TO.C,R39*
X97078000Y-92025000D03*
X96118000Y-92025000D03*
G04 #@! TD*
D10*
G04 #@! TO.C,C69*
X95224000Y-79113000D03*
X95224000Y-80073000D03*
G04 #@! TD*
D32*
G04 #@! TO.C,C10*
X124698000Y-143201100D03*
X124698000Y-142241100D03*
G04 #@! TD*
D22*
G04 #@! TO.C,*
X130235500Y-104697853D03*
G04 #@! TD*
D32*
G04 #@! TO.C,C15*
X123348000Y-63340600D03*
X123348000Y-62380600D03*
G04 #@! TD*
D28*
G04 #@! TO.C,R9*
X119848000Y-62380600D03*
X119848000Y-63340600D03*
G04 #@! TD*
D22*
G04 #@! TO.C,*
X114785500Y-133815600D03*
G04 #@! TD*
G04 #@! TO.C,*
X166454162Y-104296000D03*
G04 #@! TD*
G04 #@! TO.C,*
X163754162Y-116596000D03*
G04 #@! TD*
G04 #@! TO.C,*
X129247632Y-45286000D03*
G04 #@! TD*
G04 #@! TO.C,*
X162854162Y-146325000D03*
G04 #@! TD*
G04 #@! TO.C,*
X163754162Y-89431000D03*
G04 #@! TD*
G04 #@! TO.C,*
X113797632Y-103622268D03*
G04 #@! TD*
G04 #@! TO.C,*
X130147632Y-44298132D03*
G04 #@! TD*
D32*
G04 #@! TO.C,R1*
X117318000Y-121589000D03*
X117318000Y-120629000D03*
G04 #@! TD*
D22*
G04 #@! TO.C,*
X165554162Y-131461000D03*
G04 #@! TD*
G04 #@! TO.C,*
X110295680Y-121491868D03*
G04 #@! TD*
G04 #@! TO.C,*
X111370868Y-45378868D03*
G04 #@! TD*
G04 #@! TO.C,*
X113797632Y-145770732D03*
G04 #@! TD*
D23*
G04 #@! TO.C,C1*
X117318000Y-126034000D03*
X118278000Y-126034000D03*
G04 #@! TD*
D22*
G04 #@! TO.C,*
X91357000Y-46372600D03*
G04 #@! TD*
G04 #@! TO.C,*
X165554162Y-116596000D03*
G04 #@! TD*
D32*
G04 #@! TO.C,R1*
X117318000Y-92464800D03*
X117318000Y-91504800D03*
G04 #@! TD*
D34*
G04 #@! TO.C,C3*
X119323000Y-138471100D03*
X117723000Y-138471100D03*
G04 #@! TD*
D22*
G04 #@! TO.C,*
X115773368Y-102172300D03*
G04 #@! TD*
G04 #@! TO.C,*
X113885500Y-119253500D03*
G04 #@! TD*
D11*
G04 #@! TO.C,C72*
X102691669Y-89183500D03*
X101731669Y-89183500D03*
G04 #@! TD*
D22*
G04 #@! TO.C,*
X163754162Y-59701000D03*
G04 #@! TD*
D27*
G04 #@! TO.C,C61*
X166099162Y-105610833D03*
X165139162Y-105610833D03*
G04 #@! TD*
D22*
G04 #@! TO.C,*
X166454162Y-116596000D03*
G04 #@! TD*
G04 #@! TO.C,*
X164654162Y-119161000D03*
G04 #@! TD*
G04 #@! TO.C,*
X131223368Y-146846468D03*
G04 #@! TD*
D35*
G04 #@! TO.C,U1*
X117398000Y-68685600D03*
X117798000Y-68685600D03*
X118198000Y-68685600D03*
X117398000Y-69085600D03*
X117798000Y-69085600D03*
X118198000Y-69085600D03*
X117398000Y-69485600D03*
X117798000Y-69485600D03*
X118198000Y-69485600D03*
G04 #@! TD*
D22*
G04 #@! TO.C,*
X165554162Y-131461000D03*
G04 #@! TD*
G04 #@! TO.C,*
X165554162Y-101731000D03*
G04 #@! TD*
D36*
G04 #@! TO.C,C4*
X120873000Y-96984800D03*
X120873000Y-98584800D03*
G04 #@! TD*
D14*
G04 #@! TO.C,C66*
X95877000Y-61588000D03*
X96837000Y-61588000D03*
G04 #@! TD*
D22*
G04 #@! TO.C,*
X165554162Y-59701000D03*
G04 #@! TD*
D10*
G04 #@! TO.C,C69*
X95224000Y-53742000D03*
X95224000Y-54702000D03*
G04 #@! TD*
D22*
G04 #@! TO.C,1*
X90457000Y-144793400D03*
G04 #@! TD*
D27*
G04 #@! TO.C,C16*
X119503000Y-50023500D03*
X118543000Y-50023500D03*
G04 #@! TD*
D22*
G04 #@! TO.C,*
X165554162Y-89431000D03*
G04 #@! TD*
G04 #@! TO.C,*
X113885500Y-130139500D03*
G04 #@! TD*
D10*
G04 #@! TO.C,C69*
X95224000Y-104484000D03*
X95224000Y-105444000D03*
G04 #@! TD*
D22*
G04 #@! TO.C,*
X141450081Y-44836001D03*
G04 #@! TD*
D36*
G04 #@! TO.C,C6*
X119523000Y-53298500D03*
X119523000Y-54898500D03*
G04 #@! TD*
D22*
G04 #@! TO.C,*
X114785500Y-90129300D03*
G04 #@! TD*
D28*
G04 #@! TO.C,R6*
X126873000Y-47818500D03*
X126873000Y-48778500D03*
G04 #@! TD*
D10*
G04 #@! TO.C,C74*
X106937000Y-65719000D03*
X106937000Y-66679000D03*
G04 #@! TD*
D22*
G04 #@! TO.C,*
X163754162Y-72001000D03*
G04 #@! TD*
G04 #@! TO.C,*
X164654162Y-74566000D03*
G04 #@! TD*
G04 #@! TO.C,*
X130147632Y-89060168D03*
G04 #@! TD*
G04 #@! TO.C,*
X131135500Y-46443000D03*
G04 #@! TD*
D20*
G04 #@! TO.C,OSC2*
X102701000Y-87777000D03*
X101701000Y-87777000D03*
X101701000Y-88187000D03*
X102701000Y-88187000D03*
G04 #@! TD*
D22*
G04 #@! TO.C,*
X131135500Y-90129300D03*
G04 #@! TD*
G04 #@! TO.C,*
X162854162Y-86866000D03*
G04 #@! TD*
G04 #@! TO.C,*
X166454162Y-59701000D03*
G04 #@! TD*
G04 #@! TO.C,*
X114873368Y-118184368D03*
G04 #@! TD*
D20*
G04 #@! TO.C,U17*
X98553000Y-116209000D03*
X97053000Y-116209000D03*
X96553000Y-116209000D03*
X99053000Y-115709000D03*
X98053000Y-115709000D03*
X97553000Y-115709000D03*
X96553000Y-115709000D03*
X99053000Y-115209000D03*
X98053000Y-115209000D03*
X97553000Y-115209000D03*
X96553000Y-115209000D03*
X99053000Y-114709000D03*
X98053000Y-114709000D03*
X97553000Y-114709000D03*
X96553000Y-114709000D03*
X99053000Y-114209000D03*
X98053000Y-114209000D03*
X97553000Y-114209000D03*
X96553000Y-114209000D03*
X98553000Y-113709000D03*
X97053000Y-113709000D03*
G04 #@! TD*
D23*
G04 #@! TO.C,R52*
X166959162Y-75880833D03*
X167919162Y-75880833D03*
G04 #@! TD*
D22*
G04 #@! TO.C,*
X113797632Y-118184368D03*
G04 #@! TD*
D28*
G04 #@! TO.C,R9*
X119848000Y-47818500D03*
X119848000Y-48778500D03*
G04 #@! TD*
D11*
G04 #@! TO.C,C67*
X106626000Y-112457000D03*
X105666000Y-112457000D03*
G04 #@! TD*
D22*
G04 #@! TO.C,*
X113797632Y-87522332D03*
G04 #@! TD*
D27*
G04 #@! TO.C,C61*
X166099162Y-61015833D03*
X165139162Y-61015833D03*
G04 #@! TD*
D22*
G04 #@! TO.C,*
X166454162Y-44836000D03*
G04 #@! TD*
G04 #@! TO.C,2*
X93344320Y-42587000D03*
G04 #@! TD*
G04 #@! TO.C,*
X91357000Y-122485600D03*
G04 #@! TD*
G04 #@! TO.C,*
X130235500Y-130139500D03*
G04 #@! TD*
G04 #@! TO.C,*
X162854162Y-134025000D03*
G04 #@! TD*
G04 #@! TO.C,*
X130235500Y-61005100D03*
G04 #@! TD*
D23*
G04 #@! TO.C,R50*
X165139162Y-115278333D03*
X166099162Y-115278333D03*
G04 #@! TD*
D22*
G04 #@! TO.C,*
X163754162Y-146325000D03*
G04 #@! TD*
G04 #@! TO.C,*
X114873368Y-102084432D03*
G04 #@! TD*
D37*
G04 #@! TO.C,U20*
X106144000Y-65799000D03*
D38*
X105794000Y-65749000D03*
X105444000Y-65749000D03*
X105094000Y-65749000D03*
X105094000Y-66649000D03*
X105444000Y-66649000D03*
X105794000Y-66649000D03*
X106144000Y-66649000D03*
G04 #@! TD*
D27*
G04 #@! TO.C,C61*
X166099162Y-90745833D03*
X165139162Y-90745833D03*
G04 #@! TD*
G04 #@! TO.C,R51*
X169814162Y-145007333D03*
X168854162Y-145007333D03*
G04 #@! TD*
D28*
G04 #@! TO.C,R5*
X127698000Y-106066900D03*
X127698000Y-107026900D03*
G04 #@! TD*
D22*
G04 #@! TO.C,*
X114873368Y-146846468D03*
G04 #@! TD*
G04 #@! TO.C,*
X110383000Y-68680400D03*
G04 #@! TD*
D32*
G04 #@! TO.C,C13*
X125223000Y-121589000D03*
X125223000Y-120629000D03*
G04 #@! TD*
D22*
G04 #@! TO.C,*
X166454162Y-72001000D03*
G04 #@! TD*
G04 #@! TO.C,*
X164654162Y-89431000D03*
G04 #@! TD*
G04 #@! TO.C,*
X131135500Y-71884647D03*
G04 #@! TD*
G04 #@! TO.C,*
X141450081Y-44836001D03*
G04 #@! TD*
D23*
G04 #@! TO.C,R50*
X165139162Y-100413333D03*
X166099162Y-100413333D03*
G04 #@! TD*
D22*
G04 #@! TO.C,*
X141450081Y-66048619D03*
G04 #@! TD*
D10*
G04 #@! TO.C,C68*
X107416000Y-53615000D03*
X107416000Y-54575000D03*
G04 #@! TD*
D22*
G04 #@! TO.C,*
X165554162Y-72001000D03*
G04 #@! TD*
G04 #@! TO.C,*
X163754162Y-89431000D03*
G04 #@! TD*
G04 #@! TO.C,*
X113797632Y-131208632D03*
G04 #@! TD*
G04 #@! TO.C,*
X110295132Y-95045132D03*
G04 #@! TD*
D27*
G04 #@! TO.C,C16*
X119503000Y-122834000D03*
X118543000Y-122834000D03*
G04 #@! TD*
D10*
G04 #@! TO.C,R54*
X106012000Y-113963000D03*
X106012000Y-114923000D03*
G04 #@! TD*
G04 #@! TO.C,R45*
X100212000Y-140743000D03*
X100212000Y-141703000D03*
G04 #@! TD*
D22*
G04 #@! TO.C,*
X164654162Y-59701000D03*
G04 #@! TD*
D24*
G04 #@! TO.C,C8*
X125273000Y-138971100D03*
X126873000Y-138971100D03*
G04 #@! TD*
D34*
G04 #@! TO.C,C3*
X119323000Y-123909000D03*
X117723000Y-123909000D03*
G04 #@! TD*
D11*
G04 #@! TO.C,C67*
X106626000Y-137828000D03*
X105666000Y-137828000D03*
G04 #@! TD*
D22*
G04 #@! TO.C,*
X165554162Y-101731000D03*
G04 #@! TD*
D11*
G04 #@! TO.C,C67*
X106626000Y-87086000D03*
X105666000Y-87086000D03*
G04 #@! TD*
D23*
G04 #@! TO.C,C2*
X117318000Y-128609000D03*
X118278000Y-128609000D03*
G04 #@! TD*
D39*
G04 #@! TO.C,U21*
X102611669Y-91257000D03*
D40*
X102661669Y-90907000D03*
X102661669Y-90557000D03*
X102661669Y-90207000D03*
X101761669Y-90207000D03*
X101761669Y-90557000D03*
X101761669Y-90907000D03*
X101761669Y-91257000D03*
G04 #@! TD*
D22*
G04 #@! TO.C,*
X162854162Y-146325000D03*
G04 #@! TD*
G04 #@! TO.C,*
X164654162Y-72001000D03*
G04 #@! TD*
G04 #@! TO.C,*
X166454162Y-146325000D03*
G04 #@! TD*
D27*
G04 #@! TO.C,C16*
X119503000Y-64585600D03*
X118543000Y-64585600D03*
G04 #@! TD*
D28*
G04 #@! TO.C,R6*
X126873000Y-106066900D03*
X126873000Y-107026900D03*
G04 #@! TD*
D22*
G04 #@! TO.C,*
X163754162Y-101731000D03*
G04 #@! TD*
G04 #@! TO.C,*
X129247632Y-118102953D03*
G04 #@! TD*
G04 #@! TO.C,*
X164654162Y-101731000D03*
G04 #@! TD*
D34*
G04 #@! TO.C,C3*
X119323000Y-80222700D03*
X117723000Y-80222700D03*
G04 #@! TD*
D32*
G04 #@! TO.C,R57*
X126048000Y-55978500D03*
X126048000Y-55018500D03*
G04 #@! TD*
D27*
G04 #@! TO.C,R51*
X169814162Y-115278333D03*
X168854162Y-115278333D03*
G04 #@! TD*
D29*
G04 #@! TO.C,U18*
X159424162Y-69600833D03*
D30*
X159424162Y-68550833D03*
D29*
X160694162Y-69600833D03*
D30*
X160694162Y-68550833D03*
D29*
X161964162Y-69600833D03*
D30*
X161964162Y-68550833D03*
D29*
X163234162Y-69600833D03*
D30*
X163234162Y-68550833D03*
X163234162Y-63150833D03*
D29*
X163234162Y-62100833D03*
D30*
X161964162Y-63150833D03*
D29*
X161964162Y-62100833D03*
D30*
X160694162Y-63150833D03*
D29*
X160694162Y-62100833D03*
D30*
X159424162Y-63150833D03*
D29*
X159424162Y-62100833D03*
D31*
X161329162Y-65850833D03*
G04 #@! TD*
D32*
G04 #@! TO.C,C10*
X124698000Y-84952700D03*
X124698000Y-83992700D03*
G04 #@! TD*
D10*
G04 #@! TO.C,C62*
X107416000Y-106135000D03*
X107416000Y-107095000D03*
G04 #@! TD*
D22*
G04 #@! TO.C,*
X131135500Y-86446747D03*
G04 #@! TD*
D41*
G04 #@! TO.C,L2*
X123773000Y-55348500D03*
X122173000Y-55348500D03*
G04 #@! TD*
D22*
G04 #@! TO.C,2*
X175753162Y-46373320D03*
G04 #@! TD*
D37*
G04 #@! TO.C,U20*
X106144000Y-141912000D03*
D38*
X105794000Y-141862000D03*
X105444000Y-141862000D03*
X105094000Y-141862000D03*
X105094000Y-142762000D03*
X105444000Y-142762000D03*
X105794000Y-142762000D03*
X106144000Y-142762000D03*
G04 #@! TD*
D10*
G04 #@! TO.C,C71*
X95224000Y-127950000D03*
X95224000Y-128910000D03*
G04 #@! TD*
D22*
G04 #@! TO.C,*
X165554162Y-86866000D03*
G04 #@! TD*
D35*
G04 #@! TO.C,U2*
X121098000Y-137371100D03*
X121498000Y-137371100D03*
X121898000Y-137371100D03*
X122298000Y-137371100D03*
X122698000Y-137371100D03*
X123098000Y-137371100D03*
X121098000Y-137771100D03*
X121498000Y-137771100D03*
X121898000Y-137771100D03*
X122298000Y-137771100D03*
X122698000Y-137771100D03*
X123098000Y-137771100D03*
X121098000Y-138171100D03*
X121498000Y-138171100D03*
X121898000Y-138171100D03*
X122298000Y-138171100D03*
X122698000Y-138171100D03*
X123098000Y-138171100D03*
X121098000Y-138571100D03*
X121498000Y-138571100D03*
X121898000Y-138571100D03*
X122298000Y-138571100D03*
X122698000Y-138571100D03*
X123098000Y-138571100D03*
X121098000Y-138971100D03*
X121498000Y-138971100D03*
X121898000Y-138971100D03*
X122298000Y-138971100D03*
X122698000Y-138971100D03*
X123098000Y-138971100D03*
G04 #@! TD*
D22*
G04 #@! TO.C,*
X131223368Y-145770732D03*
G04 #@! TD*
G04 #@! TO.C,*
X143250081Y-66048619D03*
G04 #@! TD*
D27*
G04 #@! TO.C,R47*
X163164162Y-105610833D03*
X162204162Y-105610833D03*
G04 #@! TD*
D22*
G04 #@! TO.C,*
X164654162Y-57136000D03*
G04 #@! TD*
G04 #@! TO.C,*
X131223368Y-58391679D03*
G04 #@! TD*
D36*
G04 #@! TO.C,C4*
X120873000Y-140671100D03*
X120873000Y-142271100D03*
G04 #@! TD*
D22*
G04 #@! TO.C,*
X163754162Y-72001000D03*
G04 #@! TD*
G04 #@! TO.C,*
X129247632Y-132665053D03*
G04 #@! TD*
G04 #@! TO.C,*
X116673368Y-44386000D03*
G04 #@! TD*
D23*
G04 #@! TO.C,R52*
X166959162Y-120475833D03*
X167919162Y-120475833D03*
G04 #@! TD*
G04 #@! TO.C,R46*
X158489162Y-70683333D03*
X159449162Y-70683333D03*
G04 #@! TD*
D22*
G04 #@! TO.C,*
X109295680Y-70666000D03*
G04 #@! TD*
D24*
G04 #@! TO.C,C5*
X122298000Y-140671100D03*
X123898000Y-140671100D03*
G04 #@! TD*
D22*
G04 #@! TO.C,1*
X90457000Y-46372600D03*
G04 #@! TD*
G04 #@! TO.C,*
X128347632Y-102172300D03*
G04 #@! TD*
G04 #@! TO.C,*
X166454162Y-57136000D03*
G04 #@! TD*
G04 #@! TO.C,*
X93349000Y-121404000D03*
G04 #@! TD*
D32*
G04 #@! TO.C,C12*
X124273000Y-63340600D03*
X124273000Y-62380600D03*
G04 #@! TD*
D22*
G04 #@! TO.C,2*
X93349000Y-148575000D03*
G04 #@! TD*
G04 #@! TO.C,*
X162854162Y-101731000D03*
G04 #@! TD*
D10*
G04 #@! TO.C,C65*
X95224000Y-80891000D03*
X95224000Y-81851000D03*
G04 #@! TD*
D24*
G04 #@! TO.C,C7*
X125273000Y-52998500D03*
X126873000Y-52998500D03*
G04 #@! TD*
D11*
G04 #@! TO.C,C64*
X98498000Y-49523000D03*
X97538000Y-49523000D03*
G04 #@! TD*
D22*
G04 #@! TO.C,*
X165554162Y-146325000D03*
G04 #@! TD*
D32*
G04 #@! TO.C,C14*
X122423000Y-48778500D03*
X122423000Y-47818500D03*
G04 #@! TD*
D35*
G04 #@! TO.C,U2*
X121098000Y-122809000D03*
X121498000Y-122809000D03*
X121898000Y-122809000D03*
X122298000Y-122809000D03*
X122698000Y-122809000D03*
X123098000Y-122809000D03*
X121098000Y-123209000D03*
X121498000Y-123209000D03*
X121898000Y-123209000D03*
X122298000Y-123209000D03*
X122698000Y-123209000D03*
X123098000Y-123209000D03*
X121098000Y-123609000D03*
X121498000Y-123609000D03*
X121898000Y-123609000D03*
X122298000Y-123609000D03*
X122698000Y-123609000D03*
X123098000Y-123609000D03*
X121098000Y-124009000D03*
X121498000Y-124009000D03*
X121898000Y-124009000D03*
X122298000Y-124009000D03*
X122698000Y-124009000D03*
X123098000Y-124009000D03*
X121098000Y-124409000D03*
X121498000Y-124409000D03*
X121898000Y-124409000D03*
X122298000Y-124409000D03*
X122698000Y-124409000D03*
X123098000Y-124409000D03*
G04 #@! TD*
D22*
G04 #@! TO.C,*
X164654162Y-131461000D03*
G04 #@! TD*
G04 #@! TO.C,*
X116673368Y-59848100D03*
G04 #@! TD*
G04 #@! TO.C,*
X111370320Y-44303132D03*
G04 #@! TD*
G04 #@! TO.C,*
X91357000Y-119422400D03*
G04 #@! TD*
G04 #@! TO.C,*
X128347632Y-131296500D03*
G04 #@! TD*
G04 #@! TO.C,*
X166454162Y-72001000D03*
G04 #@! TD*
D27*
G04 #@! TO.C,R48*
X163164162Y-70683333D03*
X162204162Y-70683333D03*
G04 #@! TD*
D32*
G04 #@! TO.C,C14*
X122423000Y-77902700D03*
X122423000Y-76942700D03*
G04 #@! TD*
D22*
G04 #@! TO.C,*
X115773368Y-88972300D03*
G04 #@! TD*
D28*
G04 #@! TO.C,R7*
X126048000Y-106066900D03*
X126048000Y-107026900D03*
G04 #@! TD*
D24*
G04 #@! TO.C,C8*
X125273000Y-51598500D03*
X126873000Y-51598500D03*
G04 #@! TD*
D22*
G04 #@! TO.C,*
X165554162Y-119161000D03*
G04 #@! TD*
G04 #@! TO.C,*
X162854162Y-59701000D03*
G04 #@! TD*
D35*
G04 #@! TO.C,U2*
X121098000Y-93684800D03*
X121498000Y-93684800D03*
X121898000Y-93684800D03*
X122298000Y-93684800D03*
X122698000Y-93684800D03*
X123098000Y-93684800D03*
X121098000Y-94084800D03*
X121498000Y-94084800D03*
X121898000Y-94084800D03*
X122298000Y-94084800D03*
X122698000Y-94084800D03*
X123098000Y-94084800D03*
X121098000Y-94484800D03*
X121498000Y-94484800D03*
X121898000Y-94484800D03*
X122298000Y-94484800D03*
X122698000Y-94484800D03*
X123098000Y-94484800D03*
X121098000Y-94884800D03*
X121498000Y-94884800D03*
X121898000Y-94884800D03*
X122298000Y-94884800D03*
X122698000Y-94884800D03*
X123098000Y-94884800D03*
X121098000Y-95284800D03*
X121498000Y-95284800D03*
X121898000Y-95284800D03*
X122298000Y-95284800D03*
X122698000Y-95284800D03*
X123098000Y-95284800D03*
G04 #@! TD*
D32*
G04 #@! TO.C,C14*
X122423000Y-63340600D03*
X122423000Y-62380600D03*
G04 #@! TD*
D23*
G04 #@! TO.C,R46*
X158489162Y-85548333D03*
X159449162Y-85548333D03*
G04 #@! TD*
D22*
G04 #@! TO.C,*
X128347632Y-59848100D03*
G04 #@! TD*
G04 #@! TO.C,*
X113797632Y-45373868D03*
G04 #@! TD*
D32*
G04 #@! TO.C,R56*
X126873000Y-70540600D03*
X126873000Y-69580600D03*
G04 #@! TD*
D35*
G04 #@! TO.C,U2*
X121098000Y-79122700D03*
X121498000Y-79122700D03*
X121898000Y-79122700D03*
X122298000Y-79122700D03*
X122698000Y-79122700D03*
X123098000Y-79122700D03*
X121098000Y-79522700D03*
X121498000Y-79522700D03*
X121898000Y-79522700D03*
X122298000Y-79522700D03*
X122698000Y-79522700D03*
X123098000Y-79522700D03*
X121098000Y-79922700D03*
X121498000Y-79922700D03*
X121898000Y-79922700D03*
X122298000Y-79922700D03*
X122698000Y-79922700D03*
X123098000Y-79922700D03*
X121098000Y-80322700D03*
X121498000Y-80322700D03*
X121898000Y-80322700D03*
X122298000Y-80322700D03*
X122698000Y-80322700D03*
X123098000Y-80322700D03*
X121098000Y-80722700D03*
X121498000Y-80722700D03*
X121898000Y-80722700D03*
X122298000Y-80722700D03*
X122698000Y-80722700D03*
X123098000Y-80722700D03*
G04 #@! TD*
D22*
G04 #@! TO.C,*
X162854162Y-89431000D03*
G04 #@! TD*
G04 #@! TO.C,*
X163754162Y-89431000D03*
G04 #@! TD*
G04 #@! TO.C,*
X166454162Y-59701000D03*
G04 #@! TD*
G04 #@! TO.C,*
X129247632Y-102172300D03*
G04 #@! TD*
G04 #@! TO.C,*
X166454162Y-134025000D03*
G04 #@! TD*
D25*
G04 #@! TO.C,U22*
X104294000Y-114043000D03*
X103944000Y-114043000D03*
X103594000Y-114043000D03*
X103594000Y-114843000D03*
X103944000Y-114843000D03*
X104294000Y-114843000D03*
G04 #@! TD*
D22*
G04 #@! TO.C,*
X131223368Y-59935968D03*
G04 #@! TD*
G04 #@! TO.C,*
X163754162Y-134025000D03*
G04 #@! TD*
G04 #@! TO.C,*
X110295132Y-120416132D03*
G04 #@! TD*
G04 #@! TO.C,*
X129247632Y-74410200D03*
G04 #@! TD*
G04 #@! TO.C,*
X92344868Y-146862868D03*
G04 #@! TD*
G04 #@! TO.C,*
X165554162Y-101731000D03*
G04 #@! TD*
D29*
G04 #@! TO.C,U18*
X159424162Y-99330833D03*
D30*
X159424162Y-98280833D03*
D29*
X160694162Y-99330833D03*
D30*
X160694162Y-98280833D03*
D29*
X161964162Y-99330833D03*
D30*
X161964162Y-98280833D03*
D29*
X163234162Y-99330833D03*
D30*
X163234162Y-98280833D03*
X163234162Y-92880833D03*
D29*
X163234162Y-91830833D03*
D30*
X161964162Y-92880833D03*
D29*
X161964162Y-91830833D03*
D30*
X160694162Y-92880833D03*
D29*
X160694162Y-91830833D03*
D30*
X159424162Y-92880833D03*
D29*
X159424162Y-91830833D03*
D31*
X161329162Y-95580833D03*
G04 #@! TD*
D32*
G04 #@! TO.C,C11*
X121498000Y-63340600D03*
X121498000Y-62380600D03*
G04 #@! TD*
G04 #@! TO.C,R57*
X126048000Y-70540600D03*
X126048000Y-69580600D03*
G04 #@! TD*
D19*
G04 #@! TO.C,R44*
X95363000Y-114554000D03*
X95363000Y-113594000D03*
G04 #@! TD*
D22*
G04 #@! TO.C,*
X165554162Y-104296000D03*
G04 #@! TD*
G04 #@! TO.C,*
X142350081Y-44836001D03*
G04 #@! TD*
D23*
G04 #@! TO.C,R46*
X158489162Y-145007333D03*
X159449162Y-145007333D03*
G04 #@! TD*
D22*
G04 #@! TO.C,*
X163754162Y-104296000D03*
G04 #@! TD*
D27*
G04 #@! TO.C,C61*
X166099162Y-46150833D03*
X165139162Y-46150833D03*
G04 #@! TD*
G04 #@! TO.C,C61*
X166099162Y-135339833D03*
X165139162Y-135339833D03*
G04 #@! TD*
D22*
G04 #@! TO.C,3*
X93344320Y-41687000D03*
G04 #@! TD*
G04 #@! TO.C,*
X144150081Y-66048619D03*
G04 #@! TD*
G04 #@! TO.C,*
X111283000Y-122485600D03*
G04 #@! TD*
G04 #@! TO.C,*
X166454162Y-101731000D03*
G04 #@! TD*
G04 #@! TO.C,*
X165554162Y-72001000D03*
G04 #@! TD*
D10*
G04 #@! TO.C,R54*
X106012000Y-63221000D03*
X106012000Y-64181000D03*
G04 #@! TD*
D22*
G04 #@! TO.C,4*
X93344320Y-40787000D03*
G04 #@! TD*
D36*
G04 #@! TO.C,C6*
X119523000Y-126109000D03*
X119523000Y-127709000D03*
G04 #@! TD*
D22*
G04 #@! TO.C,*
X141450081Y-66048619D03*
G04 #@! TD*
D28*
G04 #@! TO.C,R6*
X126873000Y-91504800D03*
X126873000Y-92464800D03*
G04 #@! TD*
D22*
G04 #@! TO.C,*
X128347632Y-45286000D03*
G04 #@! TD*
G04 #@! TO.C,*
X166454162Y-44836000D03*
G04 #@! TD*
D35*
G04 #@! TO.C,U1*
X117398000Y-83247700D03*
X117798000Y-83247700D03*
X118198000Y-83247700D03*
X117398000Y-83647700D03*
X117798000Y-83647700D03*
X118198000Y-83647700D03*
X117398000Y-84047700D03*
X117798000Y-84047700D03*
X118198000Y-84047700D03*
G04 #@! TD*
D22*
G04 #@! TO.C,*
X144150081Y-44836001D03*
G04 #@! TD*
G04 #@! TO.C,*
X166454162Y-119161000D03*
G04 #@! TD*
D19*
G04 #@! TO.C,R43*
X100212000Y-139917000D03*
X100212000Y-138957000D03*
G04 #@! TD*
D33*
G04 #@! TO.C,J8*
X93065000Y-98106000D03*
X93065000Y-99376000D03*
X93065000Y-100646000D03*
X93065000Y-101916000D03*
X93065000Y-103186000D03*
X93065000Y-104456000D03*
X93065000Y-105726000D03*
X93065000Y-106996000D03*
D18*
X93065000Y-108266000D03*
X93065000Y-109536000D03*
X93065000Y-110806000D03*
X93065000Y-112076000D03*
X93065000Y-113346000D03*
X93065000Y-114616000D03*
X93065000Y-115886000D03*
X93065000Y-117156000D03*
X93065000Y-118426000D03*
D42*
X94335000Y-119696000D03*
X95605000Y-119696000D03*
X96875000Y-119696000D03*
X98145000Y-119696000D03*
X99415000Y-119696000D03*
X100685000Y-119696000D03*
D43*
X101955000Y-119696000D03*
X103225000Y-119696000D03*
X104495000Y-119696000D03*
X105765000Y-119696000D03*
X107035000Y-119696000D03*
X108305000Y-119696000D03*
D33*
X109575000Y-118426000D03*
X109575000Y-117156000D03*
X109575000Y-115886000D03*
X109575000Y-114616000D03*
X109575000Y-113346000D03*
X109575000Y-112076000D03*
X109575000Y-110806000D03*
X109575000Y-109536000D03*
X109575000Y-108266000D03*
X109575000Y-106996000D03*
X109575000Y-105726000D03*
X109575000Y-104456000D03*
D18*
X109575000Y-103186000D03*
X109575000Y-101916000D03*
X109575000Y-100646000D03*
X109575000Y-99376000D03*
X109575000Y-98106000D03*
D43*
X108305000Y-96836000D03*
X107035000Y-96836000D03*
X105765000Y-96836000D03*
X104495000Y-96836000D03*
X103225000Y-96836000D03*
D42*
X101955000Y-96836000D03*
X100685000Y-96836000D03*
X99415000Y-96836000D03*
X98145000Y-96836000D03*
X96875000Y-96836000D03*
X95605000Y-96836000D03*
X94335000Y-96836000D03*
G04 #@! TD*
D22*
G04 #@! TO.C,*
X92344868Y-70749868D03*
G04 #@! TD*
G04 #@! TO.C,*
X162854162Y-131461000D03*
G04 #@! TD*
G04 #@! TO.C,*
X164654162Y-131461000D03*
G04 #@! TD*
G04 #@! TO.C,*
X111370320Y-120416132D03*
G04 #@! TD*
G04 #@! TO.C,*
X162854162Y-59701000D03*
G04 #@! TD*
D19*
G04 #@! TO.C,R43*
X100212000Y-114546000D03*
X100212000Y-113586000D03*
G04 #@! TD*
D22*
G04 #@! TO.C,*
X165554162Y-74566000D03*
G04 #@! TD*
D32*
G04 #@! TO.C,R1*
X117318000Y-136151100D03*
X117318000Y-135191100D03*
G04 #@! TD*
D28*
G04 #@! TO.C,R6*
X126873000Y-62380600D03*
X126873000Y-63340600D03*
G04 #@! TD*
D22*
G04 #@! TO.C,*
X162854162Y-72001000D03*
G04 #@! TD*
G04 #@! TO.C,*
X114785500Y-86453200D03*
G04 #@! TD*
G04 #@! TO.C,*
X113885500Y-90129300D03*
G04 #@! TD*
G04 #@! TO.C,*
X163754162Y-119161000D03*
G04 #@! TD*
G04 #@! TO.C,*
X162854162Y-119161000D03*
G04 #@! TD*
D24*
G04 #@! TO.C,C8*
X125273000Y-80722700D03*
X126873000Y-80722700D03*
G04 #@! TD*
D23*
G04 #@! TO.C,C2*
X117318000Y-99484800D03*
X118278000Y-99484800D03*
G04 #@! TD*
D22*
G04 #@! TO.C,*
X142350081Y-44836001D03*
G04 #@! TD*
G04 #@! TO.C,*
X116673368Y-103534400D03*
G04 #@! TD*
G04 #@! TO.C,*
X163754162Y-89431000D03*
G04 #@! TD*
G04 #@! TO.C,*
X164654162Y-59701000D03*
G04 #@! TD*
D32*
G04 #@! TO.C,C11*
X121498000Y-121589000D03*
X121498000Y-120629000D03*
G04 #@! TD*
D22*
G04 #@! TO.C,*
X165554162Y-86866000D03*
G04 #@! TD*
D28*
G04 #@! TO.C,R8*
X120673000Y-91504800D03*
X120673000Y-92464800D03*
G04 #@! TD*
D20*
G04 #@! TO.C,OSC2*
X102701000Y-62406000D03*
X101701000Y-62406000D03*
X101701000Y-62816000D03*
X102701000Y-62816000D03*
G04 #@! TD*
D39*
G04 #@! TO.C,U21*
X102611669Y-141999000D03*
D40*
X102661669Y-141649000D03*
X102661669Y-141299000D03*
X102661669Y-140949000D03*
X101761669Y-140949000D03*
X101761669Y-141299000D03*
X101761669Y-141649000D03*
X101761669Y-141999000D03*
G04 #@! TD*
D27*
G04 #@! TO.C,C60*
X159449162Y-75883333D03*
X158489162Y-75883333D03*
G04 #@! TD*
D22*
G04 #@! TO.C,*
X163754162Y-72001000D03*
G04 #@! TD*
G04 #@! TO.C,*
X113797632Y-72960232D03*
G04 #@! TD*
G04 #@! TO.C,*
X111370868Y-70749868D03*
G04 #@! TD*
G04 #@! TO.C,*
X143250081Y-44836001D03*
G04 #@! TD*
G04 #@! TO.C,*
X164654162Y-74566000D03*
G04 #@! TD*
G04 #@! TO.C,*
X164654162Y-116596000D03*
G04 #@! TD*
G04 #@! TO.C,*
X166454162Y-119161000D03*
G04 #@! TD*
G04 #@! TO.C,*
X130147632Y-72953779D03*
G04 #@! TD*
D23*
G04 #@! TO.C,C1*
X117318000Y-82347700D03*
X118278000Y-82347700D03*
G04 #@! TD*
D22*
G04 #@! TO.C,*
X111283000Y-71743600D03*
G04 #@! TD*
G04 #@! TO.C,*
X145050081Y-44836001D03*
G04 #@! TD*
D10*
G04 #@! TO.C,R53*
X106937000Y-63221000D03*
X106937000Y-64181000D03*
G04 #@! TD*
G04 #@! TO.C,R41*
X95224000Y-57933000D03*
X95224000Y-58893000D03*
G04 #@! TD*
D27*
G04 #@! TO.C,C16*
X119503000Y-108271900D03*
X118543000Y-108271900D03*
G04 #@! TD*
D28*
G04 #@! TO.C,R7*
X126048000Y-62380600D03*
X126048000Y-63340600D03*
G04 #@! TD*
D11*
G04 #@! TO.C,C70*
X100276000Y-49523000D03*
X99316000Y-49523000D03*
G04 #@! TD*
G04 #@! TO.C,C72*
X102691669Y-63812500D03*
X101731669Y-63812500D03*
G04 #@! TD*
D22*
G04 #@! TO.C,*
X109291000Y-95133000D03*
G04 #@! TD*
D19*
G04 #@! TO.C,R40*
X95224000Y-60671000D03*
X95224000Y-59711000D03*
G04 #@! TD*
D23*
G04 #@! TO.C,R49*
X160346662Y-46148333D03*
X161306662Y-46148333D03*
G04 #@! TD*
D22*
G04 #@! TO.C,*
X163754162Y-131461000D03*
G04 #@! TD*
G04 #@! TO.C,*
X116673368Y-87610200D03*
G04 #@! TD*
D23*
G04 #@! TO.C,C2*
X117318000Y-70360600D03*
X118278000Y-70360600D03*
G04 #@! TD*
D22*
G04 #@! TO.C,*
X164654162Y-86866000D03*
G04 #@! TD*
G04 #@! TO.C,*
X91269132Y-95045132D03*
G04 #@! TD*
G04 #@! TO.C,*
X162854162Y-119161000D03*
G04 #@! TD*
D24*
G04 #@! TO.C,C8*
X125273000Y-66160600D03*
X126873000Y-66160600D03*
G04 #@! TD*
D28*
G04 #@! TO.C,R9*
X119848000Y-91504800D03*
X119848000Y-92464800D03*
G04 #@! TD*
D22*
G04 #@! TO.C,*
X131223368Y-45373868D03*
G04 #@! TD*
G04 #@! TO.C,*
X163754162Y-146325000D03*
G04 #@! TD*
G04 #@! TO.C,*
X163754162Y-134025000D03*
G04 #@! TD*
D20*
G04 #@! TO.C,U17*
X98553000Y-65467000D03*
X97053000Y-65467000D03*
X96553000Y-65467000D03*
X99053000Y-64967000D03*
X98053000Y-64967000D03*
X97553000Y-64967000D03*
X96553000Y-64967000D03*
X99053000Y-64467000D03*
X98053000Y-64467000D03*
X97553000Y-64467000D03*
X96553000Y-64467000D03*
X99053000Y-63967000D03*
X98053000Y-63967000D03*
X97553000Y-63967000D03*
X96553000Y-63967000D03*
X99053000Y-63467000D03*
X98053000Y-63467000D03*
X97553000Y-63467000D03*
X96553000Y-63467000D03*
X98553000Y-62967000D03*
X97053000Y-62967000D03*
G04 #@! TD*
D32*
G04 #@! TO.C,R1*
X117318000Y-107026900D03*
X117318000Y-106066900D03*
G04 #@! TD*
G04 #@! TO.C,R2*
X118148000Y-48778500D03*
X118148000Y-47818500D03*
G04 #@! TD*
D23*
G04 #@! TO.C,R49*
X160346662Y-90743333D03*
X161306662Y-90743333D03*
G04 #@! TD*
D37*
G04 #@! TO.C,U20*
X106144000Y-116541000D03*
D38*
X105794000Y-116491000D03*
X105444000Y-116491000D03*
X105094000Y-116491000D03*
X105094000Y-117391000D03*
X105444000Y-117391000D03*
X105794000Y-117391000D03*
X106144000Y-117391000D03*
G04 #@! TD*
D22*
G04 #@! TO.C,*
X166454162Y-86866000D03*
G04 #@! TD*
G04 #@! TO.C,*
X162854162Y-119161000D03*
G04 #@! TD*
D32*
G04 #@! TO.C,R2*
X118148000Y-107026900D03*
X118148000Y-106066900D03*
G04 #@! TD*
D23*
G04 #@! TO.C,C1*
X117318000Y-96909800D03*
X118278000Y-96909800D03*
G04 #@! TD*
D24*
G04 #@! TO.C,C7*
X125273000Y-140371100D03*
X126873000Y-140371100D03*
G04 #@! TD*
D27*
G04 #@! TO.C,R51*
X169814162Y-70683333D03*
X168854162Y-70683333D03*
G04 #@! TD*
D26*
G04 #@! TO.C,REF\u002A\u002A*
X88557000Y-149575000D03*
G04 #@! TD*
D22*
G04 #@! TO.C,*
X114873368Y-132746468D03*
G04 #@! TD*
D35*
G04 #@! TO.C,U1*
X117398000Y-54123500D03*
X117798000Y-54123500D03*
X118198000Y-54123500D03*
X117398000Y-54523500D03*
X117798000Y-54523500D03*
X118198000Y-54523500D03*
X117398000Y-54923500D03*
X117798000Y-54923500D03*
X118198000Y-54923500D03*
G04 #@! TD*
D23*
G04 #@! TO.C,C1*
X117318000Y-140596100D03*
X118278000Y-140596100D03*
G04 #@! TD*
D11*
G04 #@! TO.C,C73*
X99028000Y-117421000D03*
X98068000Y-117421000D03*
G04 #@! TD*
D41*
G04 #@! TO.C,L2*
X123773000Y-69910600D03*
X122173000Y-69910600D03*
G04 #@! TD*
D22*
G04 #@! TO.C,*
X114785500Y-57329000D03*
G04 #@! TD*
D26*
G04 #@! TO.C,REF\u002A\u002A*
X89907000Y-48586000D03*
G04 #@! TD*
D22*
G04 #@! TO.C,*
X164654162Y-134025000D03*
G04 #@! TD*
D11*
G04 #@! TO.C,C58*
X98625000Y-86959000D03*
X97665000Y-86959000D03*
G04 #@! TD*
D10*
G04 #@! TO.C,R42*
X95363000Y-140743000D03*
X95363000Y-141703000D03*
G04 #@! TD*
D22*
G04 #@! TO.C,*
X165554162Y-119161000D03*
G04 #@! TD*
G04 #@! TO.C,2*
X89557000Y-144793400D03*
G04 #@! TD*
G04 #@! TO.C,*
X114785500Y-71891100D03*
G04 #@! TD*
G04 #@! TO.C,*
X163754162Y-119161000D03*
G04 #@! TD*
G04 #@! TO.C,1*
X171967562Y-43486000D03*
G04 #@! TD*
D24*
G04 #@! TO.C,C9*
X125273000Y-123009000D03*
X126873000Y-123009000D03*
G04 #@! TD*
D32*
G04 #@! TO.C,C12*
X124273000Y-48778500D03*
X124273000Y-47818500D03*
G04 #@! TD*
D28*
G04 #@! TO.C,R7*
X126048000Y-47818500D03*
X126048000Y-48778500D03*
G04 #@! TD*
D22*
G04 #@! TO.C,*
X162854162Y-104296000D03*
G04 #@! TD*
G04 #@! TO.C,*
X93344320Y-44387000D03*
G04 #@! TD*
G04 #@! TO.C,*
X165554162Y-59701000D03*
G04 #@! TD*
G04 #@! TO.C,*
X116673368Y-58486000D03*
G04 #@! TD*
D29*
G04 #@! TO.C,U19*
X166074162Y-129060833D03*
D30*
X166074162Y-128010833D03*
D29*
X167344162Y-129060833D03*
D30*
X167344162Y-128010833D03*
D29*
X168614162Y-129060833D03*
D30*
X168614162Y-128010833D03*
D29*
X169884162Y-129060833D03*
D30*
X169884162Y-128010833D03*
X169884162Y-122610833D03*
D29*
X169884162Y-121560833D03*
D30*
X168614162Y-122610833D03*
D29*
X168614162Y-121560833D03*
D30*
X167344162Y-122610833D03*
D29*
X167344162Y-121560833D03*
D30*
X166074162Y-122610833D03*
D29*
X166074162Y-121560833D03*
D31*
X167979162Y-125310833D03*
G04 #@! TD*
D33*
G04 #@! TO.C,J8*
X93065000Y-47364000D03*
X93065000Y-48634000D03*
X93065000Y-49904000D03*
X93065000Y-51174000D03*
X93065000Y-52444000D03*
X93065000Y-53714000D03*
X93065000Y-54984000D03*
X93065000Y-56254000D03*
D18*
X93065000Y-57524000D03*
X93065000Y-58794000D03*
X93065000Y-60064000D03*
X93065000Y-61334000D03*
X93065000Y-62604000D03*
X93065000Y-63874000D03*
X93065000Y-65144000D03*
X93065000Y-66414000D03*
X93065000Y-67684000D03*
D42*
X94335000Y-68954000D03*
X95605000Y-68954000D03*
X96875000Y-68954000D03*
X98145000Y-68954000D03*
X99415000Y-68954000D03*
X100685000Y-68954000D03*
D43*
X101955000Y-68954000D03*
X103225000Y-68954000D03*
X104495000Y-68954000D03*
X105765000Y-68954000D03*
X107035000Y-68954000D03*
X108305000Y-68954000D03*
D33*
X109575000Y-67684000D03*
X109575000Y-66414000D03*
X109575000Y-65144000D03*
X109575000Y-63874000D03*
X109575000Y-62604000D03*
X109575000Y-61334000D03*
X109575000Y-60064000D03*
X109575000Y-58794000D03*
X109575000Y-57524000D03*
X109575000Y-56254000D03*
X109575000Y-54984000D03*
X109575000Y-53714000D03*
D18*
X109575000Y-52444000D03*
X109575000Y-51174000D03*
X109575000Y-49904000D03*
X109575000Y-48634000D03*
X109575000Y-47364000D03*
D43*
X108305000Y-46094000D03*
X107035000Y-46094000D03*
X105765000Y-46094000D03*
X104495000Y-46094000D03*
X103225000Y-46094000D03*
D42*
X101955000Y-46094000D03*
X100685000Y-46094000D03*
X99415000Y-46094000D03*
X98145000Y-46094000D03*
X96875000Y-46094000D03*
X95605000Y-46094000D03*
X94335000Y-46094000D03*
G04 #@! TD*
D11*
G04 #@! TO.C,C58*
X98625000Y-61588000D03*
X97665000Y-61588000D03*
G04 #@! TD*
D22*
G04 #@! TO.C,*
X164654162Y-146325000D03*
G04 #@! TD*
G04 #@! TO.C,*
X165554162Y-131461000D03*
G04 #@! TD*
G04 #@! TO.C,*
X166454162Y-104296000D03*
G04 #@! TD*
G04 #@! TO.C,*
X113885500Y-57329000D03*
G04 #@! TD*
G04 #@! TO.C,*
X166454162Y-86866000D03*
G04 #@! TD*
G04 #@! TO.C,*
X141450081Y-44836001D03*
G04 #@! TD*
G04 #@! TO.C,*
X162854162Y-146325000D03*
G04 #@! TD*
G04 #@! TO.C,*
X110295132Y-145787132D03*
G04 #@! TD*
D33*
G04 #@! TO.C,J1*
X115585500Y-105689400D03*
X115585500Y-106959400D03*
X115585500Y-108229400D03*
X115585500Y-109499400D03*
X115585500Y-110769400D03*
X115585500Y-112039400D03*
X115585500Y-113309400D03*
X115585500Y-114579400D03*
D42*
X117430500Y-115934400D03*
X118700500Y-115934400D03*
X119970500Y-115934400D03*
X121240500Y-115934400D03*
X122510500Y-115934400D03*
X123780500Y-115934400D03*
X125050500Y-115934400D03*
X126320500Y-115934400D03*
X127590500Y-115934400D03*
D33*
X129435500Y-114579400D03*
X129435500Y-113309400D03*
X129435500Y-112039400D03*
X129435500Y-110769400D03*
X129435500Y-109499400D03*
X129435500Y-108229400D03*
X129435500Y-106959400D03*
X129435500Y-105689400D03*
D42*
X127590500Y-104334400D03*
X126320500Y-104334400D03*
X125050500Y-104334400D03*
X123780500Y-104334400D03*
X122510500Y-104334400D03*
X121240500Y-104334400D03*
X119970500Y-104334400D03*
X118700500Y-104334400D03*
X117430500Y-104334400D03*
G04 #@! TD*
D28*
G04 #@! TO.C,R5*
X127698000Y-120629000D03*
X127698000Y-121589000D03*
G04 #@! TD*
D22*
G04 #@! TO.C,*
X164654162Y-116596000D03*
G04 #@! TD*
G04 #@! TO.C,*
X162854162Y-134025000D03*
G04 #@! TD*
G04 #@! TO.C,*
X114785500Y-115577400D03*
G04 #@! TD*
G04 #@! TO.C,*
X130147632Y-103628721D03*
G04 #@! TD*
G04 #@! TO.C,*
X166454162Y-116596000D03*
G04 #@! TD*
G04 #@! TO.C,*
X92344320Y-44303132D03*
G04 #@! TD*
G04 #@! TO.C,*
X162854162Y-86866000D03*
G04 #@! TD*
D10*
G04 #@! TO.C,R41*
X95224000Y-83304000D03*
X95224000Y-84264000D03*
G04 #@! TD*
D37*
G04 #@! TO.C,U20*
X106144000Y-91170000D03*
D38*
X105794000Y-91120000D03*
X105444000Y-91120000D03*
X105094000Y-91120000D03*
X105094000Y-92020000D03*
X105444000Y-92020000D03*
X105794000Y-92020000D03*
X106144000Y-92020000D03*
G04 #@! TD*
D22*
G04 #@! TO.C,*
X165554162Y-116596000D03*
G04 #@! TD*
G04 #@! TO.C,*
X165554162Y-44836000D03*
G04 #@! TD*
G04 #@! TO.C,*
X165554162Y-57136000D03*
G04 #@! TD*
D11*
G04 #@! TO.C,C67*
X106626000Y-61715000D03*
X105666000Y-61715000D03*
G04 #@! TD*
D32*
G04 #@! TO.C,C14*
X122423000Y-136151100D03*
X122423000Y-135191100D03*
G04 #@! TD*
D22*
G04 #@! TO.C,*
X115773368Y-58486000D03*
G04 #@! TD*
D35*
G04 #@! TO.C,U2*
X121098000Y-49998500D03*
X121498000Y-49998500D03*
X121898000Y-49998500D03*
X122298000Y-49998500D03*
X122698000Y-49998500D03*
X123098000Y-49998500D03*
X121098000Y-50398500D03*
X121498000Y-50398500D03*
X121898000Y-50398500D03*
X122298000Y-50398500D03*
X122698000Y-50398500D03*
X123098000Y-50398500D03*
X121098000Y-50798500D03*
X121498000Y-50798500D03*
X121898000Y-50798500D03*
X122298000Y-50798500D03*
X122698000Y-50798500D03*
X123098000Y-50798500D03*
X121098000Y-51198500D03*
X121498000Y-51198500D03*
X121898000Y-51198500D03*
X122298000Y-51198500D03*
X122698000Y-51198500D03*
X123098000Y-51198500D03*
X121098000Y-51598500D03*
X121498000Y-51598500D03*
X121898000Y-51598500D03*
X122298000Y-51598500D03*
X122698000Y-51598500D03*
X123098000Y-51598500D03*
G04 #@! TD*
D22*
G04 #@! TO.C,*
X162854162Y-101731000D03*
G04 #@! TD*
G04 #@! TO.C,*
X164654162Y-119161000D03*
G04 #@! TD*
G04 #@! TO.C,*
X113885500Y-133815600D03*
G04 #@! TD*
G04 #@! TO.C,*
X109291000Y-69762000D03*
G04 #@! TD*
D33*
G04 #@! TO.C,J9*
X172254162Y-98755833D03*
X172254162Y-97485833D03*
X172254162Y-96215833D03*
X172254162Y-94945833D03*
X172254162Y-93675833D03*
X172254162Y-92405833D03*
X157054162Y-92405833D03*
X157054162Y-93675833D03*
X157054162Y-94945833D03*
X157054162Y-96215833D03*
X157054162Y-97485833D03*
X157054162Y-98755833D03*
G04 #@! TD*
D28*
G04 #@! TO.C,R7*
X126048000Y-91504800D03*
X126048000Y-92464800D03*
G04 #@! TD*
G04 #@! TO.C,R8*
X120673000Y-62380600D03*
X120673000Y-63340600D03*
G04 #@! TD*
D22*
G04 #@! TO.C,*
X163754162Y-57136000D03*
G04 #@! TD*
G04 #@! TO.C,*
X163754162Y-59701000D03*
G04 #@! TD*
G04 #@! TO.C,*
X111283000Y-46372600D03*
G04 #@! TD*
G04 #@! TO.C,*
X162854162Y-44836000D03*
G04 #@! TD*
D11*
G04 #@! TO.C,C64*
X98498000Y-125636000D03*
X97538000Y-125636000D03*
G04 #@! TD*
D29*
G04 #@! TO.C,U19*
X166074162Y-114195833D03*
D30*
X166074162Y-113145833D03*
D29*
X167344162Y-114195833D03*
D30*
X167344162Y-113145833D03*
D29*
X168614162Y-114195833D03*
D30*
X168614162Y-113145833D03*
D29*
X169884162Y-114195833D03*
D30*
X169884162Y-113145833D03*
X169884162Y-107745833D03*
D29*
X169884162Y-106695833D03*
D30*
X168614162Y-107745833D03*
D29*
X168614162Y-106695833D03*
D30*
X167344162Y-107745833D03*
D29*
X167344162Y-106695833D03*
D30*
X166074162Y-107745833D03*
D29*
X166074162Y-106695833D03*
D31*
X167979162Y-110445833D03*
G04 #@! TD*
D24*
G04 #@! TO.C,C7*
X125273000Y-111246900D03*
X126873000Y-111246900D03*
G04 #@! TD*
D22*
G04 #@! TO.C,*
X164654162Y-72001000D03*
G04 #@! TD*
G04 #@! TO.C,*
X144150081Y-44836001D03*
G04 #@! TD*
G04 #@! TO.C,*
X131135500Y-115577400D03*
G04 #@! TD*
D14*
G04 #@! TO.C,C66*
X95877000Y-112330000D03*
X96837000Y-112330000D03*
G04 #@! TD*
D22*
G04 #@! TO.C,*
X166454162Y-101731000D03*
G04 #@! TD*
G04 #@! TO.C,*
X93349000Y-45291000D03*
G04 #@! TD*
G04 #@! TO.C,*
X162854162Y-86866000D03*
G04 #@! TD*
D23*
G04 #@! TO.C,R49*
X160346662Y-135337333D03*
X161306662Y-135337333D03*
G04 #@! TD*
D22*
G04 #@! TO.C,*
X166454162Y-74566000D03*
G04 #@! TD*
G04 #@! TO.C,*
X113885500Y-101015300D03*
G04 #@! TD*
G04 #@! TO.C,*
X93344320Y-95129000D03*
G04 #@! TD*
D36*
G04 #@! TO.C,C6*
X119523000Y-140671100D03*
X119523000Y-142271100D03*
G04 #@! TD*
D24*
G04 #@! TO.C,C5*
X122298000Y-111546900D03*
X123898000Y-111546900D03*
G04 #@! TD*
D33*
G04 #@! TO.C,J9*
X172254162Y-83890833D03*
X172254162Y-82620833D03*
X172254162Y-81350833D03*
X172254162Y-80080833D03*
X172254162Y-78810833D03*
X172254162Y-77540833D03*
X157054162Y-77540833D03*
X157054162Y-78810833D03*
X157054162Y-80080833D03*
X157054162Y-81350833D03*
X157054162Y-82620833D03*
X157054162Y-83890833D03*
G04 #@! TD*
D28*
G04 #@! TO.C,R9*
X119848000Y-76942700D03*
X119848000Y-77902700D03*
G04 #@! TD*
D22*
G04 #@! TO.C,*
X111283000Y-94051400D03*
G04 #@! TD*
G04 #@! TO.C,*
X166454162Y-101731000D03*
G04 #@! TD*
G04 #@! TO.C,*
X162854162Y-116596000D03*
G04 #@! TD*
D28*
G04 #@! TO.C,R5*
X127698000Y-47818500D03*
X127698000Y-48778500D03*
G04 #@! TD*
D22*
G04 #@! TO.C,*
X166454162Y-104296000D03*
G04 #@! TD*
G04 #@! TO.C,3*
X171966842Y-149474000D03*
G04 #@! TD*
G04 #@! TO.C,*
X144150081Y-66048619D03*
G04 #@! TD*
G04 #@! TO.C,1*
X93349000Y-147675000D03*
G04 #@! TD*
G04 #@! TO.C,*
X164654162Y-44836000D03*
G04 #@! TD*
G04 #@! TO.C,*
X91269680Y-45378868D03*
G04 #@! TD*
D41*
G04 #@! TO.C,L2*
X123773000Y-142721100D03*
X122173000Y-142721100D03*
G04 #@! TD*
D11*
G04 #@! TO.C,C70*
X100276000Y-125636000D03*
X99316000Y-125636000D03*
G04 #@! TD*
D22*
G04 #@! TO.C,*
X164654162Y-89431000D03*
G04 #@! TD*
G04 #@! TO.C,*
X110383000Y-71743600D03*
G04 #@! TD*
D10*
G04 #@! TO.C,C62*
X107416000Y-80764000D03*
X107416000Y-81724000D03*
G04 #@! TD*
D32*
G04 #@! TO.C,R57*
X126048000Y-114226900D03*
X126048000Y-113266900D03*
G04 #@! TD*
D22*
G04 #@! TO.C,*
X115773368Y-118096500D03*
G04 #@! TD*
G04 #@! TO.C,*
X128347632Y-103540853D03*
G04 #@! TD*
D23*
G04 #@! TO.C,R50*
X165139162Y-145007333D03*
X166099162Y-145007333D03*
G04 #@! TD*
D22*
G04 #@! TO.C,*
X162854162Y-89431000D03*
G04 #@! TD*
G04 #@! TO.C,*
X166454162Y-146325000D03*
G04 #@! TD*
G04 #@! TO.C,*
X114873368Y-89060168D03*
G04 #@! TD*
G04 #@! TO.C,*
X129247632Y-59848100D03*
G04 #@! TD*
D32*
G04 #@! TO.C,R55*
X127698000Y-143351100D03*
X127698000Y-142391100D03*
G04 #@! TD*
D22*
G04 #@! TO.C,*
X115773368Y-59848100D03*
G04 #@! TD*
G04 #@! TO.C,*
X166454162Y-134025000D03*
G04 #@! TD*
D24*
G04 #@! TO.C,C5*
X122298000Y-82422700D03*
X123898000Y-82422700D03*
G04 #@! TD*
D22*
G04 #@! TO.C,*
X166454162Y-146325000D03*
G04 #@! TD*
G04 #@! TO.C,*
X128347632Y-73041647D03*
G04 #@! TD*
G04 #@! TO.C,*
X143250081Y-44836001D03*
G04 #@! TD*
D29*
G04 #@! TO.C,U18*
X159424162Y-54735833D03*
D30*
X159424162Y-53685833D03*
D29*
X160694162Y-54735833D03*
D30*
X160694162Y-53685833D03*
D29*
X161964162Y-54735833D03*
D30*
X161964162Y-53685833D03*
D29*
X163234162Y-54735833D03*
D30*
X163234162Y-53685833D03*
X163234162Y-48285833D03*
D29*
X163234162Y-47235833D03*
D30*
X161964162Y-48285833D03*
D29*
X161964162Y-47235833D03*
D30*
X160694162Y-48285833D03*
D29*
X160694162Y-47235833D03*
D30*
X159424162Y-48285833D03*
D29*
X159424162Y-47235833D03*
D31*
X161329162Y-50985833D03*
G04 #@! TD*
D29*
G04 #@! TO.C,U19*
X166074162Y-69600833D03*
D30*
X166074162Y-68550833D03*
D29*
X167344162Y-69600833D03*
D30*
X167344162Y-68550833D03*
D29*
X168614162Y-69600833D03*
D30*
X168614162Y-68550833D03*
D29*
X169884162Y-69600833D03*
D30*
X169884162Y-68550833D03*
X169884162Y-63150833D03*
D29*
X169884162Y-62100833D03*
D30*
X168614162Y-63150833D03*
D29*
X168614162Y-62100833D03*
D30*
X167344162Y-63150833D03*
D29*
X167344162Y-62100833D03*
D30*
X166074162Y-63150833D03*
D29*
X166074162Y-62100833D03*
D31*
X167979162Y-65850833D03*
G04 #@! TD*
D22*
G04 #@! TO.C,*
X164654162Y-119161000D03*
G04 #@! TD*
G04 #@! TO.C,*
X128347632Y-88972300D03*
G04 #@! TD*
D33*
G04 #@! TO.C,J9*
X172254162Y-143349833D03*
X172254162Y-142079833D03*
X172254162Y-140809833D03*
X172254162Y-139539833D03*
X172254162Y-138269833D03*
X172254162Y-136999833D03*
X157054162Y-136999833D03*
X157054162Y-138269833D03*
X157054162Y-139539833D03*
X157054162Y-140809833D03*
X157054162Y-142079833D03*
X157054162Y-143349833D03*
G04 #@! TD*
D22*
G04 #@! TO.C,1*
X174854162Y-144788400D03*
G04 #@! TD*
G04 #@! TO.C,*
X115773368Y-146758600D03*
G04 #@! TD*
D27*
G04 #@! TO.C,C16*
X119503000Y-79147700D03*
X118543000Y-79147700D03*
G04 #@! TD*
D41*
G04 #@! TO.C,L2*
X123773000Y-128159000D03*
X122173000Y-128159000D03*
G04 #@! TD*
D22*
G04 #@! TO.C,*
X131223368Y-116646532D03*
G04 #@! TD*
D33*
G04 #@! TO.C,J9*
X172254162Y-69025833D03*
X172254162Y-67755833D03*
X172254162Y-66485833D03*
X172254162Y-65215833D03*
X172254162Y-63945833D03*
X172254162Y-62675833D03*
X157054162Y-62675833D03*
X157054162Y-63945833D03*
X157054162Y-65215833D03*
X157054162Y-66485833D03*
X157054162Y-67755833D03*
X157054162Y-69025833D03*
G04 #@! TD*
D22*
G04 #@! TO.C,5*
X171967562Y-39886000D03*
G04 #@! TD*
D32*
G04 #@! TO.C,R56*
X126873000Y-99664800D03*
X126873000Y-98704800D03*
G04 #@! TD*
D35*
G04 #@! TO.C,U1*
X117398000Y-112371900D03*
X117798000Y-112371900D03*
X118198000Y-112371900D03*
X117398000Y-112771900D03*
X117798000Y-112771900D03*
X118198000Y-112771900D03*
X117398000Y-113171900D03*
X117798000Y-113171900D03*
X118198000Y-113171900D03*
G04 #@! TD*
D22*
G04 #@! TO.C,*
X166454162Y-101731000D03*
G04 #@! TD*
D23*
G04 #@! TO.C,R50*
X165139162Y-85548333D03*
X166099162Y-85548333D03*
G04 #@! TD*
D22*
G04 #@! TO.C,*
X110295132Y-44303132D03*
G04 #@! TD*
G04 #@! TO.C,*
X115773368Y-116734400D03*
G04 #@! TD*
D10*
G04 #@! TO.C,R42*
X95363000Y-90001000D03*
X95363000Y-90961000D03*
G04 #@! TD*
D22*
G04 #@! TO.C,*
X164654162Y-57136000D03*
G04 #@! TD*
D33*
G04 #@! TO.C,J1*
X115585500Y-134813600D03*
X115585500Y-136083600D03*
X115585500Y-137353600D03*
X115585500Y-138623600D03*
X115585500Y-139893600D03*
X115585500Y-141163600D03*
X115585500Y-142433600D03*
X115585500Y-143703600D03*
D42*
X117430500Y-145058600D03*
X118700500Y-145058600D03*
X119970500Y-145058600D03*
X121240500Y-145058600D03*
X122510500Y-145058600D03*
X123780500Y-145058600D03*
X125050500Y-145058600D03*
X126320500Y-145058600D03*
X127590500Y-145058600D03*
D33*
X129435500Y-143703600D03*
X129435500Y-142433600D03*
X129435500Y-141163600D03*
X129435500Y-139893600D03*
X129435500Y-138623600D03*
X129435500Y-137353600D03*
X129435500Y-136083600D03*
X129435500Y-134813600D03*
D42*
X127590500Y-133458600D03*
X126320500Y-133458600D03*
X125050500Y-133458600D03*
X123780500Y-133458600D03*
X122510500Y-133458600D03*
X121240500Y-133458600D03*
X119970500Y-133458600D03*
X118700500Y-133458600D03*
X117430500Y-133458600D03*
G04 #@! TD*
D22*
G04 #@! TO.C,*
X93344320Y-120500000D03*
G04 #@! TD*
D24*
G04 #@! TO.C,C5*
X122298000Y-126109000D03*
X123898000Y-126109000D03*
G04 #@! TD*
D22*
G04 #@! TO.C,*
X93349000Y-146775000D03*
G04 #@! TD*
D32*
G04 #@! TO.C,C11*
X121498000Y-77902700D03*
X121498000Y-76942700D03*
G04 #@! TD*
D22*
G04 #@! TO.C,*
X166454162Y-119161000D03*
G04 #@! TD*
G04 #@! TO.C,*
X93349000Y-96033000D03*
G04 #@! TD*
G04 #@! TO.C,*
X91357000Y-68680400D03*
G04 #@! TD*
D24*
G04 #@! TO.C,C8*
X125273000Y-95284800D03*
X126873000Y-95284800D03*
G04 #@! TD*
D22*
G04 #@! TO.C,*
X162854162Y-74566000D03*
G04 #@! TD*
G04 #@! TO.C,*
X165554162Y-119161000D03*
G04 #@! TD*
D10*
G04 #@! TO.C,C74*
X106937000Y-116461000D03*
X106937000Y-117421000D03*
G04 #@! TD*
D22*
G04 #@! TO.C,*
X163754162Y-74566000D03*
G04 #@! TD*
G04 #@! TO.C,*
X162854162Y-57136000D03*
G04 #@! TD*
G04 #@! TO.C,*
X162854162Y-116596000D03*
G04 #@! TD*
D39*
G04 #@! TO.C,U21*
X102611669Y-116628000D03*
D40*
X102661669Y-116278000D03*
X102661669Y-115928000D03*
X102661669Y-115578000D03*
X101761669Y-115578000D03*
X101761669Y-115928000D03*
X101761669Y-116278000D03*
X101761669Y-116628000D03*
G04 #@! TD*
D22*
G04 #@! TO.C,*
X164654162Y-116596000D03*
G04 #@! TD*
G04 #@! TO.C,*
X128347632Y-87603747D03*
G04 #@! TD*
G04 #@! TO.C,*
X163754162Y-104296000D03*
G04 #@! TD*
D11*
G04 #@! TO.C,C63*
X104975000Y-74894000D03*
X104015000Y-74894000D03*
G04 #@! TD*
D22*
G04 #@! TO.C,*
X143250081Y-44836001D03*
G04 #@! TD*
D28*
G04 #@! TO.C,R8*
X120673000Y-135191100D03*
X120673000Y-136151100D03*
G04 #@! TD*
D32*
G04 #@! TO.C,R55*
X127698000Y-55978500D03*
X127698000Y-55018500D03*
G04 #@! TD*
D26*
G04 #@! TO.C,REF\u002A\u002A*
X176754162Y-41586000D03*
G04 #@! TD*
D27*
G04 #@! TO.C,C60*
X159449162Y-120478333D03*
X158489162Y-120478333D03*
G04 #@! TD*
D22*
G04 #@! TO.C,*
X163754162Y-57136000D03*
G04 #@! TD*
G04 #@! TO.C,3*
X88657000Y-144793400D03*
G04 #@! TD*
D27*
G04 #@! TO.C,R48*
X163164162Y-85548333D03*
X162204162Y-85548333D03*
G04 #@! TD*
D22*
G04 #@! TO.C,*
X142350081Y-44836001D03*
G04 #@! TD*
D20*
G04 #@! TO.C,OSC2*
X102701000Y-113148000D03*
X101701000Y-113148000D03*
X101701000Y-113558000D03*
X102701000Y-113558000D03*
G04 #@! TD*
D36*
G04 #@! TO.C,C6*
X119523000Y-82422700D03*
X119523000Y-84022700D03*
G04 #@! TD*
D22*
G04 #@! TO.C,*
X165554162Y-72001000D03*
G04 #@! TD*
G04 #@! TO.C,3*
X176654162Y-144788400D03*
G04 #@! TD*
D32*
G04 #@! TO.C,R57*
X126048000Y-99664800D03*
X126048000Y-98704800D03*
G04 #@! TD*
D24*
G04 #@! TO.C,C9*
X125273000Y-93884800D03*
X126873000Y-93884800D03*
G04 #@! TD*
D22*
G04 #@! TO.C,*
X113885500Y-71891100D03*
G04 #@! TD*
G04 #@! TO.C,*
X113885500Y-46443000D03*
G04 #@! TD*
D27*
G04 #@! TO.C,R47*
X163164162Y-61015833D03*
X162204162Y-61015833D03*
G04 #@! TD*
D22*
G04 #@! TO.C,*
X114873368Y-44298132D03*
G04 #@! TD*
D11*
G04 #@! TO.C,R39*
X97078000Y-117396000D03*
X96118000Y-117396000D03*
G04 #@! TD*
D22*
G04 #@! TO.C,5*
X86857000Y-46372600D03*
G04 #@! TD*
G04 #@! TO.C,*
X115773368Y-132658600D03*
G04 #@! TD*
G04 #@! TO.C,*
X163754162Y-57136000D03*
G04 #@! TD*
G04 #@! TO.C,*
X162854162Y-101731000D03*
G04 #@! TD*
D32*
G04 #@! TO.C,R56*
X126873000Y-128789000D03*
X126873000Y-127829000D03*
G04 #@! TD*
D22*
G04 #@! TO.C,*
X110295680Y-96120868D03*
G04 #@! TD*
G04 #@! TO.C,*
X162854162Y-131461000D03*
G04 #@! TD*
D32*
G04 #@! TO.C,C11*
X121498000Y-92464800D03*
X121498000Y-91504800D03*
G04 #@! TD*
D11*
G04 #@! TO.C,R39*
X97078000Y-66654000D03*
X96118000Y-66654000D03*
G04 #@! TD*
D22*
G04 #@! TO.C,*
X163754162Y-101731000D03*
G04 #@! TD*
D32*
G04 #@! TO.C,R57*
X126048000Y-128789000D03*
X126048000Y-127829000D03*
G04 #@! TD*
D22*
G04 #@! TO.C,*
X131135500Y-144701600D03*
G04 #@! TD*
D32*
G04 #@! TO.C,R56*
X126873000Y-114226900D03*
X126873000Y-113266900D03*
G04 #@! TD*
D22*
G04 #@! TO.C,*
X145050081Y-66048619D03*
G04 #@! TD*
D24*
G04 #@! TO.C,C5*
X122298000Y-67860600D03*
X123898000Y-67860600D03*
G04 #@! TD*
D22*
G04 #@! TO.C,*
X162854162Y-72001000D03*
G04 #@! TD*
G04 #@! TO.C,*
X162854162Y-72001000D03*
G04 #@! TD*
G04 #@! TO.C,1*
X93344320Y-43487000D03*
G04 #@! TD*
G04 #@! TO.C,*
X142350081Y-44836001D03*
G04 #@! TD*
G04 #@! TO.C,*
X162854162Y-104296000D03*
G04 #@! TD*
D10*
G04 #@! TO.C,C71*
X95224000Y-51837000D03*
X95224000Y-52797000D03*
G04 #@! TD*
D27*
G04 #@! TO.C,R48*
X163164162Y-130143333D03*
X162204162Y-130143333D03*
G04 #@! TD*
D28*
G04 #@! TO.C,R8*
X120673000Y-76942700D03*
X120673000Y-77902700D03*
G04 #@! TD*
D22*
G04 #@! TO.C,*
X91269680Y-146862868D03*
G04 #@! TD*
G04 #@! TO.C,*
X114873368Y-59935968D03*
G04 #@! TD*
G04 #@! TO.C,*
X91269132Y-145787132D03*
G04 #@! TD*
G04 #@! TO.C,*
X130147632Y-59935968D03*
G04 #@! TD*
G04 #@! TO.C,*
X162854162Y-104296000D03*
G04 #@! TD*
G04 #@! TO.C,*
X164654162Y-101731000D03*
G04 #@! TD*
G04 #@! TO.C,*
X162854162Y-44836000D03*
G04 #@! TD*
G04 #@! TO.C,*
X141450081Y-66048619D03*
G04 #@! TD*
G04 #@! TO.C,*
X111283000Y-119422400D03*
G04 #@! TD*
D10*
G04 #@! TO.C,C75*
X105087000Y-88592000D03*
X105087000Y-89552000D03*
G04 #@! TD*
D32*
G04 #@! TO.C,R56*
X126873000Y-143351100D03*
X126873000Y-142391100D03*
G04 #@! TD*
D22*
G04 #@! TO.C,*
X128347632Y-74410200D03*
G04 #@! TD*
G04 #@! TO.C,5*
X86857000Y-144793400D03*
G04 #@! TD*
G04 #@! TO.C,2*
X171966842Y-148574000D03*
G04 #@! TD*
G04 #@! TO.C,*
X166454162Y-131461000D03*
G04 #@! TD*
D10*
G04 #@! TO.C,C68*
X107416000Y-104357000D03*
X107416000Y-105317000D03*
G04 #@! TD*
D22*
G04 #@! TO.C,*
X131223368Y-132752921D03*
G04 #@! TD*
G04 #@! TO.C,*
X163754162Y-134025000D03*
G04 #@! TD*
G04 #@! TO.C,*
X162854162Y-57136000D03*
G04 #@! TD*
D41*
G04 #@! TO.C,L2*
X123773000Y-99034800D03*
X122173000Y-99034800D03*
G04 #@! TD*
D22*
G04 #@! TO.C,*
X162854162Y-59701000D03*
G04 #@! TD*
D32*
G04 #@! TO.C,C12*
X124273000Y-92464800D03*
X124273000Y-91504800D03*
G04 #@! TD*
D22*
G04 #@! TO.C,*
X165554162Y-44836000D03*
G04 #@! TD*
D29*
G04 #@! TO.C,U18*
X159424162Y-129060833D03*
D30*
X159424162Y-128010833D03*
D29*
X160694162Y-129060833D03*
D30*
X160694162Y-128010833D03*
D29*
X161964162Y-129060833D03*
D30*
X161964162Y-128010833D03*
D29*
X163234162Y-129060833D03*
D30*
X163234162Y-128010833D03*
X163234162Y-122610833D03*
D29*
X163234162Y-121560833D03*
D30*
X161964162Y-122610833D03*
D29*
X161964162Y-121560833D03*
D30*
X160694162Y-122610833D03*
D29*
X160694162Y-121560833D03*
D30*
X159424162Y-122610833D03*
D29*
X159424162Y-121560833D03*
D31*
X161329162Y-125310833D03*
G04 #@! TD*
D22*
G04 #@! TO.C,*
X144150081Y-44836001D03*
G04 #@! TD*
G04 #@! TO.C,*
X165554162Y-134025000D03*
G04 #@! TD*
G04 #@! TO.C,*
X129247632Y-73041647D03*
G04 #@! TD*
G04 #@! TO.C,*
X113885500Y-115577400D03*
G04 #@! TD*
G04 #@! TO.C,*
X163754162Y-44836000D03*
G04 #@! TD*
G04 #@! TO.C,*
X164654162Y-86866000D03*
G04 #@! TD*
G04 #@! TO.C,*
X163754162Y-86866000D03*
G04 #@! TD*
G04 #@! TO.C,*
X165554162Y-146325000D03*
G04 #@! TD*
D27*
G04 #@! TO.C,R47*
X163164162Y-120475833D03*
X162204162Y-120475833D03*
G04 #@! TD*
D22*
G04 #@! TO.C,*
X165554162Y-116596000D03*
G04 #@! TD*
D33*
G04 #@! TO.C,J1*
X115585500Y-91127300D03*
X115585500Y-92397300D03*
X115585500Y-93667300D03*
X115585500Y-94937300D03*
X115585500Y-96207300D03*
X115585500Y-97477300D03*
X115585500Y-98747300D03*
X115585500Y-100017300D03*
D42*
X117430500Y-101372300D03*
X118700500Y-101372300D03*
X119970500Y-101372300D03*
X121240500Y-101372300D03*
X122510500Y-101372300D03*
X123780500Y-101372300D03*
X125050500Y-101372300D03*
X126320500Y-101372300D03*
X127590500Y-101372300D03*
D33*
X129435500Y-100017300D03*
X129435500Y-98747300D03*
X129435500Y-97477300D03*
X129435500Y-96207300D03*
X129435500Y-94937300D03*
X129435500Y-93667300D03*
X129435500Y-92397300D03*
X129435500Y-91127300D03*
D42*
X127590500Y-89772300D03*
X126320500Y-89772300D03*
X125050500Y-89772300D03*
X123780500Y-89772300D03*
X122510500Y-89772300D03*
X121240500Y-89772300D03*
X119970500Y-89772300D03*
X118700500Y-89772300D03*
X117430500Y-89772300D03*
G04 #@! TD*
D22*
G04 #@! TO.C,*
X145050081Y-44836001D03*
G04 #@! TD*
G04 #@! TO.C,*
X128347632Y-44386000D03*
G04 #@! TD*
D11*
G04 #@! TO.C,C63*
X104975000Y-125636000D03*
X104015000Y-125636000D03*
G04 #@! TD*
D29*
G04 #@! TO.C,U18*
X159424162Y-143924833D03*
D30*
X159424162Y-142874833D03*
D29*
X160694162Y-143924833D03*
D30*
X160694162Y-142874833D03*
D29*
X161964162Y-143924833D03*
D30*
X161964162Y-142874833D03*
D29*
X163234162Y-143924833D03*
D30*
X163234162Y-142874833D03*
X163234162Y-137474833D03*
D29*
X163234162Y-136424833D03*
D30*
X161964162Y-137474833D03*
D29*
X161964162Y-136424833D03*
D30*
X160694162Y-137474833D03*
D29*
X160694162Y-136424833D03*
D30*
X159424162Y-137474833D03*
D29*
X159424162Y-136424833D03*
D31*
X161329162Y-140174833D03*
G04 #@! TD*
D22*
G04 #@! TO.C,*
X111370320Y-145787132D03*
G04 #@! TD*
D36*
G04 #@! TO.C,C4*
X120873000Y-53298500D03*
X120873000Y-54898500D03*
G04 #@! TD*
D22*
G04 #@! TO.C,*
X162854162Y-44836000D03*
G04 #@! TD*
D14*
G04 #@! TO.C,C66*
X95877000Y-137701000D03*
X96837000Y-137701000D03*
G04 #@! TD*
D39*
G04 #@! TO.C,U21*
X102611669Y-65886000D03*
D40*
X102661669Y-65536000D03*
X102661669Y-65186000D03*
X102661669Y-64836000D03*
X101761669Y-64836000D03*
X101761669Y-65186000D03*
X101761669Y-65536000D03*
X101761669Y-65886000D03*
G04 #@! TD*
D22*
G04 #@! TO.C,*
X93344320Y-69758000D03*
G04 #@! TD*
G04 #@! TO.C,*
X113797632Y-59935968D03*
G04 #@! TD*
D29*
G04 #@! TO.C,U19*
X166074162Y-99330833D03*
D30*
X166074162Y-98280833D03*
D29*
X167344162Y-99330833D03*
D30*
X167344162Y-98280833D03*
D29*
X168614162Y-99330833D03*
D30*
X168614162Y-98280833D03*
D29*
X169884162Y-99330833D03*
D30*
X169884162Y-98280833D03*
X169884162Y-92880833D03*
D29*
X169884162Y-91830833D03*
D30*
X168614162Y-92880833D03*
D29*
X168614162Y-91830833D03*
D30*
X167344162Y-92880833D03*
D29*
X167344162Y-91830833D03*
D30*
X166074162Y-92880833D03*
D29*
X166074162Y-91830833D03*
D31*
X167979162Y-95580833D03*
G04 #@! TD*
D22*
G04 #@! TO.C,*
X166454162Y-134025000D03*
G04 #@! TD*
G04 #@! TO.C,4*
X177553162Y-46373320D03*
G04 #@! TD*
G04 #@! TO.C,*
X111283000Y-97114600D03*
G04 #@! TD*
D44*
G04 #@! TO.C,U16*
X97120000Y-111311000D03*
X97520000Y-111311000D03*
X97920000Y-111311000D03*
X98320000Y-111311000D03*
X98720000Y-111311000D03*
X99120000Y-111311000D03*
X99520000Y-111311000D03*
X99920000Y-111311000D03*
X100320000Y-111311000D03*
X100720000Y-111311000D03*
X101120000Y-111311000D03*
X101520000Y-111311000D03*
X101920000Y-111311000D03*
X102320000Y-111311000D03*
X102720000Y-111311000D03*
X103120000Y-111311000D03*
X103520000Y-111311000D03*
X103920000Y-111311000D03*
X104320000Y-111311000D03*
X104720000Y-111311000D03*
X105120000Y-111311000D03*
X105520000Y-111311000D03*
D45*
X106270000Y-110561000D03*
X106270000Y-110161000D03*
X106270000Y-109761000D03*
X106270000Y-109361000D03*
X106270000Y-108961000D03*
X106270000Y-108561000D03*
X106270000Y-108161000D03*
X106270000Y-107761000D03*
X106270000Y-107361000D03*
X106270000Y-106961000D03*
X106270000Y-106561000D03*
X106270000Y-106161000D03*
X106270000Y-105761000D03*
X106270000Y-105361000D03*
X106270000Y-104961000D03*
X106270000Y-104561000D03*
X106270000Y-104161000D03*
X106270000Y-103761000D03*
X106270000Y-103361000D03*
D46*
X106270000Y-102961000D03*
X106270000Y-102561000D03*
X106270000Y-102161000D03*
D44*
X105520000Y-101411000D03*
X105120000Y-101411000D03*
X104720000Y-101411000D03*
X104320000Y-101411000D03*
X103920000Y-101411000D03*
X103520000Y-101411000D03*
X103120000Y-101411000D03*
X102720000Y-101411000D03*
X102320000Y-101411000D03*
X101920000Y-101411000D03*
X101520000Y-101411000D03*
X101120000Y-101411000D03*
X100720000Y-101411000D03*
X100320000Y-101411000D03*
X99920000Y-101411000D03*
X99520000Y-101411000D03*
X99120000Y-101411000D03*
X98720000Y-101411000D03*
X98320000Y-101411000D03*
X97920000Y-101411000D03*
X97520000Y-101411000D03*
X97120000Y-101411000D03*
D45*
X96370000Y-102161000D03*
X96370000Y-102561000D03*
X96370000Y-102961000D03*
X96370000Y-103361000D03*
X96370000Y-103761000D03*
X96370000Y-104161000D03*
X96370000Y-104561000D03*
X96370000Y-104961000D03*
X96370000Y-105361000D03*
X96370000Y-105761000D03*
X96370000Y-106161000D03*
X96370000Y-106561000D03*
X96370000Y-106961000D03*
X96370000Y-107361000D03*
X96370000Y-107761000D03*
X96370000Y-108161000D03*
X96370000Y-108561000D03*
X96370000Y-108961000D03*
X96370000Y-109361000D03*
X96370000Y-109761000D03*
X96370000Y-110161000D03*
X96370000Y-110561000D03*
D47*
X101320000Y-106361000D03*
G04 #@! TD*
D22*
G04 #@! TO.C,*
X116673368Y-131296500D03*
G04 #@! TD*
D23*
G04 #@! TO.C,R52*
X166959162Y-105610833D03*
X167919162Y-105610833D03*
G04 #@! TD*
G04 #@! TO.C,R46*
X158489162Y-130143333D03*
X159449162Y-130143333D03*
G04 #@! TD*
D22*
G04 #@! TO.C,*
X92257000Y-97114600D03*
G04 #@! TD*
G04 #@! TO.C,*
X113797632Y-44298132D03*
G04 #@! TD*
G04 #@! TO.C,*
X114873368Y-45373868D03*
G04 #@! TD*
D19*
G04 #@! TO.C,R40*
X95224000Y-136784000D03*
X95224000Y-135824000D03*
G04 #@! TD*
D22*
G04 #@! TO.C,*
X162854162Y-86866000D03*
G04 #@! TD*
G04 #@! TO.C,4*
X87757000Y-46372600D03*
G04 #@! TD*
D36*
G04 #@! TO.C,C4*
X120873000Y-111546900D03*
X120873000Y-113146900D03*
G04 #@! TD*
D27*
G04 #@! TO.C,C61*
X166099162Y-75880833D03*
X165139162Y-75880833D03*
G04 #@! TD*
G04 #@! TO.C,R47*
X163164162Y-75880833D03*
X162204162Y-75880833D03*
G04 #@! TD*
D32*
G04 #@! TO.C,C15*
X123348000Y-48778500D03*
X123348000Y-47818500D03*
G04 #@! TD*
D22*
G04 #@! TO.C,*
X163754162Y-59701000D03*
G04 #@! TD*
D44*
G04 #@! TO.C,U16*
X97120000Y-60569000D03*
X97520000Y-60569000D03*
X97920000Y-60569000D03*
X98320000Y-60569000D03*
X98720000Y-60569000D03*
X99120000Y-60569000D03*
X99520000Y-60569000D03*
X99920000Y-60569000D03*
X100320000Y-60569000D03*
X100720000Y-60569000D03*
X101120000Y-60569000D03*
X101520000Y-60569000D03*
X101920000Y-60569000D03*
X102320000Y-60569000D03*
X102720000Y-60569000D03*
X103120000Y-60569000D03*
X103520000Y-60569000D03*
X103920000Y-60569000D03*
X104320000Y-60569000D03*
X104720000Y-60569000D03*
X105120000Y-60569000D03*
X105520000Y-60569000D03*
D45*
X106270000Y-59819000D03*
X106270000Y-59419000D03*
X106270000Y-59019000D03*
X106270000Y-58619000D03*
X106270000Y-58219000D03*
X106270000Y-57819000D03*
X106270000Y-57419000D03*
X106270000Y-57019000D03*
X106270000Y-56619000D03*
X106270000Y-56219000D03*
X106270000Y-55819000D03*
X106270000Y-55419000D03*
X106270000Y-55019000D03*
X106270000Y-54619000D03*
X106270000Y-54219000D03*
X106270000Y-53819000D03*
X106270000Y-53419000D03*
X106270000Y-53019000D03*
X106270000Y-52619000D03*
D46*
X106270000Y-52219000D03*
X106270000Y-51819000D03*
X106270000Y-51419000D03*
D44*
X105520000Y-50669000D03*
X105120000Y-50669000D03*
X104720000Y-50669000D03*
X104320000Y-50669000D03*
X103920000Y-50669000D03*
X103520000Y-50669000D03*
X103120000Y-50669000D03*
X102720000Y-50669000D03*
X102320000Y-50669000D03*
X101920000Y-50669000D03*
X101520000Y-50669000D03*
X101120000Y-50669000D03*
X100720000Y-50669000D03*
X100320000Y-50669000D03*
X99920000Y-50669000D03*
X99520000Y-50669000D03*
X99120000Y-50669000D03*
X98720000Y-50669000D03*
X98320000Y-50669000D03*
X97920000Y-50669000D03*
X97520000Y-50669000D03*
X97120000Y-50669000D03*
D45*
X96370000Y-51419000D03*
X96370000Y-51819000D03*
X96370000Y-52219000D03*
X96370000Y-52619000D03*
X96370000Y-53019000D03*
X96370000Y-53419000D03*
X96370000Y-53819000D03*
X96370000Y-54219000D03*
X96370000Y-54619000D03*
X96370000Y-55019000D03*
X96370000Y-55419000D03*
X96370000Y-55819000D03*
X96370000Y-56219000D03*
X96370000Y-56619000D03*
X96370000Y-57019000D03*
X96370000Y-57419000D03*
X96370000Y-57819000D03*
X96370000Y-58219000D03*
X96370000Y-58619000D03*
X96370000Y-59019000D03*
X96370000Y-59419000D03*
X96370000Y-59819000D03*
D47*
X101320000Y-55619000D03*
G04 #@! TD*
D32*
G04 #@! TO.C,R55*
X127698000Y-114226900D03*
X127698000Y-113266900D03*
G04 #@! TD*
D22*
G04 #@! TO.C,*
X93344320Y-145871000D03*
G04 #@! TD*
G04 #@! TO.C,*
X145050081Y-66048619D03*
G04 #@! TD*
G04 #@! TO.C,*
X116673368Y-145858600D03*
G04 #@! TD*
G04 #@! TO.C,*
X162854162Y-89431000D03*
G04 #@! TD*
D27*
G04 #@! TO.C,R47*
X163164162Y-46150833D03*
X162204162Y-46150833D03*
G04 #@! TD*
D11*
G04 #@! TO.C,C72*
X102691669Y-139925500D03*
X101731669Y-139925500D03*
G04 #@! TD*
D36*
G04 #@! TO.C,C6*
X119523000Y-67860600D03*
X119523000Y-69460600D03*
G04 #@! TD*
D22*
G04 #@! TO.C,*
X165554162Y-74566000D03*
G04 #@! TD*
G04 #@! TO.C,*
X143250081Y-66048619D03*
G04 #@! TD*
G04 #@! TO.C,3*
X176653162Y-46373320D03*
G04 #@! TD*
G04 #@! TO.C,*
X114785500Y-104691400D03*
G04 #@! TD*
G04 #@! TO.C,*
X166454162Y-131461000D03*
G04 #@! TD*
G04 #@! TO.C,*
X145050081Y-44836001D03*
G04 #@! TD*
D28*
G04 #@! TO.C,R6*
X126873000Y-120629000D03*
X126873000Y-121589000D03*
G04 #@! TD*
D22*
G04 #@! TO.C,*
X165554162Y-74566000D03*
G04 #@! TD*
G04 #@! TO.C,*
X116673368Y-146758600D03*
G04 #@! TD*
G04 #@! TO.C,*
X164654162Y-74566000D03*
G04 #@! TD*
G04 #@! TO.C,*
X162854162Y-72001000D03*
G04 #@! TD*
G04 #@! TO.C,*
X130235500Y-71884647D03*
G04 #@! TD*
G04 #@! TO.C,*
X130147632Y-74498068D03*
G04 #@! TD*
G04 #@! TO.C,*
X164654162Y-89431000D03*
G04 #@! TD*
D32*
G04 #@! TO.C,R55*
X127698000Y-70540600D03*
X127698000Y-69580600D03*
G04 #@! TD*
D11*
G04 #@! TO.C,C64*
X98498000Y-74894000D03*
X97538000Y-74894000D03*
G04 #@! TD*
D32*
G04 #@! TO.C,C15*
X123348000Y-77902700D03*
X123348000Y-76942700D03*
G04 #@! TD*
D22*
G04 #@! TO.C,*
X141450081Y-66048619D03*
G04 #@! TD*
G04 #@! TO.C,*
X162854162Y-101731000D03*
G04 #@! TD*
G04 #@! TO.C,*
X165554162Y-104296000D03*
G04 #@! TD*
G04 #@! TO.C,*
X131135500Y-130139500D03*
G04 #@! TD*
G04 #@! TO.C,*
X129247632Y-103540853D03*
G04 #@! TD*
D10*
G04 #@! TO.C,C74*
X106937000Y-141832000D03*
X106937000Y-142792000D03*
G04 #@! TD*
D35*
G04 #@! TO.C,U1*
X117398000Y-141496100D03*
X117798000Y-141496100D03*
X118198000Y-141496100D03*
X117398000Y-141896100D03*
X117798000Y-141896100D03*
X118198000Y-141896100D03*
X117398000Y-142296100D03*
X117798000Y-142296100D03*
X118198000Y-142296100D03*
G04 #@! TD*
D41*
G04 #@! TO.C,L2*
X123773000Y-84472700D03*
X122173000Y-84472700D03*
G04 #@! TD*
D22*
G04 #@! TO.C,*
X93349000Y-70662000D03*
G04 #@! TD*
G04 #@! TO.C,*
X111283000Y-68680400D03*
G04 #@! TD*
G04 #@! TO.C,*
X164654162Y-59701000D03*
G04 #@! TD*
G04 #@! TO.C,*
X165554162Y-86866000D03*
G04 #@! TD*
G04 #@! TO.C,*
X114873368Y-74498068D03*
G04 #@! TD*
D11*
G04 #@! TO.C,C59*
X104848000Y-61715000D03*
X103888000Y-61715000D03*
G04 #@! TD*
D22*
G04 #@! TO.C,*
X128347632Y-58479547D03*
G04 #@! TD*
G04 #@! TO.C,*
X143250081Y-66048619D03*
G04 #@! TD*
D23*
G04 #@! TO.C,R52*
X166959162Y-135339833D03*
X167919162Y-135339833D03*
G04 #@! TD*
D27*
G04 #@! TO.C,R48*
X163164162Y-55818333D03*
X162204162Y-55818333D03*
G04 #@! TD*
D22*
G04 #@! TO.C,*
X144150081Y-66048619D03*
G04 #@! TD*
D23*
G04 #@! TO.C,C2*
X117318000Y-55798500D03*
X118278000Y-55798500D03*
G04 #@! TD*
D22*
G04 #@! TO.C,*
X109295680Y-146779000D03*
G04 #@! TD*
D32*
G04 #@! TO.C,C14*
X122423000Y-121589000D03*
X122423000Y-120629000D03*
G04 #@! TD*
D22*
G04 #@! TO.C,*
X164654162Y-131461000D03*
G04 #@! TD*
G04 #@! TO.C,4*
X93349000Y-150375000D03*
G04 #@! TD*
D28*
G04 #@! TO.C,R9*
X119848000Y-106066900D03*
X119848000Y-107026900D03*
G04 #@! TD*
D22*
G04 #@! TO.C,5*
X178453162Y-46373320D03*
G04 #@! TD*
G04 #@! TO.C,*
X116673368Y-118096500D03*
G04 #@! TD*
G04 #@! TO.C,*
X131135500Y-104697853D03*
G04 #@! TD*
D36*
G04 #@! TO.C,C4*
X120873000Y-126109000D03*
X120873000Y-127709000D03*
G04 #@! TD*
D11*
G04 #@! TO.C,C73*
X99028000Y-66679000D03*
X98068000Y-66679000D03*
G04 #@! TD*
D22*
G04 #@! TO.C,*
X166454162Y-134025000D03*
G04 #@! TD*
G04 #@! TO.C,*
X166454162Y-72001000D03*
G04 #@! TD*
G04 #@! TO.C,*
X163754162Y-86866000D03*
G04 #@! TD*
D36*
G04 #@! TO.C,C4*
X120873000Y-82422700D03*
X120873000Y-84022700D03*
G04 #@! TD*
D22*
G04 #@! TO.C,*
X129247632Y-146758600D03*
G04 #@! TD*
D19*
G04 #@! TO.C,R44*
X95363000Y-89183000D03*
X95363000Y-88223000D03*
G04 #@! TD*
D44*
G04 #@! TO.C,U16*
X97120000Y-85940000D03*
X97520000Y-85940000D03*
X97920000Y-85940000D03*
X98320000Y-85940000D03*
X98720000Y-85940000D03*
X99120000Y-85940000D03*
X99520000Y-85940000D03*
X99920000Y-85940000D03*
X100320000Y-85940000D03*
X100720000Y-85940000D03*
X101120000Y-85940000D03*
X101520000Y-85940000D03*
X101920000Y-85940000D03*
X102320000Y-85940000D03*
X102720000Y-85940000D03*
X103120000Y-85940000D03*
X103520000Y-85940000D03*
X103920000Y-85940000D03*
X104320000Y-85940000D03*
X104720000Y-85940000D03*
X105120000Y-85940000D03*
X105520000Y-85940000D03*
D45*
X106270000Y-85190000D03*
X106270000Y-84790000D03*
X106270000Y-84390000D03*
X106270000Y-83990000D03*
X106270000Y-83590000D03*
X106270000Y-83190000D03*
X106270000Y-82790000D03*
X106270000Y-82390000D03*
X106270000Y-81990000D03*
X106270000Y-81590000D03*
X106270000Y-81190000D03*
X106270000Y-80790000D03*
X106270000Y-80390000D03*
X106270000Y-79990000D03*
X106270000Y-79590000D03*
X106270000Y-79190000D03*
X106270000Y-78790000D03*
X106270000Y-78390000D03*
X106270000Y-77990000D03*
D46*
X106270000Y-77590000D03*
X106270000Y-77190000D03*
X106270000Y-76790000D03*
D44*
X105520000Y-76040000D03*
X105120000Y-76040000D03*
X104720000Y-76040000D03*
X104320000Y-76040000D03*
X103920000Y-76040000D03*
X103520000Y-76040000D03*
X103120000Y-76040000D03*
X102720000Y-76040000D03*
X102320000Y-76040000D03*
X101920000Y-76040000D03*
X101520000Y-76040000D03*
X101120000Y-76040000D03*
X100720000Y-76040000D03*
X100320000Y-76040000D03*
X99920000Y-76040000D03*
X99520000Y-76040000D03*
X99120000Y-76040000D03*
X98720000Y-76040000D03*
X98320000Y-76040000D03*
X97920000Y-76040000D03*
X97520000Y-76040000D03*
X97120000Y-76040000D03*
D45*
X96370000Y-76790000D03*
X96370000Y-77190000D03*
X96370000Y-77590000D03*
X96370000Y-77990000D03*
X96370000Y-78390000D03*
X96370000Y-78790000D03*
X96370000Y-79190000D03*
X96370000Y-79590000D03*
X96370000Y-79990000D03*
X96370000Y-80390000D03*
X96370000Y-80790000D03*
X96370000Y-81190000D03*
X96370000Y-81590000D03*
X96370000Y-81990000D03*
X96370000Y-82390000D03*
X96370000Y-82790000D03*
X96370000Y-83190000D03*
X96370000Y-83590000D03*
X96370000Y-83990000D03*
X96370000Y-84390000D03*
X96370000Y-84790000D03*
X96370000Y-85190000D03*
D47*
X101320000Y-80990000D03*
G04 #@! TD*
D32*
G04 #@! TO.C,C12*
X124273000Y-136151100D03*
X124273000Y-135191100D03*
G04 #@! TD*
D22*
G04 #@! TO.C,*
X110383000Y-119422400D03*
G04 #@! TD*
G04 #@! TO.C,*
X164654162Y-104296000D03*
G04 #@! TD*
G04 #@! TO.C,*
X109291000Y-145875000D03*
G04 #@! TD*
G04 #@! TO.C,*
X164654162Y-146325000D03*
G04 #@! TD*
G04 #@! TO.C,*
X166454162Y-72001000D03*
G04 #@! TD*
D10*
G04 #@! TO.C,R53*
X106937000Y-113963000D03*
X106937000Y-114923000D03*
G04 #@! TD*
D28*
G04 #@! TO.C,R8*
X120673000Y-120629000D03*
X120673000Y-121589000D03*
G04 #@! TD*
D22*
G04 #@! TO.C,*
X166454162Y-146325000D03*
G04 #@! TD*
D25*
G04 #@! TO.C,U22*
X104294000Y-63301000D03*
X103944000Y-63301000D03*
X103594000Y-63301000D03*
X103594000Y-64101000D03*
X103944000Y-64101000D03*
X104294000Y-64101000D03*
G04 #@! TD*
D22*
G04 #@! TO.C,*
X164654162Y-74566000D03*
G04 #@! TD*
G04 #@! TO.C,*
X162854162Y-131461000D03*
G04 #@! TD*
G04 #@! TO.C,*
X91269680Y-121491868D03*
G04 #@! TD*
D34*
G04 #@! TO.C,C3*
X119323000Y-94784800D03*
X117723000Y-94784800D03*
G04 #@! TD*
D22*
G04 #@! TO.C,*
X164654162Y-59701000D03*
G04 #@! TD*
G04 #@! TO.C,*
X163754162Y-44836000D03*
G04 #@! TD*
D19*
G04 #@! TO.C,R44*
X95363000Y-63812000D03*
X95363000Y-62852000D03*
G04 #@! TD*
D10*
G04 #@! TO.C,R54*
X106012000Y-139334000D03*
X106012000Y-140294000D03*
G04 #@! TD*
D22*
G04 #@! TO.C,*
X145050081Y-44836001D03*
G04 #@! TD*
D10*
G04 #@! TO.C,R53*
X106937000Y-139334000D03*
X106937000Y-140294000D03*
G04 #@! TD*
D22*
G04 #@! TO.C,*
X130235500Y-46443000D03*
G04 #@! TD*
G04 #@! TO.C,*
X130235500Y-90129300D03*
G04 #@! TD*
D32*
G04 #@! TO.C,C14*
X122423000Y-92464800D03*
X122423000Y-91504800D03*
G04 #@! TD*
D22*
G04 #@! TO.C,*
X166454162Y-57136000D03*
G04 #@! TD*
G04 #@! TO.C,2*
X89557000Y-46372600D03*
G04 #@! TD*
G04 #@! TO.C,*
X109295680Y-121408000D03*
G04 #@! TD*
G04 #@! TO.C,*
X166454162Y-89431000D03*
G04 #@! TD*
D32*
G04 #@! TO.C,R2*
X118148000Y-121589000D03*
X118148000Y-120629000D03*
G04 #@! TD*
D22*
G04 #@! TO.C,*
X165554162Y-134025000D03*
G04 #@! TD*
G04 #@! TO.C,*
X114785500Y-130139500D03*
G04 #@! TD*
D19*
G04 #@! TO.C,R40*
X95224000Y-111413000D03*
X95224000Y-110453000D03*
G04 #@! TD*
D44*
G04 #@! TO.C,U16*
X97120000Y-136682000D03*
X97520000Y-136682000D03*
X97920000Y-136682000D03*
X98320000Y-136682000D03*
X98720000Y-136682000D03*
X99120000Y-136682000D03*
X99520000Y-136682000D03*
X99920000Y-136682000D03*
X100320000Y-136682000D03*
X100720000Y-136682000D03*
X101120000Y-136682000D03*
X101520000Y-136682000D03*
X101920000Y-136682000D03*
X102320000Y-136682000D03*
X102720000Y-136682000D03*
X103120000Y-136682000D03*
X103520000Y-136682000D03*
X103920000Y-136682000D03*
X104320000Y-136682000D03*
X104720000Y-136682000D03*
X105120000Y-136682000D03*
X105520000Y-136682000D03*
D45*
X106270000Y-135932000D03*
X106270000Y-135532000D03*
X106270000Y-135132000D03*
X106270000Y-134732000D03*
X106270000Y-134332000D03*
X106270000Y-133932000D03*
X106270000Y-133532000D03*
X106270000Y-133132000D03*
X106270000Y-132732000D03*
X106270000Y-132332000D03*
X106270000Y-131932000D03*
X106270000Y-131532000D03*
X106270000Y-131132000D03*
X106270000Y-130732000D03*
X106270000Y-130332000D03*
X106270000Y-129932000D03*
X106270000Y-129532000D03*
X106270000Y-129132000D03*
X106270000Y-128732000D03*
D46*
X106270000Y-128332000D03*
X106270000Y-127932000D03*
X106270000Y-127532000D03*
D44*
X105520000Y-126782000D03*
X105120000Y-126782000D03*
X104720000Y-126782000D03*
X104320000Y-126782000D03*
X103920000Y-126782000D03*
X103520000Y-126782000D03*
X103120000Y-126782000D03*
X102720000Y-126782000D03*
X102320000Y-126782000D03*
X101920000Y-126782000D03*
X101520000Y-126782000D03*
X101120000Y-126782000D03*
X100720000Y-126782000D03*
X100320000Y-126782000D03*
X99920000Y-126782000D03*
X99520000Y-126782000D03*
X99120000Y-126782000D03*
X98720000Y-126782000D03*
X98320000Y-126782000D03*
X97920000Y-126782000D03*
X97520000Y-126782000D03*
X97120000Y-126782000D03*
D45*
X96370000Y-127532000D03*
X96370000Y-127932000D03*
X96370000Y-128332000D03*
X96370000Y-128732000D03*
X96370000Y-129132000D03*
X96370000Y-129532000D03*
X96370000Y-129932000D03*
X96370000Y-130332000D03*
X96370000Y-130732000D03*
X96370000Y-131132000D03*
X96370000Y-131532000D03*
X96370000Y-131932000D03*
X96370000Y-132332000D03*
X96370000Y-132732000D03*
X96370000Y-133132000D03*
X96370000Y-133532000D03*
X96370000Y-133932000D03*
X96370000Y-134332000D03*
X96370000Y-134732000D03*
X96370000Y-135132000D03*
X96370000Y-135532000D03*
X96370000Y-135932000D03*
D47*
X101320000Y-131732000D03*
G04 #@! TD*
D11*
G04 #@! TO.C,C59*
X104848000Y-137828000D03*
X103888000Y-137828000D03*
G04 #@! TD*
D32*
G04 #@! TO.C,C13*
X125223000Y-136151100D03*
X125223000Y-135191100D03*
G04 #@! TD*
D22*
G04 #@! TO.C,*
X164654162Y-101731000D03*
G04 #@! TD*
G04 #@! TO.C,*
X165554162Y-89431000D03*
G04 #@! TD*
G04 #@! TO.C,*
X115773368Y-145858600D03*
G04 #@! TD*
G04 #@! TO.C,*
X116673368Y-102172300D03*
G04 #@! TD*
D34*
G04 #@! TO.C,C3*
X119323000Y-65660600D03*
X117723000Y-65660600D03*
G04 #@! TD*
D22*
G04 #@! TO.C,5*
X93349000Y-151275000D03*
G04 #@! TD*
G04 #@! TO.C,*
X162854162Y-72001000D03*
G04 #@! TD*
G04 #@! TO.C,*
X166454162Y-74566000D03*
G04 #@! TD*
G04 #@! TO.C,*
X162854162Y-116596000D03*
G04 #@! TD*
D11*
G04 #@! TO.C,R39*
X97078000Y-142767000D03*
X96118000Y-142767000D03*
G04 #@! TD*
D22*
G04 #@! TO.C,*
X130235500Y-133822053D03*
G04 #@! TD*
D10*
G04 #@! TO.C,R54*
X106012000Y-88592000D03*
X106012000Y-89552000D03*
G04 #@! TD*
D22*
G04 #@! TO.C,*
X162854162Y-86866000D03*
G04 #@! TD*
G04 #@! TO.C,*
X131223368Y-131208632D03*
G04 #@! TD*
D27*
G04 #@! TO.C,R48*
X163164162Y-100413333D03*
X162204162Y-100413333D03*
G04 #@! TD*
D33*
G04 #@! TO.C,J8*
X93065000Y-123477000D03*
X93065000Y-124747000D03*
X93065000Y-126017000D03*
X93065000Y-127287000D03*
X93065000Y-128557000D03*
X93065000Y-129827000D03*
X93065000Y-131097000D03*
X93065000Y-132367000D03*
D18*
X93065000Y-133637000D03*
X93065000Y-134907000D03*
X93065000Y-136177000D03*
X93065000Y-137447000D03*
X93065000Y-138717000D03*
X93065000Y-139987000D03*
X93065000Y-141257000D03*
X93065000Y-142527000D03*
X93065000Y-143797000D03*
D42*
X94335000Y-145067000D03*
X95605000Y-145067000D03*
X96875000Y-145067000D03*
X98145000Y-145067000D03*
X99415000Y-145067000D03*
X100685000Y-145067000D03*
D43*
X101955000Y-145067000D03*
X103225000Y-145067000D03*
X104495000Y-145067000D03*
X105765000Y-145067000D03*
X107035000Y-145067000D03*
X108305000Y-145067000D03*
D33*
X109575000Y-143797000D03*
X109575000Y-142527000D03*
X109575000Y-141257000D03*
X109575000Y-139987000D03*
X109575000Y-138717000D03*
X109575000Y-137447000D03*
X109575000Y-136177000D03*
X109575000Y-134907000D03*
X109575000Y-133637000D03*
X109575000Y-132367000D03*
X109575000Y-131097000D03*
X109575000Y-129827000D03*
D18*
X109575000Y-128557000D03*
X109575000Y-127287000D03*
X109575000Y-126017000D03*
X109575000Y-124747000D03*
X109575000Y-123477000D03*
D43*
X108305000Y-122207000D03*
X107035000Y-122207000D03*
X105765000Y-122207000D03*
X104495000Y-122207000D03*
X103225000Y-122207000D03*
D42*
X101955000Y-122207000D03*
X100685000Y-122207000D03*
X99415000Y-122207000D03*
X98145000Y-122207000D03*
X96875000Y-122207000D03*
X95605000Y-122207000D03*
X94335000Y-122207000D03*
G04 #@! TD*
D22*
G04 #@! TO.C,*
X92344320Y-95045132D03*
G04 #@! TD*
G04 #@! TO.C,*
X114785500Y-61005100D03*
G04 #@! TD*
G04 #@! TO.C,*
X163754162Y-74566000D03*
G04 #@! TD*
G04 #@! TO.C,*
X164654162Y-44836000D03*
G04 #@! TD*
G04 #@! TO.C,*
X162854162Y-119161000D03*
G04 #@! TD*
D24*
G04 #@! TO.C,C7*
X125273000Y-67560600D03*
X126873000Y-67560600D03*
G04 #@! TD*
D32*
G04 #@! TO.C,C13*
X125223000Y-48778500D03*
X125223000Y-47818500D03*
G04 #@! TD*
D26*
G04 #@! TO.C,REF\u002A\u002A*
X175404162Y-142575000D03*
G04 #@! TD*
D22*
G04 #@! TO.C,*
X162854162Y-74566000D03*
G04 #@! TD*
G04 #@! TO.C,*
X92344320Y-69674132D03*
G04 #@! TD*
D11*
G04 #@! TO.C,C70*
X100276000Y-100265000D03*
X99316000Y-100265000D03*
G04 #@! TD*
D22*
G04 #@! TO.C,*
X92257000Y-122485600D03*
G04 #@! TD*
G04 #@! TO.C,*
X130235500Y-119259953D03*
G04 #@! TD*
G04 #@! TO.C,*
X163754162Y-146325000D03*
G04 #@! TD*
G04 #@! TO.C,*
X166454162Y-44836000D03*
G04 #@! TD*
D29*
G04 #@! TO.C,U18*
X159424162Y-84465833D03*
D30*
X159424162Y-83415833D03*
D29*
X160694162Y-84465833D03*
D30*
X160694162Y-83415833D03*
D29*
X161964162Y-84465833D03*
D30*
X161964162Y-83415833D03*
D29*
X163234162Y-84465833D03*
D30*
X163234162Y-83415833D03*
X163234162Y-78015833D03*
D29*
X163234162Y-76965833D03*
D30*
X161964162Y-78015833D03*
D29*
X161964162Y-76965833D03*
D30*
X160694162Y-78015833D03*
D29*
X160694162Y-76965833D03*
D30*
X159424162Y-78015833D03*
D29*
X159424162Y-76965833D03*
D31*
X161329162Y-80715833D03*
G04 #@! TD*
D22*
G04 #@! TO.C,*
X166454162Y-57136000D03*
G04 #@! TD*
G04 #@! TO.C,*
X164654162Y-86866000D03*
G04 #@! TD*
G04 #@! TO.C,*
X164654162Y-104296000D03*
G04 #@! TD*
G04 #@! TO.C,*
X164654162Y-57136000D03*
G04 #@! TD*
G04 #@! TO.C,*
X131135500Y-75567200D03*
G04 #@! TD*
G04 #@! TO.C,*
X164654162Y-131461000D03*
G04 #@! TD*
G04 #@! TO.C,*
X166454162Y-74566000D03*
G04 #@! TD*
D10*
G04 #@! TO.C,C65*
X95224000Y-131633000D03*
X95224000Y-132593000D03*
G04 #@! TD*
D36*
G04 #@! TO.C,C6*
X119523000Y-111546900D03*
X119523000Y-113146900D03*
G04 #@! TD*
D10*
G04 #@! TO.C,C71*
X95224000Y-77208000D03*
X95224000Y-78168000D03*
G04 #@! TD*
D22*
G04 #@! TO.C,*
X165554162Y-89431000D03*
G04 #@! TD*
G04 #@! TO.C,5*
X178454162Y-144788400D03*
G04 #@! TD*
D35*
G04 #@! TO.C,U2*
X121098000Y-108246900D03*
X121498000Y-108246900D03*
X121898000Y-108246900D03*
X122298000Y-108246900D03*
X122698000Y-108246900D03*
X123098000Y-108246900D03*
X121098000Y-108646900D03*
X121498000Y-108646900D03*
X121898000Y-108646900D03*
X122298000Y-108646900D03*
X122698000Y-108646900D03*
X123098000Y-108646900D03*
X121098000Y-109046900D03*
X121498000Y-109046900D03*
X121898000Y-109046900D03*
X122298000Y-109046900D03*
X122698000Y-109046900D03*
X123098000Y-109046900D03*
X121098000Y-109446900D03*
X121498000Y-109446900D03*
X121898000Y-109446900D03*
X122298000Y-109446900D03*
X122698000Y-109446900D03*
X123098000Y-109446900D03*
X121098000Y-109846900D03*
X121498000Y-109846900D03*
X121898000Y-109846900D03*
X122298000Y-109846900D03*
X122698000Y-109846900D03*
X123098000Y-109846900D03*
G04 #@! TD*
D22*
G04 #@! TO.C,3*
X88657000Y-46372600D03*
G04 #@! TD*
G04 #@! TO.C,*
X164654162Y-146325000D03*
G04 #@! TD*
G04 #@! TO.C,*
X165554162Y-57136000D03*
G04 #@! TD*
D11*
G04 #@! TO.C,C76*
X102691669Y-66679000D03*
X101731669Y-66679000D03*
G04 #@! TD*
D22*
G04 #@! TO.C,*
X92257000Y-68680400D03*
G04 #@! TD*
G04 #@! TO.C,*
X163754162Y-146325000D03*
G04 #@! TD*
G04 #@! TO.C,*
X110383000Y-97114600D03*
G04 #@! TD*
G04 #@! TO.C,5*
X93344320Y-39887000D03*
G04 #@! TD*
G04 #@! TO.C,*
X91357000Y-144793400D03*
G04 #@! TD*
D10*
G04 #@! TO.C,R45*
X100212000Y-90001000D03*
X100212000Y-90961000D03*
G04 #@! TD*
D25*
G04 #@! TO.C,U22*
X104294000Y-88672000D03*
X103944000Y-88672000D03*
X103594000Y-88672000D03*
X103594000Y-89472000D03*
X103944000Y-89472000D03*
X104294000Y-89472000D03*
G04 #@! TD*
D22*
G04 #@! TO.C,*
X130147632Y-58391679D03*
G04 #@! TD*
G04 #@! TO.C,*
X131135500Y-119259953D03*
G04 #@! TD*
D32*
G04 #@! TO.C,R55*
X127698000Y-99664800D03*
X127698000Y-98704800D03*
G04 #@! TD*
D22*
G04 #@! TO.C,*
X130235500Y-86446747D03*
G04 #@! TD*
G04 #@! TO.C,*
X165554162Y-131461000D03*
G04 #@! TD*
G04 #@! TO.C,*
X166454162Y-119161000D03*
G04 #@! TD*
D28*
G04 #@! TO.C,R5*
X127698000Y-91504800D03*
X127698000Y-92464800D03*
G04 #@! TD*
D24*
G04 #@! TO.C,C7*
X125273000Y-82122700D03*
X126873000Y-82122700D03*
G04 #@! TD*
D32*
G04 #@! TO.C,C10*
X124698000Y-70390600D03*
X124698000Y-69430600D03*
G04 #@! TD*
D10*
G04 #@! TO.C,C62*
X107416000Y-131506000D03*
X107416000Y-132466000D03*
G04 #@! TD*
D22*
G04 #@! TO.C,*
X162854162Y-116596000D03*
G04 #@! TD*
G04 #@! TO.C,*
X92344868Y-121491868D03*
G04 #@! TD*
G04 #@! TO.C,*
X110383000Y-122485600D03*
G04 #@! TD*
D19*
G04 #@! TO.C,R43*
X100212000Y-89175000D03*
X100212000Y-88215000D03*
G04 #@! TD*
D22*
G04 #@! TO.C,*
X162854162Y-74566000D03*
G04 #@! TD*
G04 #@! TO.C,*
X130235500Y-115577400D03*
G04 #@! TD*
G04 #@! TO.C,*
X141450081Y-44836001D03*
G04 #@! TD*
D24*
G04 #@! TO.C,C9*
X125273000Y-108446900D03*
X126873000Y-108446900D03*
G04 #@! TD*
D22*
G04 #@! TO.C,*
X166454162Y-44836000D03*
G04 #@! TD*
G04 #@! TO.C,*
X116673368Y-132658600D03*
G04 #@! TD*
G04 #@! TO.C,*
X110295680Y-45378868D03*
G04 #@! TD*
D19*
G04 #@! TO.C,R40*
X95224000Y-86042000D03*
X95224000Y-85082000D03*
G04 #@! TD*
D22*
G04 #@! TO.C,*
X116673368Y-45286000D03*
G04 #@! TD*
G04 #@! TO.C,*
X113797632Y-89060168D03*
G04 #@! TD*
G04 #@! TO.C,2*
X171967562Y-42586000D03*
G04 #@! TD*
G04 #@! TO.C,*
X116673368Y-74410200D03*
G04 #@! TD*
G04 #@! TO.C,*
X130147632Y-87515879D03*
G04 #@! TD*
G04 #@! TO.C,4*
X177554162Y-144788400D03*
G04 #@! TD*
G04 #@! TO.C,*
X163754162Y-104296000D03*
G04 #@! TD*
D28*
G04 #@! TO.C,R7*
X126048000Y-120629000D03*
X126048000Y-121589000D03*
G04 #@! TD*
D22*
G04 #@! TO.C,*
X113797632Y-132746468D03*
G04 #@! TD*
G04 #@! TO.C,*
X166454162Y-89431000D03*
G04 #@! TD*
G04 #@! TO.C,*
X115773368Y-74410200D03*
G04 #@! TD*
G04 #@! TO.C,*
X164654162Y-104296000D03*
G04 #@! TD*
D27*
G04 #@! TO.C,R51*
X169814162Y-55818333D03*
X168854162Y-55818333D03*
G04 #@! TD*
D22*
G04 #@! TO.C,*
X111283000Y-144793400D03*
G04 #@! TD*
G04 #@! TO.C,*
X165554162Y-104296000D03*
G04 #@! TD*
G04 #@! TO.C,*
X162854162Y-59701000D03*
G04 #@! TD*
D32*
G04 #@! TO.C,C10*
X124698000Y-128639000D03*
X124698000Y-127679000D03*
G04 #@! TD*
D33*
G04 #@! TO.C,J1*
X115585500Y-120251500D03*
X115585500Y-121521500D03*
X115585500Y-122791500D03*
X115585500Y-124061500D03*
X115585500Y-125331500D03*
X115585500Y-126601500D03*
X115585500Y-127871500D03*
X115585500Y-129141500D03*
D42*
X117430500Y-130496500D03*
X118700500Y-130496500D03*
X119970500Y-130496500D03*
X121240500Y-130496500D03*
X122510500Y-130496500D03*
X123780500Y-130496500D03*
X125050500Y-130496500D03*
X126320500Y-130496500D03*
X127590500Y-130496500D03*
D33*
X129435500Y-129141500D03*
X129435500Y-127871500D03*
X129435500Y-126601500D03*
X129435500Y-125331500D03*
X129435500Y-124061500D03*
X129435500Y-122791500D03*
X129435500Y-121521500D03*
X129435500Y-120251500D03*
D42*
X127590500Y-118896500D03*
X126320500Y-118896500D03*
X125050500Y-118896500D03*
X123780500Y-118896500D03*
X122510500Y-118896500D03*
X121240500Y-118896500D03*
X119970500Y-118896500D03*
X118700500Y-118896500D03*
X117430500Y-118896500D03*
G04 #@! TD*
D22*
G04 #@! TO.C,*
X131223368Y-103628721D03*
G04 #@! TD*
G04 #@! TO.C,*
X143250081Y-44836001D03*
G04 #@! TD*
D28*
G04 #@! TO.C,R9*
X119848000Y-135191100D03*
X119848000Y-136151100D03*
G04 #@! TD*
D32*
G04 #@! TO.C,R57*
X126048000Y-143351100D03*
X126048000Y-142391100D03*
G04 #@! TD*
D22*
G04 #@! TO.C,*
X111370868Y-96120868D03*
G04 #@! TD*
D11*
G04 #@! TO.C,C64*
X98498000Y-100265000D03*
X97538000Y-100265000D03*
G04 #@! TD*
D23*
G04 #@! TO.C,R49*
X160346662Y-75878333D03*
X161306662Y-75878333D03*
G04 #@! TD*
D22*
G04 #@! TO.C,*
X111370320Y-69674132D03*
G04 #@! TD*
G04 #@! TO.C,*
X165554162Y-134025000D03*
G04 #@! TD*
D41*
G04 #@! TO.C,L2*
X123773000Y-113596900D03*
X122173000Y-113596900D03*
G04 #@! TD*
D22*
G04 #@! TO.C,*
X166454162Y-59701000D03*
G04 #@! TD*
G04 #@! TO.C,*
X113885500Y-144701600D03*
G04 #@! TD*
G04 #@! TO.C,*
X164654162Y-134025000D03*
G04 #@! TD*
D11*
G04 #@! TO.C,C58*
X98625000Y-112330000D03*
X97665000Y-112330000D03*
G04 #@! TD*
D22*
G04 #@! TO.C,*
X165554162Y-59701000D03*
G04 #@! TD*
G04 #@! TO.C,4*
X171966842Y-150374000D03*
G04 #@! TD*
G04 #@! TO.C,*
X92257000Y-46372600D03*
G04 #@! TD*
G04 #@! TO.C,*
X166454162Y-131461000D03*
G04 #@! TD*
G04 #@! TO.C,*
X115773368Y-44386000D03*
G04 #@! TD*
G04 #@! TO.C,*
X130147632Y-146846468D03*
G04 #@! TD*
G04 #@! TO.C,*
X165554162Y-104296000D03*
G04 #@! TD*
G04 #@! TO.C,*
X166454162Y-89431000D03*
G04 #@! TD*
G04 #@! TO.C,*
X110295132Y-69674132D03*
G04 #@! TD*
D10*
G04 #@! TO.C,C71*
X95224000Y-102579000D03*
X95224000Y-103539000D03*
G04 #@! TD*
G04 #@! TO.C,C69*
X95224000Y-129855000D03*
X95224000Y-130815000D03*
G04 #@! TD*
D22*
G04 #@! TO.C,*
X164654162Y-134025000D03*
G04 #@! TD*
D24*
G04 #@! TO.C,C5*
X122298000Y-96984800D03*
X123898000Y-96984800D03*
G04 #@! TD*
D22*
G04 #@! TO.C,*
X129247632Y-44386000D03*
G04 #@! TD*
G04 #@! TO.C,*
X131223368Y-72953779D03*
G04 #@! TD*
G04 #@! TO.C,*
X165554162Y-72001000D03*
G04 #@! TD*
D27*
G04 #@! TO.C,R47*
X163164162Y-90745833D03*
X162204162Y-90745833D03*
G04 #@! TD*
D26*
G04 #@! TO.C,REF\u002A\u002A*
X88557000Y-41586000D03*
G04 #@! TD*
D23*
G04 #@! TO.C,R52*
X166959162Y-46150833D03*
X167919162Y-46150833D03*
G04 #@! TD*
D22*
G04 #@! TO.C,*
X145050081Y-66048619D03*
G04 #@! TD*
D23*
G04 #@! TO.C,C2*
X117318000Y-143171100D03*
X118278000Y-143171100D03*
G04 #@! TD*
D22*
G04 #@! TO.C,*
X165554162Y-44836000D03*
G04 #@! TD*
D32*
G04 #@! TO.C,R1*
X117318000Y-48778500D03*
X117318000Y-47818500D03*
G04 #@! TD*
D11*
G04 #@! TO.C,C63*
X104975000Y-100265000D03*
X104015000Y-100265000D03*
G04 #@! TD*
D28*
G04 #@! TO.C,R7*
X126048000Y-76942700D03*
X126048000Y-77902700D03*
G04 #@! TD*
D33*
G04 #@! TO.C,J1*
X115585500Y-62003100D03*
X115585500Y-63273100D03*
X115585500Y-64543100D03*
X115585500Y-65813100D03*
X115585500Y-67083100D03*
X115585500Y-68353100D03*
X115585500Y-69623100D03*
X115585500Y-70893100D03*
D42*
X117430500Y-72248100D03*
X118700500Y-72248100D03*
X119970500Y-72248100D03*
X121240500Y-72248100D03*
X122510500Y-72248100D03*
X123780500Y-72248100D03*
X125050500Y-72248100D03*
X126320500Y-72248100D03*
X127590500Y-72248100D03*
D33*
X129435500Y-70893100D03*
X129435500Y-69623100D03*
X129435500Y-68353100D03*
X129435500Y-67083100D03*
X129435500Y-65813100D03*
X129435500Y-64543100D03*
X129435500Y-63273100D03*
X129435500Y-62003100D03*
D42*
X127590500Y-60648100D03*
X126320500Y-60648100D03*
X125050500Y-60648100D03*
X123780500Y-60648100D03*
X122510500Y-60648100D03*
X121240500Y-60648100D03*
X119970500Y-60648100D03*
X118700500Y-60648100D03*
X117430500Y-60648100D03*
G04 #@! TD*
D22*
G04 #@! TO.C,*
X165554162Y-134025000D03*
G04 #@! TD*
G04 #@! TO.C,*
X110295680Y-70749868D03*
G04 #@! TD*
D28*
G04 #@! TO.C,R9*
X119848000Y-120629000D03*
X119848000Y-121589000D03*
G04 #@! TD*
D27*
G04 #@! TO.C,C60*
X159449162Y-61018333D03*
X158489162Y-61018333D03*
G04 #@! TD*
D22*
G04 #@! TO.C,*
X163754162Y-86866000D03*
G04 #@! TD*
D23*
G04 #@! TO.C,R52*
X166959162Y-90745833D03*
X167919162Y-90745833D03*
G04 #@! TD*
D22*
G04 #@! TO.C,*
X114873368Y-116646532D03*
G04 #@! TD*
G04 #@! TO.C,*
X130235500Y-75567200D03*
G04 #@! TD*
D32*
G04 #@! TO.C,R2*
X118148000Y-92464800D03*
X118148000Y-91504800D03*
G04 #@! TD*
G04 #@! TO.C,R2*
X118148000Y-77902700D03*
X118148000Y-76942700D03*
G04 #@! TD*
D22*
G04 #@! TO.C,*
X164654162Y-89431000D03*
G04 #@! TD*
G04 #@! TO.C,*
X115773368Y-131296500D03*
G04 #@! TD*
D23*
G04 #@! TO.C,R50*
X165139162Y-55818333D03*
X166099162Y-55818333D03*
G04 #@! TD*
D22*
G04 #@! TO.C,*
X130235500Y-57322547D03*
G04 #@! TD*
D10*
G04 #@! TO.C,C65*
X95224000Y-55520000D03*
X95224000Y-56480000D03*
G04 #@! TD*
D22*
G04 #@! TO.C,*
X129247632Y-58479547D03*
G04 #@! TD*
G04 #@! TO.C,*
X110383000Y-144793400D03*
G04 #@! TD*
D32*
G04 #@! TO.C,R55*
X127698000Y-85102700D03*
X127698000Y-84142700D03*
G04 #@! TD*
D22*
G04 #@! TO.C,*
X144150081Y-44836001D03*
G04 #@! TD*
G04 #@! TO.C,*
X115773368Y-73048100D03*
G04 #@! TD*
D32*
G04 #@! TO.C,R56*
X126873000Y-85102700D03*
X126873000Y-84142700D03*
G04 #@! TD*
D22*
G04 #@! TO.C,5*
X171966842Y-151274000D03*
G04 #@! TD*
D23*
G04 #@! TO.C,R46*
X158489162Y-55818333D03*
X159449162Y-55818333D03*
G04 #@! TD*
D32*
G04 #@! TO.C,C13*
X125223000Y-63340600D03*
X125223000Y-62380600D03*
G04 #@! TD*
D22*
G04 #@! TO.C,*
X166454162Y-74566000D03*
G04 #@! TD*
G04 #@! TO.C,*
X92344868Y-96120868D03*
G04 #@! TD*
G04 #@! TO.C,*
X91269680Y-70749868D03*
G04 #@! TD*
G04 #@! TO.C,*
X143250081Y-66048619D03*
G04 #@! TD*
G04 #@! TO.C,*
X165554162Y-59701000D03*
G04 #@! TD*
G04 #@! TO.C,*
X164654162Y-57136000D03*
G04 #@! TD*
D26*
G04 #@! TO.C,REF\u002A\u002A*
X89907000Y-142575000D03*
G04 #@! TD*
D22*
G04 #@! TO.C,3*
X171967562Y-41686000D03*
G04 #@! TD*
D10*
G04 #@! TO.C,R42*
X95363000Y-115372000D03*
X95363000Y-116332000D03*
G04 #@! TD*
D22*
G04 #@! TO.C,*
X163754162Y-74566000D03*
G04 #@! TD*
G04 #@! TO.C,*
X110383000Y-46372600D03*
G04 #@! TD*
G04 #@! TO.C,*
X128347632Y-132665053D03*
G04 #@! TD*
G04 #@! TO.C,*
X91357000Y-94051400D03*
G04 #@! TD*
D20*
G04 #@! TO.C,OSC2*
X102701000Y-138519000D03*
X101701000Y-138519000D03*
X101701000Y-138929000D03*
X102701000Y-138929000D03*
G04 #@! TD*
D22*
G04 #@! TO.C,*
X91269132Y-120416132D03*
G04 #@! TD*
D11*
G04 #@! TO.C,C59*
X104848000Y-87086000D03*
X103888000Y-87086000D03*
G04 #@! TD*
D22*
G04 #@! TO.C,*
X92344320Y-145787132D03*
G04 #@! TD*
D10*
G04 #@! TO.C,R45*
X100212000Y-115372000D03*
X100212000Y-116332000D03*
G04 #@! TD*
D22*
G04 #@! TO.C,*
X162854162Y-44836000D03*
G04 #@! TD*
D23*
G04 #@! TO.C,R50*
X165139162Y-130143333D03*
X166099162Y-130143333D03*
G04 #@! TD*
D11*
G04 #@! TO.C,C73*
X99028000Y-142792000D03*
X98068000Y-142792000D03*
G04 #@! TD*
G04 #@! TO.C,C76*
X102691669Y-117421000D03*
X101731669Y-117421000D03*
G04 #@! TD*
D10*
G04 #@! TO.C,C75*
X105087000Y-113963000D03*
X105087000Y-114923000D03*
G04 #@! TD*
D22*
G04 #@! TO.C,*
X162854162Y-74566000D03*
G04 #@! TD*
D23*
G04 #@! TO.C,C2*
X117318000Y-114046900D03*
X118278000Y-114046900D03*
G04 #@! TD*
D22*
G04 #@! TO.C,*
X131135500Y-61005100D03*
G04 #@! TD*
G04 #@! TO.C,*
X141450081Y-66048619D03*
G04 #@! TD*
D28*
G04 #@! TO.C,R6*
X126873000Y-135191100D03*
X126873000Y-136151100D03*
G04 #@! TD*
D22*
G04 #@! TO.C,*
X109291000Y-120504000D03*
G04 #@! TD*
G04 #@! TO.C,*
X131135500Y-57322547D03*
G04 #@! TD*
G04 #@! TO.C,*
X166454162Y-116596000D03*
G04 #@! TD*
D24*
G04 #@! TO.C,C8*
X125273000Y-124409000D03*
X126873000Y-124409000D03*
G04 #@! TD*
D22*
G04 #@! TO.C,*
X166454162Y-74566000D03*
G04 #@! TD*
D32*
G04 #@! TO.C,C15*
X123348000Y-136151100D03*
X123348000Y-135191100D03*
G04 #@! TD*
D22*
G04 #@! TO.C,*
X164654162Y-116596000D03*
G04 #@! TD*
D19*
G04 #@! TO.C,R43*
X100212000Y-63804000D03*
X100212000Y-62844000D03*
G04 #@! TD*
D10*
G04 #@! TO.C,R53*
X106937000Y-88592000D03*
X106937000Y-89552000D03*
G04 #@! TD*
D22*
G04 #@! TO.C,*
X164654162Y-44836000D03*
G04 #@! TD*
G04 #@! TO.C,*
X114873368Y-103622268D03*
G04 #@! TD*
D27*
G04 #@! TO.C,R48*
X163164162Y-145007333D03*
X162204162Y-145007333D03*
G04 #@! TD*
D22*
G04 #@! TO.C,*
X166454162Y-86866000D03*
G04 #@! TD*
G04 #@! TO.C,*
X109291000Y-44391000D03*
G04 #@! TD*
D24*
G04 #@! TO.C,C5*
X122298000Y-53298500D03*
X123898000Y-53298500D03*
G04 #@! TD*
D32*
G04 #@! TO.C,C13*
X125223000Y-107026900D03*
X125223000Y-106066900D03*
G04 #@! TD*
D10*
G04 #@! TO.C,C62*
X107416000Y-55393000D03*
X107416000Y-56353000D03*
G04 #@! TD*
D33*
G04 #@! TO.C,J8*
X93065000Y-72735000D03*
X93065000Y-74005000D03*
X93065000Y-75275000D03*
X93065000Y-76545000D03*
X93065000Y-77815000D03*
X93065000Y-79085000D03*
X93065000Y-80355000D03*
X93065000Y-81625000D03*
D18*
X93065000Y-82895000D03*
X93065000Y-84165000D03*
X93065000Y-85435000D03*
X93065000Y-86705000D03*
X93065000Y-87975000D03*
X93065000Y-89245000D03*
X93065000Y-90515000D03*
X93065000Y-91785000D03*
X93065000Y-93055000D03*
D42*
X94335000Y-94325000D03*
X95605000Y-94325000D03*
X96875000Y-94325000D03*
X98145000Y-94325000D03*
X99415000Y-94325000D03*
X100685000Y-94325000D03*
D43*
X101955000Y-94325000D03*
X103225000Y-94325000D03*
X104495000Y-94325000D03*
X105765000Y-94325000D03*
X107035000Y-94325000D03*
X108305000Y-94325000D03*
D33*
X109575000Y-93055000D03*
X109575000Y-91785000D03*
X109575000Y-90515000D03*
X109575000Y-89245000D03*
X109575000Y-87975000D03*
X109575000Y-86705000D03*
X109575000Y-85435000D03*
X109575000Y-84165000D03*
X109575000Y-82895000D03*
X109575000Y-81625000D03*
X109575000Y-80355000D03*
X109575000Y-79085000D03*
D18*
X109575000Y-77815000D03*
X109575000Y-76545000D03*
X109575000Y-75275000D03*
X109575000Y-74005000D03*
X109575000Y-72735000D03*
D43*
X108305000Y-71465000D03*
X107035000Y-71465000D03*
X105765000Y-71465000D03*
X104495000Y-71465000D03*
X103225000Y-71465000D03*
D42*
X101955000Y-71465000D03*
X100685000Y-71465000D03*
X99415000Y-71465000D03*
X98145000Y-71465000D03*
X96875000Y-71465000D03*
X95605000Y-71465000D03*
X94335000Y-71465000D03*
G04 #@! TD*
D22*
G04 #@! TO.C,*
X91269132Y-44303132D03*
G04 #@! TD*
D11*
G04 #@! TO.C,C73*
X99028000Y-92050000D03*
X98068000Y-92050000D03*
G04 #@! TD*
D22*
G04 #@! TO.C,*
X166454162Y-116596000D03*
G04 #@! TD*
G04 #@! TO.C,1*
X171966842Y-147674000D03*
G04 #@! TD*
D23*
G04 #@! TO.C,R52*
X166959162Y-61015833D03*
X167919162Y-61015833D03*
G04 #@! TD*
D11*
G04 #@! TO.C,C70*
X100276000Y-74894000D03*
X99316000Y-74894000D03*
G04 #@! TD*
D28*
G04 #@! TO.C,R6*
X126873000Y-76942700D03*
X126873000Y-77902700D03*
G04 #@! TD*
D22*
G04 #@! TO.C,*
X166454162Y-59701000D03*
G04 #@! TD*
D32*
G04 #@! TO.C,R1*
X117318000Y-77902700D03*
X117318000Y-76942700D03*
G04 #@! TD*
D22*
G04 #@! TO.C,*
X166454162Y-104296000D03*
G04 #@! TD*
G04 #@! TO.C,*
X163754162Y-131461000D03*
G04 #@! TD*
D23*
G04 #@! TO.C,R49*
X160346662Y-105608333D03*
X161306662Y-105608333D03*
G04 #@! TD*
D22*
G04 #@! TO.C,*
X113885500Y-75567200D03*
G04 #@! TD*
G04 #@! TO.C,*
X163754162Y-104296000D03*
G04 #@! TD*
G04 #@! TO.C,*
X162854162Y-57136000D03*
G04 #@! TD*
G04 #@! TO.C,*
X129247632Y-131296500D03*
G04 #@! TD*
D11*
G04 #@! TO.C,C58*
X98625000Y-137701000D03*
X97665000Y-137701000D03*
G04 #@! TD*
D22*
G04 #@! TO.C,*
X131223368Y-87515879D03*
G04 #@! TD*
D36*
G04 #@! TO.C,C4*
X120873000Y-67860600D03*
X120873000Y-69460600D03*
G04 #@! TD*
D10*
G04 #@! TO.C,R41*
X95224000Y-108675000D03*
X95224000Y-109635000D03*
G04 #@! TD*
D22*
G04 #@! TO.C,*
X162854162Y-104296000D03*
G04 #@! TD*
D32*
G04 #@! TO.C,R55*
X127698000Y-128789000D03*
X127698000Y-127829000D03*
G04 #@! TD*
D22*
G04 #@! TO.C,4*
X171967562Y-40786000D03*
G04 #@! TD*
G04 #@! TO.C,4*
X87757000Y-144793400D03*
G04 #@! TD*
G04 #@! TO.C,*
X166454162Y-119161000D03*
G04 #@! TD*
G04 #@! TO.C,*
X131223368Y-89060168D03*
G04 #@! TD*
D32*
G04 #@! TO.C,R2*
X118148000Y-63340600D03*
X118148000Y-62380600D03*
G04 #@! TD*
D22*
G04 #@! TO.C,*
X91269132Y-69674132D03*
G04 #@! TD*
G04 #@! TO.C,*
X113885500Y-61005100D03*
G04 #@! TD*
D33*
G04 #@! TO.C,J1*
X115585500Y-76565200D03*
X115585500Y-77835200D03*
X115585500Y-79105200D03*
X115585500Y-80375200D03*
X115585500Y-81645200D03*
X115585500Y-82915200D03*
X115585500Y-84185200D03*
X115585500Y-85455200D03*
D42*
X117430500Y-86810200D03*
X118700500Y-86810200D03*
X119970500Y-86810200D03*
X121240500Y-86810200D03*
X122510500Y-86810200D03*
X123780500Y-86810200D03*
X125050500Y-86810200D03*
X126320500Y-86810200D03*
X127590500Y-86810200D03*
D33*
X129435500Y-85455200D03*
X129435500Y-84185200D03*
X129435500Y-82915200D03*
X129435500Y-81645200D03*
X129435500Y-80375200D03*
X129435500Y-79105200D03*
X129435500Y-77835200D03*
X129435500Y-76565200D03*
D42*
X127590500Y-75210200D03*
X126320500Y-75210200D03*
X125050500Y-75210200D03*
X123780500Y-75210200D03*
X122510500Y-75210200D03*
X121240500Y-75210200D03*
X119970500Y-75210200D03*
X118700500Y-75210200D03*
X117430500Y-75210200D03*
G04 #@! TD*
D22*
G04 #@! TO.C,*
X163754162Y-119161000D03*
G04 #@! TD*
G04 #@! TO.C,*
X113885500Y-86453200D03*
G04 #@! TD*
G04 #@! TO.C,*
X114873368Y-72960232D03*
G04 #@! TD*
D32*
G04 #@! TO.C,C12*
X124273000Y-107026900D03*
X124273000Y-106066900D03*
G04 #@! TD*
D22*
G04 #@! TO.C,*
X131135500Y-133822053D03*
G04 #@! TD*
G04 #@! TO.C,*
X115773368Y-103534400D03*
G04 #@! TD*
D32*
G04 #@! TO.C,C12*
X124273000Y-121589000D03*
X124273000Y-120629000D03*
G04 #@! TD*
D22*
G04 #@! TO.C,*
X92344868Y-45378868D03*
G04 #@! TD*
D10*
G04 #@! TO.C,C75*
X105087000Y-139334000D03*
X105087000Y-140294000D03*
G04 #@! TD*
D22*
G04 #@! TO.C,*
X109295680Y-45295000D03*
G04 #@! TD*
G04 #@! TO.C,*
X130147632Y-118190821D03*
G04 #@! TD*
G04 #@! TO.C,*
X131223368Y-118190821D03*
G04 #@! TD*
D34*
G04 #@! TO.C,C3*
X119323000Y-51098500D03*
X117723000Y-51098500D03*
G04 #@! TD*
D27*
G04 #@! TO.C,R47*
X163164162Y-135339833D03*
X162204162Y-135339833D03*
G04 #@! TD*
D22*
G04 #@! TO.C,*
X114785500Y-119253500D03*
G04 #@! TD*
D32*
G04 #@! TO.C,C11*
X121498000Y-136151100D03*
X121498000Y-135191100D03*
G04 #@! TD*
D22*
G04 #@! TO.C,*
X131223368Y-74498068D03*
G04 #@! TD*
D32*
G04 #@! TO.C,C10*
X124698000Y-99514800D03*
X124698000Y-98554800D03*
G04 #@! TD*
D22*
G04 #@! TO.C,*
X114873368Y-131208632D03*
G04 #@! TD*
G04 #@! TO.C,*
X164654162Y-134025000D03*
G04 #@! TD*
D23*
G04 #@! TO.C,R46*
X158489162Y-100413333D03*
X159449162Y-100413333D03*
G04 #@! TD*
D10*
G04 #@! TO.C,C68*
X107416000Y-129728000D03*
X107416000Y-130688000D03*
G04 #@! TD*
D22*
G04 #@! TO.C,*
X162854162Y-101731000D03*
G04 #@! TD*
D27*
G04 #@! TO.C,C60*
X159449162Y-46153333D03*
X158489162Y-46153333D03*
G04 #@! TD*
D22*
G04 #@! TO.C,*
X163754162Y-101731000D03*
G04 #@! TD*
D32*
G04 #@! TO.C,C13*
X125223000Y-77902700D03*
X125223000Y-76942700D03*
G04 #@! TD*
D22*
G04 #@! TO.C,*
X130147632Y-116646532D03*
G04 #@! TD*
G04 #@! TO.C,*
X163754162Y-116596000D03*
G04 #@! TD*
G04 #@! TO.C,*
X163754162Y-119161000D03*
G04 #@! TD*
D27*
G04 #@! TO.C,C16*
X119503000Y-93709800D03*
X118543000Y-93709800D03*
G04 #@! TD*
D32*
G04 #@! TO.C,C15*
X123348000Y-92464800D03*
X123348000Y-91504800D03*
G04 #@! TD*
D22*
G04 #@! TO.C,*
X113797632Y-58398132D03*
G04 #@! TD*
D32*
G04 #@! TO.C,C12*
X124273000Y-77902700D03*
X124273000Y-76942700D03*
G04 #@! TD*
D22*
G04 #@! TO.C,*
X92257000Y-119422400D03*
G04 #@! TD*
D11*
G04 #@! TO.C,C59*
X104848000Y-112457000D03*
X103888000Y-112457000D03*
G04 #@! TD*
D35*
G04 #@! TO.C,U1*
X117398000Y-97809800D03*
X117798000Y-97809800D03*
X118198000Y-97809800D03*
X117398000Y-98209800D03*
X117798000Y-98209800D03*
X118198000Y-98209800D03*
X117398000Y-98609800D03*
X117798000Y-98609800D03*
X118198000Y-98609800D03*
G04 #@! TD*
D27*
G04 #@! TO.C,C61*
X166099162Y-120475833D03*
X165139162Y-120475833D03*
G04 #@! TD*
D32*
G04 #@! TO.C,C10*
X124698000Y-55828500D03*
X124698000Y-54868500D03*
G04 #@! TD*
D22*
G04 #@! TO.C,*
X111370320Y-95045132D03*
G04 #@! TD*
G04 #@! TO.C,*
X163754162Y-131461000D03*
G04 #@! TD*
D24*
G04 #@! TO.C,C9*
X125273000Y-79322700D03*
X126873000Y-79322700D03*
G04 #@! TD*
D28*
G04 #@! TO.C,R5*
X127698000Y-135191100D03*
X127698000Y-136151100D03*
G04 #@! TD*
D22*
G04 #@! TO.C,*
X130147632Y-102084432D03*
G04 #@! TD*
G04 #@! TO.C,*
X142350081Y-66048619D03*
G04 #@! TD*
G04 #@! TO.C,*
X116673368Y-116734400D03*
G04 #@! TD*
G04 #@! TO.C,*
X111370868Y-146862868D03*
G04 #@! TD*
G04 #@! TO.C,*
X144150081Y-66048619D03*
G04 #@! TD*
D32*
G04 #@! TO.C,C11*
X121498000Y-48778500D03*
X121498000Y-47818500D03*
G04 #@! TD*
D22*
G04 #@! TO.C,*
X130147632Y-131208632D03*
G04 #@! TD*
G04 #@! TO.C,*
X130235500Y-144701600D03*
G04 #@! TD*
D27*
G04 #@! TO.C,R51*
X169814162Y-130143333D03*
X168854162Y-130143333D03*
G04 #@! TD*
D22*
G04 #@! TO.C,*
X165554162Y-101731000D03*
G04 #@! TD*
G04 #@! TO.C,*
X113797632Y-116646532D03*
G04 #@! TD*
G04 #@! TO.C,*
X162854162Y-134025000D03*
G04 #@! TD*
G04 #@! TO.C,*
X164654162Y-101731000D03*
G04 #@! TD*
G04 #@! TO.C,*
X165554162Y-116596000D03*
G04 #@! TD*
G04 #@! TO.C,*
X162854162Y-89431000D03*
G04 #@! TD*
G04 #@! TO.C,*
X162854162Y-146325000D03*
G04 #@! TD*
D33*
G04 #@! TO.C,J9*
X172254162Y-113620833D03*
X172254162Y-112350833D03*
X172254162Y-111080833D03*
X172254162Y-109810833D03*
X172254162Y-108540833D03*
X172254162Y-107270833D03*
X157054162Y-107270833D03*
X157054162Y-108540833D03*
X157054162Y-109810833D03*
X157054162Y-111080833D03*
X157054162Y-112350833D03*
X157054162Y-113620833D03*
G04 #@! TD*
D34*
G04 #@! TO.C,C3*
X119323000Y-109346900D03*
X117723000Y-109346900D03*
G04 #@! TD*
D22*
G04 #@! TO.C,*
X131135500Y-101015300D03*
G04 #@! TD*
G04 #@! TO.C,*
X165554162Y-57136000D03*
G04 #@! TD*
G04 #@! TO.C,*
X130147632Y-132752921D03*
G04 #@! TD*
D29*
G04 #@! TO.C,U19*
X166074162Y-143924833D03*
D30*
X166074162Y-142874833D03*
D29*
X167344162Y-143924833D03*
D30*
X167344162Y-142874833D03*
D29*
X168614162Y-143924833D03*
D30*
X168614162Y-142874833D03*
D29*
X169884162Y-143924833D03*
D30*
X169884162Y-142874833D03*
X169884162Y-137474833D03*
D29*
X169884162Y-136424833D03*
D30*
X168614162Y-137474833D03*
D29*
X168614162Y-136424833D03*
D30*
X167344162Y-137474833D03*
D29*
X167344162Y-136424833D03*
D30*
X166074162Y-137474833D03*
D29*
X166074162Y-136424833D03*
D31*
X167979162Y-140174833D03*
G04 #@! TD*
D22*
G04 #@! TO.C,*
X113797632Y-102084432D03*
G04 #@! TD*
G04 #@! TO.C,*
X113797632Y-74498068D03*
G04 #@! TD*
G04 #@! TO.C,*
X142350081Y-66048619D03*
G04 #@! TD*
G04 #@! TO.C,*
X109295680Y-96037000D03*
G04 #@! TD*
G04 #@! TO.C,3*
X93349000Y-149475000D03*
G04 #@! TD*
G04 #@! TO.C,*
X163754162Y-44836000D03*
G04 #@! TD*
G04 #@! TO.C,*
X164654162Y-72001000D03*
G04 #@! TD*
G04 #@! TO.C,*
X131223368Y-44298132D03*
G04 #@! TD*
G04 #@! TO.C,*
X162854162Y-131461000D03*
G04 #@! TD*
G04 #@! TO.C,*
X145050081Y-44836001D03*
G04 #@! TD*
D27*
G04 #@! TO.C,C60*
X159449162Y-135342333D03*
X158489162Y-135342333D03*
G04 #@! TD*
D22*
G04 #@! TO.C,*
X166454162Y-59701000D03*
G04 #@! TD*
D23*
G04 #@! TO.C,C2*
X117318000Y-84922700D03*
X118278000Y-84922700D03*
G04 #@! TD*
D22*
G04 #@! TO.C,*
X166454162Y-104296000D03*
G04 #@! TD*
G04 #@! TO.C,*
X92257000Y-94051400D03*
G04 #@! TD*
G04 #@! TO.C,*
X92257000Y-144793400D03*
G04 #@! TD*
D35*
G04 #@! TO.C,U1*
X117398000Y-126934000D03*
X117798000Y-126934000D03*
X118198000Y-126934000D03*
X117398000Y-127334000D03*
X117798000Y-127334000D03*
X118198000Y-127334000D03*
X117398000Y-127734000D03*
X117798000Y-127734000D03*
X118198000Y-127734000D03*
G04 #@! TD*
D24*
G04 #@! TO.C,C7*
X125273000Y-125809000D03*
X126873000Y-125809000D03*
G04 #@! TD*
D23*
G04 #@! TO.C,C1*
X117318000Y-67785600D03*
X118278000Y-67785600D03*
G04 #@! TD*
D11*
G04 #@! TO.C,C63*
X104975000Y-49523000D03*
X104015000Y-49523000D03*
G04 #@! TD*
D22*
G04 #@! TO.C,*
X166454162Y-86866000D03*
G04 #@! TD*
G04 #@! TO.C,*
X92344320Y-120416132D03*
G04 #@! TD*
D23*
G04 #@! TO.C,C1*
X117318000Y-111471900D03*
X118278000Y-111471900D03*
G04 #@! TD*
D22*
G04 #@! TO.C,*
X162854162Y-116596000D03*
G04 #@! TD*
G04 #@! TO.C,*
X164654162Y-86866000D03*
G04 #@! TD*
D10*
G04 #@! TO.C,C68*
X107416000Y-78986000D03*
X107416000Y-79946000D03*
G04 #@! TD*
D22*
G04 #@! TO.C,*
X166454162Y-134025000D03*
G04 #@! TD*
D27*
G04 #@! TO.C,R51*
X169814162Y-85548333D03*
X168854162Y-85548333D03*
G04 #@! TD*
D10*
G04 #@! TO.C,R45*
X100212000Y-64630000D03*
X100212000Y-65590000D03*
G04 #@! TD*
D22*
G04 #@! TO.C,*
X164654162Y-146325000D03*
G04 #@! TD*
G04 #@! TO.C,*
X163754162Y-101731000D03*
G04 #@! TD*
G04 #@! TO.C,*
X165554162Y-119161000D03*
G04 #@! TD*
G04 #@! TO.C,*
X129247632Y-145858600D03*
G04 #@! TD*
G04 #@! TO.C,*
X91269680Y-96120868D03*
G04 #@! TD*
D32*
G04 #@! TO.C,C14*
X122423000Y-107026900D03*
X122423000Y-106066900D03*
G04 #@! TD*
D22*
G04 #@! TO.C,*
X162854162Y-131461000D03*
G04 #@! TD*
D20*
G04 #@! TO.C,U17*
X98553000Y-90838000D03*
X97053000Y-90838000D03*
X96553000Y-90838000D03*
X99053000Y-90338000D03*
X98053000Y-90338000D03*
X97553000Y-90338000D03*
X96553000Y-90338000D03*
X99053000Y-89838000D03*
X98053000Y-89838000D03*
X97553000Y-89838000D03*
X96553000Y-89838000D03*
X99053000Y-89338000D03*
X98053000Y-89338000D03*
X97553000Y-89338000D03*
X96553000Y-89338000D03*
X99053000Y-88838000D03*
X98053000Y-88838000D03*
X97553000Y-88838000D03*
X96553000Y-88838000D03*
X98553000Y-88338000D03*
X97053000Y-88338000D03*
G04 #@! TD*
D33*
G04 #@! TO.C,J9*
X172254162Y-54160833D03*
X172254162Y-52890833D03*
X172254162Y-51620833D03*
X172254162Y-50350833D03*
X172254162Y-49080833D03*
X172254162Y-47810833D03*
X157054162Y-47810833D03*
X157054162Y-49080833D03*
X157054162Y-50350833D03*
X157054162Y-51620833D03*
X157054162Y-52890833D03*
X157054162Y-54160833D03*
G04 #@! TD*
D22*
G04 #@! TO.C,*
X162854162Y-146325000D03*
G04 #@! TD*
G04 #@! TO.C,*
X128347632Y-145858600D03*
G04 #@! TD*
G04 #@! TO.C,*
X164654162Y-72001000D03*
G04 #@! TD*
D27*
G04 #@! TO.C,R48*
X163164162Y-115278333D03*
X162204162Y-115278333D03*
G04 #@! TD*
D22*
G04 #@! TO.C,*
X115773368Y-87610200D03*
G04 #@! TD*
D10*
G04 #@! TO.C,R42*
X95363000Y-64630000D03*
X95363000Y-65590000D03*
G04 #@! TD*
D22*
G04 #@! TO.C,*
X129247632Y-116734400D03*
G04 #@! TD*
D11*
G04 #@! TO.C,C76*
X102691669Y-142792000D03*
X101731669Y-142792000D03*
G04 #@! TD*
D36*
G04 #@! TO.C,C6*
X119523000Y-96984800D03*
X119523000Y-98584800D03*
G04 #@! TD*
D35*
G04 #@! TO.C,U2*
X121098000Y-64560600D03*
X121498000Y-64560600D03*
X121898000Y-64560600D03*
X122298000Y-64560600D03*
X122698000Y-64560600D03*
X123098000Y-64560600D03*
X121098000Y-64960600D03*
X121498000Y-64960600D03*
X121898000Y-64960600D03*
X122298000Y-64960600D03*
X122698000Y-64960600D03*
X123098000Y-64960600D03*
X121098000Y-65360600D03*
X121498000Y-65360600D03*
X121898000Y-65360600D03*
X122298000Y-65360600D03*
X122698000Y-65360600D03*
X123098000Y-65360600D03*
X121098000Y-65760600D03*
X121498000Y-65760600D03*
X121898000Y-65760600D03*
X122298000Y-65760600D03*
X122698000Y-65760600D03*
X123098000Y-65760600D03*
X121098000Y-66160600D03*
X121498000Y-66160600D03*
X121898000Y-66160600D03*
X122298000Y-66160600D03*
X122698000Y-66160600D03*
X123098000Y-66160600D03*
G04 #@! TD*
D22*
G04 #@! TO.C,*
X116673368Y-73048100D03*
G04 #@! TD*
D29*
G04 #@! TO.C,U18*
X159424162Y-114195833D03*
D30*
X159424162Y-113145833D03*
D29*
X160694162Y-114195833D03*
D30*
X160694162Y-113145833D03*
D29*
X161964162Y-114195833D03*
D30*
X161964162Y-113145833D03*
D29*
X163234162Y-114195833D03*
D30*
X163234162Y-113145833D03*
X163234162Y-107745833D03*
D29*
X163234162Y-106695833D03*
D30*
X161964162Y-107745833D03*
D29*
X161964162Y-106695833D03*
D30*
X160694162Y-107745833D03*
D29*
X160694162Y-106695833D03*
D30*
X159424162Y-107745833D03*
D29*
X159424162Y-106695833D03*
D31*
X161329162Y-110445833D03*
G04 #@! TD*
D32*
G04 #@! TO.C,R1*
X117318000Y-63340600D03*
X117318000Y-62380600D03*
G04 #@! TD*
D22*
G04 #@! TO.C,*
X142350081Y-66048619D03*
G04 #@! TD*
D23*
G04 #@! TO.C,R46*
X158489162Y-115278333D03*
X159449162Y-115278333D03*
G04 #@! TD*
D22*
G04 #@! TO.C,*
X129247632Y-87603747D03*
G04 #@! TD*
G04 #@! TO.C,*
X128347632Y-146758600D03*
G04 #@! TD*
G04 #@! TO.C,*
X110383000Y-94051400D03*
G04 #@! TD*
D32*
G04 #@! TO.C,C13*
X125223000Y-92464800D03*
X125223000Y-91504800D03*
G04 #@! TD*
D22*
G04 #@! TO.C,*
X114785500Y-101015300D03*
G04 #@! TD*
G04 #@! TO.C,*
X163754162Y-116596000D03*
G04 #@! TD*
G04 #@! TO.C,*
X162854162Y-57136000D03*
G04 #@! TD*
D24*
G04 #@! TO.C,C8*
X125273000Y-109846900D03*
X126873000Y-109846900D03*
G04 #@! TD*
D22*
G04 #@! TO.C,*
X131223368Y-102084432D03*
G04 #@! TD*
D19*
G04 #@! TO.C,R44*
X95363000Y-139925000D03*
X95363000Y-138965000D03*
G04 #@! TD*
D24*
G04 #@! TO.C,C9*
X125273000Y-137571100D03*
X126873000Y-137571100D03*
G04 #@! TD*
D32*
G04 #@! TO.C,R56*
X126873000Y-55978500D03*
X126873000Y-55018500D03*
G04 #@! TD*
D10*
G04 #@! TO.C,C65*
X95224000Y-106262000D03*
X95224000Y-107222000D03*
G04 #@! TD*
D22*
G04 #@! TO.C,*
X130147632Y-145770732D03*
G04 #@! TD*
D32*
G04 #@! TO.C,C10*
X124698000Y-114076900D03*
X124698000Y-113116900D03*
G04 #@! TD*
D22*
G04 #@! TO.C,*
X164654162Y-119161000D03*
G04 #@! TD*
G04 #@! TO.C,*
X114785500Y-46443000D03*
G04 #@! TD*
D24*
G04 #@! TO.C,C9*
X125273000Y-64760600D03*
X126873000Y-64760600D03*
G04 #@! TD*
D22*
G04 #@! TO.C,*
X164654162Y-44836000D03*
G04 #@! TD*
G04 #@! TO.C,*
X163754162Y-131461000D03*
G04 #@! TD*
G04 #@! TO.C,*
X114873368Y-58398132D03*
G04 #@! TD*
G04 #@! TO.C,*
X165554162Y-89431000D03*
G04 #@! TD*
G04 #@! TO.C,*
X163754162Y-74566000D03*
G04 #@! TD*
D28*
G04 #@! TO.C,R7*
X126048000Y-135191100D03*
X126048000Y-136151100D03*
G04 #@! TD*
D22*
G04 #@! TO.C,*
X113797632Y-146846468D03*
G04 #@! TD*
D29*
G04 #@! TO.C,U19*
X166074162Y-84465833D03*
D30*
X166074162Y-83415833D03*
D29*
X167344162Y-84465833D03*
D30*
X167344162Y-83415833D03*
D29*
X168614162Y-84465833D03*
D30*
X168614162Y-83415833D03*
D29*
X169884162Y-84465833D03*
D30*
X169884162Y-83415833D03*
X169884162Y-78015833D03*
D29*
X169884162Y-76965833D03*
D30*
X168614162Y-78015833D03*
D29*
X168614162Y-76965833D03*
D30*
X167344162Y-78015833D03*
D29*
X167344162Y-76965833D03*
D30*
X166074162Y-78015833D03*
D29*
X166074162Y-76965833D03*
D31*
X167979162Y-80715833D03*
G04 #@! TD*
D22*
G04 #@! TO.C,*
X114785500Y-75567200D03*
G04 #@! TD*
D28*
G04 #@! TO.C,R8*
X120673000Y-47818500D03*
X120673000Y-48778500D03*
G04 #@! TD*
D22*
G04 #@! TO.C,*
X165554162Y-146325000D03*
G04 #@! TD*
G04 #@! TO.C,*
X91357000Y-97114600D03*
G04 #@! TD*
G04 #@! TO.C,*
X128347632Y-116734400D03*
G04 #@! TD*
D10*
G04 #@! TO.C,C74*
X106937000Y-91090000D03*
X106937000Y-92050000D03*
G04 #@! TD*
D33*
G04 #@! TO.C,J1*
X115585500Y-47441000D03*
X115585500Y-48711000D03*
X115585500Y-49981000D03*
X115585500Y-51251000D03*
X115585500Y-52521000D03*
X115585500Y-53791000D03*
X115585500Y-55061000D03*
X115585500Y-56331000D03*
D42*
X117430500Y-57686000D03*
X118700500Y-57686000D03*
X119970500Y-57686000D03*
X121240500Y-57686000D03*
X122510500Y-57686000D03*
X123780500Y-57686000D03*
X125050500Y-57686000D03*
X126320500Y-57686000D03*
X127590500Y-57686000D03*
D33*
X129435500Y-56331000D03*
X129435500Y-55061000D03*
X129435500Y-53791000D03*
X129435500Y-52521000D03*
X129435500Y-51251000D03*
X129435500Y-49981000D03*
X129435500Y-48711000D03*
X129435500Y-47441000D03*
D42*
X127590500Y-46086000D03*
X126320500Y-46086000D03*
X125050500Y-46086000D03*
X123780500Y-46086000D03*
X122510500Y-46086000D03*
X121240500Y-46086000D03*
X119970500Y-46086000D03*
X118700500Y-46086000D03*
X117430500Y-46086000D03*
G04 #@! TD*
D32*
G04 #@! TO.C,C15*
X123348000Y-121589000D03*
X123348000Y-120629000D03*
G04 #@! TD*
D21*
G04 #@! TO.C,U4*
X143170581Y-61688200D03*
X143170581Y-62088200D03*
X142770581Y-61688200D03*
X142770581Y-62088200D03*
G04 #@! TD*
D14*
G04 #@! TO.C,C28*
X143450581Y-58208200D03*
X142490581Y-58208200D03*
G04 #@! TD*
D20*
G04 #@! TO.C,U5*
X143170581Y-56833961D03*
X142770581Y-56833961D03*
X143170581Y-56433961D03*
X142770581Y-56433961D03*
G04 #@! TD*
D14*
G04 #@! TO.C,R13*
X139330581Y-53991322D03*
X138370581Y-53991322D03*
G04 #@! TD*
G04 #@! TO.C,C77*
X143450581Y-60345000D03*
X142490581Y-60345000D03*
G04 #@! TD*
G04 #@! TO.C,R63*
X139330581Y-55059722D03*
X138370581Y-55059722D03*
G04 #@! TD*
G04 #@! TO.C,C33*
X143450581Y-59276600D03*
X142490581Y-59276600D03*
G04 #@! TD*
G04 #@! TO.C,C24*
X146167503Y-62409600D03*
X145207503Y-62409600D03*
G04 #@! TD*
D11*
G04 #@! TO.C,C81*
X140540581Y-60345000D03*
X141500581Y-60345000D03*
G04 #@! TD*
D12*
G04 #@! TO.C,J11*
X146111581Y-46514322D03*
X150161581Y-46514322D03*
D13*
X147136581Y-50514322D03*
X148136581Y-50514322D03*
X149136581Y-50514322D03*
G04 #@! TD*
D18*
G04 #@! TO.C,J13*
X151054162Y-57420322D03*
X151054162Y-58690322D03*
X151054162Y-59960322D03*
X151054162Y-61230322D03*
X151054162Y-62500322D03*
X151054162Y-63770322D03*
X135446000Y-63770322D03*
X135446000Y-62500322D03*
X135446000Y-61230322D03*
X135446000Y-59960322D03*
X135446000Y-58690322D03*
X135446000Y-57420322D03*
G04 #@! TD*
D19*
G04 #@! TO.C,FB2*
X144324703Y-63491400D03*
X144324703Y-64451400D03*
G04 #@! TD*
D14*
G04 #@! TO.C,C83*
X143460581Y-64470000D03*
X142500581Y-64470000D03*
G04 #@! TD*
G04 #@! TO.C,R17*
X148104503Y-64470000D03*
X147144503Y-64470000D03*
G04 #@! TD*
D11*
G04 #@! TO.C,C32*
X138370581Y-60345000D03*
X139330581Y-60345000D03*
G04 #@! TD*
D14*
G04 #@! TO.C,R16*
X148104503Y-63431400D03*
X147144503Y-63431400D03*
G04 #@! TD*
G04 #@! TO.C,C22*
X146167503Y-64470000D03*
X145207503Y-64470000D03*
G04 #@! TD*
G04 #@! TO.C,R58*
X148104503Y-60345000D03*
X147144503Y-60345000D03*
G04 #@! TD*
D11*
G04 #@! TO.C,C82*
X140540581Y-55059722D03*
X141500581Y-55059722D03*
G04 #@! TD*
D14*
G04 #@! TO.C,C23*
X146167503Y-61364200D03*
X145207503Y-61364200D03*
G04 #@! TD*
D11*
G04 #@! TO.C,C25*
X142490581Y-53991322D03*
X143450581Y-53991322D03*
G04 #@! TD*
D14*
G04 #@! TO.C,R59*
X148092503Y-55059722D03*
X147132503Y-55059722D03*
G04 #@! TD*
D11*
G04 #@! TO.C,C26*
X145207503Y-55059722D03*
X146167503Y-55059722D03*
G04 #@! TD*
D15*
G04 #@! TO.C,U24*
X141235581Y-57212000D03*
X141235581Y-56262000D03*
X141235581Y-58162000D03*
X138635581Y-58162000D03*
X138635581Y-57212000D03*
X138635581Y-56262000D03*
G04 #@! TD*
G04 #@! TO.C,U25*
X141235581Y-62409600D03*
X141235581Y-61459600D03*
X141235581Y-63359600D03*
X138635581Y-63359600D03*
X138635581Y-62409600D03*
X138635581Y-61459600D03*
G04 #@! TD*
D14*
G04 #@! TO.C,R11*
X139330581Y-59276600D03*
X138370581Y-59276600D03*
G04 #@! TD*
G04 #@! TO.C,R18*
X148104503Y-61365600D03*
X147144503Y-61365600D03*
G04 #@! TD*
D16*
G04 #@! TO.C,U6*
X145901303Y-57702361D03*
D17*
X144901303Y-56302361D03*
X145401303Y-56302361D03*
X145901303Y-56302361D03*
X146401303Y-56302361D03*
X146901303Y-56302361D03*
X146901303Y-59102361D03*
X146401303Y-59102361D03*
X145901303Y-59102361D03*
X145401303Y-59102361D03*
X144901303Y-59102361D03*
G04 #@! TD*
D11*
G04 #@! TO.C,C31*
X138370581Y-64470000D03*
X139330581Y-64470000D03*
G04 #@! TD*
D10*
G04 #@! TO.C,R15*
X148104503Y-57331000D03*
X148104503Y-56371000D03*
G04 #@! TD*
D14*
G04 #@! TO.C,C78*
X143450581Y-63431400D03*
X142490581Y-63431400D03*
G04 #@! TD*
G04 #@! TO.C,R19*
X148104503Y-62409600D03*
X147144503Y-62409600D03*
G04 #@! TD*
G04 #@! TO.C,C19*
X143450581Y-55059722D03*
X142490581Y-55059722D03*
G04 #@! TD*
D11*
G04 #@! TO.C,R12*
X140540581Y-64470000D03*
X141500581Y-64470000D03*
G04 #@! TD*
D14*
G04 #@! TO.C,R14*
X146167503Y-60345000D03*
X145207503Y-60345000D03*
G04 #@! TD*
D10*
G04 #@! TO.C,R60*
X148104503Y-59326400D03*
X148104503Y-58366400D03*
G04 #@! TD*
D12*
G04 #@! TO.C,J2*
X136338581Y-46514322D03*
X140388581Y-46514322D03*
D13*
X137363581Y-50514322D03*
X138363581Y-50514322D03*
X139363581Y-50514322D03*
G04 #@! TD*
D14*
G04 #@! TO.C,C21*
X146167503Y-63431400D03*
X145207503Y-63431400D03*
G04 #@! TD*
D11*
G04 #@! TO.C,R64*
X140540581Y-53991322D03*
X141500581Y-53991322D03*
G04 #@! TD*
D14*
G04 #@! TO.C,C20*
X141500581Y-59276600D03*
X140540581Y-59276600D03*
G04 #@! TD*
M02*
