M48
; DRILL file {KiCad 8.0.4} date 2024-12-12T19:44:17+0100
; FORMAT={-:-/ absolute / metric / decimal}
; #@! TF.CreationDate,2024-12-12T19:44:17+01:00
; #@! TF.GenerationSoftware,Kicad,Pcbnew,8.0.4
; #@! TF.FileFunction,NonPlated,1,6,NPTH
FMAT,2
METRIC
; #@! TA.AperFunction,NonPlated,NPTH,ComponentDrill
T1C0.600
; #@! TA.AperFunction,NonPlated,NPTH,ComponentDrill
T2C2.000
%
G90
G05
T1
X86.857Y-46.373
X86.857Y-144.793
X87.757Y-46.373
X87.757Y-144.793
X88.657Y-46.373
X88.657Y-144.793
X89.557Y-46.373
X89.557Y-144.793
X90.457Y-46.373
X90.457Y-144.793
X91.269Y-44.303
X91.269Y-69.674
X91.269Y-95.045
X91.269Y-120.416
X91.269Y-145.787
X91.27Y-45.379
X91.27Y-70.75
X91.27Y-96.121
X91.27Y-121.492
X91.27Y-146.863
X91.357Y-46.373
X91.357Y-68.68
X91.357Y-71.744
X91.357Y-94.051
X91.357Y-97.115
X91.357Y-119.422
X91.357Y-122.486
X91.357Y-144.793
X92.257Y-46.373
X92.257Y-68.68
X92.257Y-71.744
X92.257Y-94.051
X92.257Y-97.115
X92.257Y-119.422
X92.257Y-122.486
X92.257Y-144.793
X92.344Y-44.303
X92.344Y-69.674
X92.344Y-95.045
X92.344Y-120.416
X92.344Y-145.787
X92.345Y-45.379
X92.345Y-70.75
X92.345Y-96.121
X92.345Y-121.492
X92.345Y-146.863
X93.344Y-39.887
X93.344Y-40.787
X93.344Y-41.687
X93.344Y-42.587
X93.344Y-43.487
X93.344Y-44.387
X93.344Y-69.758
X93.344Y-95.129
X93.344Y-120.5
X93.344Y-145.871
X93.349Y-45.291
X93.349Y-70.662
X93.349Y-96.033
X93.349Y-121.404
X93.349Y-146.775
X93.349Y-147.675
X93.349Y-148.575
X93.349Y-149.475
X93.349Y-150.375
X93.349Y-151.275
X109.291Y-44.391
X109.291Y-69.762
X109.291Y-95.133
X109.291Y-120.504
X109.291Y-145.875
X109.296Y-45.295
X109.296Y-70.666
X109.296Y-96.037
X109.296Y-121.408
X109.296Y-146.779
X110.295Y-44.303
X110.295Y-69.674
X110.295Y-95.045
X110.295Y-120.416
X110.295Y-145.787
X110.296Y-45.379
X110.296Y-70.75
X110.296Y-96.121
X110.296Y-121.492
X110.296Y-146.863
X110.383Y-46.373
X110.383Y-68.68
X110.383Y-71.744
X110.383Y-94.051
X110.383Y-97.115
X110.383Y-119.422
X110.383Y-122.486
X110.383Y-144.793
X111.283Y-46.373
X111.283Y-68.68
X111.283Y-71.744
X111.283Y-94.051
X111.283Y-97.115
X111.283Y-119.422
X111.283Y-122.486
X111.283Y-144.793
X111.37Y-44.303
X111.37Y-69.674
X111.37Y-95.045
X111.37Y-120.416
X111.37Y-145.787
X111.371Y-45.379
X111.371Y-70.75
X111.371Y-96.121
X111.371Y-121.492
X111.371Y-146.863
X113.798Y-44.298
X113.798Y-45.374
X113.798Y-58.398
X113.798Y-59.936
X113.798Y-72.96
X113.798Y-74.498
X113.798Y-87.522
X113.798Y-89.06
X113.798Y-102.084
X113.798Y-103.622
X113.798Y-116.647
X113.798Y-118.184
X113.798Y-131.209
X113.798Y-132.746
X113.798Y-145.771
X113.798Y-146.846
X113.885Y-46.443
X113.885Y-57.329
X113.885Y-61.005
X113.885Y-71.891
X113.885Y-75.567
X113.885Y-86.453
X113.885Y-90.129
X113.885Y-101.015
X113.885Y-104.691
X113.885Y-115.577
X113.885Y-119.253
X113.885Y-130.139
X113.885Y-133.816
X113.885Y-144.702
X114.785Y-46.443
X114.785Y-57.329
X114.785Y-61.005
X114.785Y-71.891
X114.785Y-75.567
X114.785Y-86.453
X114.785Y-90.129
X114.785Y-101.015
X114.785Y-104.691
X114.785Y-115.577
X114.785Y-119.253
X114.785Y-130.139
X114.785Y-133.816
X114.785Y-144.702
X114.873Y-44.298
X114.873Y-45.374
X114.873Y-58.398
X114.873Y-59.936
X114.873Y-72.96
X114.873Y-74.498
X114.873Y-87.522
X114.873Y-89.06
X114.873Y-102.084
X114.873Y-103.622
X114.873Y-116.647
X114.873Y-118.184
X114.873Y-131.209
X114.873Y-132.746
X114.873Y-145.771
X114.873Y-146.846
X115.773Y-44.386
X115.773Y-45.286
X115.773Y-58.486
X115.773Y-59.848
X115.773Y-73.048
X115.773Y-74.41
X115.773Y-87.61
X115.773Y-88.972
X115.773Y-102.172
X115.773Y-103.534
X115.773Y-116.734
X115.773Y-118.096
X115.773Y-131.296
X115.773Y-132.659
X115.773Y-145.859
X115.773Y-146.759
X116.673Y-44.386
X116.673Y-45.286
X116.673Y-58.486
X116.673Y-59.848
X116.673Y-73.048
X116.673Y-74.41
X116.673Y-87.61
X116.673Y-88.972
X116.673Y-102.172
X116.673Y-103.534
X116.673Y-116.734
X116.673Y-118.096
X116.673Y-131.296
X116.673Y-132.659
X116.673Y-145.859
X116.673Y-146.759
X128.348Y-44.386
X128.348Y-45.286
X128.348Y-58.48
X128.348Y-59.848
X128.348Y-73.042
X128.348Y-74.41
X128.348Y-87.604
X128.348Y-88.972
X128.348Y-102.172
X128.348Y-103.541
X128.348Y-116.734
X128.348Y-118.103
X128.348Y-131.296
X128.348Y-132.665
X128.348Y-145.859
X128.348Y-146.759
X129.248Y-44.386
X129.248Y-45.286
X129.248Y-58.48
X129.248Y-59.848
X129.248Y-73.042
X129.248Y-74.41
X129.248Y-87.604
X129.248Y-88.972
X129.248Y-102.172
X129.248Y-103.541
X129.248Y-116.734
X129.248Y-118.103
X129.248Y-131.296
X129.248Y-132.665
X129.248Y-145.859
X129.248Y-146.759
X130.148Y-44.298
X130.148Y-45.374
X130.148Y-58.392
X130.148Y-59.936
X130.148Y-72.954
X130.148Y-74.498
X130.148Y-87.516
X130.148Y-89.06
X130.148Y-102.084
X130.148Y-103.629
X130.148Y-116.647
X130.148Y-118.191
X130.148Y-131.209
X130.148Y-132.753
X130.148Y-145.771
X130.148Y-146.846
X130.236Y-46.443
X130.236Y-57.323
X130.236Y-61.005
X130.236Y-71.885
X130.236Y-75.567
X130.236Y-86.447
X130.236Y-90.129
X130.236Y-101.015
X130.236Y-104.698
X130.236Y-115.577
X130.236Y-119.26
X130.236Y-130.139
X130.236Y-133.822
X130.236Y-144.702
X131.136Y-46.443
X131.136Y-57.323
X131.136Y-61.005
X131.136Y-71.885
X131.136Y-75.567
X131.136Y-86.447
X131.136Y-90.129
X131.136Y-101.015
X131.136Y-104.698
X131.136Y-115.577
X131.136Y-119.26
X131.136Y-130.139
X131.136Y-133.822
X131.136Y-144.702
X131.223Y-44.298
X131.223Y-45.374
X131.223Y-58.392
X131.223Y-59.936
X131.223Y-72.954
X131.223Y-74.498
X131.223Y-87.516
X131.223Y-89.06
X131.223Y-102.084
X131.223Y-103.629
X131.223Y-116.647
X131.223Y-118.191
X131.223Y-131.209
X131.223Y-132.753
X131.223Y-145.771
X131.223Y-146.846
X141.45Y-44.836
X141.45Y-44.836
X141.45Y-44.836
X141.45Y-44.836
X141.45Y-66.049
X141.45Y-66.049
X141.45Y-66.049
X141.45Y-66.049
X141.45Y-66.049
X141.45Y-71.589
X141.45Y-71.589
X141.45Y-71.589
X141.45Y-71.589
X141.45Y-92.802
X141.45Y-92.802
X141.45Y-92.802
X141.45Y-92.802
X141.45Y-92.802
X141.45Y-98.342
X141.45Y-98.342
X141.45Y-98.342
X141.45Y-98.342
X141.45Y-119.555
X141.45Y-119.555
X141.45Y-119.555
X141.45Y-119.555
X141.45Y-119.555
X141.45Y-125.112
X141.45Y-125.112
X141.45Y-125.112
X141.45Y-125.112
X141.45Y-146.325
X141.45Y-146.325
X141.45Y-146.325
X141.45Y-146.325
X141.45Y-146.325
X142.35Y-44.836
X142.35Y-44.836
X142.35Y-44.836
X142.35Y-44.836
X142.35Y-66.049
X142.35Y-66.049
X142.35Y-66.049
X142.35Y-66.049
X142.35Y-71.589
X142.35Y-71.589
X142.35Y-71.589
X142.35Y-71.589
X142.35Y-92.802
X142.35Y-92.802
X142.35Y-92.802
X142.35Y-92.802
X142.35Y-98.342
X142.35Y-98.342
X142.35Y-98.342
X142.35Y-98.342
X142.35Y-119.555
X142.35Y-119.555
X142.35Y-119.555
X142.35Y-119.555
X142.35Y-125.112
X142.35Y-125.112
X142.35Y-125.112
X142.35Y-125.112
X142.35Y-146.325
X142.35Y-146.325
X142.35Y-146.325
X142.35Y-146.325
X143.25Y-44.836
X143.25Y-44.836
X143.25Y-44.836
X143.25Y-44.836
X143.25Y-66.049
X143.25Y-66.049
X143.25Y-66.049
X143.25Y-66.049
X143.25Y-71.589
X143.25Y-71.589
X143.25Y-71.589
X143.25Y-71.589
X143.25Y-92.802
X143.25Y-92.802
X143.25Y-92.802
X143.25Y-92.802
X143.25Y-98.342
X143.25Y-98.342
X143.25Y-98.342
X143.25Y-98.342
X143.25Y-119.555
X143.25Y-119.555
X143.25Y-119.555
X143.25Y-119.555
X143.25Y-125.112
X143.25Y-125.112
X143.25Y-125.112
X143.25Y-125.112
X143.25Y-146.325
X143.25Y-146.325
X143.25Y-146.325
X143.25Y-146.325
X144.15Y-44.836
X144.15Y-44.836
X144.15Y-44.836
X144.15Y-44.836
X144.15Y-66.049
X144.15Y-66.049
X144.15Y-66.049
X144.15Y-66.049
X144.15Y-71.589
X144.15Y-71.589
X144.15Y-71.589
X144.15Y-71.589
X144.15Y-92.802
X144.15Y-92.802
X144.15Y-92.802
X144.15Y-92.802
X144.15Y-98.342
X144.15Y-98.342
X144.15Y-98.342
X144.15Y-98.342
X144.15Y-119.555
X144.15Y-119.555
X144.15Y-119.555
X144.15Y-119.555
X144.15Y-125.112
X144.15Y-125.112
X144.15Y-125.112
X144.15Y-125.112
X144.15Y-146.325
X144.15Y-146.325
X144.15Y-146.325
X144.15Y-146.325
X145.05Y-44.836
X145.05Y-44.836
X145.05Y-44.836
X145.05Y-44.836
X145.05Y-44.836
X145.05Y-66.049
X145.05Y-66.049
X145.05Y-66.049
X145.05Y-66.049
X145.05Y-71.589
X145.05Y-71.589
X145.05Y-71.589
X145.05Y-71.589
X145.05Y-71.589
X145.05Y-92.802
X145.05Y-92.802
X145.05Y-92.802
X145.05Y-92.802
X145.05Y-98.342
X145.05Y-98.342
X145.05Y-98.342
X145.05Y-98.342
X145.05Y-98.342
X145.05Y-119.555
X145.05Y-119.555
X145.05Y-119.555
X145.05Y-119.555
X145.05Y-125.112
X145.05Y-125.112
X145.05Y-125.112
X145.05Y-125.112
X145.05Y-125.112
X145.05Y-146.325
X145.05Y-146.325
X145.05Y-146.325
X145.05Y-146.325
X162.854Y-44.836
X162.854Y-44.836
X162.854Y-44.836
X162.854Y-44.836
X162.854Y-57.136
X162.854Y-57.136
X162.854Y-57.136
X162.854Y-57.136
X162.854Y-57.136
X162.854Y-59.701
X162.854Y-59.701
X162.854Y-59.701
X162.854Y-59.701
X162.854Y-72.001
X162.854Y-72.001
X162.854Y-72.001
X162.854Y-72.001
X162.854Y-72.001
X162.854Y-74.566
X162.854Y-74.566
X162.854Y-74.566
X162.854Y-74.566
X162.854Y-86.866
X162.854Y-86.866
X162.854Y-86.866
X162.854Y-86.866
X162.854Y-86.866
X162.854Y-89.431
X162.854Y-89.431
X162.854Y-89.431
X162.854Y-89.431
X162.854Y-101.731
X162.854Y-101.731
X162.854Y-101.731
X162.854Y-101.731
X162.854Y-101.731
X162.854Y-104.296
X162.854Y-104.296
X162.854Y-104.296
X162.854Y-104.296
X162.854Y-116.596
X162.854Y-116.596
X162.854Y-116.596
X162.854Y-116.596
X162.854Y-116.596
X162.854Y-119.161
X162.854Y-119.161
X162.854Y-119.161
X162.854Y-119.161
X162.854Y-131.461
X162.854Y-131.461
X162.854Y-131.461
X162.854Y-131.461
X162.854Y-131.461
X162.854Y-134.025
X162.854Y-134.025
X162.854Y-134.025
X162.854Y-134.025
X162.854Y-146.325
X162.854Y-146.325
X162.854Y-146.325
X162.854Y-146.325
X162.854Y-146.325
X163.754Y-44.836
X163.754Y-44.836
X163.754Y-44.836
X163.754Y-44.836
X163.754Y-57.136
X163.754Y-57.136
X163.754Y-57.136
X163.754Y-57.136
X163.754Y-59.701
X163.754Y-59.701
X163.754Y-59.701
X163.754Y-59.701
X163.754Y-72.001
X163.754Y-72.001
X163.754Y-72.001
X163.754Y-72.001
X163.754Y-74.566
X163.754Y-74.566
X163.754Y-74.566
X163.754Y-74.566
X163.754Y-86.866
X163.754Y-86.866
X163.754Y-86.866
X163.754Y-86.866
X163.754Y-89.431
X163.754Y-89.431
X163.754Y-89.431
X163.754Y-89.431
X163.754Y-101.731
X163.754Y-101.731
X163.754Y-101.731
X163.754Y-101.731
X163.754Y-104.296
X163.754Y-104.296
X163.754Y-104.296
X163.754Y-104.296
X163.754Y-116.596
X163.754Y-116.596
X163.754Y-116.596
X163.754Y-116.596
X163.754Y-119.161
X163.754Y-119.161
X163.754Y-119.161
X163.754Y-119.161
X163.754Y-131.461
X163.754Y-131.461
X163.754Y-131.461
X163.754Y-131.461
X163.754Y-134.025
X163.754Y-134.025
X163.754Y-134.025
X163.754Y-134.025
X163.754Y-146.325
X163.754Y-146.325
X163.754Y-146.325
X163.754Y-146.325
X164.654Y-44.836
X164.654Y-44.836
X164.654Y-44.836
X164.654Y-44.836
X164.654Y-57.136
X164.654Y-57.136
X164.654Y-57.136
X164.654Y-57.136
X164.654Y-59.701
X164.654Y-59.701
X164.654Y-59.701
X164.654Y-59.701
X164.654Y-72.001
X164.654Y-72.001
X164.654Y-72.001
X164.654Y-72.001
X164.654Y-74.566
X164.654Y-74.566
X164.654Y-74.566
X164.654Y-74.566
X164.654Y-86.866
X164.654Y-86.866
X164.654Y-86.866
X164.654Y-86.866
X164.654Y-89.431
X164.654Y-89.431
X164.654Y-89.431
X164.654Y-89.431
X164.654Y-101.731
X164.654Y-101.731
X164.654Y-101.731
X164.654Y-101.731
X164.654Y-104.296
X164.654Y-104.296
X164.654Y-104.296
X164.654Y-104.296
X164.654Y-116.596
X164.654Y-116.596
X164.654Y-116.596
X164.654Y-116.596
X164.654Y-119.161
X164.654Y-119.161
X164.654Y-119.161
X164.654Y-119.161
X164.654Y-131.461
X164.654Y-131.461
X164.654Y-131.461
X164.654Y-131.461
X164.654Y-134.025
X164.654Y-134.025
X164.654Y-134.025
X164.654Y-134.025
X164.654Y-146.325
X164.654Y-146.325
X164.654Y-146.325
X164.654Y-146.325
X165.554Y-44.836
X165.554Y-44.836
X165.554Y-44.836
X165.554Y-44.836
X165.554Y-57.136
X165.554Y-57.136
X165.554Y-57.136
X165.554Y-57.136
X165.554Y-59.701
X165.554Y-59.701
X165.554Y-59.701
X165.554Y-59.701
X165.554Y-72.001
X165.554Y-72.001
X165.554Y-72.001
X165.554Y-72.001
X165.554Y-74.566
X165.554Y-74.566
X165.554Y-74.566
X165.554Y-74.566
X165.554Y-86.866
X165.554Y-86.866
X165.554Y-86.866
X165.554Y-86.866
X165.554Y-89.431
X165.554Y-89.431
X165.554Y-89.431
X165.554Y-89.431
X165.554Y-101.731
X165.554Y-101.731
X165.554Y-101.731
X165.554Y-101.731
X165.554Y-104.296
X165.554Y-104.296
X165.554Y-104.296
X165.554Y-104.296
X165.554Y-116.596
X165.554Y-116.596
X165.554Y-116.596
X165.554Y-116.596
X165.554Y-119.161
X165.554Y-119.161
X165.554Y-119.161
X165.554Y-119.161
X165.554Y-131.461
X165.554Y-131.461
X165.554Y-131.461
X165.554Y-131.461
X165.554Y-134.025
X165.554Y-134.025
X165.554Y-134.025
X165.554Y-134.025
X165.554Y-146.325
X165.554Y-146.325
X165.554Y-146.325
X165.554Y-146.325
X166.454Y-44.836
X166.454Y-44.836
X166.454Y-44.836
X166.454Y-44.836
X166.454Y-44.836
X166.454Y-57.136
X166.454Y-57.136
X166.454Y-57.136
X166.454Y-57.136
X166.454Y-59.701
X166.454Y-59.701
X166.454Y-59.701
X166.454Y-59.701
X166.454Y-59.701
X166.454Y-72.001
X166.454Y-72.001
X166.454Y-72.001
X166.454Y-72.001
X166.454Y-74.566
X166.454Y-74.566
X166.454Y-74.566
X166.454Y-74.566
X166.454Y-74.566
X166.454Y-86.866
X166.454Y-86.866
X166.454Y-86.866
X166.454Y-86.866
X166.454Y-89.431
X166.454Y-89.431
X166.454Y-89.431
X166.454Y-89.431
X166.454Y-89.431
X166.454Y-101.731
X166.454Y-101.731
X166.454Y-101.731
X166.454Y-101.731
X166.454Y-104.296
X166.454Y-104.296
X166.454Y-104.296
X166.454Y-104.296
X166.454Y-104.296
X166.454Y-116.596
X166.454Y-116.596
X166.454Y-116.596
X166.454Y-116.596
X166.454Y-119.161
X166.454Y-119.161
X166.454Y-119.161
X166.454Y-119.161
X166.454Y-119.161
X166.454Y-131.461
X166.454Y-131.461
X166.454Y-131.461
X166.454Y-131.461
X166.454Y-134.025
X166.454Y-134.025
X166.454Y-134.025
X166.454Y-134.025
X166.454Y-134.025
X166.454Y-146.325
X166.454Y-146.325
X166.454Y-146.325
X166.454Y-146.325
X171.967Y-147.674
X171.967Y-148.574
X171.967Y-149.474
X171.967Y-150.374
X171.967Y-151.274
X171.968Y-39.886
X171.968Y-40.786
X171.968Y-41.686
X171.968Y-42.586
X171.968Y-43.486
X174.853Y-46.373
X174.854Y-144.788
X175.753Y-46.373
X175.754Y-144.788
X176.653Y-46.373
X176.654Y-144.788
X177.553Y-46.373
X177.554Y-144.788
X178.453Y-46.373
X178.454Y-144.788
T2
X88.557Y-41.586
X88.557Y-149.575
X176.754Y-41.586
X176.754Y-149.575
M30
