G04 #@! TF.GenerationSoftware,KiCad,Pcbnew,8.0.4*
G04 #@! TF.CreationDate,2024-12-12T19:44:17+01:00*
G04 #@! TF.ProjectId,Combined_Module_Panel,436f6d62-696e-4656-945f-4d6f64756c65,rev?*
G04 #@! TF.SameCoordinates,Original*
G04 #@! TF.FileFunction,Other,User*
%FSLAX46Y46*%
G04 Gerber Fmt 4.6, Leading zero omitted, Abs format (unit mm)*
G04 Created by KiCad (PCBNEW 8.0.4) date 2024-12-12 19:44:17*
%MOMM*%
%LPD*%
G01*
G04 APERTURE LIST*
%ADD10C,0.100000*%
%ADD11C,0.150000*%
G04 APERTURE END LIST*
D10*
X112584250Y-34086000D02*
X112584250Y-157075000D01*
X154054162Y-34086000D02*
X154054162Y-157075000D01*
X132446000Y-157075000D02*
X132446000Y-34086000D01*
D11*
X112099907Y-33306077D02*
X113099907Y-32972744D01*
X113099907Y-32972744D02*
X112099907Y-32639411D01*
X112718954Y-32306077D02*
X112718954Y-31544173D01*
X113004668Y-30496554D02*
X113052288Y-30544173D01*
X113052288Y-30544173D02*
X113099907Y-30687030D01*
X113099907Y-30687030D02*
X113099907Y-30782268D01*
X113099907Y-30782268D02*
X113052288Y-30925125D01*
X113052288Y-30925125D02*
X112957049Y-31020363D01*
X112957049Y-31020363D02*
X112861811Y-31067982D01*
X112861811Y-31067982D02*
X112671335Y-31115601D01*
X112671335Y-31115601D02*
X112528478Y-31115601D01*
X112528478Y-31115601D02*
X112338002Y-31067982D01*
X112338002Y-31067982D02*
X112242764Y-31020363D01*
X112242764Y-31020363D02*
X112147526Y-30925125D01*
X112147526Y-30925125D02*
X112099907Y-30782268D01*
X112099907Y-30782268D02*
X112099907Y-30687030D01*
X112099907Y-30687030D02*
X112147526Y-30544173D01*
X112147526Y-30544173D02*
X112195145Y-30496554D01*
X112099907Y-30067982D02*
X112909430Y-30067982D01*
X112909430Y-30067982D02*
X113004668Y-30020363D01*
X113004668Y-30020363D02*
X113052288Y-29972744D01*
X113052288Y-29972744D02*
X113099907Y-29877506D01*
X113099907Y-29877506D02*
X113099907Y-29687030D01*
X113099907Y-29687030D02*
X113052288Y-29591792D01*
X113052288Y-29591792D02*
X113004668Y-29544173D01*
X113004668Y-29544173D02*
X112909430Y-29496554D01*
X112909430Y-29496554D02*
X112099907Y-29496554D01*
X112099907Y-29163220D02*
X112099907Y-28591792D01*
X113099907Y-28877506D02*
X112099907Y-28877506D01*
X153569819Y-33306077D02*
X154569819Y-32972744D01*
X154569819Y-32972744D02*
X153569819Y-32639411D01*
X154188866Y-32306077D02*
X154188866Y-31544173D01*
X154474580Y-30496554D02*
X154522200Y-30544173D01*
X154522200Y-30544173D02*
X154569819Y-30687030D01*
X154569819Y-30687030D02*
X154569819Y-30782268D01*
X154569819Y-30782268D02*
X154522200Y-30925125D01*
X154522200Y-30925125D02*
X154426961Y-31020363D01*
X154426961Y-31020363D02*
X154331723Y-31067982D01*
X154331723Y-31067982D02*
X154141247Y-31115601D01*
X154141247Y-31115601D02*
X153998390Y-31115601D01*
X153998390Y-31115601D02*
X153807914Y-31067982D01*
X153807914Y-31067982D02*
X153712676Y-31020363D01*
X153712676Y-31020363D02*
X153617438Y-30925125D01*
X153617438Y-30925125D02*
X153569819Y-30782268D01*
X153569819Y-30782268D02*
X153569819Y-30687030D01*
X153569819Y-30687030D02*
X153617438Y-30544173D01*
X153617438Y-30544173D02*
X153665057Y-30496554D01*
X153569819Y-30067982D02*
X154379342Y-30067982D01*
X154379342Y-30067982D02*
X154474580Y-30020363D01*
X154474580Y-30020363D02*
X154522200Y-29972744D01*
X154522200Y-29972744D02*
X154569819Y-29877506D01*
X154569819Y-29877506D02*
X154569819Y-29687030D01*
X154569819Y-29687030D02*
X154522200Y-29591792D01*
X154522200Y-29591792D02*
X154474580Y-29544173D01*
X154474580Y-29544173D02*
X154379342Y-29496554D01*
X154379342Y-29496554D02*
X153569819Y-29496554D01*
X153569819Y-29163220D02*
X153569819Y-28591792D01*
X154569819Y-28877506D02*
X153569819Y-28877506D01*
X131961657Y-33306077D02*
X132961657Y-32972744D01*
X132961657Y-32972744D02*
X131961657Y-32639411D01*
X132580704Y-32306077D02*
X132580704Y-31544173D01*
X132866418Y-30496554D02*
X132914038Y-30544173D01*
X132914038Y-30544173D02*
X132961657Y-30687030D01*
X132961657Y-30687030D02*
X132961657Y-30782268D01*
X132961657Y-30782268D02*
X132914038Y-30925125D01*
X132914038Y-30925125D02*
X132818799Y-31020363D01*
X132818799Y-31020363D02*
X132723561Y-31067982D01*
X132723561Y-31067982D02*
X132533085Y-31115601D01*
X132533085Y-31115601D02*
X132390228Y-31115601D01*
X132390228Y-31115601D02*
X132199752Y-31067982D01*
X132199752Y-31067982D02*
X132104514Y-31020363D01*
X132104514Y-31020363D02*
X132009276Y-30925125D01*
X132009276Y-30925125D02*
X131961657Y-30782268D01*
X131961657Y-30782268D02*
X131961657Y-30687030D01*
X131961657Y-30687030D02*
X132009276Y-30544173D01*
X132009276Y-30544173D02*
X132056895Y-30496554D01*
X131961657Y-30067982D02*
X132771180Y-30067982D01*
X132771180Y-30067982D02*
X132866418Y-30020363D01*
X132866418Y-30020363D02*
X132914038Y-29972744D01*
X132914038Y-29972744D02*
X132961657Y-29877506D01*
X132961657Y-29877506D02*
X132961657Y-29687030D01*
X132961657Y-29687030D02*
X132914038Y-29591792D01*
X132914038Y-29591792D02*
X132866418Y-29544173D01*
X132866418Y-29544173D02*
X132771180Y-29496554D01*
X132771180Y-29496554D02*
X131961657Y-29496554D01*
X131961657Y-29163220D02*
X131961657Y-28591792D01*
X132961657Y-28877506D02*
X131961657Y-28877506D01*
M02*
