M48
; DRILL file {KiCad 8.0.4} date 2024-12-12T19:44:17+0100
; FORMAT={-:-/ absolute / metric / decimal}
; #@! TF.CreationDate,2024-12-12T19:44:17+01:00
; #@! TF.GenerationSoftware,Kicad,Pcbnew,8.0.4
; #@! TF.FileFunction,Plated,1,6,PTH
FMAT,2
METRIC
; #@! TA.AperFunction,Plated,PTH,ViaDrill
T1C0.150
; #@! TA.AperFunction,Plated,PTH,ViaDrill
T2C0.200
; #@! TA.AperFunction,Plated,PTH,ComponentDrill
T3C0.200
; #@! TA.AperFunction,Plated,PTH,ViaDrill
T4C0.250
; #@! TA.AperFunction,Plated,PTH,ComponentDrill
T5C0.650
%
G90
G05
T1
X117.318Y-47.819
X117.318Y-62.381
X117.318Y-76.943
X117.318Y-91.505
X117.318Y-106.067
X117.318Y-120.629
X117.318Y-135.191
X117.398Y-54.523
X117.398Y-54.923
X117.398Y-69.086
X117.398Y-69.486
X117.398Y-83.648
X117.398Y-84.048
X117.398Y-98.21
X117.398Y-98.61
X117.398Y-112.772
X117.398Y-113.172
X117.398Y-127.334
X117.398Y-127.734
X117.398Y-141.896
X117.398Y-142.296
X117.485Y-50.836
X117.485Y-51.386
X117.485Y-65.398
X117.485Y-65.948
X117.485Y-79.96
X117.485Y-80.51
X117.485Y-94.522
X117.485Y-95.072
X117.485Y-109.084
X117.485Y-109.634
X117.485Y-123.646
X117.485Y-124.197
X117.485Y-138.209
X117.485Y-138.759
X117.798Y-54.523
X117.798Y-69.086
X117.798Y-83.648
X117.798Y-98.21
X117.798Y-112.772
X117.798Y-127.334
X117.798Y-141.896
X117.963Y-47.663
X117.963Y-62.226
X117.963Y-76.788
X117.963Y-91.35
X117.963Y-105.912
X117.963Y-120.474
X117.963Y-135.036
X117.985Y-50.836
X117.985Y-51.386
X117.985Y-65.398
X117.985Y-65.948
X117.985Y-79.96
X117.985Y-80.51
X117.985Y-94.522
X117.985Y-95.072
X117.985Y-109.084
X117.985Y-109.634
X117.985Y-123.646
X117.985Y-124.197
X117.985Y-138.209
X117.985Y-138.759
X118.123Y-53.048
X118.123Y-67.611
X118.123Y-82.173
X118.123Y-96.735
X118.123Y-111.297
X118.123Y-125.859
X118.123Y-140.421
X118.148Y-48.779
X118.148Y-63.341
X118.148Y-77.903
X118.148Y-92.465
X118.148Y-107.027
X118.148Y-121.589
X118.148Y-136.151
X118.198Y-54.523
X118.198Y-69.086
X118.198Y-83.648
X118.198Y-98.21
X118.198Y-112.772
X118.198Y-127.334
X118.198Y-141.896
X118.323Y-47.974
X118.323Y-62.536
X118.323Y-77.098
X118.323Y-91.66
X118.323Y-106.222
X118.323Y-120.784
X118.323Y-135.346
X118.398Y-49.848
X118.398Y-64.411
X118.398Y-78.973
X118.398Y-93.535
X118.398Y-108.097
X118.398Y-122.659
X118.398Y-137.221
X118.423Y-53.398
X118.423Y-67.961
X118.423Y-82.523
X118.423Y-97.085
X118.423Y-111.647
X118.423Y-126.209
X118.423Y-140.771
X119.085Y-50.836
X119.085Y-51.386
X119.085Y-65.398
X119.085Y-65.948
X119.085Y-79.96
X119.085Y-80.51
X119.085Y-94.522
X119.085Y-95.072
X119.085Y-109.084
X119.085Y-109.634
X119.085Y-123.646
X119.085Y-124.197
X119.085Y-138.209
X119.085Y-138.759
X119.248Y-53.048
X119.248Y-53.548
X119.248Y-54.648
X119.248Y-55.148
X119.248Y-67.611
X119.248Y-68.111
X119.248Y-69.211
X119.248Y-69.711
X119.248Y-82.173
X119.248Y-82.673
X119.248Y-83.773
X119.248Y-84.273
X119.248Y-96.735
X119.248Y-97.235
X119.248Y-98.335
X119.248Y-98.835
X119.248Y-111.297
X119.248Y-111.797
X119.248Y-112.897
X119.248Y-113.397
X119.248Y-125.859
X119.248Y-126.359
X119.248Y-127.459
X119.248Y-127.959
X119.248Y-140.421
X119.248Y-140.921
X119.248Y-142.021
X119.248Y-142.521
X119.585Y-50.836
X119.585Y-51.386
X119.585Y-65.398
X119.585Y-65.948
X119.585Y-79.96
X119.585Y-80.51
X119.585Y-94.522
X119.585Y-95.072
X119.585Y-109.084
X119.585Y-109.634
X119.585Y-123.646
X119.585Y-124.197
X119.585Y-138.209
X119.585Y-138.759
X119.798Y-53.048
X119.798Y-53.548
X119.798Y-54.648
X119.798Y-55.148
X119.798Y-67.611
X119.798Y-68.111
X119.798Y-69.211
X119.798Y-69.711
X119.798Y-82.173
X119.798Y-82.673
X119.798Y-83.773
X119.798Y-84.273
X119.798Y-96.735
X119.798Y-97.235
X119.798Y-98.335
X119.798Y-98.835
X119.798Y-111.297
X119.798Y-111.797
X119.798Y-112.897
X119.798Y-113.397
X119.798Y-125.859
X119.798Y-126.359
X119.798Y-127.459
X119.798Y-127.959
X119.798Y-140.421
X119.798Y-140.921
X119.798Y-142.021
X119.798Y-142.521
X119.848Y-47.819
X119.848Y-62.381
X119.848Y-76.943
X119.848Y-91.505
X119.848Y-106.067
X119.848Y-120.629
X119.848Y-135.191
X120.598Y-49.523
X120.598Y-53.048
X120.598Y-53.548
X120.598Y-54.648
X120.598Y-55.148
X120.598Y-64.086
X120.598Y-67.611
X120.598Y-68.111
X120.598Y-69.211
X120.598Y-69.711
X120.598Y-78.648
X120.598Y-82.173
X120.598Y-82.673
X120.598Y-83.773
X120.598Y-84.273
X120.598Y-93.21
X120.598Y-96.735
X120.598Y-97.235
X120.598Y-98.335
X120.598Y-98.835
X120.598Y-107.772
X120.598Y-111.297
X120.598Y-111.797
X120.598Y-112.897
X120.598Y-113.397
X120.598Y-122.334
X120.598Y-125.859
X120.598Y-126.359
X120.598Y-127.459
X120.598Y-127.959
X120.598Y-136.896
X120.598Y-140.421
X120.598Y-140.921
X120.598Y-142.021
X120.598Y-142.521
X120.673Y-47.819
X120.673Y-50.648
X120.673Y-62.381
X120.673Y-65.211
X120.673Y-76.943
X120.673Y-79.773
X120.673Y-91.505
X120.673Y-94.335
X120.673Y-106.067
X120.673Y-108.897
X120.673Y-120.629
X120.673Y-123.459
X120.673Y-135.191
X120.673Y-138.021
X121.073Y-49.523
X121.073Y-64.086
X121.073Y-78.648
X121.073Y-93.21
X121.073Y-107.772
X121.073Y-122.334
X121.073Y-136.896
X121.148Y-53.048
X121.148Y-53.548
X121.148Y-54.648
X121.148Y-55.148
X121.148Y-67.611
X121.148Y-68.111
X121.148Y-69.211
X121.148Y-69.711
X121.148Y-82.173
X121.148Y-82.673
X121.148Y-83.773
X121.148Y-84.273
X121.148Y-96.735
X121.148Y-97.235
X121.148Y-98.335
X121.148Y-98.835
X121.148Y-111.297
X121.148Y-111.797
X121.148Y-112.897
X121.148Y-113.397
X121.148Y-125.859
X121.148Y-126.359
X121.148Y-127.459
X121.148Y-127.959
X121.148Y-140.421
X121.148Y-140.921
X121.148Y-142.021
X121.148Y-142.521
X121.323Y-48.623
X121.323Y-63.186
X121.323Y-77.748
X121.323Y-92.31
X121.323Y-106.872
X121.323Y-121.434
X121.323Y-135.996
X121.498Y-50.398
X121.498Y-50.798
X121.498Y-51.198
X121.498Y-64.961
X121.498Y-65.361
X121.498Y-65.761
X121.498Y-79.523
X121.498Y-79.923
X121.498Y-80.323
X121.498Y-94.085
X121.498Y-94.485
X121.498Y-94.885
X121.498Y-108.647
X121.498Y-109.047
X121.498Y-109.447
X121.498Y-123.209
X121.498Y-123.609
X121.498Y-124.009
X121.498Y-137.771
X121.498Y-138.171
X121.498Y-138.571
X121.523Y-49.523
X121.523Y-64.086
X121.523Y-78.648
X121.523Y-93.21
X121.523Y-107.772
X121.523Y-122.334
X121.523Y-136.896
X121.683Y-48.933
X121.683Y-63.496
X121.683Y-78.058
X121.683Y-92.62
X121.683Y-107.182
X121.683Y-121.744
X121.683Y-136.306
X121.898Y-50.398
X121.898Y-50.798
X121.898Y-64.961
X121.898Y-65.361
X121.898Y-79.523
X121.898Y-79.923
X121.898Y-94.085
X121.898Y-94.485
X121.898Y-108.647
X121.898Y-109.047
X121.898Y-123.209
X121.898Y-123.609
X121.898Y-137.771
X121.898Y-138.171
X122.023Y-53.048
X122.023Y-53.548
X122.023Y-67.611
X122.023Y-68.111
X122.023Y-82.173
X122.023Y-82.673
X122.023Y-96.735
X122.023Y-97.235
X122.023Y-111.297
X122.023Y-111.797
X122.023Y-125.859
X122.023Y-126.359
X122.023Y-140.421
X122.023Y-140.921
X122.248Y-48.623
X122.248Y-63.186
X122.248Y-77.748
X122.248Y-92.31
X122.248Y-106.872
X122.248Y-121.434
X122.248Y-135.996
X122.298Y-50.398
X122.298Y-50.798
X122.298Y-51.198
X122.298Y-64.961
X122.298Y-65.361
X122.298Y-65.761
X122.298Y-79.523
X122.298Y-79.923
X122.298Y-80.323
X122.298Y-94.085
X122.298Y-94.485
X122.298Y-94.885
X122.298Y-108.647
X122.298Y-109.047
X122.298Y-109.447
X122.298Y-123.209
X122.298Y-123.609
X122.298Y-124.009
X122.298Y-137.771
X122.298Y-138.171
X122.298Y-138.571
X122.573Y-53.048
X122.573Y-53.548
X122.573Y-67.611
X122.573Y-68.111
X122.573Y-82.173
X122.573Y-82.673
X122.573Y-96.735
X122.573Y-97.235
X122.573Y-111.297
X122.573Y-111.797
X122.573Y-125.859
X122.573Y-126.359
X122.573Y-140.421
X122.573Y-140.921
X122.608Y-48.933
X122.608Y-63.496
X122.608Y-78.058
X122.608Y-92.62
X122.608Y-107.182
X122.608Y-121.744
X122.608Y-136.306
X122.698Y-50.398
X122.698Y-51.198
X122.698Y-64.961
X122.698Y-65.761
X122.698Y-79.523
X122.698Y-80.323
X122.698Y-94.085
X122.698Y-94.885
X122.698Y-108.647
X122.698Y-109.447
X122.698Y-123.209
X122.698Y-124.009
X122.698Y-137.771
X122.698Y-138.571
X123.098Y-51.198
X123.098Y-65.761
X123.098Y-80.323
X123.098Y-94.885
X123.098Y-109.447
X123.098Y-124.009
X123.098Y-138.571
X123.168Y-48.623
X123.168Y-63.186
X123.168Y-77.748
X123.168Y-92.31
X123.168Y-106.872
X123.168Y-121.434
X123.168Y-135.996
X123.528Y-48.933
X123.528Y-63.496
X123.528Y-78.058
X123.528Y-92.62
X123.528Y-107.182
X123.528Y-121.744
X123.528Y-136.306
X123.623Y-55.948
X123.623Y-70.511
X123.623Y-85.073
X123.623Y-99.635
X123.623Y-114.197
X123.623Y-128.759
X123.623Y-143.321
X123.673Y-54.748
X123.673Y-69.311
X123.673Y-83.873
X123.673Y-98.435
X123.673Y-112.997
X123.673Y-127.559
X123.673Y-142.121
X123.923Y-55.348
X123.923Y-69.911
X123.923Y-84.473
X123.923Y-99.035
X123.923Y-113.597
X123.923Y-128.159
X123.923Y-142.721
X124.098Y-48.623
X124.098Y-63.186
X124.098Y-77.748
X124.098Y-92.31
X124.098Y-106.872
X124.098Y-121.434
X124.098Y-135.996
X124.458Y-48.933
X124.458Y-63.496
X124.458Y-78.058
X124.458Y-92.62
X124.458Y-107.182
X124.458Y-121.744
X124.458Y-136.306
X124.723Y-54.868
X124.723Y-69.431
X124.723Y-83.993
X124.723Y-98.555
X124.723Y-113.117
X124.723Y-127.679
X124.723Y-142.241
X124.898Y-53.948
X124.898Y-68.511
X124.898Y-83.073
X124.898Y-97.635
X124.898Y-112.197
X124.898Y-126.759
X124.898Y-141.321
X125.023Y-49.923
X125.023Y-50.473
X125.023Y-51.323
X125.023Y-51.873
X125.023Y-52.723
X125.023Y-53.273
X125.023Y-64.486
X125.023Y-65.036
X125.023Y-65.886
X125.023Y-66.436
X125.023Y-67.286
X125.023Y-67.836
X125.023Y-79.048
X125.023Y-79.598
X125.023Y-80.448
X125.023Y-80.998
X125.023Y-81.848
X125.023Y-82.398
X125.023Y-93.61
X125.023Y-94.16
X125.023Y-95.01
X125.023Y-95.56
X125.023Y-96.41
X125.023Y-96.96
X125.023Y-108.172
X125.023Y-108.722
X125.023Y-109.572
X125.023Y-110.122
X125.023Y-110.972
X125.023Y-111.522
X125.023Y-122.734
X125.023Y-123.284
X125.023Y-124.134
X125.023Y-124.684
X125.023Y-125.534
X125.023Y-126.084
X125.023Y-137.296
X125.023Y-137.846
X125.023Y-138.696
X125.023Y-139.246
X125.023Y-140.096
X125.023Y-140.646
X125.523Y-49.923
X125.523Y-50.473
X125.523Y-51.323
X125.523Y-51.873
X125.523Y-52.723
X125.523Y-53.273
X125.523Y-64.486
X125.523Y-65.036
X125.523Y-65.886
X125.523Y-66.436
X125.523Y-67.286
X125.523Y-67.836
X125.523Y-79.048
X125.523Y-79.598
X125.523Y-80.448
X125.523Y-80.998
X125.523Y-81.848
X125.523Y-82.398
X125.523Y-93.61
X125.523Y-94.16
X125.523Y-95.01
X125.523Y-95.56
X125.523Y-96.41
X125.523Y-96.96
X125.523Y-108.172
X125.523Y-108.722
X125.523Y-109.572
X125.523Y-110.122
X125.523Y-110.972
X125.523Y-111.522
X125.523Y-122.734
X125.523Y-123.284
X125.523Y-124.134
X125.523Y-124.684
X125.523Y-125.534
X125.523Y-126.084
X125.523Y-137.296
X125.523Y-137.846
X125.523Y-138.696
X125.523Y-139.246
X125.523Y-140.096
X125.523Y-140.646
X125.863Y-47.663
X125.863Y-54.863
X125.863Y-62.226
X125.863Y-69.426
X125.863Y-76.788
X125.863Y-83.988
X125.863Y-91.35
X125.863Y-98.55
X125.863Y-105.912
X125.863Y-113.112
X125.863Y-120.474
X125.863Y-127.674
X125.863Y-135.036
X125.863Y-142.236
X125.873Y-55.823
X125.873Y-70.386
X125.873Y-84.948
X125.873Y-99.51
X125.873Y-114.072
X125.873Y-128.634
X125.873Y-143.196
X126.223Y-47.974
X126.223Y-55.173
X126.223Y-62.536
X126.223Y-69.736
X126.223Y-77.098
X126.223Y-84.298
X126.223Y-91.66
X126.223Y-98.86
X126.223Y-106.222
X126.223Y-113.422
X126.223Y-120.784
X126.223Y-127.984
X126.223Y-135.346
X126.223Y-142.546
X126.233Y-56.133
X126.233Y-70.696
X126.233Y-85.258
X126.233Y-99.82
X126.233Y-114.382
X126.233Y-128.944
X126.233Y-143.506
X126.688Y-47.663
X126.688Y-62.226
X126.688Y-76.788
X126.688Y-91.35
X126.688Y-105.912
X126.688Y-120.474
X126.688Y-135.036
X126.698Y-55.823
X126.698Y-70.386
X126.698Y-84.948
X126.698Y-99.51
X126.698Y-114.072
X126.698Y-128.634
X126.698Y-143.196
X127.048Y-47.974
X127.048Y-62.536
X127.048Y-77.098
X127.048Y-91.66
X127.048Y-106.222
X127.048Y-120.784
X127.048Y-135.346
X127.058Y-56.133
X127.058Y-70.696
X127.058Y-85.258
X127.058Y-99.82
X127.058Y-114.382
X127.058Y-128.944
X127.058Y-143.506
X127.513Y-55.813
X127.513Y-70.376
X127.513Y-84.938
X127.513Y-99.5
X127.513Y-114.062
X127.513Y-128.624
X127.513Y-143.186
X127.523Y-47.923
X127.523Y-62.486
X127.523Y-77.048
X127.523Y-91.61
X127.523Y-106.172
X127.523Y-120.734
X127.523Y-135.296
X127.873Y-47.673
X127.873Y-56.123
X127.873Y-62.236
X127.873Y-70.686
X127.873Y-76.798
X127.873Y-85.248
X127.873Y-91.36
X127.873Y-99.81
X127.873Y-105.922
X127.873Y-114.372
X127.873Y-120.484
X127.873Y-128.934
X127.873Y-135.046
X127.873Y-143.496
X142.771Y-56.434
X142.771Y-56.834
X142.771Y-83.187
X142.771Y-83.587
X142.771Y-109.94
X142.771Y-110.34
X142.771Y-136.71
X142.771Y-137.11
X143.171Y-56.834
X143.171Y-62.088
X143.171Y-83.587
X143.171Y-88.841
X143.171Y-110.34
X143.171Y-115.594
X143.171Y-137.11
X143.171Y-142.365
T2
X94.531Y-57.824
X94.531Y-83.195
X94.531Y-108.566
X94.531Y-133.937
X94.843Y-47.237
X94.843Y-49.015
X94.843Y-49.904
X94.843Y-50.793
X94.843Y-72.608
X94.843Y-74.386
X94.843Y-75.275
X94.843Y-76.164
X94.843Y-97.979
X94.843Y-99.757
X94.843Y-100.646
X94.843Y-101.535
X94.843Y-123.35
X94.843Y-125.128
X94.843Y-126.017
X94.843Y-126.906
X95.101Y-62.264
X95.101Y-87.635
X95.101Y-113.006
X95.101Y-138.377
X95.2Y-53.749
X95.2Y-79.12
X95.2Y-104.491
X95.2Y-129.862
X95.224Y-51.837
X95.224Y-52.797
X95.224Y-54.73
X95.224Y-55.492
X95.224Y-56.48
X95.224Y-57.933
X95.224Y-60.671
X95.224Y-77.208
X95.224Y-78.168
X95.224Y-80.101
X95.224Y-80.863
X95.224Y-81.851
X95.224Y-83.304
X95.224Y-86.042
X95.224Y-102.579
X95.224Y-103.539
X95.224Y-105.472
X95.224Y-106.234
X95.224Y-107.222
X95.224Y-108.675
X95.224Y-111.413
X95.224Y-127.95
X95.224Y-128.91
X95.224Y-130.843
X95.224Y-131.605
X95.224Y-132.593
X95.224Y-134.046
X95.224Y-136.784
X95.363Y-63.812
X95.363Y-64.63
X95.363Y-65.59
X95.363Y-89.183
X95.363Y-90.001
X95.363Y-90.961
X95.363Y-114.554
X95.363Y-115.372
X95.363Y-116.332
X95.363Y-139.925
X95.363Y-140.743
X95.363Y-141.703
X95.441Y-66.764
X95.441Y-92.135
X95.441Y-117.506
X95.441Y-142.877
X95.877Y-61.588
X95.877Y-86.959
X95.877Y-112.33
X95.877Y-137.701
X96.041Y-65.364
X96.041Y-90.735
X96.041Y-116.106
X96.041Y-141.477
X96.118Y-66.654
X96.118Y-92.025
X96.118Y-117.396
X96.118Y-142.767
X96.261Y-47.494
X96.261Y-72.865
X96.261Y-98.236
X96.261Y-123.607
X96.837Y-61.588
X96.837Y-86.959
X96.837Y-112.33
X96.837Y-137.701
X96.911Y-48.594
X96.911Y-73.965
X96.911Y-99.336
X96.911Y-124.707
X97.037Y-63.84
X97.037Y-89.211
X97.037Y-114.582
X97.037Y-139.953
X97.078Y-66.654
X97.078Y-92.025
X97.078Y-117.396
X97.078Y-142.767
X97.129Y-58.413
X97.129Y-59.429
X97.129Y-83.784
X97.129Y-84.8
X97.129Y-109.155
X97.129Y-110.171
X97.129Y-134.526
X97.129Y-135.542
X97.164Y-64.348
X97.164Y-89.719
X97.164Y-115.09
X97.164Y-140.461
X97.256Y-52.952
X97.256Y-53.46
X97.256Y-53.935
X97.256Y-54.476
X97.256Y-56.127
X97.256Y-57.905
X97.256Y-78.323
X97.256Y-78.831
X97.256Y-79.306
X97.256Y-79.847
X97.256Y-81.498
X97.256Y-83.276
X97.256Y-103.694
X97.256Y-104.202
X97.256Y-104.677
X97.256Y-105.218
X97.256Y-106.869
X97.256Y-108.647
X97.256Y-129.065
X97.256Y-129.573
X97.256Y-130.048
X97.256Y-130.589
X97.256Y-132.24
X97.256Y-134.018
X97.361Y-67.884
X97.361Y-93.255
X97.361Y-118.626
X97.361Y-143.997
X97.52Y-59.82
X97.52Y-85.191
X97.52Y-110.562
X97.52Y-135.933
X97.538Y-49.523
X97.538Y-74.894
X97.538Y-100.265
X97.538Y-125.636
X97.551Y-52.059
X97.551Y-77.43
X97.551Y-102.801
X97.551Y-128.172
X97.553Y-64.967
X97.553Y-90.338
X97.553Y-115.709
X97.553Y-141.08
X97.571Y-51.554
X97.571Y-76.925
X97.571Y-102.296
X97.571Y-127.667
X97.637Y-57.397
X97.637Y-82.768
X97.637Y-108.139
X97.637Y-133.51
X97.665Y-61.588
X97.665Y-86.959
X97.665Y-112.33
X97.665Y-137.701
X97.672Y-62.951
X97.672Y-88.322
X97.672Y-113.693
X97.672Y-139.064
X97.764Y-53.206
X97.764Y-53.714
X97.764Y-54.222
X97.764Y-78.577
X97.764Y-79.085
X97.764Y-79.593
X97.764Y-103.948
X97.764Y-104.456
X97.764Y-104.964
X97.764Y-129.319
X97.764Y-129.827
X97.764Y-130.335
X97.891Y-56.127
X97.891Y-57.905
X97.891Y-81.498
X97.891Y-83.276
X97.891Y-106.869
X97.891Y-108.647
X97.891Y-132.24
X97.891Y-134.018
X98.018Y-57.016
X98.018Y-82.387
X98.018Y-107.758
X98.018Y-133.129
X98.053Y-63.967
X98.053Y-64.967
X98.053Y-89.338
X98.053Y-90.338
X98.053Y-114.709
X98.053Y-115.709
X98.053Y-140.08
X98.053Y-141.08
X98.18Y-62.697
X98.18Y-88.068
X98.18Y-113.439
X98.18Y-138.81
X98.232Y-52.064
X98.232Y-77.435
X98.232Y-102.806
X98.232Y-128.177
X98.498Y-49.523
X98.498Y-74.894
X98.498Y-100.265
X98.498Y-125.636
X98.561Y-64.475
X98.561Y-89.846
X98.561Y-115.217
X98.561Y-140.588
X98.625Y-61.588
X98.625Y-86.959
X98.625Y-112.33
X98.625Y-137.701
X98.653Y-59.302
X98.653Y-84.673
X98.653Y-110.044
X98.653Y-135.415
X98.656Y-51.549
X98.656Y-76.92
X98.656Y-102.291
X98.656Y-127.662
X98.72Y-59.81
X98.72Y-85.181
X98.72Y-110.552
X98.72Y-135.923
X98.912Y-52.048
X98.912Y-77.419
X98.912Y-102.79
X98.912Y-128.161
X99.028Y-66.679
X99.028Y-92.05
X99.028Y-117.421
X99.028Y-142.792
X99.161Y-51.555
X99.161Y-76.926
X99.161Y-102.297
X99.161Y-127.668
X99.288Y-61.461
X99.288Y-86.832
X99.288Y-112.203
X99.288Y-137.574
X99.316Y-49.523
X99.316Y-74.894
X99.316Y-100.265
X99.316Y-125.636
X99.415Y-53.714
X99.415Y-54.984
X99.415Y-56.254
X99.415Y-57.524
X99.415Y-79.085
X99.415Y-80.355
X99.415Y-81.625
X99.415Y-82.895
X99.415Y-104.456
X99.415Y-105.726
X99.415Y-106.996
X99.415Y-108.266
X99.415Y-129.827
X99.415Y-131.097
X99.415Y-132.367
X99.415Y-133.637
X99.593Y-52.053
X99.593Y-77.424
X99.593Y-102.795
X99.593Y-128.166
X99.841Y-47.184
X99.841Y-72.555
X99.841Y-97.926
X99.841Y-123.297
X100.051Y-61.454
X100.051Y-86.825
X100.051Y-112.196
X100.051Y-137.567
X100.212Y-63.804
X100.212Y-64.63
X100.212Y-89.175
X100.212Y-90.001
X100.212Y-114.546
X100.212Y-115.372
X100.212Y-139.917
X100.212Y-140.743
X100.251Y-58.829
X100.251Y-84.2
X100.251Y-109.571
X100.251Y-134.942
X100.274Y-52.043
X100.274Y-77.414
X100.274Y-102.785
X100.274Y-128.156
X100.276Y-49.523
X100.276Y-74.894
X100.276Y-100.265
X100.276Y-125.636
X100.304Y-51.555
X100.304Y-59.302
X100.304Y-76.926
X100.304Y-84.673
X100.304Y-102.297
X100.304Y-110.044
X100.304Y-127.668
X100.304Y-135.415
X100.685Y-53.714
X100.685Y-54.984
X100.685Y-56.254
X100.685Y-57.524
X100.685Y-79.085
X100.685Y-80.355
X100.685Y-81.625
X100.685Y-82.895
X100.685Y-104.456
X100.685Y-105.726
X100.685Y-106.996
X100.685Y-108.266
X100.685Y-129.827
X100.685Y-131.097
X100.685Y-132.367
X100.685Y-133.637
X101.001Y-66.054
X101.001Y-91.425
X101.001Y-116.796
X101.001Y-142.167
X101.031Y-47.174
X101.031Y-72.545
X101.031Y-97.916
X101.031Y-123.287
X101.301Y-61.704
X101.301Y-62.254
X101.301Y-87.075
X101.301Y-87.625
X101.301Y-112.446
X101.301Y-112.996
X101.301Y-137.817
X101.301Y-138.367
X101.732Y-63.812
X101.732Y-66.679
X101.732Y-89.183
X101.732Y-92.05
X101.732Y-114.554
X101.732Y-117.421
X101.732Y-139.925
X101.732Y-142.792
X101.828Y-51.555
X101.828Y-52.063
X101.828Y-76.926
X101.828Y-77.434
X101.828Y-102.297
X101.828Y-102.805
X101.828Y-127.668
X101.828Y-128.176
X101.955Y-53.714
X101.955Y-54.984
X101.955Y-56.254
X101.955Y-57.524
X101.955Y-59.81
X101.955Y-79.085
X101.955Y-80.355
X101.955Y-81.625
X101.955Y-82.895
X101.955Y-85.181
X101.955Y-104.456
X101.955Y-105.726
X101.955Y-106.996
X101.955Y-108.266
X101.955Y-110.552
X101.955Y-129.827
X101.955Y-131.097
X101.955Y-132.367
X101.955Y-133.637
X101.955Y-135.923
X102.209Y-59.302
X102.209Y-84.673
X102.209Y-110.044
X102.209Y-135.415
X102.463Y-59.81
X102.463Y-85.181
X102.463Y-110.552
X102.463Y-135.923
X102.692Y-63.812
X102.692Y-66.679
X102.692Y-89.183
X102.692Y-92.05
X102.692Y-114.554
X102.692Y-117.421
X102.692Y-139.925
X102.692Y-142.792
X102.701Y-61.879
X102.701Y-87.25
X102.701Y-112.621
X102.701Y-137.992
X102.844Y-49.904
X102.844Y-75.275
X102.844Y-100.646
X102.844Y-126.017
X103.098Y-47.491
X103.098Y-72.862
X103.098Y-98.233
X103.098Y-123.604
X103.176Y-58.929
X103.176Y-84.3
X103.176Y-109.671
X103.176Y-135.042
X103.225Y-53.714
X103.225Y-54.984
X103.225Y-56.254
X103.225Y-57.524
X103.225Y-79.085
X103.225Y-80.355
X103.225Y-81.625
X103.225Y-82.895
X103.225Y-104.456
X103.225Y-105.726
X103.225Y-106.996
X103.225Y-108.266
X103.225Y-129.827
X103.225Y-131.097
X103.225Y-132.367
X103.225Y-133.637
X103.352Y-49.904
X103.352Y-61.334
X103.352Y-75.275
X103.352Y-86.705
X103.352Y-100.646
X103.352Y-112.076
X103.352Y-126.017
X103.352Y-137.447
X103.479Y-59.81
X103.479Y-85.181
X103.479Y-110.552
X103.479Y-135.923
X103.501Y-62.729
X103.501Y-88.1
X103.501Y-113.471
X103.501Y-138.842
X103.701Y-64.779
X103.701Y-90.15
X103.701Y-115.521
X103.701Y-140.892
X103.851Y-66.204
X103.851Y-91.575
X103.851Y-116.946
X103.851Y-142.317
X103.888Y-61.715
X103.888Y-87.086
X103.888Y-112.457
X103.888Y-137.828
X103.951Y-62.529
X103.951Y-87.9
X103.951Y-113.271
X103.951Y-138.642
X103.987Y-49.523
X103.987Y-74.894
X103.987Y-100.265
X103.987Y-125.636
X104.368Y-58.921
X104.368Y-59.443
X104.368Y-84.292
X104.368Y-84.814
X104.368Y-109.663
X104.368Y-110.185
X104.368Y-135.034
X104.368Y-135.556
X104.651Y-57.524
X104.651Y-82.895
X104.651Y-108.266
X104.651Y-133.637
X104.726Y-65.754
X104.726Y-91.125
X104.726Y-116.496
X104.726Y-141.867
X104.751Y-56.924
X104.751Y-82.295
X104.751Y-107.666
X104.751Y-133.037
X104.876Y-52.952
X104.876Y-53.714
X104.876Y-54.349
X104.876Y-58.54
X104.876Y-59.048
X104.876Y-61.715
X104.876Y-66.679
X104.876Y-78.323
X104.876Y-79.085
X104.876Y-79.72
X104.876Y-83.911
X104.876Y-84.419
X104.876Y-87.086
X104.876Y-92.05
X104.876Y-103.694
X104.876Y-104.456
X104.876Y-105.091
X104.876Y-109.282
X104.876Y-109.79
X104.876Y-112.457
X104.876Y-117.421
X104.876Y-129.065
X104.876Y-129.827
X104.876Y-130.462
X104.876Y-134.653
X104.876Y-135.161
X104.876Y-137.828
X104.876Y-142.792
X105.003Y-49.523
X105.003Y-74.894
X105.003Y-100.265
X105.003Y-125.636
X105.087Y-63.221
X105.087Y-64.181
X105.087Y-88.592
X105.087Y-89.552
X105.087Y-113.963
X105.087Y-114.923
X105.087Y-139.334
X105.087Y-140.294
X105.338Y-57.103
X105.338Y-82.474
X105.338Y-107.845
X105.338Y-133.216
X105.384Y-53.714
X105.384Y-54.349
X105.384Y-55.746
X105.384Y-56.254
X105.384Y-58.667
X105.384Y-79.085
X105.384Y-79.72
X105.384Y-81.117
X105.384Y-81.625
X105.384Y-84.038
X105.384Y-104.456
X105.384Y-105.091
X105.384Y-106.488
X105.384Y-106.996
X105.384Y-109.409
X105.384Y-129.827
X105.384Y-130.462
X105.384Y-131.859
X105.384Y-132.367
X105.384Y-134.78
X105.409Y-53.003
X105.409Y-78.374
X105.409Y-103.745
X105.409Y-129.116
X105.621Y-49.864
X105.621Y-75.235
X105.621Y-100.606
X105.621Y-125.977
X105.666Y-61.715
X105.666Y-87.086
X105.666Y-112.457
X105.666Y-137.828
X105.901Y-62.544
X105.901Y-87.915
X105.901Y-113.286
X105.901Y-138.657
X106.012Y-63.221
X106.012Y-64.181
X106.012Y-88.592
X106.012Y-89.552
X106.012Y-113.963
X106.012Y-114.923
X106.012Y-139.334
X106.012Y-140.294
X106.121Y-60.464
X106.121Y-85.835
X106.121Y-111.206
X106.121Y-136.577
X106.441Y-50.564
X106.441Y-75.935
X106.441Y-101.306
X106.441Y-126.677
X106.527Y-47.872
X106.527Y-73.243
X106.527Y-98.614
X106.527Y-123.985
X106.601Y-67.404
X106.601Y-92.775
X106.601Y-118.146
X106.601Y-143.517
X106.654Y-61.715
X106.654Y-87.086
X106.654Y-112.457
X106.654Y-137.828
X106.937Y-63.221
X106.937Y-64.181
X106.937Y-65.719
X106.937Y-66.679
X106.937Y-88.592
X106.937Y-89.552
X106.937Y-91.09
X106.937Y-92.05
X106.937Y-113.963
X106.937Y-114.923
X106.937Y-116.461
X106.937Y-117.421
X106.937Y-139.334
X106.937Y-140.294
X106.937Y-141.832
X106.937Y-142.792
X106.941Y-62.624
X106.941Y-87.995
X106.941Y-113.366
X106.941Y-138.737
X107.035Y-52.571
X107.035Y-77.942
X107.035Y-103.313
X107.035Y-128.684
X107.121Y-59.464
X107.121Y-84.835
X107.121Y-110.206
X107.121Y-135.577
X107.162Y-48.507
X107.162Y-73.878
X107.162Y-99.249
X107.162Y-124.62
X107.416Y-53.615
X107.416Y-54.575
X107.416Y-55.393
X107.416Y-56.381
X107.416Y-78.986
X107.416Y-79.946
X107.416Y-80.764
X107.416Y-81.752
X107.416Y-104.357
X107.416Y-105.317
X107.416Y-106.135
X107.416Y-107.123
X107.416Y-129.728
X107.416Y-130.688
X107.416Y-131.506
X107.416Y-132.494
X108.559Y-56.762
X108.559Y-82.133
X108.559Y-107.504
X108.559Y-132.875
X108.601Y-63.144
X108.601Y-88.515
X108.601Y-113.886
X108.601Y-139.257
X108.641Y-65.884
X108.641Y-91.255
X108.641Y-116.626
X108.641Y-141.997
X108.671Y-64.474
X108.671Y-89.845
X108.671Y-115.216
X108.671Y-140.587
X108.691Y-67.054
X108.691Y-92.425
X108.691Y-117.796
X108.691Y-143.167
X108.731Y-49.294
X108.731Y-50.544
X108.731Y-74.665
X108.731Y-75.915
X108.731Y-100.036
X108.731Y-101.286
X108.731Y-125.407
X108.731Y-126.657
X108.741Y-51.804
X108.741Y-77.175
X108.741Y-102.546
X108.741Y-127.917
X136.106Y-47.51
X136.106Y-48.16
X136.106Y-48.81
X136.106Y-49.46
X136.106Y-50.11
X136.106Y-50.76
X136.106Y-51.41
X136.106Y-52.06
X136.106Y-52.71
X136.106Y-74.263
X136.106Y-74.913
X136.106Y-75.563
X136.106Y-76.213
X136.106Y-76.863
X136.106Y-77.513
X136.106Y-78.163
X136.106Y-78.813
X136.106Y-79.463
X136.106Y-101.016
X136.106Y-101.666
X136.106Y-102.316
X136.106Y-102.966
X136.106Y-103.616
X136.106Y-104.266
X136.106Y-104.916
X136.106Y-105.566
X136.106Y-106.216
X136.106Y-127.786
X136.106Y-128.436
X136.106Y-129.086
X136.106Y-129.736
X136.106Y-130.386
X136.106Y-131.036
X136.106Y-131.686
X136.106Y-132.336
X136.106Y-132.986
X136.339Y-46.514
X136.339Y-73.267
X136.339Y-100.02
X136.339Y-126.791
X136.426Y-56.055
X136.426Y-82.808
X136.426Y-109.561
X136.426Y-136.331
X136.526Y-57.955
X136.526Y-59.355
X136.526Y-60.655
X136.526Y-84.708
X136.526Y-86.108
X136.526Y-87.408
X136.526Y-111.461
X136.526Y-112.861
X136.526Y-114.161
X136.526Y-138.231
X136.526Y-139.631
X136.526Y-140.931
X136.756Y-47.51
X136.756Y-48.16
X136.756Y-48.81
X136.756Y-52.06
X136.756Y-52.71
X136.756Y-61.81
X136.756Y-62.46
X136.756Y-63.11
X136.756Y-64.41
X136.756Y-74.263
X136.756Y-74.913
X136.756Y-75.563
X136.756Y-78.813
X136.756Y-79.463
X136.756Y-88.563
X136.756Y-89.213
X136.756Y-89.863
X136.756Y-91.163
X136.756Y-101.016
X136.756Y-101.666
X136.756Y-102.316
X136.756Y-105.566
X136.756Y-106.216
X136.756Y-115.316
X136.756Y-115.966
X136.756Y-116.616
X136.756Y-117.916
X136.756Y-127.786
X136.756Y-128.436
X136.756Y-129.086
X136.756Y-132.336
X136.756Y-132.986
X136.756Y-142.086
X136.756Y-142.736
X136.756Y-143.386
X136.756Y-144.686
X137.131Y-49.764
X137.131Y-51.285
X137.131Y-76.517
X137.131Y-78.038
X137.131Y-103.27
X137.131Y-104.791
X137.131Y-130.04
X137.131Y-131.561
X137.406Y-46.21
X137.406Y-46.86
X137.406Y-47.51
X137.406Y-48.16
X137.406Y-48.81
X137.406Y-52.06
X137.406Y-52.71
X137.406Y-62.46
X137.406Y-63.11
X137.406Y-64.41
X137.406Y-72.963
X137.406Y-73.613
X137.406Y-74.263
X137.406Y-74.913
X137.406Y-75.563
X137.406Y-78.813
X137.406Y-79.463
X137.406Y-89.213
X137.406Y-89.863
X137.406Y-91.163
X137.406Y-99.716
X137.406Y-100.366
X137.406Y-101.016
X137.406Y-101.666
X137.406Y-102.316
X137.406Y-105.566
X137.406Y-106.216
X137.406Y-115.966
X137.406Y-116.616
X137.406Y-117.916
X137.406Y-126.486
X137.406Y-127.136
X137.406Y-127.786
X137.406Y-128.436
X137.406Y-129.086
X137.406Y-132.336
X137.406Y-132.986
X137.406Y-142.736
X137.406Y-143.386
X137.406Y-144.686
X137.605Y-49.764
X137.605Y-51.285
X137.605Y-76.517
X137.605Y-78.038
X137.605Y-103.27
X137.605Y-104.791
X137.605Y-130.04
X137.605Y-131.561
X138.056Y-46.21
X138.056Y-46.86
X138.056Y-47.51
X138.056Y-48.16
X138.056Y-72.963
X138.056Y-73.613
X138.056Y-74.263
X138.056Y-74.913
X138.056Y-99.716
X138.056Y-100.366
X138.056Y-101.016
X138.056Y-101.666
X138.056Y-126.486
X138.056Y-127.136
X138.056Y-127.786
X138.056Y-128.436
X138.131Y-49.764
X138.131Y-76.517
X138.131Y-103.27
X138.131Y-130.04
X138.371Y-64.47
X138.371Y-91.223
X138.371Y-117.976
X138.371Y-144.746
X138.605Y-49.764
X138.605Y-76.517
X138.605Y-103.27
X138.605Y-130.04
X138.631Y-52.445
X138.631Y-79.198
X138.631Y-105.951
X138.631Y-132.721
X138.636Y-57.212
X138.636Y-62.41
X138.636Y-83.965
X138.636Y-89.163
X138.636Y-110.718
X138.636Y-115.916
X138.636Y-137.488
X138.636Y-142.686
X138.706Y-46.21
X138.706Y-46.86
X138.706Y-47.51
X138.706Y-72.963
X138.706Y-73.613
X138.706Y-74.263
X138.706Y-99.716
X138.706Y-100.366
X138.706Y-101.016
X138.706Y-126.486
X138.706Y-127.136
X138.706Y-127.786
X139.356Y-46.21
X139.356Y-46.86
X139.356Y-47.51
X139.356Y-72.963
X139.356Y-73.613
X139.356Y-74.263
X139.356Y-99.716
X139.356Y-100.366
X139.356Y-101.016
X139.356Y-126.486
X139.356Y-127.136
X139.356Y-127.786
X139.591Y-52.445
X139.591Y-79.198
X139.591Y-105.951
X139.591Y-132.721
X140.006Y-63.76
X140.006Y-90.513
X140.006Y-117.266
X140.006Y-144.036
X140.381Y-52.455
X140.381Y-79.208
X140.381Y-105.961
X140.381Y-132.731
X140.389Y-46.514
X140.389Y-73.267
X140.389Y-100.02
X140.389Y-126.791
X140.496Y-49.035
X140.496Y-75.788
X140.496Y-102.541
X140.496Y-129.311
X140.541Y-60.345
X140.541Y-87.098
X140.541Y-113.851
X140.541Y-140.621
X141.226Y-49.075
X141.226Y-49.875
X141.226Y-75.828
X141.226Y-76.628
X141.226Y-102.581
X141.226Y-103.381
X141.226Y-129.351
X141.226Y-130.151
X141.341Y-52.455
X141.341Y-79.208
X141.341Y-105.961
X141.341Y-132.731
X141.501Y-53.991
X141.501Y-59.277
X141.501Y-60.345
X141.501Y-80.744
X141.501Y-86.03
X141.501Y-87.098
X141.501Y-107.497
X141.501Y-112.783
X141.501Y-113.851
X141.501Y-134.268
X141.501Y-139.553
X141.501Y-140.621
X142.491Y-58.208
X142.491Y-59.277
X142.491Y-60.345
X142.491Y-84.961
X142.491Y-86.03
X142.491Y-87.098
X142.491Y-111.714
X142.491Y-112.783
X142.491Y-113.851
X142.491Y-138.485
X142.491Y-139.553
X142.491Y-140.621
X142.496Y-52.925
X142.496Y-79.678
X142.496Y-106.431
X142.496Y-133.201
X142.501Y-52.465
X142.501Y-79.218
X142.501Y-105.971
X142.501Y-132.741
X143.451Y-58.208
X143.451Y-59.277
X143.451Y-60.345
X143.451Y-63.431
X143.451Y-84.961
X143.451Y-86.03
X143.451Y-87.098
X143.451Y-90.184
X143.451Y-111.714
X143.451Y-112.783
X143.451Y-113.851
X143.451Y-116.937
X143.451Y-138.485
X143.451Y-139.553
X143.451Y-140.621
X143.451Y-143.708
X143.461Y-64.47
X143.461Y-91.223
X143.461Y-117.976
X143.461Y-144.746
X143.906Y-57.26
X143.906Y-62.46
X143.906Y-84.013
X143.906Y-89.213
X143.906Y-110.766
X143.906Y-115.966
X143.906Y-137.536
X143.906Y-142.736
X144.901Y-56.302
X144.901Y-83.055
X144.901Y-109.808
X144.901Y-136.579
X145.076Y-50.675
X145.076Y-77.428
X145.076Y-104.181
X145.076Y-130.951
X145.206Y-47.51
X145.206Y-74.263
X145.206Y-101.016
X145.206Y-127.786
X145.208Y-55.06
X145.208Y-63.431
X145.208Y-64.47
X145.208Y-81.813
X145.208Y-90.184
X145.208Y-91.223
X145.208Y-108.566
X145.208Y-116.937
X145.208Y-117.976
X145.208Y-135.336
X145.208Y-143.708
X145.208Y-144.746
X145.381Y-52.485
X145.381Y-53.405
X145.381Y-79.238
X145.381Y-80.158
X145.381Y-105.991
X145.381Y-106.911
X145.381Y-132.761
X145.381Y-133.681
X145.401Y-56.302
X145.401Y-83.055
X145.401Y-109.808
X145.401Y-136.579
X145.672Y-49.955
X145.672Y-76.708
X145.672Y-103.461
X145.672Y-130.231
X145.856Y-47.51
X145.856Y-74.263
X145.856Y-101.016
X145.856Y-127.786
X145.901Y-56.302
X145.901Y-83.055
X145.901Y-109.808
X145.901Y-136.579
X146.112Y-46.514
X146.112Y-73.267
X146.112Y-100.02
X146.112Y-126.791
X146.146Y-49.955
X146.146Y-76.708
X146.146Y-103.461
X146.146Y-130.231
X146.506Y-47.51
X146.506Y-74.263
X146.506Y-101.016
X146.506Y-127.786
X146.901Y-49.764
X146.901Y-76.517
X146.901Y-103.27
X146.901Y-130.04
X146.901Y-56.375
X146.901Y-83.128
X146.901Y-109.881
X146.901Y-136.651
X147.156Y-46.21
X147.156Y-46.86
X147.156Y-47.51
X147.156Y-72.963
X147.156Y-73.613
X147.156Y-74.263
X147.156Y-99.716
X147.156Y-100.366
X147.156Y-101.016
X147.156Y-126.486
X147.156Y-127.136
X147.156Y-127.786
X147.375Y-49.764
X147.375Y-76.517
X147.375Y-103.27
X147.375Y-130.04
X147.806Y-46.21
X147.806Y-46.86
X147.806Y-47.51
X147.806Y-72.963
X147.806Y-73.613
X147.806Y-74.263
X147.806Y-99.716
X147.806Y-100.366
X147.806Y-101.016
X147.806Y-126.486
X147.806Y-127.136
X147.806Y-127.786
X147.906Y-49.755
X147.906Y-76.508
X147.906Y-103.261
X147.906Y-130.031
X148.064Y-63.458
X148.064Y-90.211
X148.064Y-116.964
X148.064Y-143.734
X148.105Y-56.371
X148.105Y-59.326
X148.105Y-60.345
X148.105Y-61.366
X148.105Y-62.315
X148.105Y-83.124
X148.105Y-86.079
X148.105Y-87.098
X148.105Y-88.119
X148.105Y-89.068
X148.105Y-109.877
X148.105Y-112.832
X148.105Y-113.851
X148.105Y-114.872
X148.105Y-115.821
X148.105Y-136.647
X148.105Y-139.603
X148.105Y-140.621
X148.105Y-141.642
X148.105Y-142.591
X148.115Y-64.601
X148.115Y-91.354
X148.115Y-118.107
X148.115Y-144.877
X148.38Y-49.755
X148.38Y-76.508
X148.38Y-103.261
X148.38Y-130.031
X148.386Y-55.475
X148.386Y-82.228
X148.386Y-108.981
X148.386Y-135.751
X148.456Y-46.21
X148.456Y-46.86
X148.456Y-47.51
X148.456Y-72.963
X148.456Y-73.613
X148.456Y-74.263
X148.456Y-99.716
X148.456Y-100.366
X148.456Y-101.016
X148.456Y-126.486
X148.456Y-127.136
X148.456Y-127.786
X148.67Y-51.756
X148.67Y-78.509
X148.67Y-105.262
X148.67Y-132.032
X149.018Y-51.432
X149.018Y-78.185
X149.018Y-104.938
X149.018Y-131.708
X149.106Y-46.21
X149.106Y-46.86
X149.106Y-47.51
X149.106Y-59.86
X149.106Y-60.51
X149.106Y-61.16
X149.106Y-61.81
X149.106Y-64.41
X149.106Y-72.963
X149.106Y-73.613
X149.106Y-74.263
X149.106Y-86.613
X149.106Y-87.263
X149.106Y-87.913
X149.106Y-88.563
X149.106Y-91.163
X149.106Y-99.716
X149.106Y-100.366
X149.106Y-101.016
X149.106Y-113.366
X149.106Y-114.016
X149.106Y-114.666
X149.106Y-115.316
X149.106Y-117.916
X149.106Y-126.486
X149.106Y-127.136
X149.106Y-127.786
X149.106Y-140.136
X149.106Y-140.786
X149.106Y-141.436
X149.106Y-142.086
X149.106Y-144.686
X149.64Y-51.918
X149.64Y-78.671
X149.64Y-105.424
X149.64Y-132.194
X149.756Y-47.51
X149.756Y-48.16
X149.756Y-48.81
X149.756Y-49.46
X149.756Y-58.56
X149.756Y-60.51
X149.756Y-61.16
X149.756Y-61.81
X149.756Y-63.11
X149.756Y-64.41
X149.756Y-74.263
X149.756Y-74.913
X149.756Y-75.563
X149.756Y-76.213
X149.756Y-85.313
X149.756Y-87.263
X149.756Y-87.913
X149.756Y-88.563
X149.756Y-89.863
X149.756Y-91.163
X149.756Y-101.016
X149.756Y-101.666
X149.756Y-102.316
X149.756Y-102.966
X149.756Y-112.066
X149.756Y-114.016
X149.756Y-114.666
X149.756Y-115.316
X149.756Y-116.616
X149.756Y-117.916
X149.756Y-127.786
X149.756Y-128.436
X149.756Y-129.086
X149.756Y-129.736
X149.756Y-138.836
X149.756Y-140.786
X149.756Y-141.436
X149.756Y-142.086
X149.756Y-143.386
X149.756Y-144.686
X150.162Y-46.514
X150.162Y-73.267
X150.162Y-100.02
X150.162Y-126.791
X150.406Y-47.51
X150.406Y-48.16
X150.406Y-48.81
X150.406Y-49.46
X150.406Y-50.11
X150.406Y-50.76
X150.406Y-54.01
X150.406Y-54.66
X150.406Y-55.31
X150.406Y-55.96
X150.406Y-74.263
X150.406Y-74.913
X150.406Y-75.563
X150.406Y-76.213
X150.406Y-76.863
X150.406Y-77.513
X150.406Y-80.763
X150.406Y-81.413
X150.406Y-82.063
X150.406Y-82.713
X150.406Y-101.016
X150.406Y-101.666
X150.406Y-102.316
X150.406Y-102.966
X150.406Y-103.616
X150.406Y-104.266
X150.406Y-107.516
X150.406Y-108.166
X150.406Y-108.816
X150.406Y-109.466
X150.406Y-127.786
X150.406Y-128.436
X150.406Y-129.086
X150.406Y-129.736
X150.406Y-130.386
X150.406Y-131.036
X150.406Y-134.286
X150.406Y-134.936
X150.406Y-135.586
X150.406Y-136.236
T3
X139.916Y-53.585
X139.916Y-55.485
X139.916Y-80.338
X139.916Y-82.238
X139.916Y-107.091
X139.916Y-108.991
X139.916Y-133.861
X139.916Y-135.761
X144.951Y-57.702
X144.951Y-84.455
X144.951Y-111.208
X144.951Y-137.979
X145.901Y-57.127
X145.901Y-58.277
X145.901Y-83.88
X145.901Y-85.03
X145.901Y-110.633
X145.901Y-111.783
X145.901Y-137.404
X145.901Y-138.554
X146.851Y-57.702
X146.851Y-84.455
X146.851Y-111.208
X146.851Y-137.979
T4
X157.954Y-46.688
X157.954Y-61.553
X157.954Y-76.418
X157.954Y-91.283
X157.954Y-106.148
X157.954Y-121.013
X157.954Y-135.877
X158.454Y-55.263
X158.454Y-70.128
X158.454Y-84.993
X158.454Y-99.858
X158.454Y-114.723
X158.454Y-129.588
X158.454Y-144.452
X158.754Y-47.038
X158.754Y-47.663
X158.754Y-48.363
X158.754Y-53.363
X158.754Y-61.903
X158.754Y-62.528
X158.754Y-63.228
X158.754Y-68.228
X158.754Y-76.768
X158.754Y-77.393
X158.754Y-78.093
X158.754Y-83.093
X158.754Y-91.633
X158.754Y-92.258
X158.754Y-92.958
X158.754Y-97.958
X158.754Y-106.498
X158.754Y-107.123
X158.754Y-107.823
X158.754Y-112.823
X158.754Y-121.363
X158.754Y-121.988
X158.754Y-122.688
X158.754Y-127.688
X158.754Y-136.227
X158.754Y-136.852
X158.754Y-137.552
X158.754Y-142.552
X159.754Y-49.986
X159.754Y-50.986
X159.754Y-51.986
X159.754Y-64.851
X159.754Y-65.851
X159.754Y-66.851
X159.754Y-79.716
X159.754Y-80.716
X159.754Y-81.716
X159.754Y-94.581
X159.754Y-95.581
X159.754Y-96.581
X159.754Y-109.446
X159.754Y-110.446
X159.754Y-111.446
X159.754Y-124.311
X159.754Y-125.311
X159.754Y-126.311
X159.754Y-139.175
X159.754Y-140.175
X159.754Y-141.175
X160.704Y-55.413
X160.704Y-70.278
X160.704Y-85.143
X160.704Y-100.008
X160.704Y-114.873
X160.704Y-129.738
X160.704Y-144.602
X160.787Y-49.986
X160.787Y-50.986
X160.787Y-51.986
X160.787Y-64.851
X160.787Y-65.851
X160.787Y-66.851
X160.787Y-79.716
X160.787Y-80.716
X160.787Y-81.716
X160.787Y-94.581
X160.787Y-95.581
X160.787Y-96.581
X160.787Y-109.446
X160.787Y-110.446
X160.787Y-111.446
X160.787Y-124.311
X160.787Y-125.311
X160.787Y-126.311
X160.787Y-139.175
X160.787Y-140.175
X160.787Y-141.175
X161.354Y-53.263
X161.354Y-68.128
X161.354Y-82.993
X161.354Y-97.858
X161.354Y-112.723
X161.354Y-127.588
X161.354Y-142.452
X161.404Y-48.863
X161.404Y-63.728
X161.404Y-78.593
X161.404Y-93.458
X161.404Y-108.323
X161.404Y-123.188
X161.404Y-138.052
X161.821Y-49.986
X161.821Y-50.986
X161.821Y-51.986
X161.821Y-64.851
X161.821Y-65.851
X161.821Y-66.851
X161.821Y-79.716
X161.821Y-80.716
X161.821Y-81.716
X161.821Y-94.581
X161.821Y-95.581
X161.821Y-96.581
X161.821Y-109.446
X161.821Y-110.446
X161.821Y-111.446
X161.821Y-124.311
X161.821Y-125.311
X161.821Y-126.311
X161.821Y-139.175
X161.821Y-140.175
X161.821Y-141.175
X162.854Y-49.986
X162.854Y-50.986
X162.854Y-51.986
X162.854Y-64.851
X162.854Y-65.851
X162.854Y-66.851
X162.854Y-79.716
X162.854Y-80.716
X162.854Y-81.716
X162.854Y-94.581
X162.854Y-95.581
X162.854Y-96.581
X162.854Y-109.446
X162.854Y-110.446
X162.854Y-111.446
X162.854Y-124.311
X162.854Y-125.311
X162.854Y-126.311
X162.854Y-139.175
X162.854Y-140.175
X162.854Y-141.175
X163.754Y-46.163
X163.754Y-61.028
X163.754Y-75.893
X163.754Y-90.758
X163.754Y-105.623
X163.754Y-120.488
X163.754Y-135.352
X163.804Y-55.813
X163.804Y-70.678
X163.804Y-85.543
X163.804Y-100.408
X163.804Y-115.273
X163.804Y-130.138
X163.804Y-145.002
X163.954Y-47.713
X163.954Y-62.578
X163.954Y-77.443
X163.954Y-92.308
X163.954Y-107.173
X163.954Y-122.038
X163.954Y-136.902
X164.454Y-55.813
X164.454Y-70.678
X164.454Y-85.543
X164.454Y-100.408
X164.454Y-115.273
X164.454Y-130.138
X164.454Y-145.002
X164.554Y-46.163
X164.554Y-61.028
X164.554Y-75.893
X164.554Y-90.758
X164.554Y-105.623
X164.554Y-120.488
X164.554Y-135.352
X165.354Y-47.038
X165.354Y-47.663
X165.354Y-48.363
X165.354Y-61.903
X165.354Y-62.528
X165.354Y-63.228
X165.354Y-76.768
X165.354Y-77.393
X165.354Y-78.093
X165.354Y-91.633
X165.354Y-92.258
X165.354Y-92.958
X165.354Y-106.498
X165.354Y-107.123
X165.354Y-107.823
X165.354Y-121.363
X165.354Y-121.988
X165.354Y-122.688
X165.354Y-136.227
X165.354Y-136.852
X165.354Y-137.552
X165.404Y-53.713
X165.404Y-68.578
X165.404Y-83.443
X165.404Y-98.308
X165.404Y-113.173
X165.404Y-128.038
X165.404Y-142.902
X166.437Y-49.986
X166.437Y-50.986
X166.437Y-51.986
X166.437Y-64.851
X166.437Y-65.851
X166.437Y-66.851
X166.437Y-79.716
X166.437Y-80.716
X166.437Y-81.716
X166.437Y-94.581
X166.437Y-95.581
X166.437Y-96.581
X166.437Y-109.446
X166.437Y-110.446
X166.437Y-111.446
X166.437Y-124.311
X166.437Y-125.311
X166.437Y-126.311
X166.437Y-139.175
X166.437Y-140.175
X166.437Y-141.175
X167.304Y-55.413
X167.304Y-70.278
X167.304Y-85.143
X167.304Y-100.008
X167.304Y-114.873
X167.304Y-129.738
X167.304Y-144.602
X167.471Y-49.986
X167.471Y-50.986
X167.471Y-51.986
X167.471Y-64.851
X167.471Y-65.851
X167.471Y-66.851
X167.471Y-79.716
X167.471Y-80.716
X167.471Y-81.716
X167.471Y-94.581
X167.471Y-95.581
X167.471Y-96.581
X167.471Y-109.446
X167.471Y-110.446
X167.471Y-111.446
X167.471Y-124.311
X167.471Y-125.311
X167.471Y-126.311
X167.471Y-139.175
X167.471Y-140.175
X167.471Y-141.175
X168.154Y-55.813
X168.154Y-70.678
X168.154Y-85.543
X168.154Y-100.408
X168.154Y-115.273
X168.154Y-130.138
X168.154Y-145.002
X168.504Y-49.986
X168.504Y-50.986
X168.504Y-51.986
X168.504Y-64.851
X168.504Y-65.851
X168.504Y-66.851
X168.504Y-79.716
X168.504Y-80.716
X168.504Y-81.716
X168.504Y-94.581
X168.504Y-95.581
X168.504Y-96.581
X168.504Y-109.446
X168.504Y-110.446
X168.504Y-111.446
X168.504Y-124.311
X168.504Y-125.311
X168.504Y-126.311
X168.504Y-139.175
X168.504Y-140.175
X168.504Y-141.175
X169.154Y-46.663
X169.154Y-61.528
X169.154Y-76.393
X169.154Y-91.258
X169.154Y-106.123
X169.154Y-120.988
X169.154Y-135.852
X169.354Y-47.763
X169.354Y-62.628
X169.354Y-77.493
X169.354Y-92.358
X169.354Y-107.223
X169.354Y-122.088
X169.354Y-136.952
X169.537Y-49.986
X169.537Y-50.986
X169.537Y-51.986
X169.537Y-64.851
X169.537Y-65.851
X169.537Y-66.851
X169.537Y-79.716
X169.537Y-80.716
X169.537Y-81.716
X169.537Y-94.581
X169.537Y-95.581
X169.537Y-96.581
X169.537Y-109.446
X169.537Y-110.446
X169.537Y-111.446
X169.537Y-124.311
X169.537Y-125.311
X169.537Y-126.311
X169.537Y-139.175
X169.537Y-140.175
X169.537Y-141.175
X170.504Y-55.813
X170.504Y-70.678
X170.504Y-85.543
X170.504Y-100.408
X170.504Y-115.273
X170.504Y-130.138
X170.504Y-145.002
T5
X93.065Y-47.364
X93.065Y-48.634
X93.065Y-49.904
X93.065Y-51.174
X93.065Y-52.444
X93.065Y-53.714
X93.065Y-54.984
X93.065Y-56.254
X93.065Y-57.524
X93.065Y-58.794
X93.065Y-60.064
X93.065Y-61.334
X93.065Y-62.604
X93.065Y-63.874
X93.065Y-65.144
X93.065Y-66.414
X93.065Y-67.684
X93.065Y-72.735
X93.065Y-74.005
X93.065Y-75.275
X93.065Y-76.545
X93.065Y-77.815
X93.065Y-79.085
X93.065Y-80.355
X93.065Y-81.625
X93.065Y-82.895
X93.065Y-84.165
X93.065Y-85.435
X93.065Y-86.705
X93.065Y-87.975
X93.065Y-89.245
X93.065Y-90.515
X93.065Y-91.785
X93.065Y-93.055
X93.065Y-98.106
X93.065Y-99.376
X93.065Y-100.646
X93.065Y-101.916
X93.065Y-103.186
X93.065Y-104.456
X93.065Y-105.726
X93.065Y-106.996
X93.065Y-108.266
X93.065Y-109.536
X93.065Y-110.806
X93.065Y-112.076
X93.065Y-113.346
X93.065Y-114.616
X93.065Y-115.886
X93.065Y-117.156
X93.065Y-118.426
X93.065Y-123.477
X93.065Y-124.747
X93.065Y-126.017
X93.065Y-127.287
X93.065Y-128.557
X93.065Y-129.827
X93.065Y-131.097
X93.065Y-132.367
X93.065Y-133.637
X93.065Y-134.907
X93.065Y-136.177
X93.065Y-137.447
X93.065Y-138.717
X93.065Y-139.987
X93.065Y-141.257
X93.065Y-142.527
X93.065Y-143.797
X94.335Y-46.094
X94.335Y-68.954
X94.335Y-71.465
X94.335Y-94.325
X94.335Y-96.836
X94.335Y-119.696
X94.335Y-122.207
X94.335Y-145.067
X95.605Y-46.094
X95.605Y-68.954
X95.605Y-71.465
X95.605Y-94.325
X95.605Y-96.836
X95.605Y-119.696
X95.605Y-122.207
X95.605Y-145.067
X96.875Y-46.094
X96.875Y-68.954
X96.875Y-71.465
X96.875Y-94.325
X96.875Y-96.836
X96.875Y-119.696
X96.875Y-122.207
X96.875Y-145.067
X98.145Y-46.094
X98.145Y-68.954
X98.145Y-71.465
X98.145Y-94.325
X98.145Y-96.836
X98.145Y-119.696
X98.145Y-122.207
X98.145Y-145.067
X99.415Y-46.094
X99.415Y-68.954
X99.415Y-71.465
X99.415Y-94.325
X99.415Y-96.836
X99.415Y-119.696
X99.415Y-122.207
X99.415Y-145.067
X100.685Y-46.094
X100.685Y-68.954
X100.685Y-71.465
X100.685Y-94.325
X100.685Y-96.836
X100.685Y-119.696
X100.685Y-122.207
X100.685Y-145.067
X101.955Y-46.094
X101.955Y-68.954
X101.955Y-71.465
X101.955Y-94.325
X101.955Y-96.836
X101.955Y-119.696
X101.955Y-122.207
X101.955Y-145.067
X103.225Y-46.094
X103.225Y-68.954
X103.225Y-71.465
X103.225Y-94.325
X103.225Y-96.836
X103.225Y-119.696
X103.225Y-122.207
X103.225Y-145.067
X104.495Y-46.094
X104.495Y-68.954
X104.495Y-71.465
X104.495Y-94.325
X104.495Y-96.836
X104.495Y-119.696
X104.495Y-122.207
X104.495Y-145.067
X105.765Y-46.094
X105.765Y-68.954
X105.765Y-71.465
X105.765Y-94.325
X105.765Y-96.836
X105.765Y-119.696
X105.765Y-122.207
X105.765Y-145.067
X107.035Y-46.094
X107.035Y-68.954
X107.035Y-71.465
X107.035Y-94.325
X107.035Y-96.836
X107.035Y-119.696
X107.035Y-122.207
X107.035Y-145.067
X108.305Y-46.094
X108.305Y-68.954
X108.305Y-71.465
X108.305Y-94.325
X108.305Y-96.836
X108.305Y-119.696
X108.305Y-122.207
X108.305Y-145.067
X109.575Y-47.364
X109.575Y-48.634
X109.575Y-49.904
X109.575Y-51.174
X109.575Y-52.444
X109.575Y-53.714
X109.575Y-54.984
X109.575Y-56.254
X109.575Y-57.524
X109.575Y-58.794
X109.575Y-60.064
X109.575Y-61.334
X109.575Y-62.604
X109.575Y-63.874
X109.575Y-65.144
X109.575Y-66.414
X109.575Y-67.684
X109.575Y-72.735
X109.575Y-74.005
X109.575Y-75.275
X109.575Y-76.545
X109.575Y-77.815
X109.575Y-79.085
X109.575Y-80.355
X109.575Y-81.625
X109.575Y-82.895
X109.575Y-84.165
X109.575Y-85.435
X109.575Y-86.705
X109.575Y-87.975
X109.575Y-89.245
X109.575Y-90.515
X109.575Y-91.785
X109.575Y-93.055
X109.575Y-98.106
X109.575Y-99.376
X109.575Y-100.646
X109.575Y-101.916
X109.575Y-103.186
X109.575Y-104.456
X109.575Y-105.726
X109.575Y-106.996
X109.575Y-108.266
X109.575Y-109.536
X109.575Y-110.806
X109.575Y-112.076
X109.575Y-113.346
X109.575Y-114.616
X109.575Y-115.886
X109.575Y-117.156
X109.575Y-118.426
X109.575Y-123.477
X109.575Y-124.747
X109.575Y-126.017
X109.575Y-127.287
X109.575Y-128.557
X109.575Y-129.827
X109.575Y-131.097
X109.575Y-132.367
X109.575Y-133.637
X109.575Y-134.907
X109.575Y-136.177
X109.575Y-137.447
X109.575Y-138.717
X109.575Y-139.987
X109.575Y-141.257
X109.575Y-142.527
X109.575Y-143.797
X115.585Y-47.441
X115.585Y-48.711
X115.585Y-49.981
X115.585Y-51.251
X115.585Y-52.521
X115.585Y-53.791
X115.585Y-55.061
X115.585Y-56.331
X115.585Y-62.003
X115.585Y-63.273
X115.585Y-64.543
X115.585Y-65.813
X115.585Y-67.083
X115.585Y-68.353
X115.585Y-69.623
X115.585Y-70.893
X115.585Y-76.565
X115.585Y-77.835
X115.585Y-79.105
X115.585Y-80.375
X115.585Y-81.645
X115.585Y-82.915
X115.585Y-84.185
X115.585Y-85.455
X115.585Y-91.127
X115.585Y-92.397
X115.585Y-93.667
X115.585Y-94.937
X115.585Y-96.207
X115.585Y-97.477
X115.585Y-98.747
X115.585Y-100.017
X115.585Y-105.689
X115.585Y-106.959
X115.585Y-108.229
X115.585Y-109.499
X115.585Y-110.769
X115.585Y-112.039
X115.585Y-113.309
X115.585Y-114.579
X115.585Y-120.251
X115.585Y-121.521
X115.585Y-122.791
X115.585Y-124.061
X115.585Y-125.331
X115.585Y-126.601
X115.585Y-127.871
X115.585Y-129.142
X115.585Y-134.814
X115.585Y-136.084
X115.585Y-137.354
X115.585Y-138.624
X115.585Y-139.894
X115.585Y-141.164
X115.585Y-142.434
X115.585Y-143.704
X117.43Y-46.086
X117.43Y-57.686
X117.43Y-60.648
X117.43Y-72.248
X117.43Y-75.21
X117.43Y-86.81
X117.43Y-89.772
X117.43Y-101.372
X117.43Y-104.334
X117.43Y-115.934
X117.43Y-118.896
X117.43Y-130.496
X117.43Y-133.459
X117.43Y-145.059
X118.7Y-46.086
X118.7Y-57.686
X118.7Y-60.648
X118.7Y-72.248
X118.7Y-75.21
X118.7Y-86.81
X118.7Y-89.772
X118.7Y-101.372
X118.7Y-104.334
X118.7Y-115.934
X118.7Y-118.896
X118.7Y-130.496
X118.7Y-133.459
X118.7Y-145.059
X119.971Y-46.086
X119.971Y-57.686
X119.971Y-60.648
X119.971Y-72.248
X119.971Y-75.21
X119.971Y-86.81
X119.971Y-89.772
X119.971Y-101.372
X119.971Y-104.334
X119.971Y-115.934
X119.971Y-118.896
X119.971Y-130.496
X119.971Y-133.459
X119.971Y-145.059
X121.24Y-46.086
X121.24Y-57.686
X121.24Y-60.648
X121.24Y-72.248
X121.24Y-75.21
X121.24Y-86.81
X121.24Y-89.772
X121.24Y-101.372
X121.24Y-104.334
X121.24Y-115.934
X121.24Y-118.896
X121.24Y-130.496
X121.24Y-133.459
X121.24Y-145.059
X122.51Y-46.086
X122.51Y-57.686
X122.51Y-60.648
X122.51Y-72.248
X122.51Y-75.21
X122.51Y-86.81
X122.51Y-89.772
X122.51Y-101.372
X122.51Y-104.334
X122.51Y-115.934
X122.51Y-118.896
X122.51Y-130.496
X122.51Y-133.459
X122.51Y-145.059
X123.78Y-46.086
X123.78Y-57.686
X123.78Y-60.648
X123.78Y-72.248
X123.78Y-75.21
X123.78Y-86.81
X123.78Y-89.772
X123.78Y-101.372
X123.78Y-104.334
X123.78Y-115.934
X123.78Y-118.896
X123.78Y-130.496
X123.78Y-133.459
X123.78Y-145.059
X125.05Y-46.086
X125.05Y-57.686
X125.05Y-60.648
X125.05Y-72.248
X125.05Y-75.21
X125.05Y-86.81
X125.05Y-89.772
X125.05Y-101.372
X125.05Y-104.334
X125.05Y-115.934
X125.05Y-118.896
X125.05Y-130.496
X125.05Y-133.459
X125.05Y-145.059
X126.32Y-46.086
X126.32Y-57.686
X126.32Y-60.648
X126.32Y-72.248
X126.32Y-75.21
X126.32Y-86.81
X126.32Y-89.772
X126.32Y-101.372
X126.32Y-104.334
X126.32Y-115.934
X126.32Y-118.896
X126.32Y-130.496
X126.32Y-133.459
X126.32Y-145.059
X127.59Y-46.086
X127.59Y-57.686
X127.59Y-60.648
X127.59Y-72.248
X127.59Y-75.21
X127.59Y-86.81
X127.59Y-89.772
X127.59Y-101.372
X127.59Y-104.334
X127.59Y-115.934
X127.59Y-118.896
X127.59Y-130.496
X127.59Y-133.459
X127.59Y-145.059
X129.435Y-47.441
X129.435Y-48.711
X129.435Y-49.981
X129.435Y-51.251
X129.435Y-52.521
X129.435Y-53.791
X129.435Y-55.061
X129.435Y-56.331
X129.435Y-62.003
X129.435Y-63.273
X129.435Y-64.543
X129.435Y-65.813
X129.435Y-67.083
X129.435Y-68.353
X129.435Y-69.623
X129.435Y-70.893
X129.435Y-76.565
X129.435Y-77.835
X129.435Y-79.105
X129.435Y-80.375
X129.435Y-81.645
X129.435Y-82.915
X129.435Y-84.185
X129.435Y-85.455
X129.435Y-91.127
X129.435Y-92.397
X129.435Y-93.667
X129.435Y-94.937
X129.435Y-96.207
X129.435Y-97.477
X129.435Y-98.747
X129.435Y-100.017
X129.435Y-105.689
X129.435Y-106.959
X129.435Y-108.229
X129.435Y-109.499
X129.435Y-110.769
X129.435Y-112.039
X129.435Y-113.309
X129.435Y-114.579
X129.435Y-120.251
X129.435Y-121.521
X129.435Y-122.791
X129.435Y-124.061
X129.435Y-125.331
X129.435Y-126.601
X129.435Y-127.871
X129.435Y-129.142
X129.435Y-134.814
X129.435Y-136.084
X129.435Y-137.354
X129.435Y-138.624
X129.435Y-139.894
X129.435Y-141.164
X129.435Y-142.434
X129.435Y-143.704
X135.446Y-57.42
X135.446Y-58.69
X135.446Y-59.96
X135.446Y-61.23
X135.446Y-62.5
X135.446Y-63.77
X135.446Y-84.173
X135.446Y-85.443
X135.446Y-86.713
X135.446Y-87.983
X135.446Y-89.253
X135.446Y-90.523
X135.446Y-110.926
X135.446Y-112.196
X135.446Y-113.466
X135.446Y-114.736
X135.446Y-116.006
X135.446Y-117.276
X135.446Y-137.697
X135.446Y-138.967
X135.446Y-140.237
X135.446Y-141.507
X135.446Y-142.777
X135.446Y-144.047
X151.054Y-57.42
X151.054Y-58.69
X151.054Y-59.96
X151.054Y-61.23
X151.054Y-62.5
X151.054Y-63.77
X151.054Y-84.173
X151.054Y-85.443
X151.054Y-86.713
X151.054Y-87.983
X151.054Y-89.253
X151.054Y-90.523
X151.054Y-110.926
X151.054Y-112.196
X151.054Y-113.466
X151.054Y-114.736
X151.054Y-116.006
X151.054Y-117.276
X151.054Y-137.697
X151.054Y-138.967
X151.054Y-140.237
X151.054Y-141.507
X151.054Y-142.777
X151.054Y-144.047
X157.054Y-47.811
X157.054Y-49.081
X157.054Y-50.351
X157.054Y-51.621
X157.054Y-52.891
X157.054Y-54.161
X157.054Y-62.676
X157.054Y-63.946
X157.054Y-65.216
X157.054Y-66.486
X157.054Y-67.756
X157.054Y-69.026
X157.054Y-77.541
X157.054Y-78.811
X157.054Y-80.081
X157.054Y-81.351
X157.054Y-82.621
X157.054Y-83.891
X157.054Y-92.406
X157.054Y-93.676
X157.054Y-94.946
X157.054Y-96.216
X157.054Y-97.486
X157.054Y-98.756
X157.054Y-107.271
X157.054Y-108.541
X157.054Y-109.811
X157.054Y-111.081
X157.054Y-112.351
X157.054Y-113.621
X157.054Y-122.136
X157.054Y-123.406
X157.054Y-124.676
X157.054Y-125.946
X157.054Y-127.216
X157.054Y-128.486
X157.054Y-137.0
X157.054Y-138.27
X157.054Y-139.54
X157.054Y-140.81
X157.054Y-142.08
X157.054Y-143.35
X172.254Y-47.811
X172.254Y-49.081
X172.254Y-50.351
X172.254Y-51.621
X172.254Y-52.891
X172.254Y-54.161
X172.254Y-62.676
X172.254Y-63.946
X172.254Y-65.216
X172.254Y-66.486
X172.254Y-67.756
X172.254Y-69.026
X172.254Y-77.541
X172.254Y-78.811
X172.254Y-80.081
X172.254Y-81.351
X172.254Y-82.621
X172.254Y-83.891
X172.254Y-92.406
X172.254Y-93.676
X172.254Y-94.946
X172.254Y-96.216
X172.254Y-97.486
X172.254Y-98.756
X172.254Y-107.271
X172.254Y-108.541
X172.254Y-109.811
X172.254Y-111.081
X172.254Y-112.351
X172.254Y-113.621
X172.254Y-122.136
X172.254Y-123.406
X172.254Y-124.676
X172.254Y-125.946
X172.254Y-127.216
X172.254Y-128.486
X172.254Y-137.0
X172.254Y-138.27
X172.254Y-139.54
X172.254Y-140.81
X172.254Y-142.08
X172.254Y-143.35
M30
