%TF.GenerationSoftware,KiCad,Pcbnew,8.0.4*%
%TF.CreationDate,2024-12-12T16:30:21+01:00*%
%TF.ProjectId,Combined_Module_Panel,436f6d62-696e-4656-945f-4d6f64756c65,rev?*%
%TF.SameCoordinates,Original*%
%TF.FileFunction,Profile,NP*%
%FSLAX46Y46*%
G04 Gerber Fmt 4.6, Leading zero omitted, Abs format (unit mm)*
G04 Created by KiCad (PCBNEW 8.0.4) date 2024-12-12 16:30:21*
%MOMM*%
%LPD*%
G01*
G04 APERTURE LIST*
%TA.AperFunction,Profile*%
%ADD10C,0.050000*%
%TD*%
G04 APERTURE END LIST*
D10*
X93997286Y-94330765D02*
X93947673Y-94340961D01*
X92557000Y-119188000D02*
X91057000Y-119188000D01*
X110083000Y-97344000D02*
X110049675Y-97344641D01*
X127852500Y-101372300D02*
X117168500Y-101372300D01*
X109597930Y-72323318D02*
X109585235Y-72372350D01*
X93710603Y-69109516D02*
X93677612Y-69147947D01*
X109585235Y-68046649D02*
X109597930Y-68095681D01*
X179254162Y-152075000D02*
X86057000Y-152075000D01*
X93624097Y-71185197D02*
X93648677Y-71229482D01*
X115585500Y-129403500D02*
G75*
G02*
X115085500Y-129903500I-500000J0D01*
G01*
X93830349Y-71402173D02*
X93875822Y-71424478D01*
X109575000Y-93317000D02*
X109577565Y-93367584D01*
X93578765Y-145491286D02*
X93573641Y-145541675D01*
X93042069Y-97694318D02*
X93024478Y-97646822D01*
X109901347Y-122746123D02*
X109854802Y-122766097D01*
X128352500Y-132958600D02*
G75*
G02*
X127852500Y-133458600I-500000J0D01*
G01*
X109585235Y-47001350D02*
X109577565Y-47051415D01*
X157054162Y-91680499D02*
G75*
G02*
X158554162Y-90180462I1500038J-1D01*
G01*
X92785197Y-72024097D02*
X92738652Y-72004123D01*
X131435500Y-144465600D02*
X131435500Y-134051600D01*
X129435500Y-47179000D02*
G75*
G02*
X129935500Y-46679000I500000J0D01*
G01*
X108962387Y-94518947D02*
X108929396Y-94480516D01*
X92909483Y-68308396D02*
X92944379Y-68271686D01*
X93054764Y-97743350D02*
X93042069Y-97694318D01*
X92944379Y-72147313D02*
X92909483Y-72110603D01*
X174254162Y-100480499D02*
G75*
G02*
X172254162Y-102480462I-1999962J-1D01*
G01*
X155054162Y-60950833D02*
G75*
G02*
X157054162Y-58950762I2000038J33D01*
G01*
X92829482Y-144483322D02*
X92871052Y-144454387D01*
X115585500Y-71155100D02*
G75*
G02*
X115085500Y-71655100I-500000J0D01*
G01*
X109768947Y-97448612D02*
X109730516Y-97481603D01*
X108831482Y-71389322D02*
X108852634Y-71375381D01*
X109999286Y-144553234D02*
X110049675Y-144558358D01*
X109051038Y-145441673D02*
X109035876Y-145393347D01*
X92557000Y-68446000D02*
X91057000Y-68446000D01*
X93573641Y-94799675D02*
X93573000Y-94833000D01*
X146350081Y-72339301D02*
G75*
G02*
X146350081Y-70839299I19J750001D01*
G01*
X92690326Y-93801038D02*
X92738652Y-93785876D01*
X93573000Y-70957000D02*
X93573000Y-69462000D01*
X108642713Y-122201234D02*
X108692326Y-122191038D01*
X92944379Y-119013686D02*
X92975381Y-118973634D01*
X161554162Y-103545332D02*
X157054162Y-103545332D01*
X157054162Y-69750833D02*
X157054162Y-61950833D01*
X109066358Y-120170675D02*
X109061234Y-120120286D01*
X109061234Y-94749286D02*
X109051038Y-94699673D01*
X113585500Y-104927400D02*
X113585500Y-115341400D01*
X92909483Y-122852603D02*
X92871052Y-122819612D01*
X93787365Y-69043618D02*
X93747313Y-69074620D01*
X161554162Y-132210165D02*
X157054162Y-132210165D01*
X129935500Y-90365300D02*
X131435500Y-90365300D01*
X140150081Y-145575000D02*
X136446000Y-145575000D01*
X135446000Y-126862381D02*
G75*
G02*
X136446000Y-125862300I1000100J-19D01*
G01*
X172254162Y-118410165D02*
X167754162Y-118410165D01*
X108852634Y-69043618D02*
X108809650Y-69016826D01*
X116668500Y-58186000D02*
G75*
G02*
X117168500Y-57686000I500000J0D01*
G01*
X92975381Y-68231634D02*
X93002173Y-68188650D01*
X131435500Y-100779300D02*
X131435500Y-90365300D01*
X110083000Y-46602000D02*
X110049675Y-46602641D01*
X93875822Y-122166478D02*
X93923318Y-122184069D01*
X108764177Y-119736521D02*
X108716681Y-119718930D01*
X108740652Y-122175876D02*
X108787197Y-122155902D01*
X127852500Y-86810200D02*
X117168500Y-86810200D01*
X108831482Y-46018322D02*
X108852634Y-46004381D01*
X170754162Y-71250833D02*
X167754162Y-71250833D01*
X170754162Y-90180499D02*
X167754162Y-90180499D01*
X110049675Y-46602641D02*
X109999286Y-46607765D01*
X109615521Y-68143177D02*
X109637826Y-68188650D01*
X115585500Y-100279300D02*
G75*
G02*
X115085500Y-100779300I-500000J0D01*
G01*
X116668500Y-72748100D02*
G75*
G02*
X117168500Y-72248100I500000J0D01*
G01*
X92690326Y-71988961D02*
X92640713Y-71978765D01*
X86057000Y-39086000D02*
X86057000Y-152075000D01*
X92975381Y-46816365D02*
X92944379Y-46776313D01*
X93747313Y-69074620D02*
X93710603Y-69109516D01*
X109949673Y-46617961D02*
X109901347Y-46633123D01*
X93062434Y-67996584D02*
X93065000Y-67946000D01*
X129935500Y-71655100D02*
G75*
G02*
X129435500Y-71155100I0J500000D01*
G01*
X92944379Y-97518313D02*
X92909483Y-97481603D01*
X128352500Y-145558600D02*
X128352500Y-147075000D01*
X157054162Y-72750833D02*
G75*
G02*
X155054167Y-70750833I38J2000033D01*
G01*
X109637826Y-144301650D02*
X109664618Y-144344634D01*
X109730516Y-97481603D02*
X109695620Y-97518313D01*
X146350081Y-125862382D02*
G75*
G02*
X146350081Y-124362418I19J749982D01*
G01*
X92738652Y-93785876D02*
X92785197Y-93765902D01*
X172254162Y-47086000D02*
X172254162Y-54886000D01*
X146350081Y-147075000D02*
G75*
G02*
X146350081Y-145575000I19J750000D01*
G01*
X109854802Y-144507902D02*
X109901347Y-144527876D01*
X109061234Y-96411713D02*
X109066358Y-96361324D01*
X127852500Y-130496500D02*
G75*
G02*
X128352500Y-130996500I0J-500000D01*
G01*
X116668500Y-101872300D02*
X116668500Y-103834400D01*
X157054162Y-106545332D02*
G75*
G02*
X158554162Y-105045262I1500038J32D01*
G01*
X109637826Y-68188650D02*
X109664618Y-68231634D01*
X172254162Y-91680499D02*
X172254162Y-99480499D01*
X115085500Y-90365300D02*
G75*
G02*
X115585500Y-90865300I0J-500000D01*
G01*
X92785197Y-68394902D02*
X92829482Y-68370322D01*
X93677612Y-119889947D02*
X93648677Y-119931517D01*
X93923318Y-71442069D02*
X93972350Y-71454764D01*
X136446000Y-92051919D02*
G75*
G02*
X135445981Y-91051919I0J1000019D01*
G01*
X161554162Y-102480499D02*
X157054162Y-102480499D01*
X158554162Y-145574998D02*
G75*
G02*
X157054202Y-144074998I38J1499998D01*
G01*
X108809650Y-69016826D02*
X108764177Y-68994521D01*
X109901347Y-119156876D02*
X109949673Y-119172038D01*
X117168500Y-133458600D02*
G75*
G02*
X116668500Y-132958600I0J500000D01*
G01*
X108892686Y-94445620D02*
X108852634Y-94414618D01*
X93624097Y-119975802D02*
X93604123Y-120022347D01*
X128352500Y-147075000D02*
X116668500Y-147075000D01*
X93588961Y-69328673D02*
X93578765Y-69378286D01*
X128352500Y-58186000D02*
X128352500Y-60148100D01*
X172254162Y-88680499D02*
G75*
G02*
X174254201Y-90680499I38J-2000001D01*
G01*
X110083000Y-122715000D02*
X110049675Y-122715641D01*
X109066358Y-45619324D02*
X109067000Y-45586000D01*
X93677612Y-145260947D02*
X93648677Y-145302517D01*
X140150081Y-97592601D02*
G75*
G02*
X140150081Y-99092599I19J-749999D01*
G01*
X116668500Y-101872300D02*
G75*
G02*
X117168500Y-101372300I500000J0D01*
G01*
X109575000Y-67946000D02*
X109577565Y-67996584D01*
X109577565Y-72422415D02*
X109575000Y-72473000D01*
X93002173Y-144301650D02*
X93024478Y-144256177D01*
X92640713Y-93811234D02*
X92690326Y-93801038D01*
X140150081Y-65298619D02*
G75*
G02*
X140150081Y-66798581I19J-749981D01*
G01*
X109999286Y-122720765D02*
X109949673Y-122730961D01*
X93830349Y-122144173D02*
X93875822Y-122166478D01*
X115085500Y-134051600D02*
G75*
G02*
X115585500Y-134551600I0J-500000D01*
G01*
X110083000Y-46602000D02*
X111583000Y-46602000D01*
X110049675Y-119187358D02*
X110083000Y-119188000D01*
X109015902Y-119975802D02*
X108991322Y-119931517D01*
X109664618Y-72187365D02*
X109637826Y-72230349D01*
X170754162Y-105045332D02*
X167754162Y-105045332D01*
X93573000Y-121699000D02*
X93573000Y-120204000D01*
X93787365Y-119785618D02*
X93747313Y-119816620D01*
X92829482Y-72048677D02*
X92785197Y-72024097D01*
X93852802Y-119747097D02*
X93808517Y-119771677D01*
X109035876Y-96509652D02*
X109051038Y-96461326D01*
X161554162Y-88680499D02*
G75*
G02*
X161554162Y-90180501I38J-750001D01*
G01*
X157054162Y-99480499D02*
X157054162Y-91680499D01*
X172254162Y-99480499D02*
G75*
G02*
X170754162Y-100980462I-1499962J-1D01*
G01*
X109810517Y-119112322D02*
X109854802Y-119136902D01*
X161554162Y-58950833D02*
G75*
G02*
X161554162Y-60450767I38J-749967D01*
G01*
X174254162Y-115345332D02*
X174254162Y-105545332D01*
X93747313Y-122086379D02*
X93787365Y-122117381D01*
X109597930Y-144208681D02*
X109615521Y-144256177D01*
X115585500Y-114841400D02*
X115585500Y-105427400D01*
X109768947Y-46706612D02*
X109730516Y-46739603D01*
X93747313Y-45973379D02*
X93787365Y-46004381D01*
X92785197Y-119136902D02*
X92829482Y-119112322D01*
X109664618Y-46816365D02*
X109637826Y-46859349D01*
X93787365Y-96746381D02*
X93830349Y-96773173D01*
X93947673Y-119711961D02*
X93899347Y-119727123D01*
X146350081Y-66798619D02*
X151054162Y-66798619D01*
X93002173Y-68188650D02*
X93024478Y-68143177D01*
X129935500Y-144465600D02*
G75*
G02*
X129435500Y-143965600I0J500000D01*
G01*
X109810517Y-46677677D02*
X109768947Y-46706612D01*
X109015902Y-71185197D02*
X109035876Y-71138652D01*
X161554162Y-71250833D02*
G75*
G02*
X161554162Y-72750767I38J-749967D01*
G01*
X92871052Y-144454387D02*
X92909483Y-144421396D01*
X117168500Y-133458600D02*
X127852500Y-133458600D01*
X135446000Y-120305219D02*
G75*
G02*
X133445981Y-118305219I0J2000019D01*
G01*
X117168500Y-60648100D02*
G75*
G02*
X116668500Y-60148100I0J500000D01*
G01*
X109051038Y-71090326D02*
X109061234Y-71040713D01*
X93573641Y-96361324D02*
X93578765Y-96411713D01*
X93648677Y-96600482D02*
X93677612Y-96642052D01*
X109575000Y-47102000D02*
X109575000Y-67946000D01*
X161554162Y-145574998D02*
X158554162Y-145574998D01*
X109730516Y-46739603D02*
X109695620Y-46776313D01*
X129935500Y-100779300D02*
G75*
G02*
X129435500Y-100279300I0J500000D01*
G01*
X146350081Y-72339301D02*
X150054162Y-72339301D01*
X161554162Y-72750833D02*
X157054162Y-72750833D01*
X93062434Y-93367584D02*
X93065000Y-93317000D01*
X108991322Y-69189517D02*
X108962387Y-69147947D01*
X108962387Y-122013052D02*
X108991322Y-121971482D01*
X109768947Y-93712387D02*
X109810517Y-93741322D01*
X93787365Y-71375381D02*
X93830349Y-71402173D01*
X155054162Y-145074998D02*
X155054162Y-135274998D01*
X179254162Y-39086000D02*
X86057000Y-39086000D01*
X129935500Y-86217200D02*
G75*
G02*
X129435500Y-85717200I0J500000D01*
G01*
X157054162Y-54886000D02*
X157054162Y-47086000D01*
X155054162Y-46086000D02*
G75*
G02*
X157054162Y-44085962I2000038J0D01*
G01*
X115085500Y-134051600D02*
X113585500Y-134051600D01*
X128352500Y-60148100D02*
G75*
G02*
X127852500Y-60648100I-500000J0D01*
G01*
X109066358Y-69428675D02*
X109061234Y-69378286D01*
X113585500Y-90365300D02*
X113585500Y-100779300D01*
X170754162Y-75315666D02*
G75*
G02*
X172254234Y-76815666I38J-1500034D01*
G01*
X92909483Y-72110603D02*
X92871052Y-72077612D01*
X129935500Y-119489500D02*
X131435500Y-119489500D01*
X129935500Y-46679000D02*
X131435500Y-46679000D01*
X157054162Y-136274998D02*
G75*
G02*
X158554162Y-134774962I1500038J-2D01*
G01*
X179254162Y-152075000D02*
X179254162Y-39086000D01*
X93573641Y-120170675D02*
X93573000Y-120204000D01*
X93002173Y-122972349D02*
X92975381Y-122929365D01*
X153054162Y-145075000D02*
X153054162Y-126362381D01*
X92557000Y-144559000D02*
X92590324Y-144558358D01*
X93947673Y-94340961D02*
X93899347Y-94356123D01*
X93747313Y-71344379D02*
X93787365Y-71375381D01*
X133446000Y-99592600D02*
G75*
G02*
X135446000Y-97592600I2000000J0D01*
G01*
X157054162Y-84615666D02*
X157054162Y-76815666D01*
X129935500Y-57093000D02*
X131435500Y-57093000D01*
X92871052Y-68341387D02*
X92909483Y-68308396D01*
X109575000Y-118688000D02*
X109577565Y-118738584D01*
X93062434Y-144109584D02*
X93065000Y-144059000D01*
X93588961Y-121832326D02*
X93604123Y-121880652D01*
X129935500Y-129903500D02*
X131435500Y-129903500D01*
X109061234Y-120120286D02*
X109051038Y-120070673D01*
X93042069Y-72323318D02*
X93024478Y-72275822D01*
X108667649Y-68964235D02*
X108617584Y-68956565D01*
X129435500Y-105427400D02*
X129435500Y-114841400D01*
X92871052Y-97448612D02*
X92829482Y-97419677D01*
X108962387Y-71271052D02*
X108991322Y-71229482D01*
X161554162Y-87615666D02*
X157054162Y-87615666D01*
X129435500Y-134551600D02*
G75*
G02*
X129935500Y-134051600I500000J0D01*
G01*
X161554162Y-147074998D02*
X157054162Y-147074998D01*
X93972350Y-96825764D02*
X94022415Y-96833434D01*
X146350081Y-120305219D02*
X151054162Y-120305219D01*
X109061234Y-71040713D02*
X109066358Y-70990324D01*
X92829482Y-93741322D02*
X92871052Y-93712387D01*
X109067000Y-145575000D02*
X109066358Y-145541675D01*
X93062434Y-123164415D02*
X93054764Y-123114350D01*
X167754162Y-102480499D02*
G75*
G02*
X167754162Y-100980501I38J749999D01*
G01*
X127852500Y-145058600D02*
X117168500Y-145058600D01*
X92785197Y-122766097D02*
X92738652Y-122746123D01*
X92590324Y-144558358D02*
X92640713Y-144553234D01*
X115085500Y-119489500D02*
X113585500Y-119489500D01*
X93899347Y-119727123D02*
X93852802Y-119747097D01*
X109730516Y-68308396D02*
X109768947Y-68341387D01*
X155054162Y-75815666D02*
G75*
G02*
X157054162Y-73815662I2000038J-34D01*
G01*
X115085500Y-100779300D02*
X113585500Y-100779300D01*
X167754162Y-117345332D02*
G75*
G02*
X167754162Y-115845268I38J750032D01*
G01*
X109051038Y-120070673D02*
X109035876Y-120022347D01*
X93710603Y-94480516D02*
X93677612Y-94518947D01*
X167754162Y-134774998D02*
G75*
G02*
X167754162Y-133275002I38J749998D01*
G01*
X92640713Y-68440234D02*
X92690326Y-68430038D01*
X150054162Y-145575000D02*
X146350081Y-145575000D01*
X108962387Y-119889947D02*
X108929396Y-119851516D01*
X161554162Y-86115666D02*
G75*
G02*
X161554162Y-87615734I38J-750034D01*
G01*
X93624097Y-94604802D02*
X93604123Y-94651347D01*
X109854802Y-46653097D02*
X109810517Y-46677677D01*
X93062434Y-72422415D02*
X93054764Y-72372350D01*
X109051038Y-121832326D02*
X109061234Y-121782713D01*
X92640713Y-97349765D02*
X92590324Y-97344641D01*
X93747313Y-145187620D02*
X93710603Y-145222516D01*
X172254162Y-136274998D02*
X172254162Y-144074998D01*
X92738652Y-46633123D02*
X92690326Y-46617961D01*
X161554162Y-145574998D02*
G75*
G02*
X161554162Y-147075002I38J-750002D01*
G01*
X93054764Y-72372350D02*
X93042069Y-72323318D01*
X108929396Y-94480516D02*
X108892686Y-94445620D01*
X135446000Y-147075000D02*
G75*
G02*
X133446000Y-145075000I0J2000000D01*
G01*
X93042069Y-46952318D02*
X93024478Y-46904822D01*
X172254162Y-73815666D02*
G75*
G02*
X174254234Y-75815666I38J-2000034D01*
G01*
X172254162Y-69750833D02*
G75*
G02*
X170754162Y-71250762I-1499962J33D01*
G01*
X109067000Y-145575000D02*
X109067000Y-147075000D01*
X109768947Y-122819612D02*
X109730516Y-122852603D01*
X92557000Y-71973000D02*
X91057000Y-71973000D01*
X109810517Y-144483322D02*
X109854802Y-144507902D01*
X93588961Y-71090326D02*
X93604123Y-71138652D01*
X93054764Y-68046649D02*
X93062434Y-67996584D01*
X93604123Y-69280347D02*
X93588961Y-69328673D01*
X115085500Y-90365300D02*
X113585500Y-90365300D01*
X93588961Y-94699673D02*
X93578765Y-94749286D01*
X93002173Y-118930650D02*
X93024478Y-118885177D01*
X92690326Y-144543038D02*
X92738652Y-144527876D01*
X129935500Y-129903500D02*
G75*
G02*
X129435500Y-129403500I0J500000D01*
G01*
X108892686Y-45973379D02*
X108929396Y-45938483D01*
X109730516Y-144421396D02*
X109768947Y-144454387D01*
X129935500Y-144465600D02*
X131435500Y-144465600D01*
X108592324Y-122206358D02*
X108642713Y-122201234D01*
X110049675Y-97344641D02*
X109999286Y-97349765D01*
X115085500Y-61241100D02*
G75*
G02*
X115585500Y-61741100I0J-500000D01*
G01*
X117168500Y-104334400D02*
X127852500Y-104334400D01*
X146350081Y-120305219D02*
G75*
G02*
X146350081Y-118805181I19J750019D01*
G01*
X92829482Y-68370322D02*
X92871052Y-68341387D01*
X109730516Y-93679396D02*
X109768947Y-93712387D01*
X108567000Y-68954000D02*
X94047675Y-68954641D01*
X155054162Y-115345332D02*
X155054162Y-105545332D01*
X93578765Y-121782713D02*
X93588961Y-121832326D01*
X109015902Y-45814197D02*
X109035876Y-45767652D01*
X111583000Y-68446000D02*
X111583000Y-46602000D01*
X109015902Y-94604802D02*
X108991322Y-94560517D01*
X92557000Y-119188000D02*
X92590324Y-119187358D01*
X111583000Y-119188000D02*
X111583000Y-97344000D01*
X92909483Y-46739603D02*
X92871052Y-46706612D01*
X93947673Y-68969961D02*
X93899347Y-68985123D01*
X109577565Y-67996584D02*
X109585235Y-68046649D01*
X93024478Y-93514177D02*
X93042069Y-93466681D01*
X146350081Y-99092601D02*
X150054162Y-99092601D01*
X91057000Y-119188000D02*
X91057000Y-97344000D01*
X109597930Y-93466681D02*
X109615521Y-93514177D01*
X108787197Y-96784902D02*
X108831482Y-96760322D01*
X167754162Y-132210165D02*
G75*
G02*
X167754162Y-130710235I38J749965D01*
G01*
X155054162Y-135274998D02*
G75*
G02*
X157054162Y-133274962I2000038J-2D01*
G01*
X93624097Y-145346802D02*
X93604123Y-145393347D01*
X109067000Y-120204000D02*
X109066358Y-120170675D01*
X151054162Y-44086000D02*
X146350081Y-44086000D01*
X109015902Y-121927197D02*
X109035876Y-121880652D01*
X128352500Y-116434400D02*
X128352500Y-118396500D01*
X127852500Y-101372300D02*
G75*
G02*
X128352500Y-101872300I0J-500000D01*
G01*
X167754162Y-90180499D02*
G75*
G02*
X167754162Y-88680501I38J749999D01*
G01*
X158554162Y-60450833D02*
X161554162Y-60450833D01*
X93573000Y-45586000D02*
X93573641Y-45619324D01*
X93578765Y-71040713D02*
X93588961Y-71090326D01*
X157054162Y-121410165D02*
G75*
G02*
X158554162Y-119910162I1500038J-35D01*
G01*
X92975381Y-122929365D02*
X92944379Y-122889313D01*
X108642713Y-71459234D02*
X108692326Y-71449038D01*
X129935500Y-86217200D02*
X131435500Y-86217200D01*
X133446000Y-46086000D02*
G75*
G02*
X135446000Y-44086000I2000000J0D01*
G01*
X109066358Y-96361324D02*
X109067000Y-96328000D01*
X93875822Y-96795478D02*
X93923318Y-96813069D01*
X109854802Y-122766097D02*
X109810517Y-122790677D01*
X108852634Y-145156618D02*
X108809650Y-145129826D01*
X108892686Y-71344379D02*
X108929396Y-71309483D01*
X109067000Y-44086000D02*
X93573000Y-44086000D01*
X161554162Y-44086000D02*
X157054162Y-44086000D01*
X153054162Y-91551919D02*
G75*
G02*
X151054162Y-93551862I-1999962J19D01*
G01*
X157054162Y-114345332D02*
X157054162Y-106545332D01*
X111585047Y-144559000D02*
X111585047Y-122715000D01*
X109575000Y-97844000D02*
X109575000Y-118688000D01*
X109585235Y-93417649D02*
X109597930Y-93466681D01*
X109637826Y-93559650D02*
X109664618Y-93602634D01*
X108809650Y-119758826D02*
X108764177Y-119736521D01*
X93588961Y-145441673D02*
X93578765Y-145491286D01*
X170754162Y-45586000D02*
G75*
G02*
X172254200Y-47086000I38J-1500000D01*
G01*
X115085500Y-119489500D02*
G75*
G02*
X115585500Y-119989500I0J-500000D01*
G01*
X94073000Y-96836000D02*
X108592324Y-96835358D01*
X93808517Y-69029677D02*
X93787365Y-69043618D01*
X92640713Y-46607765D02*
X92590324Y-46602641D01*
X109810517Y-72048677D02*
X109768947Y-72077612D01*
X108991322Y-45858482D02*
X109015902Y-45814197D01*
X158554162Y-71250833D02*
G75*
G02*
X157054167Y-69750833I38J1500033D01*
G01*
X140150081Y-72339301D02*
X136446000Y-72339301D01*
X93062434Y-47051415D02*
X93054764Y-47001350D01*
X155054162Y-85615666D02*
X155054162Y-75815666D01*
X135446000Y-73339300D02*
G75*
G02*
X136446000Y-72339300I1000100J-100D01*
G01*
X129935500Y-75803200D02*
X131435500Y-75803200D01*
X108692326Y-71449038D02*
X108740652Y-71433876D01*
X129435500Y-134551600D02*
X129435500Y-143965600D01*
X94073000Y-71465000D02*
X108592324Y-71464358D01*
X108642713Y-96830234D02*
X108692326Y-96820038D01*
X117168500Y-89772300D02*
G75*
G02*
X116668500Y-89272300I0J500000D01*
G01*
X93677612Y-94518947D02*
X93648677Y-94560517D01*
X117168500Y-60648100D02*
X127852500Y-60648100D01*
X109854802Y-97395097D02*
X109810517Y-97419677D01*
X135446000Y-144575000D02*
X135446000Y-126862381D01*
X151054162Y-126862381D02*
X151054162Y-144575000D01*
X146350081Y-93551919D02*
X151054162Y-93551919D01*
X172254162Y-132210165D02*
X167754162Y-132210165D01*
X92557000Y-93817000D02*
X91057000Y-93817000D01*
X109066358Y-121732324D02*
X109067000Y-121699000D01*
X93054764Y-118788649D02*
X93062434Y-118738584D01*
X109597930Y-68095681D02*
X109615521Y-68143177D01*
X146350081Y-147075000D02*
X151054162Y-147075000D01*
X92590324Y-97344641D02*
X92557000Y-97344000D01*
X127852500Y-72248100D02*
G75*
G02*
X128352500Y-72748100I0J-500000D01*
G01*
X109695620Y-68271686D02*
X109730516Y-68308396D01*
X151054162Y-117805219D02*
G75*
G02*
X150054162Y-118805162I-999962J19D01*
G01*
X135446000Y-64298619D02*
X135446000Y-46586000D01*
X109615521Y-46904822D02*
X109597930Y-46952318D01*
X108716681Y-145089930D02*
X108667649Y-145077235D01*
X140150081Y-45586001D02*
X136446000Y-45586001D01*
X92785197Y-46653097D02*
X92738652Y-46633123D01*
X109949673Y-68430038D02*
X109999286Y-68440234D01*
X150054162Y-125862381D02*
G75*
G02*
X151054219Y-126862381I38J-1000019D01*
G01*
X174254162Y-130210165D02*
X174254162Y-120410165D01*
X93573641Y-121732324D02*
X93578765Y-121782713D01*
X93573000Y-45586000D02*
X93573000Y-44091000D01*
X92690326Y-68430038D02*
X92738652Y-68414876D01*
X109585235Y-97743350D02*
X109577565Y-97793415D01*
X161554162Y-58950833D02*
X157054162Y-58950833D01*
X174254162Y-145074998D02*
X174254162Y-135274998D01*
X116668500Y-130996500D02*
G75*
G02*
X117168500Y-130496500I500000J0D01*
G01*
X93899347Y-94356123D02*
X93852802Y-94376097D01*
X93972350Y-122196764D02*
X94022415Y-122204434D01*
X161554162Y-103545332D02*
G75*
G02*
X161554162Y-105045268I38J-749968D01*
G01*
X110085047Y-144559000D02*
X111585047Y-144559000D01*
X92640713Y-119182234D02*
X92690326Y-119172038D01*
X93042069Y-93466681D02*
X93054764Y-93417649D01*
X93710603Y-45938483D02*
X93747313Y-45973379D01*
X158554162Y-56386000D02*
G75*
G02*
X157054200Y-54886000I38J1500000D01*
G01*
X157054162Y-87615666D02*
G75*
G02*
X155054234Y-85615666I38J1999966D01*
G01*
X158554162Y-86115666D02*
G75*
G02*
X157054234Y-84615666I38J1499966D01*
G01*
X92590324Y-93816358D02*
X92640713Y-93811234D01*
X129435500Y-119989500D02*
G75*
G02*
X129935500Y-119489500I500000J0D01*
G01*
X151054162Y-46586000D02*
X151054162Y-64298619D01*
X93024478Y-68143177D02*
X93042069Y-68095681D01*
X151054162Y-97592600D02*
G75*
G02*
X153054200Y-99592600I38J-2000000D01*
G01*
X128352500Y-74710200D02*
G75*
G02*
X127852500Y-75210200I-500000J0D01*
G01*
X93588961Y-45719326D02*
X93604123Y-45767652D01*
X92557000Y-68446000D02*
X92590324Y-68445358D01*
X113585500Y-46679000D02*
X113585500Y-57093000D01*
X110083000Y-68446000D02*
X111583000Y-68446000D01*
X115085500Y-71655100D02*
X113585500Y-71655100D01*
X172254162Y-103545332D02*
X167754162Y-103545332D01*
X109637826Y-118930650D02*
X109664618Y-118973634D01*
X115585500Y-129403500D02*
X115585500Y-119989500D01*
X91057000Y-122715000D02*
X91057000Y-144559000D01*
X129935500Y-100779300D02*
X131435500Y-100779300D01*
X109051038Y-45719326D02*
X109061234Y-45669713D01*
X115585500Y-143965600D02*
G75*
G02*
X115085500Y-144465600I-500000J0D01*
G01*
X92944379Y-144384686D02*
X92975381Y-144344634D01*
X108809650Y-145129826D02*
X108764177Y-145107521D01*
X115085500Y-46679000D02*
X113585500Y-46679000D01*
X110083000Y-93817000D02*
X111583000Y-93817000D01*
X92975381Y-118973634D02*
X93002173Y-118930650D01*
X136446000Y-118805219D02*
G75*
G02*
X135445981Y-117805219I0J1000019D01*
G01*
X170754162Y-119910165D02*
X167754162Y-119910165D01*
X128352500Y-101872300D02*
X128352500Y-103834400D01*
X93578765Y-45669713D02*
X93588961Y-45719326D01*
X133446000Y-72839300D02*
G75*
G02*
X135446000Y-70839300I2000000J0D01*
G01*
X146350081Y-45586001D02*
G75*
G02*
X146350081Y-44085999I19J750001D01*
G01*
X109035876Y-45767652D02*
X109051038Y-45719326D01*
X109585235Y-123114350D02*
X109577565Y-123164415D01*
X161554162Y-57886000D02*
X157054162Y-57886000D01*
X146350081Y-125862382D02*
X150054162Y-125862382D01*
X109015902Y-69233802D02*
X108991322Y-69189517D01*
X167754162Y-75315666D02*
G75*
G02*
X167754162Y-73815734I38J749966D01*
G01*
X109637826Y-97601349D02*
X109615521Y-97646822D01*
X93899347Y-68985123D02*
X93852802Y-69005097D01*
X161554162Y-118410165D02*
X157054162Y-118410165D01*
X93787365Y-122117381D02*
X93830349Y-122144173D01*
X109999286Y-68440234D02*
X110049675Y-68445358D01*
X93677612Y-71271052D02*
X93710603Y-71309483D01*
X93624097Y-96556197D02*
X93648677Y-96600482D01*
X92829482Y-46677677D02*
X92785197Y-46653097D01*
X93002173Y-97601349D02*
X92975381Y-97558365D01*
X109067000Y-147075000D02*
X93573000Y-147075000D01*
X172254162Y-102480499D02*
X167754162Y-102480499D01*
X93852802Y-145118097D02*
X93808517Y-145142677D01*
X93830349Y-46031173D02*
X93875822Y-46053478D01*
X109035876Y-69280347D02*
X109015902Y-69233802D01*
X135446000Y-100092600D02*
G75*
G02*
X136446000Y-99092600I1000100J-100D01*
G01*
X140150081Y-145575000D02*
G75*
G02*
X140150081Y-147075000I19J-750000D01*
G01*
X93648677Y-45858482D02*
X93677612Y-45900052D01*
X172254162Y-88680499D02*
X167754162Y-88680499D01*
X115585500Y-100279300D02*
X115585500Y-90865300D01*
X133446000Y-99592600D02*
X133446000Y-118305219D01*
X109949673Y-122730961D02*
X109901347Y-122746123D01*
X133446000Y-46086000D02*
X133446000Y-64798619D01*
X140150081Y-124362382D02*
X135446000Y-124362382D01*
X93604123Y-145393347D02*
X93588961Y-145441673D01*
X113585500Y-119489500D02*
X113585500Y-129903500D01*
X109901347Y-46633123D02*
X109854802Y-46653097D01*
X108852634Y-122117381D02*
X108892686Y-122086379D01*
X115085500Y-86217200D02*
X113585500Y-86217200D01*
X92785197Y-144507902D02*
X92829482Y-144483322D01*
X92590324Y-119187358D02*
X92640713Y-119182234D01*
X108852634Y-119785618D02*
X108809650Y-119758826D01*
X93787365Y-145156618D02*
X93747313Y-145187620D01*
X135446000Y-66798619D02*
G75*
G02*
X133445981Y-64798619I0J2000019D01*
G01*
X92557000Y-46602000D02*
X91057000Y-46602000D01*
X170754162Y-45586000D02*
X167754162Y-45586000D01*
X115585500Y-85717200D02*
G75*
G02*
X115085500Y-86217200I-500000J0D01*
G01*
X153054162Y-118305219D02*
X153054162Y-99592600D01*
X109577565Y-118738584D02*
X109585235Y-118788649D01*
X93747313Y-94445620D02*
X93710603Y-94480516D01*
X108929396Y-96680483D02*
X108962387Y-96642052D01*
X129935500Y-115341400D02*
X131435500Y-115341400D01*
X135446000Y-46586000D02*
G75*
G02*
X136446000Y-45586000I1000100J-100D01*
G01*
X109067000Y-69462000D02*
X109066358Y-69428675D01*
X93065000Y-47102000D02*
X93062434Y-47051415D01*
X109035876Y-120022347D02*
X109015902Y-119975802D01*
X92590324Y-122715641D02*
X92557000Y-122715000D01*
X150054162Y-72339300D02*
G75*
G02*
X151054200Y-73339300I38J-1000000D01*
G01*
X92738652Y-97375123D02*
X92690326Y-97359961D01*
X140150081Y-44086001D02*
X135446000Y-44086001D01*
X109066358Y-94799675D02*
X109061234Y-94749286D01*
X108929396Y-122051483D02*
X108962387Y-122013052D01*
X115585500Y-56593000D02*
X115585500Y-47179000D01*
X92829482Y-122790677D02*
X92785197Y-122766097D01*
X158554162Y-90180499D02*
X161554162Y-90180499D01*
X128352500Y-87310200D02*
X128352500Y-89272300D01*
X170754162Y-134774998D02*
G75*
G02*
X172254202Y-136274998I38J-1500002D01*
G01*
X94022415Y-46091434D02*
X94073000Y-46094000D01*
X93923318Y-96813069D02*
X93972350Y-96825764D01*
X93710603Y-71309483D02*
X93747313Y-71344379D01*
X150054162Y-65298619D02*
X146350081Y-65298619D01*
X146350081Y-66798619D02*
G75*
G02*
X146350081Y-65298581I19J750019D01*
G01*
X170754162Y-90180499D02*
G75*
G02*
X172254201Y-91680499I38J-1500001D01*
G01*
X109051038Y-94699673D02*
X109035876Y-94651347D01*
X108991322Y-94560517D02*
X108962387Y-94518947D01*
X109949673Y-71988961D02*
X109901347Y-72004123D01*
X109664618Y-93602634D02*
X109695620Y-93642686D01*
X161554162Y-88680499D02*
X157054162Y-88680499D01*
X108991322Y-119931517D02*
X108962387Y-119889947D01*
X92871052Y-119083387D02*
X92909483Y-119050396D01*
X108991322Y-96600482D02*
X109015902Y-96556197D01*
X93573641Y-70990324D02*
X93578765Y-71040713D01*
X161554162Y-100980499D02*
G75*
G02*
X161554162Y-102480501I38J-750001D01*
G01*
X108617584Y-68956565D02*
X108567000Y-68954000D01*
X151054162Y-91051919D02*
G75*
G02*
X150054162Y-92051862I-999962J19D01*
G01*
X140150081Y-70839301D02*
G75*
G02*
X140150081Y-72339299I19J-749999D01*
G01*
X92909483Y-93679396D02*
X92944379Y-93642686D01*
X93054764Y-93417649D02*
X93062434Y-93367584D01*
X92640713Y-144553234D02*
X92690326Y-144543038D01*
X92871052Y-122819612D02*
X92829482Y-122790677D01*
X93573641Y-69428675D02*
X93573000Y-69462000D01*
X140150081Y-118805219D02*
X136446000Y-118805219D01*
X110085047Y-122715000D02*
X111585047Y-122715000D01*
X94022415Y-122204434D02*
X94073000Y-122207000D01*
X92557000Y-144559000D02*
X91057000Y-144559000D01*
X92590324Y-68445358D02*
X92640713Y-68440234D01*
X109854802Y-72024097D02*
X109810517Y-72048677D01*
X146350081Y-45586001D02*
X150054162Y-45586001D01*
X108716681Y-68976930D02*
X108667649Y-68964235D01*
X155054162Y-130210165D02*
X155054162Y-120410165D01*
X135446000Y-91051919D02*
X135446000Y-73339300D01*
X108962387Y-45900052D02*
X108991322Y-45858482D01*
X151054162Y-44086000D02*
G75*
G02*
X153054200Y-46086000I38J-2000000D01*
G01*
X153054162Y-64798619D02*
G75*
G02*
X151054162Y-66798562I-1999962J19D01*
G01*
X92975381Y-93602634D02*
X93002173Y-93559650D01*
X109810517Y-68370322D02*
X109854802Y-68394902D01*
X93747313Y-96715379D02*
X93787365Y-96746381D01*
X109768947Y-72077612D02*
X109730516Y-72110603D01*
X161554162Y-86115666D02*
X158554162Y-86115666D01*
X108787197Y-46042902D02*
X108831482Y-46018322D01*
X151054162Y-70839300D02*
X146350081Y-70839300D01*
X115085500Y-75803200D02*
G75*
G02*
X115585500Y-76303200I0J-500000D01*
G01*
X109901347Y-68414876D02*
X109949673Y-68430038D01*
X108787197Y-122155902D02*
X108831482Y-122131322D01*
X93604123Y-71138652D02*
X93624097Y-71185197D01*
X93604123Y-121880652D02*
X93624097Y-121927197D01*
X92944379Y-122889313D02*
X92909483Y-122852603D01*
X116668500Y-72748100D02*
X116668500Y-74710200D01*
X172254162Y-87615666D02*
X167754162Y-87615666D01*
X92909483Y-144421396D02*
X92944379Y-144384686D01*
X108831482Y-96760322D02*
X108852634Y-96746381D01*
X93024478Y-118885177D02*
X93042069Y-118837681D01*
X167754162Y-119910165D02*
G75*
G02*
X167754162Y-118410235I38J749965D01*
G01*
X109637826Y-72230349D02*
X109615521Y-72275822D01*
X108667649Y-145077235D02*
X108617584Y-145069565D01*
X108764177Y-145107521D02*
X108716681Y-145089930D01*
X108764177Y-94365521D02*
X108716681Y-94347930D01*
X109949673Y-93801038D02*
X109999286Y-93811234D01*
X108852634Y-96746381D02*
X108892686Y-96715379D01*
X109597930Y-118837681D02*
X109615521Y-118885177D01*
X109067000Y-70957000D02*
X109067000Y-69462000D01*
X117168500Y-89772300D02*
X127852500Y-89772300D01*
X157054162Y-147074998D02*
G75*
G02*
X155054202Y-145074998I38J1999998D01*
G01*
X93997286Y-68959765D02*
X93947673Y-68969961D01*
X128352500Y-45586000D02*
G75*
G02*
X127852500Y-46086000I-500000J0D01*
G01*
X92944379Y-68271686D02*
X92975381Y-68231634D01*
X172254162Y-133274998D02*
G75*
G02*
X174254202Y-135274998I38J-2000002D01*
G01*
X110083000Y-119188000D02*
X111583000Y-119188000D01*
X128352500Y-72748100D02*
X128352500Y-74710200D01*
X115085500Y-144465600D02*
X113585500Y-144465600D01*
X92944379Y-93642686D02*
X92975381Y-93602634D01*
X140150081Y-92051919D02*
G75*
G02*
X140150081Y-93551881I19J-749981D01*
G01*
X93002173Y-46859349D02*
X92975381Y-46816365D01*
X151054162Y-64298619D02*
G75*
G02*
X150054162Y-65298562I-999962J19D01*
G01*
X116668500Y-116434400D02*
X116668500Y-118396500D01*
X108592324Y-46093358D02*
X108642713Y-46088234D01*
X174254162Y-85615666D02*
G75*
G02*
X172254162Y-87615662I-1999962J-34D01*
G01*
X172254162Y-103545332D02*
G75*
G02*
X174254168Y-105545332I38J-1999968D01*
G01*
X157054162Y-129210165D02*
X157054162Y-121410165D01*
X172254162Y-72750833D02*
X167754162Y-72750833D01*
X140150081Y-120305219D02*
X135446000Y-120305219D01*
X92590324Y-46602641D02*
X92557000Y-46602000D01*
X161554162Y-133274998D02*
X157054162Y-133274998D01*
X93578765Y-96411713D02*
X93588961Y-96461326D01*
X109577565Y-47051415D02*
X109575000Y-47102000D01*
X93947673Y-145082961D02*
X93899347Y-145098123D01*
X93997286Y-119701765D02*
X93947673Y-119711961D01*
X161554162Y-133274998D02*
G75*
G02*
X161554162Y-134775002I38J-750002D01*
G01*
X92738652Y-144527876D02*
X92785197Y-144507902D01*
X128352500Y-89272300D02*
G75*
G02*
X127852500Y-89772300I-500000J0D01*
G01*
X94047675Y-119696641D02*
X93997286Y-119701765D01*
X127852500Y-115934400D02*
X117168500Y-115934400D01*
X146350081Y-93551919D02*
G75*
G02*
X146350081Y-92051881I19J750019D01*
G01*
X116668500Y-145558600D02*
G75*
G02*
X117168500Y-145058600I500000J0D01*
G01*
X170754162Y-119910165D02*
G75*
G02*
X172254235Y-121410165I38J-1500035D01*
G01*
X92557000Y-122715000D02*
X91057000Y-122715000D01*
X108692326Y-122191038D02*
X108740652Y-122175876D01*
X93972350Y-71454764D02*
X94022415Y-71462434D01*
X93024478Y-72275822D02*
X93002173Y-72230349D01*
X108787197Y-71413902D02*
X108831482Y-71389322D01*
X109067000Y-96328000D02*
X109067000Y-94833000D01*
X174254162Y-55886000D02*
X174254162Y-46086000D01*
X140150081Y-147075000D02*
X135446000Y-147075000D01*
X92829482Y-119112322D02*
X92871052Y-119083387D01*
X93065000Y-97844000D02*
X93062434Y-97793415D01*
X93573641Y-45619324D02*
X93578765Y-45669713D01*
X93065000Y-123215000D02*
X93062434Y-123164415D01*
X91057000Y-68446000D02*
X91057000Y-46602000D01*
X129435500Y-76303200D02*
G75*
G02*
X129935500Y-75803200I500000J0D01*
G01*
X158554162Y-130710165D02*
G75*
G02*
X157054235Y-129210165I38J1499965D01*
G01*
X174254162Y-115345332D02*
G75*
G02*
X172254162Y-117345262I-1999962J32D01*
G01*
X167754162Y-57886000D02*
G75*
G02*
X167754162Y-56386000I38J750000D01*
G01*
X115085500Y-104927400D02*
X113585500Y-104927400D01*
X108929396Y-71309483D02*
X108962387Y-71271052D01*
X92829482Y-97419677D02*
X92785197Y-97395097D01*
X93648677Y-145302517D02*
X93624097Y-145346802D01*
X92690326Y-122730961D02*
X92640713Y-122720765D01*
X92909483Y-97481603D02*
X92871052Y-97448612D01*
X161554162Y-115845332D02*
X158554162Y-115845332D01*
X127852500Y-115934400D02*
G75*
G02*
X128352500Y-116434400I0J-500000D01*
G01*
X93808517Y-119771677D02*
X93787365Y-119785618D01*
X172254162Y-147074998D02*
X167754162Y-147074998D01*
X94022415Y-71462434D02*
X94073000Y-71465000D01*
X129435500Y-90865300D02*
X129435500Y-100279300D01*
X129435500Y-61741100D02*
X129435500Y-71155100D01*
X93787365Y-94414618D02*
X93747313Y-94445620D01*
X157054162Y-47086000D02*
G75*
G02*
X158554162Y-45585962I1500038J0D01*
G01*
X94073000Y-122207000D02*
X108592324Y-122206358D01*
X109949673Y-97359961D02*
X109901347Y-97375123D01*
X161554162Y-117345332D02*
X157054162Y-117345332D01*
X93710603Y-96680483D02*
X93747313Y-96715379D01*
X109901347Y-144527876D02*
X109949673Y-144543038D01*
X109664618Y-97558365D02*
X109637826Y-97601349D01*
X92909483Y-119050396D02*
X92944379Y-119013686D01*
X110049675Y-71973641D02*
X109999286Y-71978765D01*
X93923318Y-46071069D02*
X93972350Y-46083764D01*
X93054764Y-144159649D02*
X93062434Y-144109584D01*
X151054162Y-124362381D02*
G75*
G02*
X153054219Y-126362381I38J-2000019D01*
G01*
X93042069Y-118837681D02*
X93054764Y-118788649D01*
X108929396Y-45938483D02*
X108962387Y-45900052D01*
X108962387Y-69147947D02*
X108929396Y-69109516D01*
X108740652Y-71433876D02*
X108787197Y-71413902D01*
X115085500Y-115341400D02*
X113585500Y-115341400D01*
X109585235Y-144159649D02*
X109597930Y-144208681D01*
X146350081Y-99092601D02*
G75*
G02*
X146350081Y-97592599I19J750001D01*
G01*
X172254162Y-117345332D02*
X167754162Y-117345332D01*
X131435500Y-129903500D02*
X131435500Y-119489500D01*
X93852802Y-94376097D02*
X93808517Y-94400677D01*
X161554162Y-71250833D02*
X158554162Y-71250833D01*
X110049675Y-144558358D02*
X110083000Y-144559000D01*
X172254162Y-144074998D02*
G75*
G02*
X170754162Y-145574962I-1499962J-2D01*
G01*
X109695620Y-46776313D02*
X109664618Y-46816365D01*
X129935500Y-115341400D02*
G75*
G02*
X129435500Y-114841400I0J500000D01*
G01*
X129435500Y-105427400D02*
G75*
G02*
X129935500Y-104927400I500000J0D01*
G01*
X93787365Y-46004381D02*
X93830349Y-46031173D01*
X93573000Y-70957000D02*
X93573641Y-70990324D01*
X108567000Y-94325000D02*
X94047675Y-94325641D01*
X109577565Y-97793415D02*
X109575000Y-97844000D01*
X93578765Y-69378286D02*
X93573641Y-69428675D01*
X110083000Y-71973000D02*
X110049675Y-71973641D01*
X93054764Y-47001350D02*
X93042069Y-46952318D01*
X109577565Y-123164415D02*
X109575000Y-123215000D01*
X167754162Y-87615666D02*
G75*
G02*
X167754162Y-86115734I38J749966D01*
G01*
X151054162Y-144575000D02*
G75*
G02*
X150054162Y-145574962I-999962J0D01*
G01*
X133446000Y-126362381D02*
G75*
G02*
X135446000Y-124362400I2000000J-19D01*
G01*
X140150081Y-118805219D02*
G75*
G02*
X140150081Y-120305181I19J-749981D01*
G01*
X109810517Y-122790677D02*
X109768947Y-122819612D01*
X129435500Y-76303200D02*
X129435500Y-85717200D01*
X108892686Y-145187620D02*
X108852634Y-145156618D01*
X109585235Y-72372350D02*
X109577565Y-72422415D01*
X108809650Y-94387826D02*
X108764177Y-94365521D01*
X92640713Y-122720765D02*
X92590324Y-122715641D01*
X109999286Y-71978765D02*
X109949673Y-71988961D01*
X108764177Y-68994521D02*
X108716681Y-68976930D01*
X108892686Y-122086379D02*
X108929396Y-122051483D01*
X172254162Y-58950833D02*
X167754162Y-58950833D01*
X172254162Y-129210165D02*
G75*
G02*
X170754162Y-130710162I-1499962J-35D01*
G01*
X92785197Y-97395097D02*
X92738652Y-97375123D01*
X93677612Y-45900052D02*
X93710603Y-45938483D01*
X109015902Y-96556197D02*
X109035876Y-96509652D01*
X93624097Y-121927197D02*
X93648677Y-121971482D01*
X155054162Y-120410165D02*
G75*
G02*
X157054162Y-118410162I2000038J-35D01*
G01*
X109695620Y-122889313D02*
X109664618Y-122929365D01*
X170754162Y-105045332D02*
G75*
G02*
X172254168Y-106545332I38J-1499968D01*
G01*
X155054162Y-105545332D02*
G75*
G02*
X157054162Y-103545262I2000038J32D01*
G01*
X109061234Y-145491286D02*
X109051038Y-145441673D01*
X108567000Y-119696000D02*
X94047675Y-119696641D01*
X150054162Y-99092600D02*
G75*
G02*
X151054200Y-100092600I38J-1000000D01*
G01*
X108852634Y-71375381D02*
X108892686Y-71344379D01*
X140150081Y-70839301D02*
X135446000Y-70839301D01*
X117168500Y-104334400D02*
G75*
G02*
X116668500Y-103834400I0J500000D01*
G01*
X161554162Y-73815666D02*
G75*
G02*
X161554162Y-75315734I38J-750034D01*
G01*
X93648677Y-119931517D02*
X93624097Y-119975802D01*
X170754162Y-145574998D02*
X167754162Y-145574998D01*
X109637826Y-46859349D02*
X109615521Y-46904822D01*
X109901347Y-72004123D02*
X109854802Y-72024097D01*
X109585235Y-118788649D02*
X109597930Y-118837681D01*
X110049675Y-122715641D02*
X109999286Y-122720765D01*
X140150081Y-99092601D02*
X136446000Y-99092601D01*
X108929396Y-69109516D02*
X108892686Y-69074620D01*
X109035876Y-145393347D02*
X109015902Y-145346802D01*
X94022415Y-96833434D02*
X94073000Y-96836000D01*
X115085500Y-104927400D02*
G75*
G02*
X115585500Y-105427400I0J-500000D01*
G01*
X109577565Y-93367584D02*
X109585235Y-93417649D01*
X108740652Y-46062876D02*
X108787197Y-46042902D01*
X109597930Y-123065318D02*
X109585235Y-123114350D01*
X109597930Y-97694318D02*
X109585235Y-97743350D01*
X140150081Y-65298619D02*
X136446000Y-65298619D01*
X109615521Y-123017822D02*
X109597930Y-123065318D01*
X136446000Y-65298619D02*
G75*
G02*
X135445981Y-64298619I0J1000019D01*
G01*
X93054764Y-123114350D02*
X93042069Y-123065318D01*
X128352500Y-45586000D02*
X128352500Y-44086000D01*
X93042069Y-68095681D02*
X93054764Y-68046649D01*
X109854802Y-68394902D02*
X109901347Y-68414876D01*
X93065000Y-67946000D02*
X93065000Y-47102000D01*
X93024478Y-123017822D02*
X93002173Y-122972349D01*
X92640713Y-71978765D02*
X92590324Y-71973641D01*
X127852500Y-72248100D02*
X117168500Y-72248100D01*
X93747313Y-119816620D02*
X93710603Y-119851516D01*
X155054162Y-90680499D02*
G75*
G02*
X157054162Y-88680462I2000038J-1D01*
G01*
X172254162Y-76815666D02*
X172254162Y-84615666D01*
X93997286Y-145072765D02*
X93947673Y-145082961D01*
X93648677Y-71229482D02*
X93677612Y-71271052D01*
X129935500Y-134051600D02*
X131435500Y-134051600D01*
X155054162Y-70750833D02*
X155054162Y-60950833D01*
X93065000Y-93317000D02*
X93065000Y-72473000D01*
X93578765Y-120120286D02*
X93573641Y-120170675D01*
X109597930Y-46952318D02*
X109585235Y-47001350D01*
X93875822Y-71424478D02*
X93923318Y-71442069D01*
X91057000Y-93817000D02*
X91057000Y-71973000D01*
X93065000Y-118688000D02*
X93065000Y-97844000D01*
X108642713Y-46088234D02*
X108692326Y-46078038D01*
X109664618Y-68231634D02*
X109695620Y-68271686D01*
X153054162Y-118305219D02*
G75*
G02*
X151054162Y-120305162I-1999962J19D01*
G01*
X117168500Y-118896500D02*
X127852500Y-118896500D01*
X172254162Y-73815666D02*
X167754162Y-73815666D01*
X92975381Y-97558365D02*
X92944379Y-97518313D01*
X161554162Y-130710165D02*
X158554162Y-130710165D01*
X92975381Y-72187365D02*
X92944379Y-72147313D01*
X109067000Y-45586000D02*
X109067000Y-44086000D01*
X129935500Y-104927400D02*
X131435500Y-104927400D01*
X109575000Y-144059000D02*
X109577565Y-144109584D01*
X93065000Y-144059000D02*
X93065000Y-123215000D01*
X109615521Y-144256177D02*
X109637826Y-144301650D01*
X93065000Y-72473000D02*
X93062434Y-72422415D01*
X109949673Y-119172038D02*
X109999286Y-119182234D01*
X108991322Y-145302517D02*
X108962387Y-145260947D01*
X94073000Y-46094000D02*
X108592324Y-46093358D01*
X158554162Y-105045332D02*
X161554162Y-105045332D01*
X92975381Y-144344634D02*
X93002173Y-144301650D01*
X161554162Y-73815666D02*
X157054162Y-73815666D01*
X92690326Y-97359961D02*
X92640713Y-97349765D01*
X172254162Y-133274998D02*
X167754162Y-133274998D01*
X93573000Y-96328000D02*
X93573641Y-96361324D01*
X109615521Y-72275822D02*
X109597930Y-72323318D01*
X131435500Y-57093000D02*
X131435500Y-46679000D01*
X93648677Y-69189517D02*
X93624097Y-69233802D01*
X174254162Y-70750833D02*
X174254162Y-60950833D01*
X157054162Y-102480499D02*
G75*
G02*
X155054201Y-100480499I38J1999999D01*
G01*
X92871052Y-93712387D02*
X92909483Y-93679396D01*
X108991322Y-121971482D02*
X109015902Y-121927197D01*
X115085500Y-57093000D02*
X113585500Y-57093000D01*
X108929396Y-145222516D02*
X108892686Y-145187620D01*
X108716681Y-94347930D02*
X108667649Y-94335235D01*
X109051038Y-96461326D02*
X109061234Y-96411713D01*
X167754162Y-105045332D02*
G75*
G02*
X167754162Y-103545268I38J750032D01*
G01*
X115585500Y-71155100D02*
X115585500Y-61741100D01*
X153054162Y-91551919D02*
X153054162Y-72839300D01*
X128352500Y-44086000D02*
X116668500Y-44086000D01*
X140150081Y-124362382D02*
G75*
G02*
X140150081Y-125862418I19J-750018D01*
G01*
X153054162Y-145075000D02*
G75*
G02*
X151054162Y-147074962I-1999962J0D01*
G01*
X151054162Y-97592600D02*
X146350081Y-97592600D01*
X93808517Y-145142677D02*
X93787365Y-145156618D01*
X108567000Y-145067000D02*
X94047675Y-145067641D01*
X157054162Y-76815666D02*
G75*
G02*
X158554162Y-75315662I1500038J-34D01*
G01*
X129435500Y-61741100D02*
G75*
G02*
X129935500Y-61241100I500000J0D01*
G01*
X167754162Y-72750833D02*
G75*
G02*
X167754162Y-71250767I38J750033D01*
G01*
X93710603Y-119851516D02*
X93677612Y-119889947D01*
X116668500Y-145558600D02*
X116668500Y-147075000D01*
X109695620Y-72147313D02*
X109664618Y-72187365D01*
X115085500Y-61241100D02*
X113585500Y-61241100D01*
X108692326Y-46078038D02*
X108740652Y-46062876D01*
X93604123Y-94651347D02*
X93588961Y-94699673D01*
X93002173Y-72230349D02*
X92975381Y-72187365D01*
X109664618Y-144344634D02*
X109695620Y-144384686D01*
X109615521Y-118885177D02*
X109637826Y-118930650D01*
X172254162Y-121410165D02*
X172254162Y-129210165D01*
X172254162Y-54886000D02*
G75*
G02*
X170754162Y-56385962I-1499962J0D01*
G01*
X93588961Y-96461326D02*
X93604123Y-96509652D01*
X128352500Y-118396500D02*
G75*
G02*
X127852500Y-118896500I-500000J0D01*
G01*
X140150081Y-125862382D02*
X136446000Y-125862382D01*
X108852634Y-46004381D02*
X108892686Y-45973379D01*
X129935500Y-57093000D02*
G75*
G02*
X129435500Y-56593000I0J500000D01*
G01*
X109810517Y-93741322D02*
X109854802Y-93765902D01*
X109768947Y-119083387D02*
X109810517Y-119112322D01*
X109067000Y-121699000D02*
X109067000Y-120204000D01*
X113585500Y-61241100D02*
X113585500Y-71655100D01*
X92557000Y-93817000D02*
X92590324Y-93816358D01*
X109615521Y-97646822D02*
X109597930Y-97694318D01*
X109615521Y-93514177D02*
X109637826Y-93559650D01*
X129935500Y-61241100D02*
X131435500Y-61241100D01*
X92785197Y-93765902D02*
X92829482Y-93741322D01*
X127852500Y-57686000D02*
G75*
G02*
X128352500Y-58186000I0J-500000D01*
G01*
X115085500Y-75803200D02*
X113585500Y-75803200D01*
X109999286Y-97349765D02*
X109949673Y-97359961D01*
X135446000Y-93551919D02*
G75*
G02*
X133445981Y-91551919I0J2000019D01*
G01*
X161554162Y-115845332D02*
G75*
G02*
X161554162Y-117345268I38J-749968D01*
G01*
X92871052Y-46706612D02*
X92829482Y-46677677D01*
X127852500Y-130496500D02*
X117168500Y-130496500D01*
X109664618Y-122929365D02*
X109637826Y-122972349D01*
X131435500Y-86217200D02*
X131435500Y-75803200D01*
X128352500Y-103834400D02*
G75*
G02*
X127852500Y-104334400I-500000J0D01*
G01*
X140150081Y-97592601D02*
X135446000Y-97592601D01*
X109999286Y-119182234D02*
X110049675Y-119187358D01*
X108962387Y-145260947D02*
X108929396Y-145222516D01*
X109730516Y-72110603D02*
X109695620Y-72147313D01*
X92944379Y-46776313D02*
X92909483Y-46739603D01*
X172254162Y-44086000D02*
X167754162Y-44086000D01*
X109051038Y-69328673D02*
X109035876Y-69280347D01*
X151054162Y-124362381D02*
X146350081Y-124362381D01*
X109577565Y-144109584D02*
X109585235Y-144159649D01*
X161554162Y-56386000D02*
X158554162Y-56386000D01*
X113585500Y-134051600D02*
X113585500Y-144465600D01*
X158554162Y-100980499D02*
G75*
G02*
X157054201Y-99480499I38J1499999D01*
G01*
X108740652Y-96804876D02*
X108787197Y-96784902D01*
X133446000Y-126362381D02*
X133446000Y-145075000D01*
X116668500Y-87310200D02*
X116668500Y-89272300D01*
X93648677Y-121971482D02*
X93677612Y-122013052D01*
X94047675Y-68954641D02*
X93997286Y-68959765D01*
X136446000Y-145575000D02*
G75*
G02*
X135446000Y-144575000I0J1000000D01*
G01*
X92738652Y-122746123D02*
X92690326Y-122730961D01*
X92590324Y-71973641D02*
X92557000Y-71973000D01*
X117168500Y-75210200D02*
G75*
G02*
X116668500Y-74710200I0J500000D01*
G01*
X150054162Y-118805219D02*
X146350081Y-118805219D01*
X117168500Y-46086000D02*
G75*
G02*
X116668500Y-45586000I0J500000D01*
G01*
X93024478Y-144256177D02*
X93042069Y-144208681D01*
X170754162Y-60450833D02*
X167754162Y-60450833D01*
X140150081Y-44086001D02*
G75*
G02*
X140150081Y-45585999I19J-749999D01*
G01*
X109061234Y-45669713D02*
X109066358Y-45619324D01*
X128352500Y-130996500D02*
X128352500Y-132958600D01*
X109854802Y-119136902D02*
X109901347Y-119156876D01*
X93972350Y-46083764D02*
X94022415Y-46091434D01*
X170754162Y-100980499D02*
X167754162Y-100980499D01*
X92738652Y-68414876D02*
X92785197Y-68394902D01*
X170754162Y-86115666D02*
X167754162Y-86115666D01*
X92557000Y-97344000D02*
X91057000Y-97344000D01*
X109637826Y-122972349D02*
X109615521Y-123017822D01*
X116668500Y-87310200D02*
G75*
G02*
X117168500Y-86810200I500000J0D01*
G01*
X172254162Y-57886000D02*
X167754162Y-57886000D01*
X172254162Y-114345332D02*
G75*
G02*
X170754162Y-115845262I-1499962J32D01*
G01*
X93624097Y-69233802D02*
X93604123Y-69280347D01*
X109061234Y-121782713D02*
X109066358Y-121732324D01*
X93648677Y-94560517D02*
X93624097Y-94604802D01*
X174254162Y-100480499D02*
X174254162Y-90680499D01*
X93042069Y-123065318D02*
X93024478Y-123017822D01*
X108667649Y-119706235D02*
X108617584Y-119698565D01*
X161554162Y-130710165D02*
G75*
G02*
X161554162Y-132210235I38J-750035D01*
G01*
X117168500Y-118896500D02*
G75*
G02*
X116668500Y-118396500I0J500000D01*
G01*
X109768947Y-144454387D02*
X109810517Y-144483322D01*
X93604123Y-120022347D02*
X93588961Y-120070673D01*
X161554162Y-56386000D02*
G75*
G02*
X161554162Y-57886000I38J-750000D01*
G01*
X93677612Y-96642052D02*
X93710603Y-96680483D01*
X93710603Y-122051483D02*
X93747313Y-122086379D01*
X129435500Y-90865300D02*
G75*
G02*
X129935500Y-90365300I500000J0D01*
G01*
X129935500Y-71655100D02*
X131435500Y-71655100D01*
X158554162Y-119910165D02*
X161554162Y-119910165D01*
X93062434Y-97793415D02*
X93054764Y-97743350D01*
X170754162Y-60450833D02*
G75*
G02*
X172254167Y-61950833I38J-1499967D01*
G01*
X157054162Y-57886000D02*
G75*
G02*
X155054200Y-55886000I38J2000000D01*
G01*
X167754162Y-45586000D02*
G75*
G02*
X167754162Y-44086000I38J750000D01*
G01*
X108617584Y-119698565D02*
X108567000Y-119696000D01*
X109999286Y-46607765D02*
X109949673Y-46617961D01*
X155054162Y-55886000D02*
X155054162Y-46086000D01*
X93808517Y-94400677D02*
X93787365Y-94414618D01*
X111583000Y-93817000D02*
X111583000Y-71973000D01*
X92871052Y-72077612D02*
X92829482Y-72048677D01*
X109575000Y-123215000D02*
X109575000Y-144059000D01*
X113585500Y-75803200D02*
X113585500Y-86217200D01*
X170754162Y-134774998D02*
X167754162Y-134774998D01*
X151054162Y-73339300D02*
X151054162Y-91051919D01*
X151054162Y-70839300D02*
G75*
G02*
X153054200Y-72839300I38J-2000000D01*
G01*
X153054162Y-64798619D02*
X153054162Y-46086000D01*
X167754162Y-147074998D02*
G75*
G02*
X167754162Y-145575002I38J749998D01*
G01*
X174254162Y-130210165D02*
G75*
G02*
X172254162Y-132210162I-1999962J-35D01*
G01*
X157054162Y-61950833D02*
G75*
G02*
X158554162Y-60450762I1500038J33D01*
G01*
X109695620Y-93642686D02*
X109730516Y-93679396D01*
X131435500Y-71655100D02*
X131435500Y-61241100D01*
X109854802Y-93765902D02*
X109901347Y-93785876D01*
X109695620Y-119013686D02*
X109730516Y-119050396D01*
X93677612Y-122013052D02*
X93710603Y-122051483D01*
X108592324Y-96835358D02*
X108642713Y-96830234D01*
X140150081Y-66798619D02*
X135446000Y-66798619D01*
X92690326Y-119172038D02*
X92738652Y-119156876D01*
X108991322Y-71229482D02*
X109015902Y-71185197D01*
X115585500Y-85717200D02*
X115585500Y-76303200D01*
X150054162Y-92051919D02*
X146350081Y-92051919D01*
X170754162Y-115845332D02*
X167754162Y-115845332D01*
X93852802Y-69005097D02*
X93808517Y-69029677D01*
X109061234Y-69378286D02*
X109051038Y-69328673D01*
X109035876Y-71138652D02*
X109051038Y-71090326D01*
X93899347Y-145098123D02*
X93852802Y-145118097D01*
X109066358Y-70990324D02*
X109067000Y-70957000D01*
X172254162Y-106545332D02*
X172254162Y-114345332D01*
X161554162Y-100980499D02*
X158554162Y-100980499D01*
X170754162Y-75315666D02*
X167754162Y-75315666D01*
X109999286Y-93811234D02*
X110049675Y-93816358D01*
X115085500Y-129903500D02*
X113585500Y-129903500D01*
X158554162Y-75315666D02*
X161554162Y-75315666D01*
X140150081Y-92051919D02*
X136446000Y-92051919D01*
X109035876Y-121880652D02*
X109051038Y-121832326D01*
X93923318Y-122184069D02*
X93972350Y-122196764D01*
X170754162Y-130710165D02*
X167754162Y-130710165D01*
X108617584Y-145069565D02*
X108567000Y-145067000D01*
X155054162Y-100480499D02*
X155054162Y-90680499D01*
X93573000Y-96328000D02*
X93573000Y-94833000D01*
X93062434Y-118738584D02*
X93065000Y-118688000D01*
X157054162Y-117345332D02*
G75*
G02*
X155054168Y-115345332I38J2000032D01*
G01*
X115585500Y-143965600D02*
X115585500Y-134551600D01*
X108892686Y-69074620D02*
X108852634Y-69043618D01*
X93042069Y-144208681D02*
X93054764Y-144159649D01*
X93573641Y-145541675D02*
X93573000Y-145575000D01*
X109810517Y-97419677D02*
X109768947Y-97448612D01*
X108831482Y-122131322D02*
X108852634Y-122117381D01*
X93604123Y-45767652D02*
X93624097Y-45814197D01*
X109695620Y-144384686D02*
X109730516Y-144421396D01*
X174254162Y-70750833D02*
G75*
G02*
X172254162Y-72750762I-1999962J33D01*
G01*
X110049675Y-93816358D02*
X110083000Y-93817000D01*
X115085500Y-46679000D02*
G75*
G02*
X115585500Y-47179000I0J-500000D01*
G01*
X109067000Y-94833000D02*
X109066358Y-94799675D01*
X116668500Y-116434400D02*
G75*
G02*
X117168500Y-115934400I500000J0D01*
G01*
X108617584Y-94327565D02*
X108567000Y-94325000D01*
X93578765Y-94749286D02*
X93573641Y-94799675D01*
X93573000Y-145575000D02*
X93573000Y-147075000D01*
X172254162Y-84615666D02*
G75*
G02*
X170754162Y-86115662I-1499962J-34D01*
G01*
X108929396Y-119851516D02*
X108892686Y-119816620D01*
X109901347Y-93785876D02*
X109949673Y-93801038D01*
X150054162Y-45586000D02*
G75*
G02*
X151054200Y-46586000I38J-1000000D01*
G01*
X93024478Y-46904822D02*
X93002173Y-46859349D01*
X109901347Y-97375123D02*
X109854802Y-97395097D01*
X127852500Y-145058600D02*
G75*
G02*
X128352500Y-145558600I0J-500000D01*
G01*
X93875822Y-46053478D02*
X93923318Y-46071069D01*
X158554162Y-134774998D02*
X161554162Y-134774998D01*
X129435500Y-119989500D02*
X129435500Y-129403500D01*
X109730516Y-122852603D02*
X109695620Y-122889313D01*
X93830349Y-96773173D02*
X93875822Y-96795478D01*
X109575000Y-72473000D02*
X109575000Y-93317000D01*
X108962387Y-96642052D02*
X108991322Y-96600482D01*
X93573000Y-121699000D02*
X93573641Y-121732324D01*
X93624097Y-45814197D02*
X93648677Y-45858482D01*
X117168500Y-75210200D02*
X127852500Y-75210200D01*
X131435500Y-115341400D02*
X131435500Y-104927400D01*
X116668500Y-130996500D02*
X116668500Y-132958600D01*
X94047675Y-145067641D02*
X93997286Y-145072765D01*
X161554162Y-118410165D02*
G75*
G02*
X161554162Y-119910235I38J-750035D01*
G01*
X174254162Y-145074998D02*
G75*
G02*
X172254162Y-147074962I-1999962J-2D01*
G01*
X108892686Y-119816620D02*
X108852634Y-119785618D01*
X110049675Y-68445358D02*
X110083000Y-68446000D01*
X108852634Y-94414618D02*
X108809650Y-94387826D01*
X116668500Y-45586000D02*
X116668500Y-44086000D01*
X108692326Y-96820038D02*
X108740652Y-96804876D01*
X108592324Y-71464358D02*
X108642713Y-71459234D01*
X108716681Y-119718930D02*
X108667649Y-119706235D01*
X93024478Y-97646822D02*
X93002173Y-97601349D01*
X109664618Y-118973634D02*
X109695620Y-119013686D01*
X117168500Y-46086000D02*
X127852500Y-46086000D01*
X127852500Y-86810200D02*
G75*
G02*
X128352500Y-87310200I0J-500000D01*
G01*
X135446000Y-117805219D02*
X135446000Y-100092600D01*
X174254162Y-85615666D02*
X174254162Y-75815666D01*
X110083000Y-97344000D02*
X111583000Y-97344000D01*
X92738652Y-119156876D02*
X92785197Y-119136902D01*
X172254162Y-44086000D02*
G75*
G02*
X174254200Y-46086000I38J-2000000D01*
G01*
X127852500Y-57686000D02*
X117168500Y-57686000D01*
X157054162Y-132210165D02*
G75*
G02*
X155054235Y-130210165I38J1999965D01*
G01*
X93002173Y-93559650D02*
X93024478Y-93514177D01*
X140150081Y-93551919D02*
X135446000Y-93551919D01*
X172254162Y-118410165D02*
G75*
G02*
X174254235Y-120410165I38J-2000035D01*
G01*
X151054162Y-100092600D02*
X151054162Y-117805219D01*
X93677612Y-69147947D02*
X93648677Y-69189517D01*
X170754162Y-56386000D02*
X167754162Y-56386000D01*
X115585500Y-56593000D02*
G75*
G02*
X115085500Y-57093000I-500000J0D01*
G01*
X109695620Y-97518313D02*
X109664618Y-97558365D01*
X109066358Y-145541675D02*
X109061234Y-145491286D01*
X109949673Y-144543038D02*
X109999286Y-144553234D01*
X93588961Y-120070673D02*
X93578765Y-120120286D01*
X115585500Y-114841400D02*
G75*
G02*
X115085500Y-115341400I-500000J0D01*
G01*
X157054162Y-144074998D02*
X157054162Y-136274998D01*
X109768947Y-68341387D02*
X109810517Y-68370322D01*
X92738652Y-72004123D02*
X92690326Y-71988961D01*
X172254162Y-58950833D02*
G75*
G02*
X174254167Y-60950833I38J-1999967D01*
G01*
X94047675Y-94325641D02*
X93997286Y-94330765D01*
X133446000Y-72839300D02*
X133446000Y-91551919D01*
X109730516Y-119050396D02*
X109768947Y-119083387D01*
X109035876Y-94651347D02*
X109015902Y-94604802D01*
X116668500Y-58186000D02*
X116668500Y-60148100D01*
X93710603Y-145222516D02*
X93677612Y-145260947D01*
X174254162Y-55886000D02*
G75*
G02*
X172254162Y-57885962I-1999962J0D01*
G01*
X167754162Y-60450833D02*
G75*
G02*
X167754162Y-58950767I38J750033D01*
G01*
X158554162Y-45586000D02*
X161554162Y-45586000D01*
X92690326Y-46617961D02*
X92640713Y-46607765D01*
X158554162Y-115845332D02*
G75*
G02*
X157054168Y-114345332I38J1500032D01*
G01*
X129435500Y-47179000D02*
X129435500Y-56593000D01*
X108667649Y-94335235D02*
X108617584Y-94327565D01*
X161554162Y-44086000D02*
G75*
G02*
X161554162Y-45586000I38J-750000D01*
G01*
X108892686Y-96715379D02*
X108929396Y-96680483D01*
X109015902Y-145346802D02*
X108991322Y-145302517D01*
X110083000Y-71973000D02*
X111583000Y-71973000D01*
X93604123Y-96509652D02*
X93624097Y-96556197D01*
X172254162Y-61950833D02*
X172254162Y-69750833D01*
M02*
