M48
; DRILL file {KiCad 8.0.4} date 2024-12-12T16:30:21+0100
; FORMAT={-:-/ absolute / inch / decimal}
; #@! TF.CreationDate,2024-12-12T16:30:21+01:00
; #@! TF.GenerationSoftware,Kicad,Pcbnew,8.0.4
; #@! TF.FileFunction,Plated,1,6,PTH
FMAT,2
INCH
; #@! TA.AperFunction,Plated,PTH,ViaDrill
T1C0.0059
; #@! TA.AperFunction,Plated,PTH,ViaDrill
T2C0.0079
; #@! TA.AperFunction,Plated,PTH,ComponentDrill
T3C0.0079
; #@! TA.AperFunction,Plated,PTH,ViaDrill
T4C0.0098
; #@! TA.AperFunction,Plated,PTH,ComponentDrill
T5C0.0256
%
G90
G05
T1
X4.6188Y-1.8826
X4.6188Y-2.4559
X4.6188Y-3.0292
X4.6188Y-3.6026
X4.6188Y-4.1759
X4.6188Y-4.7492
X4.6188Y-5.3225
X4.622Y-2.1466
X4.622Y-2.1623
X4.622Y-2.7199
X4.622Y-2.7357
X4.622Y-3.2932
X4.622Y-3.309
X4.622Y-3.8665
X4.622Y-3.8823
X4.622Y-4.4398
X4.622Y-4.4556
X4.622Y-5.0131
X4.622Y-5.0289
X4.622Y-5.5865
X4.622Y-5.6022
X4.6254Y-2.0014
X4.6254Y-2.0231
X4.6254Y-2.5747
X4.6254Y-2.5964
X4.6254Y-3.148
X4.6254Y-3.1697
X4.6254Y-3.7214
X4.6254Y-3.743
X4.6254Y-4.2947
X4.6254Y-4.3163
X4.6254Y-4.868
X4.6254Y-4.8896
X4.6254Y-5.4413
X4.6254Y-5.4629
X4.6377Y-2.1466
X4.6377Y-2.7199
X4.6377Y-3.2932
X4.6377Y-3.8665
X4.6377Y-4.4398
X4.6377Y-5.0131
X4.6377Y-5.5865
X4.6442Y-1.8765
X4.6442Y-2.4498
X4.6442Y-3.0231
X4.6442Y-3.5964
X4.6442Y-4.1698
X4.6442Y-4.7431
X4.6442Y-5.3164
X4.6451Y-2.0014
X4.6451Y-2.0231
X4.6451Y-2.5747
X4.6451Y-2.5964
X4.6451Y-3.148
X4.6451Y-3.1697
X4.6451Y-3.7214
X4.6451Y-3.743
X4.6451Y-4.2947
X4.6451Y-4.3163
X4.6451Y-4.868
X4.6451Y-4.8896
X4.6451Y-5.4413
X4.6451Y-5.4629
X4.6505Y-2.0885
X4.6505Y-2.6618
X4.6505Y-3.2351
X4.6505Y-3.8085
X4.6505Y-4.3818
X4.6505Y-4.9551
X4.6505Y-5.5284
X4.6515Y-1.9204
X4.6515Y-2.4937
X4.6515Y-3.067
X4.6515Y-3.6403
X4.6515Y-4.2137
X4.6515Y-4.787
X4.6515Y-5.3603
X4.6535Y-2.1466
X4.6535Y-2.7199
X4.6535Y-3.2932
X4.6535Y-3.8665
X4.6535Y-4.4398
X4.6535Y-5.0131
X4.6535Y-5.5865
X4.6584Y-1.8887
X4.6584Y-2.462
X4.6584Y-3.0353
X4.6584Y-3.6087
X4.6584Y-4.182
X4.6584Y-4.7553
X4.6584Y-5.3286
X4.6613Y-1.9625
X4.6613Y-2.5359
X4.6613Y-3.1092
X4.6613Y-3.6825
X4.6613Y-4.2558
X4.6613Y-4.8291
X4.6613Y-5.4024
X4.6623Y-2.1023
X4.6623Y-2.6756
X4.6623Y-3.2489
X4.6623Y-3.8222
X4.6623Y-4.3955
X4.6623Y-4.9689
X4.6623Y-5.5422
X4.6884Y-2.0014
X4.6884Y-2.0231
X4.6884Y-2.5747
X4.6884Y-2.5964
X4.6884Y-3.148
X4.6884Y-3.1697
X4.6884Y-3.7214
X4.6884Y-3.743
X4.6884Y-4.2947
X4.6884Y-4.3163
X4.6884Y-4.868
X4.6884Y-4.8896
X4.6884Y-5.4413
X4.6884Y-5.4629
X4.6948Y-2.0885
X4.6948Y-2.1082
X4.6948Y-2.1515
X4.6948Y-2.1712
X4.6948Y-2.6618
X4.6948Y-2.6815
X4.6948Y-2.7248
X4.6948Y-2.7445
X4.6948Y-3.2351
X4.6948Y-3.2548
X4.6948Y-3.2981
X4.6948Y-3.3178
X4.6948Y-3.8085
X4.6948Y-3.8281
X4.6948Y-3.8714
X4.6948Y-3.8911
X4.6948Y-4.3818
X4.6948Y-4.4015
X4.6948Y-4.4448
X4.6948Y-4.4644
X4.6948Y-4.9551
X4.6948Y-4.9748
X4.6948Y-5.0181
X4.6948Y-5.0378
X4.6948Y-5.5284
X4.6948Y-5.5481
X4.6948Y-5.5914
X4.6948Y-5.6111
X4.7081Y-2.0014
X4.7081Y-2.0231
X4.7081Y-2.5747
X4.7081Y-2.5964
X4.7081Y-3.148
X4.7081Y-3.1697
X4.7081Y-3.7214
X4.7081Y-3.743
X4.7081Y-4.2947
X4.7081Y-4.3163
X4.7081Y-4.868
X4.7081Y-4.8896
X4.7081Y-5.4413
X4.7081Y-5.4629
X4.7165Y-2.0885
X4.7165Y-2.1082
X4.7165Y-2.1515
X4.7165Y-2.1712
X4.7165Y-2.6618
X4.7165Y-2.6815
X4.7165Y-2.7248
X4.7165Y-2.7445
X4.7165Y-3.2351
X4.7165Y-3.2548
X4.7165Y-3.2981
X4.7165Y-3.3178
X4.7165Y-3.8085
X4.7165Y-3.8281
X4.7165Y-3.8714
X4.7165Y-3.8911
X4.7165Y-4.3818
X4.7165Y-4.4015
X4.7165Y-4.4448
X4.7165Y-4.4644
X4.7165Y-4.9551
X4.7165Y-4.9748
X4.7165Y-5.0181
X4.7165Y-5.0378
X4.7165Y-5.5284
X4.7165Y-5.5481
X4.7165Y-5.5914
X4.7165Y-5.6111
X4.7184Y-1.8826
X4.7184Y-2.4559
X4.7184Y-3.0292
X4.7184Y-3.6026
X4.7184Y-4.1759
X4.7184Y-4.7492
X4.7184Y-5.3225
X4.748Y-1.9497
X4.748Y-2.0885
X4.748Y-2.1082
X4.748Y-2.1515
X4.748Y-2.1712
X4.748Y-2.5231
X4.748Y-2.6618
X4.748Y-2.6815
X4.748Y-2.7248
X4.748Y-2.7445
X4.748Y-3.0964
X4.748Y-3.2351
X4.748Y-3.2548
X4.748Y-3.2981
X4.748Y-3.3178
X4.748Y-3.6697
X4.748Y-3.8085
X4.748Y-3.8281
X4.748Y-3.8714
X4.748Y-3.8911
X4.748Y-4.243
X4.748Y-4.3818
X4.748Y-4.4015
X4.748Y-4.4448
X4.748Y-4.4644
X4.748Y-4.8163
X4.748Y-4.9551
X4.748Y-4.9748
X4.748Y-5.0181
X4.748Y-5.0378
X4.748Y-5.3896
X4.748Y-5.5284
X4.748Y-5.5481
X4.748Y-5.5914
X4.748Y-5.6111
X4.7509Y-1.8826
X4.7509Y-1.994
X4.7509Y-2.4559
X4.7509Y-2.5673
X4.7509Y-3.0292
X4.7509Y-3.1407
X4.7509Y-3.6026
X4.7509Y-3.714
X4.7509Y-4.1759
X4.7509Y-4.2873
X4.7509Y-4.7492
X4.7509Y-4.8606
X4.7509Y-5.3225
X4.7509Y-5.4339
X4.7667Y-1.9497
X4.7667Y-2.5231
X4.7667Y-3.0964
X4.7667Y-3.6697
X4.7667Y-4.243
X4.7667Y-4.8163
X4.7667Y-5.3896
X4.7696Y-2.0885
X4.7696Y-2.1082
X4.7696Y-2.1515
X4.7696Y-2.1712
X4.7696Y-2.6618
X4.7696Y-2.6815
X4.7696Y-2.7248
X4.7696Y-2.7445
X4.7696Y-3.2351
X4.7696Y-3.2548
X4.7696Y-3.2981
X4.7696Y-3.3178
X4.7696Y-3.8085
X4.7696Y-3.8281
X4.7696Y-3.8714
X4.7696Y-3.8911
X4.7696Y-4.3818
X4.7696Y-4.4015
X4.7696Y-4.4448
X4.7696Y-4.4644
X4.7696Y-4.9551
X4.7696Y-4.9748
X4.7696Y-5.0181
X4.7696Y-5.0378
X4.7696Y-5.5284
X4.7696Y-5.5481
X4.7696Y-5.5914
X4.7696Y-5.6111
X4.7765Y-1.9143
X4.7765Y-2.4876
X4.7765Y-3.0609
X4.7765Y-3.6342
X4.7765Y-4.2076
X4.7765Y-4.7809
X4.7765Y-5.3542
X4.7834Y-1.9842
X4.7834Y-1.9999
X4.7834Y-2.0157
X4.7834Y-2.5575
X4.7834Y-2.5733
X4.7834Y-2.589
X4.7834Y-3.1308
X4.7834Y-3.1466
X4.7834Y-3.1623
X4.7834Y-3.7041
X4.7834Y-3.7199
X4.7834Y-3.7356
X4.7834Y-4.2774
X4.7834Y-4.2932
X4.7834Y-4.3089
X4.7834Y-4.8507
X4.7834Y-4.8665
X4.7834Y-4.8822
X4.7834Y-5.4241
X4.7834Y-5.4398
X4.7834Y-5.4556
X4.7844Y-1.9497
X4.7844Y-2.5231
X4.7844Y-3.0964
X4.7844Y-3.6697
X4.7844Y-4.243
X4.7844Y-4.8163
X4.7844Y-5.3896
X4.7907Y-1.9265
X4.7907Y-2.4998
X4.7907Y-3.0731
X4.7907Y-3.6464
X4.7907Y-4.2198
X4.7907Y-4.7931
X4.7907Y-5.3664
X4.7991Y-1.9842
X4.7991Y-1.9999
X4.7991Y-2.5575
X4.7991Y-2.5733
X4.7991Y-3.1308
X4.7991Y-3.1466
X4.7991Y-3.7041
X4.7991Y-3.7199
X4.7991Y-4.2774
X4.7991Y-4.2932
X4.7991Y-4.8507
X4.7991Y-4.8665
X4.7991Y-5.4241
X4.7991Y-5.4398
X4.8041Y-2.0885
X4.8041Y-2.1082
X4.8041Y-2.6618
X4.8041Y-2.6815
X4.8041Y-3.2351
X4.8041Y-3.2548
X4.8041Y-3.8085
X4.8041Y-3.8281
X4.8041Y-4.3818
X4.8041Y-4.4015
X4.8041Y-4.9551
X4.8041Y-4.9748
X4.8041Y-5.5284
X4.8041Y-5.5481
X4.8129Y-1.9143
X4.8129Y-2.4876
X4.8129Y-3.0609
X4.8129Y-3.6342
X4.8129Y-4.2076
X4.8129Y-4.7809
X4.8129Y-5.3542
X4.8149Y-1.9842
X4.8149Y-1.9999
X4.8149Y-2.0157
X4.8149Y-2.5575
X4.8149Y-2.5733
X4.8149Y-2.589
X4.8149Y-3.1308
X4.8149Y-3.1466
X4.8149Y-3.1623
X4.8149Y-3.7041
X4.8149Y-3.7199
X4.8149Y-3.7356
X4.8149Y-4.2774
X4.8149Y-4.2932
X4.8149Y-4.3089
X4.8149Y-4.8507
X4.8149Y-4.8665
X4.8149Y-4.8822
X4.8149Y-5.4241
X4.8149Y-5.4398
X4.8149Y-5.4556
X4.8257Y-2.0885
X4.8257Y-2.1082
X4.8257Y-2.6618
X4.8257Y-2.6815
X4.8257Y-3.2351
X4.8257Y-3.2548
X4.8257Y-3.8085
X4.8257Y-3.8281
X4.8257Y-4.3818
X4.8257Y-4.4015
X4.8257Y-4.9551
X4.8257Y-4.9748
X4.8257Y-5.5284
X4.8257Y-5.5481
X4.8271Y-1.9265
X4.8271Y-2.4998
X4.8271Y-3.0731
X4.8271Y-3.6464
X4.8271Y-4.2198
X4.8271Y-4.7931
X4.8271Y-5.3664
X4.8306Y-1.9842
X4.8306Y-2.0157
X4.8306Y-2.5575
X4.8306Y-2.589
X4.8306Y-3.1308
X4.8306Y-3.1623
X4.8306Y-3.7041
X4.8306Y-3.7356
X4.8306Y-4.2774
X4.8306Y-4.3089
X4.8306Y-4.8507
X4.8306Y-4.8822
X4.8306Y-5.4241
X4.8306Y-5.4556
X4.8464Y-2.0157
X4.8464Y-2.589
X4.8464Y-3.1623
X4.8464Y-3.7356
X4.8464Y-4.3089
X4.8464Y-4.8822
X4.8464Y-5.4556
X4.8491Y-1.9143
X4.8491Y-2.4876
X4.8491Y-3.0609
X4.8491Y-3.6342
X4.8491Y-4.2076
X4.8491Y-4.7809
X4.8491Y-5.3542
X4.8633Y-1.9265
X4.8633Y-2.4998
X4.8633Y-3.0731
X4.8633Y-3.6464
X4.8633Y-4.2198
X4.8633Y-4.7931
X4.8633Y-5.3664
X4.867Y-2.2027
X4.867Y-2.776
X4.867Y-3.3493
X4.867Y-3.9226
X4.867Y-4.4959
X4.867Y-5.0693
X4.867Y-5.6426
X4.869Y-2.1555
X4.869Y-2.7288
X4.869Y-3.3021
X4.869Y-3.8754
X4.869Y-4.4487
X4.869Y-5.022
X4.869Y-5.5953
X4.8789Y-2.1791
X4.8789Y-2.7524
X4.8789Y-3.3257
X4.8789Y-3.899
X4.8789Y-4.4723
X4.8789Y-5.0456
X4.8789Y-5.6189
X4.8857Y-1.9143
X4.8857Y-2.4876
X4.8857Y-3.0609
X4.8857Y-3.6342
X4.8857Y-4.2076
X4.8857Y-4.7809
X4.8857Y-5.3542
X4.8999Y-1.9265
X4.8999Y-2.4998
X4.8999Y-3.0731
X4.8999Y-3.6464
X4.8999Y-4.2198
X4.8999Y-4.7931
X4.8999Y-5.3664
X4.9104Y-2.1602
X4.9104Y-2.7335
X4.9104Y-3.3068
X4.9104Y-3.8801
X4.9104Y-4.4534
X4.9104Y-5.0267
X4.9104Y-5.6
X4.9172Y-2.124
X4.9172Y-2.6973
X4.9172Y-3.2706
X4.9172Y-3.8439
X4.9172Y-4.4172
X4.9172Y-4.9905
X4.9172Y-5.5638
X4.9222Y-1.9655
X4.9222Y-1.9871
X4.9222Y-2.0206
X4.9222Y-2.0423
X4.9222Y-2.0757
X4.9222Y-2.0974
X4.9222Y-2.5388
X4.9222Y-2.5605
X4.9222Y-2.5939
X4.9222Y-2.6156
X4.9222Y-2.649
X4.9222Y-2.6707
X4.9222Y-3.1121
X4.9222Y-3.1338
X4.9222Y-3.1672
X4.9222Y-3.1889
X4.9222Y-3.2224
X4.9222Y-3.244
X4.9222Y-3.6854
X4.9222Y-3.7071
X4.9222Y-3.7405
X4.9222Y-3.7622
X4.9222Y-3.7957
X4.9222Y-3.8173
X4.9222Y-4.2587
X4.9222Y-4.2804
X4.9222Y-4.3139
X4.9222Y-4.3355
X4.9222Y-4.369
X4.9222Y-4.3906
X4.9222Y-4.832
X4.9222Y-4.8537
X4.9222Y-4.8872
X4.9222Y-4.9088
X4.9222Y-4.9423
X4.9222Y-4.9639
X4.9222Y-5.4054
X4.9222Y-5.427
X4.9222Y-5.4605
X4.9222Y-5.4821
X4.9222Y-5.5156
X4.9222Y-5.5372
X4.9419Y-1.9655
X4.9419Y-1.9871
X4.9419Y-2.0206
X4.9419Y-2.0423
X4.9419Y-2.0757
X4.9419Y-2.0974
X4.9419Y-2.5388
X4.9419Y-2.5605
X4.9419Y-2.5939
X4.9419Y-2.6156
X4.9419Y-2.649
X4.9419Y-2.6707
X4.9419Y-3.1121
X4.9419Y-3.1338
X4.9419Y-3.1672
X4.9419Y-3.1889
X4.9419Y-3.2224
X4.9419Y-3.244
X4.9419Y-3.6854
X4.9419Y-3.7071
X4.9419Y-3.7405
X4.9419Y-3.7622
X4.9419Y-3.7957
X4.9419Y-3.8173
X4.9419Y-4.2587
X4.9419Y-4.2804
X4.9419Y-4.3139
X4.9419Y-4.3355
X4.9419Y-4.369
X4.9419Y-4.3906
X4.9419Y-4.832
X4.9419Y-4.8537
X4.9419Y-4.8872
X4.9419Y-4.9088
X4.9419Y-4.9423
X4.9419Y-4.9639
X4.9419Y-5.4054
X4.9419Y-5.427
X4.9419Y-5.4605
X4.9419Y-5.4821
X4.9419Y-5.5156
X4.9419Y-5.5372
X4.9552Y-1.8765
X4.9552Y-2.16
X4.9552Y-2.4498
X4.9552Y-2.7333
X4.9552Y-3.0231
X4.9552Y-3.3066
X4.9552Y-3.5964
X4.9552Y-3.8799
X4.9552Y-4.1698
X4.9552Y-4.4532
X4.9552Y-4.7431
X4.9552Y-5.0265
X4.9552Y-5.3164
X4.9552Y-5.5998
X4.9556Y-2.1978
X4.9556Y-2.7711
X4.9556Y-3.3444
X4.9556Y-3.9177
X4.9556Y-4.491
X4.9556Y-5.0643
X4.9556Y-5.6376
X4.9694Y-1.8887
X4.9694Y-2.1722
X4.9694Y-2.462
X4.9694Y-2.7455
X4.9694Y-3.0353
X4.9694Y-3.3188
X4.9694Y-3.6087
X4.9694Y-3.8921
X4.9694Y-4.182
X4.9694Y-4.4654
X4.9694Y-4.7553
X4.9694Y-5.0387
X4.9694Y-5.3286
X4.9694Y-5.6121
X4.9698Y-2.21
X4.9698Y-2.7833
X4.9698Y-3.3566
X4.9698Y-3.9299
X4.9698Y-4.5032
X4.9698Y-5.0765
X4.9698Y-5.6498
X4.9877Y-1.8765
X4.9877Y-2.4498
X4.9877Y-3.0231
X4.9877Y-3.5964
X4.9877Y-4.1698
X4.9877Y-4.7431
X4.9877Y-5.3164
X4.9881Y-2.1978
X4.9881Y-2.7711
X4.9881Y-3.3444
X4.9881Y-3.9177
X4.9881Y-4.491
X4.9881Y-5.0643
X4.9881Y-5.6376
X5.0019Y-1.8887
X5.0019Y-2.462
X5.0019Y-3.0353
X5.0019Y-3.6087
X5.0019Y-4.182
X5.0019Y-4.7553
X5.0019Y-5.3286
X5.0023Y-2.21
X5.0023Y-2.7833
X5.0023Y-3.3566
X5.0023Y-3.9299
X5.0023Y-4.5032
X5.0023Y-5.0765
X5.0023Y-5.6498
X5.0202Y-2.1974
X5.0202Y-2.7707
X5.0202Y-3.344
X5.0202Y-3.9173
X5.0202Y-4.4906
X5.0202Y-5.0639
X5.0202Y-5.6372
X5.0206Y-1.8868
X5.0206Y-2.4601
X5.0206Y-3.0334
X5.0206Y-3.6067
X5.0206Y-4.18
X5.0206Y-4.7533
X5.0206Y-5.3266
X5.0344Y-1.8769
X5.0344Y-2.2096
X5.0344Y-2.4502
X5.0344Y-2.7829
X5.0344Y-3.0235
X5.0344Y-3.3562
X5.0344Y-3.5968
X5.0344Y-3.9295
X5.0344Y-4.1702
X5.0344Y-4.5028
X5.0344Y-4.7435
X5.0344Y-5.0761
X5.0344Y-5.3168
X5.0344Y-5.6495
X5.6209Y-2.2218
X5.6209Y-2.2376
X5.6209Y-3.2751
X5.6209Y-3.2908
X5.6209Y-4.3284
X5.6209Y-4.3441
X5.6209Y-5.3823
X5.6209Y-5.398
X5.6366Y-2.2376
X5.6366Y-2.4444
X5.6366Y-3.2908
X5.6366Y-3.4977
X5.6366Y-4.3441
X5.6366Y-4.551
X5.6366Y-5.398
X5.6366Y-5.6049
T2
X3.7217Y-2.2765
X3.7217Y-3.2754
X3.7217Y-4.2743
X3.7217Y-5.2731
X3.734Y-1.8597
X3.734Y-1.9297
X3.734Y-1.9647
X3.734Y-1.9997
X3.734Y-2.8586
X3.734Y-2.9286
X3.734Y-2.9636
X3.734Y-2.9986
X3.734Y-3.8574
X3.734Y-3.9274
X3.734Y-3.9624
X3.734Y-3.9974
X3.734Y-4.8563
X3.734Y-4.9263
X3.734Y-4.9613
X3.734Y-4.9963
X3.7441Y-2.4513
X3.7441Y-3.4502
X3.7441Y-4.4491
X3.7441Y-5.4479
X3.748Y-2.1161
X3.748Y-3.115
X3.748Y-4.1138
X3.748Y-5.1127
X3.749Y-2.0408
X3.749Y-2.0786
X3.749Y-2.1547
X3.749Y-2.1847
X3.749Y-2.2236
X3.749Y-2.2808
X3.749Y-2.3886
X3.749Y-3.0397
X3.749Y-3.0775
X3.749Y-3.1536
X3.749Y-3.1836
X3.749Y-3.2225
X3.749Y-3.2797
X3.749Y-3.3875
X3.749Y-4.0385
X3.749Y-4.0763
X3.749Y-4.1524
X3.749Y-4.1824
X3.749Y-4.2213
X3.749Y-4.2785
X3.749Y-4.3863
X3.749Y-5.0374
X3.749Y-5.0752
X3.749Y-5.1513
X3.749Y-5.1813
X3.749Y-5.2202
X3.749Y-5.2774
X3.749Y-5.3852
X3.7544Y-2.5123
X3.7544Y-2.5445
X3.7544Y-2.5823
X3.7544Y-3.5111
X3.7544Y-3.5433
X3.7544Y-3.5811
X3.7544Y-4.51
X3.7544Y-4.5422
X3.7544Y-4.58
X3.7544Y-5.5089
X3.7544Y-5.5411
X3.7544Y-5.5789
X3.7575Y-2.6285
X3.7575Y-3.6274
X3.7575Y-4.6262
X3.7575Y-5.6251
X3.7747Y-2.4247
X3.7747Y-3.4236
X3.7747Y-4.4224
X3.7747Y-5.4213
X3.7811Y-2.5734
X3.7811Y-3.5722
X3.7811Y-4.5711
X3.7811Y-5.57
X3.7842Y-2.6242
X3.7842Y-3.623
X3.7842Y-4.6219
X3.7842Y-5.6207
X3.7898Y-1.8698
X3.7898Y-2.8687
X3.7898Y-3.8676
X3.7898Y-4.8664
X3.8125Y-2.4247
X3.8125Y-3.4236
X3.8125Y-4.4224
X3.8125Y-5.4213
X3.8154Y-1.9131
X3.8154Y-2.912
X3.8154Y-3.9109
X3.8154Y-4.9097
X3.8204Y-2.5134
X3.8204Y-3.5122
X3.8204Y-4.5111
X3.8204Y-5.51
X3.822Y-2.6242
X3.822Y-3.623
X3.822Y-4.6219
X3.822Y-5.6207
X3.824Y-2.2997
X3.824Y-2.3397
X3.824Y-3.2986
X3.824Y-3.3386
X3.824Y-4.2974
X3.824Y-4.3374
X3.824Y-5.2963
X3.824Y-5.3363
X3.8254Y-2.5334
X3.8254Y-3.5322
X3.8254Y-4.5311
X3.8254Y-5.53
X3.829Y-2.0847
X3.829Y-2.1047
X3.829Y-2.1234
X3.829Y-2.1447
X3.829Y-2.2097
X3.829Y-2.2797
X3.829Y-3.0836
X3.829Y-3.1036
X3.829Y-3.1223
X3.829Y-3.1436
X3.829Y-3.2086
X3.829Y-3.2786
X3.829Y-4.0824
X3.829Y-4.1024
X3.829Y-4.1211
X3.829Y-4.1424
X3.829Y-4.2074
X3.829Y-4.2774
X3.829Y-5.0813
X3.829Y-5.1013
X3.829Y-5.12
X3.829Y-5.1413
X3.829Y-5.2063
X3.829Y-5.2763
X3.8331Y-2.6726
X3.8331Y-3.6715
X3.8331Y-4.6703
X3.8331Y-5.6692
X3.8394Y-2.3551
X3.8394Y-3.354
X3.8394Y-4.3528
X3.8394Y-5.3517
X3.8401Y-1.9497
X3.8401Y-2.9486
X3.8401Y-3.9474
X3.8401Y-4.9463
X3.8406Y-2.0496
X3.8406Y-3.0484
X3.8406Y-4.0473
X3.8406Y-5.0461
X3.8407Y-2.5578
X3.8407Y-3.5566
X3.8407Y-4.5555
X3.8407Y-5.5543
X3.8414Y-2.0297
X3.8414Y-3.0285
X3.8414Y-4.0274
X3.8414Y-5.0263
X3.844Y-2.2597
X3.844Y-3.2586
X3.844Y-4.2574
X3.844Y-5.2563
X3.8451Y-2.4247
X3.8451Y-3.4236
X3.8451Y-4.4224
X3.8451Y-5.4213
X3.8454Y-2.4784
X3.8454Y-3.4772
X3.8454Y-4.4761
X3.8454Y-5.475
X3.849Y-2.0947
X3.849Y-2.1147
X3.849Y-2.1347
X3.849Y-3.0936
X3.849Y-3.1136
X3.849Y-3.1336
X3.849Y-4.0924
X3.849Y-4.1124
X3.849Y-4.1324
X3.849Y-5.0913
X3.849Y-5.1113
X3.849Y-5.1313
X3.854Y-2.2097
X3.854Y-2.2797
X3.854Y-3.2086
X3.854Y-3.2786
X3.854Y-4.2074
X3.854Y-4.2774
X3.854Y-5.2063
X3.854Y-5.2763
X3.859Y-2.2447
X3.859Y-3.2436
X3.859Y-4.2424
X3.859Y-5.2413
X3.8604Y-2.5184
X3.8604Y-2.5578
X3.8604Y-3.5172
X3.8604Y-3.5566
X3.8604Y-4.5161
X3.8604Y-4.5555
X3.8604Y-5.515
X3.8604Y-5.5543
X3.8654Y-2.4684
X3.8654Y-3.4672
X3.8654Y-4.4661
X3.8654Y-5.465
X3.8674Y-2.0498
X3.8674Y-3.0486
X3.8674Y-4.0475
X3.8674Y-5.0463
X3.8779Y-1.9497
X3.8779Y-2.9486
X3.8779Y-3.9474
X3.8779Y-4.9463
X3.8804Y-2.5384
X3.8804Y-3.5372
X3.8804Y-4.5361
X3.8804Y-5.535
X3.8829Y-2.4247
X3.8829Y-3.4236
X3.8829Y-4.4224
X3.8829Y-5.4213
X3.884Y-2.3347
X3.884Y-3.3336
X3.884Y-4.3324
X3.884Y-5.3313
X3.8841Y-2.0295
X3.8841Y-3.0283
X3.8841Y-4.0272
X3.8841Y-5.0261
X3.8866Y-2.3547
X3.8866Y-3.3536
X3.8866Y-4.3524
X3.8866Y-5.3513
X3.8942Y-2.0491
X3.8942Y-3.048
X3.8942Y-4.0469
X3.8942Y-5.0457
X3.8987Y-2.6252
X3.8987Y-3.624
X3.8987Y-4.6229
X3.8987Y-5.6217
X3.904Y-2.0297
X3.904Y-3.0286
X3.904Y-4.0274
X3.904Y-5.0263
X3.909Y-2.4197
X3.909Y-3.4186
X3.909Y-4.4174
X3.909Y-5.4163
X3.9101Y-1.9497
X3.9101Y-2.9486
X3.9101Y-3.9474
X3.9101Y-4.9463
X3.914Y-2.1147
X3.914Y-2.1647
X3.914Y-2.2147
X3.914Y-2.2647
X3.914Y-3.1136
X3.914Y-3.1636
X3.914Y-3.2136
X3.914Y-3.2636
X3.914Y-4.1124
X3.914Y-4.1624
X3.914Y-4.2124
X3.914Y-4.2624
X3.914Y-5.1113
X3.914Y-5.1613
X3.914Y-5.2113
X3.914Y-5.2613
X3.921Y-2.0494
X3.921Y-3.0482
X3.921Y-4.0471
X3.921Y-5.0459
X3.9307Y-1.8576
X3.9307Y-2.8565
X3.9307Y-3.8554
X3.9307Y-4.8542
X3.939Y-2.4194
X3.939Y-3.4183
X3.939Y-4.4172
X3.939Y-5.416
X3.9454Y-2.512
X3.9454Y-2.5445
X3.9454Y-3.5108
X3.9454Y-3.5433
X3.9454Y-4.5097
X3.9454Y-4.5422
X3.9454Y-5.5085
X3.9454Y-5.5411
X3.9469Y-2.3161
X3.9469Y-3.315
X3.9469Y-4.3138
X3.9469Y-5.3127
X3.9478Y-2.0489
X3.9478Y-3.0478
X3.9478Y-4.0467
X3.9478Y-5.0455
X3.9479Y-1.9497
X3.9479Y-2.9486
X3.9479Y-3.9474
X3.9479Y-4.9463
X3.949Y-2.0297
X3.949Y-2.3347
X3.949Y-3.0286
X3.949Y-3.3336
X3.949Y-4.0274
X3.949Y-4.3324
X3.949Y-5.0263
X3.949Y-5.3313
X3.964Y-2.1147
X3.964Y-2.1647
X3.964Y-2.2147
X3.964Y-2.2647
X3.964Y-3.1136
X3.964Y-3.1636
X3.964Y-3.2136
X3.964Y-3.2636
X3.964Y-4.1124
X3.964Y-4.1624
X3.964Y-4.2124
X3.964Y-4.2624
X3.964Y-5.1113
X3.964Y-5.1613
X3.964Y-5.2113
X3.964Y-5.2613
X3.9764Y-2.6006
X3.9764Y-3.5994
X3.9764Y-4.5983
X3.9764Y-5.5971
X3.9776Y-1.8572
X3.9776Y-2.8561
X3.9776Y-3.855
X3.9776Y-4.8538
X3.9882Y-2.4293
X3.9882Y-2.4509
X3.9882Y-3.4281
X3.9882Y-3.4498
X3.9882Y-4.427
X3.9882Y-4.4487
X3.9882Y-5.4259
X3.9882Y-5.4475
X4.0052Y-2.5123
X4.0052Y-2.6252
X4.0052Y-3.5112
X4.0052Y-3.624
X4.0052Y-4.51
X4.0052Y-4.6229
X4.0052Y-5.5089
X4.0052Y-5.6217
X4.009Y-2.0297
X4.009Y-2.0497
X4.009Y-3.0286
X4.009Y-3.0486
X4.009Y-4.0274
X4.009Y-4.0474
X4.009Y-5.0263
X4.009Y-5.0463
X4.014Y-2.1147
X4.014Y-2.1647
X4.014Y-2.2147
X4.014Y-2.2647
X4.014Y-2.3547
X4.014Y-3.1136
X4.014Y-3.1636
X4.014Y-3.2136
X4.014Y-3.2636
X4.014Y-3.3536
X4.014Y-4.1124
X4.014Y-4.1624
X4.014Y-4.2124
X4.014Y-4.2624
X4.014Y-4.3524
X4.014Y-5.1113
X4.014Y-5.1613
X4.014Y-5.2113
X4.014Y-5.2613
X4.014Y-5.3513
X4.024Y-2.3347
X4.024Y-3.3336
X4.024Y-4.3324
X4.024Y-5.3313
X4.034Y-2.3547
X4.034Y-3.3536
X4.034Y-4.3524
X4.034Y-5.3513
X4.043Y-2.5123
X4.043Y-2.6252
X4.043Y-3.5112
X4.043Y-3.624
X4.043Y-4.51
X4.043Y-4.6229
X4.043Y-5.5089
X4.043Y-5.6217
X4.0433Y-2.4362
X4.0433Y-3.435
X4.0433Y-4.4339
X4.0433Y-5.4328
X4.049Y-1.9647
X4.049Y-2.9636
X4.049Y-3.9624
X4.049Y-4.9613
X4.059Y-1.8697
X4.059Y-2.8686
X4.059Y-3.8674
X4.059Y-4.8663
X4.062Y-2.32
X4.062Y-3.3189
X4.062Y-4.3178
X4.062Y-5.3166
X4.064Y-2.1147
X4.064Y-2.1647
X4.064Y-2.2147
X4.064Y-2.2647
X4.064Y-3.1136
X4.064Y-3.1636
X4.064Y-3.2136
X4.064Y-3.2636
X4.064Y-4.1124
X4.064Y-4.1624
X4.064Y-4.2124
X4.064Y-4.2624
X4.064Y-5.1113
X4.064Y-5.1613
X4.064Y-5.2113
X4.064Y-5.2613
X4.069Y-1.9647
X4.069Y-2.4147
X4.069Y-2.9636
X4.069Y-3.4136
X4.069Y-3.9624
X4.069Y-4.4124
X4.069Y-4.9613
X4.069Y-5.4113
X4.074Y-2.3547
X4.074Y-3.3536
X4.074Y-4.3524
X4.074Y-5.3513
X4.0748Y-2.4696
X4.0748Y-3.4685
X4.0748Y-4.4674
X4.0748Y-5.4662
X4.0827Y-2.5504
X4.0827Y-3.5492
X4.0827Y-4.5481
X4.0827Y-5.5469
X4.0886Y-2.6065
X4.0886Y-3.6053
X4.0886Y-4.6042
X4.0886Y-5.603
X4.0901Y-2.4297
X4.0901Y-3.4286
X4.0901Y-4.4274
X4.0901Y-5.4263
X4.0926Y-2.4618
X4.0926Y-3.4606
X4.0926Y-4.4595
X4.0926Y-5.4583
X4.094Y-1.9497
X4.094Y-2.9486
X4.094Y-3.9474
X4.094Y-4.9463
X4.109Y-2.3197
X4.109Y-2.3403
X4.109Y-3.3186
X4.109Y-3.3391
X4.109Y-4.3174
X4.109Y-4.338
X4.109Y-5.3163
X4.109Y-5.3369
X4.1201Y-2.2647
X4.1201Y-3.2636
X4.1201Y-4.2624
X4.1201Y-5.2613
X4.1231Y-2.5887
X4.1231Y-3.5876
X4.1231Y-4.5865
X4.1231Y-5.5853
X4.1241Y-2.2411
X4.1241Y-3.24
X4.1241Y-4.2388
X4.1241Y-5.2377
X4.129Y-2.0847
X4.129Y-2.1147
X4.129Y-2.1397
X4.129Y-2.3047
X4.129Y-2.3247
X4.129Y-2.4297
X4.129Y-2.6252
X4.129Y-3.0836
X4.129Y-3.1136
X4.129Y-3.1386
X4.129Y-3.3036
X4.129Y-3.3236
X4.129Y-3.4286
X4.129Y-3.624
X4.129Y-4.0824
X4.129Y-4.1124
X4.129Y-4.1374
X4.129Y-4.3024
X4.129Y-4.3224
X4.129Y-4.4274
X4.129Y-4.6229
X4.129Y-5.0813
X4.129Y-5.1113
X4.129Y-5.1363
X4.129Y-5.3013
X4.129Y-5.3213
X4.129Y-5.4263
X4.129Y-5.6217
X4.134Y-1.9497
X4.134Y-2.9486
X4.134Y-3.9474
X4.134Y-4.9463
X4.1373Y-2.489
X4.1373Y-2.5268
X4.1373Y-3.4879
X4.1373Y-3.5257
X4.1373Y-4.4867
X4.1373Y-4.5245
X4.1373Y-5.4856
X4.1373Y-5.5234
X4.1472Y-2.2481
X4.1472Y-3.247
X4.1472Y-4.2459
X4.1472Y-5.2447
X4.149Y-2.1147
X4.149Y-2.1397
X4.149Y-2.1947
X4.149Y-2.2147
X4.149Y-2.3097
X4.149Y-3.1136
X4.149Y-3.1386
X4.149Y-3.1936
X4.149Y-3.2136
X4.149Y-3.3086
X4.149Y-4.1124
X4.149Y-4.1374
X4.149Y-4.1924
X4.149Y-4.2124
X4.149Y-4.3074
X4.149Y-5.1113
X4.149Y-5.1363
X4.149Y-5.1913
X4.149Y-5.2113
X4.149Y-5.3063
X4.15Y-2.0867
X4.15Y-3.0856
X4.15Y-4.0844
X4.15Y-5.0833
X4.1583Y-1.9631
X4.1583Y-2.962
X4.1583Y-3.9609
X4.1583Y-4.9597
X4.1601Y-2.4297
X4.1601Y-3.4286
X4.1601Y-4.4274
X4.1601Y-5.4263
X4.1693Y-2.4624
X4.1693Y-3.4612
X4.1693Y-4.4601
X4.1693Y-5.4589
X4.1737Y-2.489
X4.1737Y-2.5268
X4.1737Y-3.4879
X4.1737Y-3.5257
X4.1737Y-4.4867
X4.1737Y-4.5245
X4.1737Y-5.4856
X4.1737Y-5.5234
X4.178Y-2.3805
X4.178Y-3.3793
X4.178Y-4.3782
X4.178Y-5.377
X4.1906Y-1.9907
X4.1906Y-2.9896
X4.1906Y-3.9884
X4.1906Y-4.9873
X4.194Y-1.8847
X4.194Y-2.8836
X4.194Y-3.8824
X4.194Y-4.8813
X4.1969Y-2.6537
X4.1969Y-3.6526
X4.1969Y-4.6514
X4.1969Y-5.6503
X4.199Y-2.4297
X4.199Y-3.4286
X4.199Y-4.4274
X4.199Y-5.4263
X4.2101Y-2.489
X4.2101Y-2.5268
X4.2101Y-2.5874
X4.2101Y-2.6252
X4.2101Y-3.4879
X4.2101Y-3.5257
X4.2101Y-3.5862
X4.2101Y-3.624
X4.2101Y-4.4867
X4.2101Y-4.5245
X4.2101Y-4.5851
X4.2101Y-4.6229
X4.2101Y-5.4856
X4.2101Y-5.5234
X4.2101Y-5.5839
X4.2101Y-5.6217
X4.2103Y-2.4655
X4.2103Y-3.4644
X4.2103Y-4.4632
X4.2103Y-5.4621
X4.214Y-2.0697
X4.214Y-3.0686
X4.214Y-4.0674
X4.214Y-5.0663
X4.2174Y-2.3411
X4.2174Y-3.34
X4.2174Y-4.3388
X4.2174Y-5.3377
X4.219Y-1.9097
X4.219Y-2.9086
X4.219Y-3.9074
X4.219Y-4.9063
X4.229Y-2.1108
X4.229Y-2.1486
X4.229Y-2.1808
X4.229Y-2.2197
X4.229Y-3.1097
X4.229Y-3.1475
X4.229Y-3.1797
X4.229Y-3.2186
X4.229Y-4.1085
X4.229Y-4.1463
X4.229Y-4.1785
X4.229Y-4.2174
X4.229Y-5.1074
X4.229Y-5.1452
X4.229Y-5.1774
X4.229Y-5.2163
X4.274Y-2.2347
X4.274Y-3.2336
X4.274Y-4.2324
X4.274Y-5.2313
X4.2756Y-2.486
X4.2756Y-3.4848
X4.2756Y-4.4837
X4.2756Y-5.4826
X4.2772Y-2.5939
X4.2772Y-3.5927
X4.2772Y-4.5916
X4.2772Y-5.5904
X4.2784Y-2.5383
X4.2784Y-3.5372
X4.2784Y-4.5361
X4.2784Y-5.5349
X4.2792Y-2.6399
X4.2792Y-3.6388
X4.2792Y-4.6376
X4.2792Y-5.6365
X4.2807Y-1.9407
X4.2807Y-1.9899
X4.2807Y-2.9396
X4.2807Y-2.9888
X4.2807Y-3.9384
X4.2807Y-3.9876
X4.2807Y-4.9373
X4.2807Y-4.9865
X4.2811Y-2.0395
X4.2811Y-3.0384
X4.2811Y-4.0372
X4.2811Y-5.0361
X5.3585Y-1.8705
X5.3585Y-1.8961
X5.3585Y-1.9217
X5.3585Y-1.9472
X5.3585Y-1.9728
X5.3585Y-1.9984
X5.3585Y-2.024
X5.3585Y-2.0496
X5.3585Y-2.0752
X5.3585Y-2.9238
X5.3585Y-2.9493
X5.3585Y-2.9749
X5.3585Y-3.0005
X5.3585Y-3.0261
X5.3585Y-3.0517
X5.3585Y-3.0773
X5.3585Y-3.1029
X5.3585Y-3.1285
X5.3585Y-3.977
X5.3585Y-4.0026
X5.3585Y-4.0282
X5.3585Y-4.0538
X5.3585Y-4.0794
X5.3585Y-4.105
X5.3585Y-4.1306
X5.3585Y-4.1562
X5.3585Y-4.1818
X5.3585Y-5.031
X5.3585Y-5.0566
X5.3585Y-5.0821
X5.3585Y-5.1077
X5.3585Y-5.1333
X5.3585Y-5.1589
X5.3585Y-5.1845
X5.3585Y-5.2101
X5.3585Y-5.2357
X5.3677Y-1.8313
X5.3677Y-2.8846
X5.3677Y-3.9378
X5.3677Y-4.9918
X5.3711Y-2.2069
X5.3711Y-3.2602
X5.3711Y-4.3134
X5.3711Y-5.3674
X5.375Y-2.2817
X5.375Y-2.3368
X5.375Y-2.388
X5.375Y-3.335
X5.375Y-3.3901
X5.375Y-3.4413
X5.375Y-4.3882
X5.375Y-4.4434
X5.375Y-4.4945
X5.375Y-5.4422
X5.375Y-5.4973
X5.375Y-5.5485
X5.3841Y-1.8705
X5.3841Y-1.8961
X5.3841Y-1.9217
X5.3841Y-2.0496
X5.3841Y-2.0752
X5.3841Y-2.4335
X5.3841Y-2.4591
X5.3841Y-2.4846
X5.3841Y-2.5358
X5.3841Y-2.9238
X5.3841Y-2.9493
X5.3841Y-2.9749
X5.3841Y-3.1029
X5.3841Y-3.1285
X5.3841Y-3.4867
X5.3841Y-3.5123
X5.3841Y-3.5379
X5.3841Y-3.5891
X5.3841Y-3.977
X5.3841Y-4.0026
X5.3841Y-4.0282
X5.3841Y-4.1562
X5.3841Y-4.1818
X5.3841Y-4.54
X5.3841Y-4.5656
X5.3841Y-4.5912
X5.3841Y-4.6424
X5.3841Y-5.031
X5.3841Y-5.0566
X5.3841Y-5.0821
X5.3841Y-5.2101
X5.3841Y-5.2357
X5.3841Y-5.594
X5.3841Y-5.6195
X5.3841Y-5.6451
X5.3841Y-5.6963
X5.3989Y-1.9592
X5.3989Y-2.0191
X5.3989Y-3.0125
X5.3989Y-3.0724
X5.3989Y-4.0658
X5.3989Y-4.1256
X5.3989Y-5.1197
X5.3989Y-5.1796
X5.4097Y-1.8193
X5.4097Y-1.8449
X5.4097Y-1.8705
X5.4097Y-1.8961
X5.4097Y-1.9217
X5.4097Y-2.0496
X5.4097Y-2.0752
X5.4097Y-2.4591
X5.4097Y-2.4846
X5.4097Y-2.5358
X5.4097Y-2.8726
X5.4097Y-2.8982
X5.4097Y-2.9238
X5.4097Y-2.9493
X5.4097Y-2.9749
X5.4097Y-3.1029
X5.4097Y-3.1285
X5.4097Y-3.5123
X5.4097Y-3.5379
X5.4097Y-3.5891
X5.4097Y-3.9259
X5.4097Y-3.9514
X5.4097Y-3.977
X5.4097Y-4.0026
X5.4097Y-4.0282
X5.4097Y-4.1562
X5.4097Y-4.1818
X5.4097Y-4.5656
X5.4097Y-4.5912
X5.4097Y-4.6424
X5.4097Y-4.9798
X5.4097Y-5.0054
X5.4097Y-5.031
X5.4097Y-5.0566
X5.4097Y-5.0821
X5.4097Y-5.2101
X5.4097Y-5.2357
X5.4097Y-5.6195
X5.4097Y-5.6451
X5.4097Y-5.6963
X5.4175Y-1.9592
X5.4175Y-2.0191
X5.4175Y-3.0125
X5.4175Y-3.0724
X5.4175Y-4.0658
X5.4175Y-4.1256
X5.4175Y-5.1197
X5.4175Y-5.1796
X5.4353Y-1.8193
X5.4353Y-1.8449
X5.4353Y-1.8705
X5.4353Y-1.8961
X5.4353Y-2.8726
X5.4353Y-2.8982
X5.4353Y-2.9238
X5.4353Y-2.9493
X5.4353Y-3.9259
X5.4353Y-3.9514
X5.4353Y-3.977
X5.4353Y-4.0026
X5.4353Y-4.9798
X5.4353Y-5.0054
X5.4353Y-5.031
X5.4353Y-5.0566
X5.4382Y-1.9592
X5.4382Y-3.0125
X5.4382Y-4.0658
X5.4382Y-5.1197
X5.4477Y-2.5382
X5.4477Y-3.5915
X5.4477Y-4.6447
X5.4477Y-5.6987
X5.4569Y-1.9592
X5.4569Y-3.0125
X5.4569Y-4.0658
X5.4569Y-5.1197
X5.4579Y-2.0648
X5.4579Y-3.118
X5.4579Y-4.1713
X5.4579Y-5.2252
X5.4581Y-2.2524
X5.4581Y-2.4571
X5.4581Y-3.3057
X5.4581Y-3.5104
X5.4581Y-4.359
X5.4581Y-4.5636
X5.4581Y-5.4129
X5.4581Y-5.6176
X5.4609Y-1.8193
X5.4609Y-1.8449
X5.4609Y-1.8705
X5.4609Y-2.8726
X5.4609Y-2.8982
X5.4609Y-2.9238
X5.4609Y-3.9259
X5.4609Y-3.9514
X5.4609Y-3.977
X5.4609Y-4.9798
X5.4609Y-5.0054
X5.4609Y-5.031
X5.4865Y-1.8193
X5.4865Y-1.8449
X5.4865Y-1.8705
X5.4865Y-2.8726
X5.4865Y-2.8982
X5.4865Y-2.9238
X5.4865Y-3.9259
X5.4865Y-3.9514
X5.4865Y-3.977
X5.4865Y-4.9798
X5.4865Y-5.0054
X5.4865Y-5.031
X5.4957Y-2.0648
X5.4957Y-3.118
X5.4957Y-4.1713
X5.4957Y-5.2252
X5.512Y-2.5102
X5.512Y-3.5635
X5.512Y-4.6168
X5.512Y-5.6707
X5.5268Y-2.0651
X5.5268Y-3.1184
X5.5268Y-4.1717
X5.5268Y-5.2256
X5.5271Y-1.8313
X5.5271Y-2.8846
X5.5271Y-3.9378
X5.5271Y-4.9918
X5.5313Y-1.9305
X5.5313Y-2.9838
X5.5313Y-4.0371
X5.5313Y-5.091
X5.5331Y-2.3758
X5.5331Y-3.4291
X5.5331Y-4.4823
X5.5331Y-5.5363
X5.5601Y-1.9321
X5.5601Y-1.9636
X5.5601Y-2.9854
X5.5601Y-3.0169
X5.5601Y-4.0386
X5.5601Y-4.0701
X5.5601Y-5.0926
X5.5601Y-5.1241
X5.5632Y-1.8193
X5.5632Y-1.8449
X5.5632Y-2.8726
X5.5632Y-2.8982
X5.5632Y-3.9259
X5.5632Y-3.9514
X5.5632Y-4.9798
X5.5632Y-5.0054
X5.5646Y-2.0651
X5.5646Y-3.1184
X5.5646Y-4.1717
X5.5646Y-5.2256
X5.5709Y-2.1256
X5.5709Y-2.3337
X5.5709Y-2.3758
X5.5709Y-3.1789
X5.5709Y-3.387
X5.5709Y-3.4291
X5.5709Y-4.2322
X5.5709Y-4.4403
X5.5709Y-4.4823
X5.5709Y-5.2861
X5.5709Y-5.4942
X5.5709Y-5.5363
X5.5888Y-1.8193
X5.5888Y-1.8449
X5.5888Y-2.8726
X5.5888Y-2.8982
X5.5888Y-3.9259
X5.5888Y-3.9514
X5.5888Y-4.9798
X5.5888Y-5.0054
X5.6099Y-2.2917
X5.6099Y-2.3337
X5.6099Y-2.3758
X5.6099Y-3.3449
X5.6099Y-3.387
X5.6099Y-3.4291
X5.6099Y-4.3982
X5.6099Y-4.4403
X5.6099Y-4.4823
X5.6099Y-5.4521
X5.6099Y-5.4942
X5.6099Y-5.5363
X5.6101Y-2.0837
X5.6101Y-3.1369
X5.6101Y-4.1902
X5.6101Y-5.2441
X5.6103Y-2.0655
X5.6103Y-3.1188
X5.6103Y-4.1721
X5.6103Y-5.226
X5.6144Y-1.8193
X5.6144Y-1.8449
X5.6144Y-2.8726
X5.6144Y-2.8982
X5.6144Y-3.9259
X5.6144Y-3.9514
X5.6144Y-4.9798
X5.6144Y-5.0054
X5.64Y-1.8193
X5.64Y-1.8449
X5.64Y-2.8726
X5.64Y-2.8982
X5.64Y-3.9259
X5.64Y-3.9514
X5.64Y-4.9798
X5.64Y-5.0054
X5.6477Y-2.2917
X5.6477Y-2.3337
X5.6477Y-2.3758
X5.6477Y-2.4973
X5.6477Y-3.3449
X5.6477Y-3.387
X5.6477Y-3.4291
X5.6477Y-3.5506
X5.6477Y-4.3982
X5.6477Y-4.4403
X5.6477Y-4.4823
X5.6477Y-4.6039
X5.6477Y-5.4521
X5.6477Y-5.4942
X5.6477Y-5.5363
X5.6477Y-5.6578
X5.6481Y-2.5382
X5.6481Y-3.5915
X5.6481Y-4.6447
X5.6481Y-5.6987
X5.6656Y-1.8193
X5.6656Y-1.8449
X5.6656Y-2.2543
X5.6656Y-2.4591
X5.6656Y-2.8726
X5.6656Y-2.8982
X5.6656Y-3.3076
X5.6656Y-3.5123
X5.6656Y-3.9259
X5.6656Y-3.9514
X5.6656Y-4.3609
X5.6656Y-4.5656
X5.6656Y-4.9798
X5.6656Y-5.0054
X5.6656Y-5.4148
X5.6656Y-5.6195
X5.6912Y-1.8193
X5.6912Y-1.8449
X5.6912Y-1.8705
X5.6912Y-2.8726
X5.6912Y-2.8982
X5.6912Y-2.9238
X5.6912Y-3.9259
X5.6912Y-3.9514
X5.6912Y-3.977
X5.6912Y-4.9798
X5.6912Y-5.0054
X5.6912Y-5.031
X5.7048Y-2.2166
X5.7048Y-3.2699
X5.7048Y-4.3232
X5.7048Y-5.3771
X5.7116Y-1.9951
X5.7116Y-3.0483
X5.7116Y-4.1016
X5.7116Y-5.1556
X5.7168Y-1.8193
X5.7168Y-1.8449
X5.7168Y-1.8705
X5.7168Y-2.8726
X5.7168Y-2.8982
X5.7168Y-2.9238
X5.7168Y-3.9259
X5.7168Y-3.9514
X5.7168Y-3.977
X5.7168Y-4.9798
X5.7168Y-5.0054
X5.7168Y-5.031
X5.7168Y-2.1677
X5.7168Y-2.4973
X5.7168Y-2.5382
X5.7168Y-3.221
X5.7168Y-3.5506
X5.7168Y-3.5915
X5.7168Y-4.2743
X5.7168Y-4.6039
X5.7168Y-4.6447
X5.7168Y-5.3282
X5.7168Y-5.6578
X5.7168Y-5.6987
X5.7236Y-2.0663
X5.7236Y-2.1025
X5.7236Y-3.1196
X5.7236Y-3.1558
X5.7236Y-4.1729
X5.7236Y-4.2091
X5.7236Y-5.2268
X5.7236Y-5.263
X5.7245Y-2.2166
X5.7245Y-3.2699
X5.7245Y-4.3232
X5.7245Y-5.3771
X5.7351Y-1.9667
X5.7351Y-3.02
X5.7351Y-4.0733
X5.7351Y-5.1272
X5.7424Y-1.8705
X5.7424Y-2.9238
X5.7424Y-3.977
X5.7424Y-5.031
X5.7441Y-2.2166
X5.7441Y-3.2699
X5.7441Y-4.3232
X5.7441Y-5.3771
X5.7524Y-1.8313
X5.7524Y-2.8846
X5.7524Y-3.9378
X5.7524Y-4.9918
X5.7538Y-1.9667
X5.7538Y-3.02
X5.7538Y-4.0733
X5.7538Y-5.1272
X5.768Y-1.8705
X5.768Y-2.9238
X5.768Y-3.977
X5.768Y-5.031
X5.7835Y-1.9592
X5.7835Y-3.0125
X5.7835Y-4.0658
X5.7835Y-5.1197
X5.7835Y-2.2195
X5.7835Y-3.2728
X5.7835Y-4.326
X5.7835Y-5.38
X5.7935Y-1.8193
X5.7935Y-1.8449
X5.7935Y-1.8705
X5.7935Y-2.8726
X5.7935Y-2.8982
X5.7935Y-2.9238
X5.7935Y-3.9259
X5.7935Y-3.9514
X5.7935Y-3.977
X5.7935Y-4.9798
X5.7935Y-5.0054
X5.7935Y-5.031
X5.8022Y-1.9592
X5.8022Y-3.0125
X5.8022Y-4.0658
X5.8022Y-5.1197
X5.8191Y-1.8193
X5.8191Y-1.8449
X5.8191Y-1.8705
X5.8191Y-2.8726
X5.8191Y-2.8982
X5.8191Y-2.9238
X5.8191Y-3.9259
X5.8191Y-3.9514
X5.8191Y-3.977
X5.8191Y-4.9798
X5.8191Y-5.0054
X5.8191Y-5.031
X5.8231Y-1.9588
X5.8231Y-3.0121
X5.8231Y-4.0654
X5.8231Y-5.1193
X5.8293Y-2.4983
X5.8293Y-3.5516
X5.8293Y-4.6049
X5.8293Y-5.6588
X5.8309Y-2.2193
X5.8309Y-2.3357
X5.8309Y-2.3758
X5.8309Y-2.416
X5.8309Y-2.4533
X5.8309Y-3.2726
X5.8309Y-3.389
X5.8309Y-3.4291
X5.8309Y-3.4692
X5.8309Y-3.5066
X5.8309Y-4.3259
X5.8309Y-4.4422
X5.8309Y-4.4823
X5.8309Y-4.5225
X5.8309Y-4.5599
X5.8309Y-5.3798
X5.8309Y-5.4962
X5.8309Y-5.5363
X5.8309Y-5.5765
X5.8309Y-5.6138
X5.8313Y-2.5433
X5.8313Y-3.5966
X5.8313Y-4.6499
X5.8313Y-5.7038
X5.8417Y-1.9588
X5.8417Y-3.0121
X5.8417Y-4.0654
X5.8417Y-5.1193
X5.842Y-2.184
X5.842Y-3.2373
X5.842Y-4.2906
X5.842Y-5.3445
X5.8447Y-1.8193
X5.8447Y-1.8449
X5.8447Y-1.8705
X5.8447Y-2.8726
X5.8447Y-2.8982
X5.8447Y-2.9238
X5.8447Y-3.9259
X5.8447Y-3.9514
X5.8447Y-3.977
X5.8447Y-4.9798
X5.8447Y-5.0054
X5.8447Y-5.031
X5.8532Y-2.0376
X5.8532Y-3.0909
X5.8532Y-4.1442
X5.8532Y-5.1981
X5.8668Y-2.0249
X5.8668Y-3.0782
X5.8668Y-4.1314
X5.8668Y-5.1854
X5.8703Y-1.8193
X5.8703Y-1.8449
X5.8703Y-1.8705
X5.8703Y-2.3567
X5.8703Y-2.3823
X5.8703Y-2.4079
X5.8703Y-2.4335
X5.8703Y-2.5358
X5.8703Y-2.8726
X5.8703Y-2.8982
X5.8703Y-2.9238
X5.8703Y-3.41
X5.8703Y-3.4356
X5.8703Y-3.4612
X5.8703Y-3.4867
X5.8703Y-3.5891
X5.8703Y-3.9259
X5.8703Y-3.9514
X5.8703Y-3.977
X5.8703Y-4.4633
X5.8703Y-4.4888
X5.8703Y-4.5144
X5.8703Y-4.54
X5.8703Y-4.6424
X5.8703Y-4.9798
X5.8703Y-5.0054
X5.8703Y-5.031
X5.8703Y-5.5172
X5.8703Y-5.5428
X5.8703Y-5.5684
X5.8703Y-5.594
X5.8703Y-5.6963
X5.8913Y-2.044
X5.8913Y-3.0973
X5.8913Y-4.1506
X5.8913Y-5.2045
X5.8959Y-1.8705
X5.8959Y-1.8961
X5.8959Y-1.9217
X5.8959Y-1.9472
X5.8959Y-2.3055
X5.8959Y-2.3823
X5.8959Y-2.4079
X5.8959Y-2.4335
X5.8959Y-2.4846
X5.8959Y-2.5358
X5.8959Y-2.9238
X5.8959Y-2.9493
X5.8959Y-2.9749
X5.8959Y-3.0005
X5.8959Y-3.3588
X5.8959Y-3.4356
X5.8959Y-3.4612
X5.8959Y-3.4867
X5.8959Y-3.5379
X5.8959Y-3.5891
X5.8959Y-3.977
X5.8959Y-4.0026
X5.8959Y-4.0282
X5.8959Y-4.0538
X5.8959Y-4.4121
X5.8959Y-4.4888
X5.8959Y-4.5144
X5.8959Y-4.54
X5.8959Y-4.5912
X5.8959Y-4.6424
X5.8959Y-5.031
X5.8959Y-5.0566
X5.8959Y-5.0821
X5.8959Y-5.1077
X5.8959Y-5.466
X5.8959Y-5.5428
X5.8959Y-5.5684
X5.8959Y-5.594
X5.8959Y-5.6451
X5.8959Y-5.6963
X5.9119Y-1.8313
X5.9119Y-2.8846
X5.9119Y-3.9378
X5.9119Y-4.9918
X5.9215Y-1.8705
X5.9215Y-1.8961
X5.9215Y-1.9217
X5.9215Y-1.9472
X5.9215Y-1.9728
X5.9215Y-1.9984
X5.9215Y-2.1264
X5.9215Y-2.152
X5.9215Y-2.1776
X5.9215Y-2.2032
X5.9215Y-2.9238
X5.9215Y-2.9493
X5.9215Y-2.9749
X5.9215Y-3.0005
X5.9215Y-3.0261
X5.9215Y-3.0517
X5.9215Y-3.1797
X5.9215Y-3.2052
X5.9215Y-3.2308
X5.9215Y-3.2564
X5.9215Y-3.977
X5.9215Y-4.0026
X5.9215Y-4.0282
X5.9215Y-4.0538
X5.9215Y-4.0794
X5.9215Y-4.105
X5.9215Y-4.2329
X5.9215Y-4.2585
X5.9215Y-4.2841
X5.9215Y-4.3097
X5.9215Y-5.031
X5.9215Y-5.0566
X5.9215Y-5.0821
X5.9215Y-5.1077
X5.9215Y-5.1333
X5.9215Y-5.1589
X5.9215Y-5.2869
X5.9215Y-5.3125
X5.9215Y-5.338
X5.9215Y-5.3636
T3
X5.5085Y-2.1096
X5.5085Y-2.1844
X5.5085Y-3.1629
X5.5085Y-3.2377
X5.5085Y-4.2162
X5.5085Y-4.291
X5.5085Y-5.2701
X5.5085Y-5.3449
X5.7067Y-2.2717
X5.7067Y-3.325
X5.7067Y-4.3783
X5.7067Y-5.4322
X5.7441Y-2.2491
X5.7441Y-2.2944
X5.7441Y-3.3024
X5.7441Y-3.3477
X5.7441Y-4.3557
X5.7441Y-4.4009
X5.7441Y-5.4096
X5.7441Y-5.4549
X5.7815Y-2.2717
X5.7815Y-3.325
X5.7815Y-4.3783
X5.7815Y-5.4322
T4
X6.2187Y-1.8381
X6.2187Y-2.4234
X6.2187Y-3.0086
X6.2187Y-3.5938
X6.2187Y-4.179
X6.2187Y-4.7643
X6.2187Y-5.3495
X6.2384Y-2.1757
X6.2384Y-2.761
X6.2384Y-3.3462
X6.2384Y-3.9314
X6.2384Y-4.5166
X6.2384Y-5.1019
X6.2384Y-5.6871
X6.2502Y-1.8519
X6.2502Y-1.8765
X6.2502Y-1.9041
X6.2502Y-2.1009
X6.2502Y-2.4371
X6.2502Y-2.4617
X6.2502Y-2.4893
X6.2502Y-2.6862
X6.2502Y-3.0224
X6.2502Y-3.047
X6.2502Y-3.0745
X6.2502Y-3.2714
X6.2502Y-3.6076
X6.2502Y-3.6322
X6.2502Y-3.6598
X6.2502Y-3.8566
X6.2502Y-4.1928
X6.2502Y-4.2174
X6.2502Y-4.245
X6.2502Y-4.4418
X6.2502Y-4.7781
X6.2502Y-4.8027
X6.2502Y-4.8302
X6.2502Y-5.0271
X6.2502Y-5.3633
X6.2502Y-5.3879
X6.2502Y-5.4155
X6.2502Y-5.6123
X6.2895Y-1.968
X6.2895Y-2.0073
X6.2895Y-2.0467
X6.2895Y-2.5532
X6.2895Y-2.5926
X6.2895Y-2.6319
X6.2895Y-3.1384
X6.2895Y-3.1778
X6.2895Y-3.2172
X6.2895Y-3.7236
X6.2895Y-3.763
X6.2895Y-3.8024
X6.2895Y-4.3089
X6.2895Y-4.3482
X6.2895Y-4.3876
X6.2895Y-4.8941
X6.2895Y-4.9335
X6.2895Y-4.9728
X6.2895Y-5.4793
X6.2895Y-5.5187
X6.2895Y-5.5581
X6.3269Y-2.1816
X6.3269Y-2.7669
X6.3269Y-3.3521
X6.3269Y-3.9373
X6.3269Y-4.5226
X6.3269Y-5.1078
X6.3269Y-5.693
X6.3302Y-1.968
X6.3302Y-2.0073
X6.3302Y-2.0467
X6.3302Y-2.5532
X6.3302Y-2.5926
X6.3302Y-2.6319
X6.3302Y-3.1384
X6.3302Y-3.1778
X6.3302Y-3.2172
X6.3302Y-3.7236
X6.3302Y-3.763
X6.3302Y-3.8024
X6.3302Y-4.3089
X6.3302Y-4.3482
X6.3302Y-4.3876
X6.3302Y-4.8941
X6.3302Y-4.9335
X6.3302Y-4.9728
X6.3302Y-5.4793
X6.3302Y-5.5187
X6.3302Y-5.5581
X6.3525Y-2.097
X6.3525Y-2.6822
X6.3525Y-3.2674
X6.3525Y-3.8527
X6.3525Y-4.4379
X6.3525Y-5.0231
X6.3525Y-5.6084
X6.3545Y-1.9238
X6.3545Y-2.509
X6.3545Y-3.0942
X6.3545Y-3.6794
X6.3545Y-4.2647
X6.3545Y-4.8499
X6.3545Y-5.4351
X6.3709Y-1.968
X6.3709Y-2.0073
X6.3709Y-2.0467
X6.3709Y-2.5532
X6.3709Y-2.5926
X6.3709Y-2.6319
X6.3709Y-3.1384
X6.3709Y-3.1778
X6.3709Y-3.2172
X6.3709Y-3.7236
X6.3709Y-3.763
X6.3709Y-3.8024
X6.3709Y-4.3089
X6.3709Y-4.3482
X6.3709Y-4.3876
X6.3709Y-4.8941
X6.3709Y-4.9335
X6.3709Y-4.9728
X6.3709Y-5.4793
X6.3709Y-5.5187
X6.3709Y-5.5581
X6.4116Y-1.968
X6.4116Y-2.0073
X6.4116Y-2.0467
X6.4116Y-2.5532
X6.4116Y-2.5926
X6.4116Y-2.6319
X6.4116Y-3.1384
X6.4116Y-3.1778
X6.4116Y-3.2172
X6.4116Y-3.7236
X6.4116Y-3.763
X6.4116Y-3.8024
X6.4116Y-4.3089
X6.4116Y-4.3482
X6.4116Y-4.3876
X6.4116Y-4.8941
X6.4116Y-4.9335
X6.4116Y-4.9728
X6.4116Y-5.4793
X6.4116Y-5.5187
X6.4116Y-5.5581
X6.447Y-1.8175
X6.447Y-2.4027
X6.447Y-2.9879
X6.447Y-3.5731
X6.447Y-4.1584
X6.447Y-4.7436
X6.447Y-5.3288
X6.449Y-2.1974
X6.449Y-2.7826
X6.449Y-3.3678
X6.449Y-3.9531
X6.449Y-4.5383
X6.449Y-5.1235
X6.449Y-5.7088
X6.4549Y-1.8785
X6.4549Y-2.4637
X6.4549Y-3.0489
X6.4549Y-3.6342
X6.4549Y-4.2194
X6.4549Y-4.8046
X6.4549Y-5.3899
X6.4746Y-2.1974
X6.4746Y-2.7826
X6.4746Y-3.3678
X6.4746Y-3.9531
X6.4746Y-4.5383
X6.4746Y-5.1235
X6.4746Y-5.7088
X6.4785Y-1.8175
X6.4785Y-2.4027
X6.4785Y-2.9879
X6.4785Y-3.5731
X6.4785Y-4.1584
X6.4785Y-4.7436
X6.4785Y-5.3288
X6.51Y-1.8519
X6.51Y-1.8765
X6.51Y-1.9041
X6.51Y-2.4371
X6.51Y-2.4617
X6.51Y-2.4893
X6.51Y-3.0224
X6.51Y-3.047
X6.51Y-3.0745
X6.51Y-3.6076
X6.51Y-3.6322
X6.51Y-3.6598
X6.51Y-4.1928
X6.51Y-4.2174
X6.51Y-4.245
X6.51Y-4.7781
X6.51Y-4.8027
X6.51Y-4.8302
X6.51Y-5.3633
X6.51Y-5.3879
X6.51Y-5.4155
X6.512Y-2.1147
X6.512Y-2.6999
X6.512Y-3.2852
X6.512Y-3.8704
X6.512Y-4.4556
X6.512Y-5.0409
X6.512Y-5.6261
X6.5527Y-1.968
X6.5527Y-2.0073
X6.5527Y-2.0467
X6.5527Y-2.5532
X6.5527Y-2.5926
X6.5527Y-2.6319
X6.5527Y-3.1384
X6.5527Y-3.1778
X6.5527Y-3.2172
X6.5527Y-3.7236
X6.5527Y-3.763
X6.5527Y-3.8024
X6.5527Y-4.3089
X6.5527Y-4.3482
X6.5527Y-4.3876
X6.5527Y-4.8941
X6.5527Y-4.9335
X6.5527Y-4.9728
X6.5527Y-5.4793
X6.5527Y-5.5187
X6.5527Y-5.5581
X6.5868Y-2.1816
X6.5868Y-2.7669
X6.5868Y-3.3521
X6.5868Y-3.9373
X6.5868Y-4.5226
X6.5868Y-5.1078
X6.5868Y-5.693
X6.5933Y-1.968
X6.5933Y-2.0073
X6.5933Y-2.0467
X6.5933Y-2.5532
X6.5933Y-2.5926
X6.5933Y-2.6319
X6.5933Y-3.1384
X6.5933Y-3.1778
X6.5933Y-3.2172
X6.5933Y-3.7236
X6.5933Y-3.763
X6.5933Y-3.8024
X6.5933Y-4.3089
X6.5933Y-4.3482
X6.5933Y-4.3876
X6.5933Y-4.8941
X6.5933Y-4.9335
X6.5933Y-4.9728
X6.5933Y-5.4793
X6.5933Y-5.5187
X6.5933Y-5.5581
X6.6202Y-2.1974
X6.6202Y-2.7826
X6.6202Y-3.3678
X6.6202Y-3.9531
X6.6202Y-4.5383
X6.6202Y-5.1235
X6.6202Y-5.7088
X6.634Y-1.968
X6.634Y-2.0073
X6.634Y-2.0467
X6.634Y-2.5532
X6.634Y-2.5926
X6.634Y-2.6319
X6.634Y-3.1384
X6.634Y-3.1778
X6.634Y-3.2172
X6.634Y-3.7236
X6.634Y-3.763
X6.634Y-3.8024
X6.634Y-4.3089
X6.634Y-4.3482
X6.634Y-4.3876
X6.634Y-4.8941
X6.634Y-4.9335
X6.634Y-4.9728
X6.634Y-5.4793
X6.634Y-5.5187
X6.634Y-5.5581
X6.6596Y-1.8371
X6.6596Y-2.4224
X6.6596Y-3.0076
X6.6596Y-3.5928
X6.6596Y-4.1781
X6.6596Y-4.7633
X6.6596Y-5.3485
X6.6675Y-1.8805
X6.6675Y-2.4657
X6.6675Y-3.0509
X6.6675Y-3.6361
X6.6675Y-4.2214
X6.6675Y-4.8066
X6.6675Y-5.3918
X6.6747Y-1.968
X6.6747Y-2.0073
X6.6747Y-2.0467
X6.6747Y-2.5532
X6.6747Y-2.5926
X6.6747Y-2.6319
X6.6747Y-3.1384
X6.6747Y-3.1778
X6.6747Y-3.2172
X6.6747Y-3.7236
X6.6747Y-3.763
X6.6747Y-3.8024
X6.6747Y-4.3089
X6.6747Y-4.3482
X6.6747Y-4.3876
X6.6747Y-4.8941
X6.6747Y-4.9335
X6.6747Y-4.9728
X6.6747Y-5.4793
X6.6747Y-5.5187
X6.6747Y-5.5581
X6.7128Y-2.1974
X6.7128Y-2.7826
X6.7128Y-3.3678
X6.7128Y-3.9531
X6.7128Y-4.5383
X6.7128Y-5.1235
X6.7128Y-5.7088
T5
X3.664Y-1.8647
X3.664Y-1.9147
X3.664Y-1.9647
X3.664Y-2.0147
X3.664Y-2.0647
X3.664Y-2.1147
X3.664Y-2.1647
X3.664Y-2.2147
X3.664Y-2.2647
X3.664Y-2.3147
X3.664Y-2.3647
X3.664Y-2.4147
X3.664Y-2.4647
X3.664Y-2.5147
X3.664Y-2.5647
X3.664Y-2.6147
X3.664Y-2.6647
X3.664Y-2.8636
X3.664Y-2.9136
X3.664Y-2.9636
X3.664Y-3.0136
X3.664Y-3.0636
X3.664Y-3.1136
X3.664Y-3.1636
X3.664Y-3.2136
X3.664Y-3.2636
X3.664Y-3.3136
X3.664Y-3.3636
X3.664Y-3.4136
X3.664Y-3.4636
X3.664Y-3.5136
X3.664Y-3.5636
X3.664Y-3.6136
X3.664Y-3.6636
X3.664Y-3.8624
X3.664Y-3.9124
X3.664Y-3.9624
X3.664Y-4.0124
X3.664Y-4.0624
X3.664Y-4.1124
X3.664Y-4.1624
X3.664Y-4.2124
X3.664Y-4.2624
X3.664Y-4.3124
X3.664Y-4.3624
X3.664Y-4.4124
X3.664Y-4.4624
X3.664Y-4.5124
X3.664Y-4.5624
X3.664Y-4.6124
X3.664Y-4.6624
X3.664Y-4.8613
X3.664Y-4.9113
X3.664Y-4.9613
X3.664Y-5.0113
X3.664Y-5.0613
X3.664Y-5.1113
X3.664Y-5.1613
X3.664Y-5.2113
X3.664Y-5.2613
X3.664Y-5.3113
X3.664Y-5.3613
X3.664Y-5.4113
X3.664Y-5.4613
X3.664Y-5.5113
X3.664Y-5.5613
X3.664Y-5.6113
X3.664Y-5.6613
X3.714Y-1.8147
X3.714Y-2.7147
X3.714Y-2.8136
X3.714Y-3.7136
X3.714Y-3.8124
X3.714Y-4.7124
X3.714Y-4.8113
X3.714Y-5.7113
X3.764Y-1.8147
X3.764Y-2.7147
X3.764Y-2.8136
X3.764Y-3.7136
X3.764Y-3.8124
X3.764Y-4.7124
X3.764Y-4.8113
X3.764Y-5.7113
X3.814Y-1.8147
X3.814Y-2.7147
X3.814Y-2.8136
X3.814Y-3.7136
X3.814Y-3.8124
X3.814Y-4.7124
X3.814Y-4.8113
X3.814Y-5.7113
X3.864Y-1.8147
X3.864Y-2.7147
X3.864Y-2.8136
X3.864Y-3.7136
X3.864Y-3.8124
X3.864Y-4.7124
X3.864Y-4.8113
X3.864Y-5.7113
X3.914Y-1.8147
X3.914Y-2.7147
X3.914Y-2.8136
X3.914Y-3.7136
X3.914Y-3.8124
X3.914Y-4.7124
X3.914Y-4.8113
X3.914Y-5.7113
X3.964Y-1.8147
X3.964Y-2.7147
X3.964Y-2.8136
X3.964Y-3.7136
X3.964Y-3.8124
X3.964Y-4.7124
X3.964Y-4.8113
X3.964Y-5.7113
X4.014Y-1.8147
X4.014Y-2.7147
X4.014Y-2.8136
X4.014Y-3.7136
X4.014Y-3.8124
X4.014Y-4.7124
X4.014Y-4.8113
X4.014Y-5.7113
X4.064Y-1.8147
X4.064Y-2.7147
X4.064Y-2.8136
X4.064Y-3.7136
X4.064Y-3.8124
X4.064Y-4.7124
X4.064Y-4.8113
X4.064Y-5.7113
X4.114Y-1.8147
X4.114Y-2.7147
X4.114Y-2.8136
X4.114Y-3.7136
X4.114Y-3.8124
X4.114Y-4.7124
X4.114Y-4.8113
X4.114Y-5.7113
X4.164Y-1.8147
X4.164Y-2.7147
X4.164Y-2.8136
X4.164Y-3.7136
X4.164Y-3.8124
X4.164Y-4.7124
X4.164Y-4.8113
X4.164Y-5.7113
X4.214Y-1.8147
X4.214Y-2.7147
X4.214Y-2.8136
X4.214Y-3.7136
X4.214Y-3.8124
X4.214Y-4.7124
X4.214Y-4.8113
X4.214Y-5.7113
X4.264Y-1.8147
X4.264Y-2.7147
X4.264Y-2.8136
X4.264Y-3.7136
X4.264Y-3.8124
X4.264Y-4.7124
X4.264Y-4.8113
X4.264Y-5.7113
X4.314Y-1.8647
X4.314Y-1.9147
X4.314Y-1.9647
X4.314Y-2.0147
X4.314Y-2.0647
X4.314Y-2.1147
X4.314Y-2.1647
X4.314Y-2.2147
X4.314Y-2.2647
X4.314Y-2.3147
X4.314Y-2.3647
X4.314Y-2.4147
X4.314Y-2.4647
X4.314Y-2.5147
X4.314Y-2.5647
X4.314Y-2.6147
X4.314Y-2.6647
X4.314Y-2.8636
X4.314Y-2.9136
X4.314Y-2.9636
X4.314Y-3.0136
X4.314Y-3.0636
X4.314Y-3.1136
X4.314Y-3.1636
X4.314Y-3.2136
X4.314Y-3.2636
X4.314Y-3.3136
X4.314Y-3.3636
X4.314Y-3.4136
X4.314Y-3.4636
X4.314Y-3.5136
X4.314Y-3.5636
X4.314Y-3.6136
X4.314Y-3.6636
X4.314Y-3.8624
X4.314Y-3.9124
X4.314Y-3.9624
X4.314Y-4.0124
X4.314Y-4.0624
X4.314Y-4.1124
X4.314Y-4.1624
X4.314Y-4.2124
X4.314Y-4.2624
X4.314Y-4.3124
X4.314Y-4.3624
X4.314Y-4.4124
X4.314Y-4.4624
X4.314Y-4.5124
X4.314Y-4.5624
X4.314Y-4.6124
X4.314Y-4.6624
X4.314Y-4.8613
X4.314Y-4.9113
X4.314Y-4.9613
X4.314Y-5.0113
X4.314Y-5.0613
X4.314Y-5.1113
X4.314Y-5.1613
X4.314Y-5.2113
X4.314Y-5.2613
X4.314Y-5.3113
X4.314Y-5.3613
X4.314Y-5.4113
X4.314Y-5.4613
X4.314Y-5.5113
X4.314Y-5.5613
X4.314Y-5.6113
X4.314Y-5.6613
X4.5506Y-1.8678
X4.5506Y-1.9178
X4.5506Y-1.9678
X4.5506Y-2.0178
X4.5506Y-2.0678
X4.5506Y-2.1178
X4.5506Y-2.1678
X4.5506Y-2.2178
X4.5506Y-2.4411
X4.5506Y-2.4911
X4.5506Y-2.5411
X4.5506Y-2.5911
X4.5506Y-2.6411
X4.5506Y-2.6911
X4.5506Y-2.7411
X4.5506Y-2.7911
X4.5506Y-3.0144
X4.5506Y-3.0644
X4.5506Y-3.1144
X4.5506Y-3.1644
X4.5506Y-3.2144
X4.5506Y-3.2644
X4.5506Y-3.3144
X4.5506Y-3.3644
X4.5506Y-3.5877
X4.5506Y-3.6377
X4.5506Y-3.6877
X4.5506Y-3.7377
X4.5506Y-3.7877
X4.5506Y-3.8377
X4.5506Y-3.8877
X4.5506Y-3.9377
X4.5506Y-4.161
X4.5506Y-4.211
X4.5506Y-4.261
X4.5506Y-4.311
X4.5506Y-4.361
X4.5506Y-4.411
X4.5506Y-4.461
X4.5506Y-4.511
X4.5506Y-4.7343
X4.5506Y-4.7843
X4.5506Y-4.8343
X4.5506Y-4.8843
X4.5506Y-4.9343
X4.5506Y-4.9843
X4.5506Y-5.0343
X4.5506Y-5.0843
X4.5506Y-5.3076
X4.5506Y-5.3576
X4.5506Y-5.4076
X4.5506Y-5.4576
X4.5506Y-5.5076
X4.5506Y-5.5576
X4.5506Y-5.6076
X4.5506Y-5.6576
X4.6232Y-1.8144
X4.6232Y-2.2711
X4.6232Y-2.3877
X4.6232Y-2.8444
X4.6232Y-2.961
X4.6232Y-3.4177
X4.6232Y-3.5343
X4.6232Y-3.991
X4.6232Y-4.1077
X4.6232Y-4.5643
X4.6232Y-4.681
X4.6232Y-5.1377
X4.6232Y-5.2543
X4.6232Y-5.711
X4.6732Y-1.8144
X4.6732Y-2.2711
X4.6732Y-2.3877
X4.6732Y-2.8444
X4.6732Y-2.961
X4.6732Y-3.4177
X4.6732Y-3.5343
X4.6732Y-3.991
X4.6732Y-4.1077
X4.6732Y-4.5643
X4.6732Y-4.681
X4.6732Y-5.1377
X4.6732Y-5.2543
X4.6732Y-5.711
X4.7232Y-1.8144
X4.7232Y-2.2711
X4.7232Y-2.3877
X4.7232Y-2.8444
X4.7232Y-2.961
X4.7232Y-3.4177
X4.7232Y-3.5343
X4.7232Y-3.991
X4.7232Y-4.1077
X4.7232Y-4.5643
X4.7232Y-4.681
X4.7232Y-5.1377
X4.7232Y-5.2543
X4.7232Y-5.711
X4.7732Y-1.8144
X4.7732Y-2.2711
X4.7732Y-2.3877
X4.7732Y-2.8444
X4.7732Y-2.961
X4.7732Y-3.4177
X4.7732Y-3.5343
X4.7732Y-3.991
X4.7732Y-4.1077
X4.7732Y-4.5643
X4.7732Y-4.681
X4.7732Y-5.1377
X4.7732Y-5.2543
X4.7732Y-5.711
X4.8232Y-1.8144
X4.8232Y-2.2711
X4.8232Y-2.3877
X4.8232Y-2.8444
X4.8232Y-2.961
X4.8232Y-3.4177
X4.8232Y-3.5343
X4.8232Y-3.991
X4.8232Y-4.1077
X4.8232Y-4.5643
X4.8232Y-4.681
X4.8232Y-5.1377
X4.8232Y-5.2543
X4.8232Y-5.711
X4.8732Y-1.8144
X4.8732Y-2.2711
X4.8732Y-2.3877
X4.8732Y-2.8444
X4.8732Y-2.961
X4.8732Y-3.4177
X4.8732Y-3.5343
X4.8732Y-3.991
X4.8732Y-4.1077
X4.8732Y-4.5643
X4.8732Y-4.681
X4.8732Y-5.1377
X4.8732Y-5.2543
X4.8732Y-5.711
X4.9232Y-1.8144
X4.9232Y-2.2711
X4.9232Y-2.3877
X4.9232Y-2.8444
X4.9232Y-2.961
X4.9232Y-3.4177
X4.9232Y-3.5343
X4.9232Y-3.991
X4.9232Y-4.1077
X4.9232Y-4.5643
X4.9232Y-4.681
X4.9232Y-5.1377
X4.9232Y-5.2543
X4.9232Y-5.711
X4.9732Y-1.8144
X4.9732Y-2.2711
X4.9732Y-2.3877
X4.9732Y-2.8444
X4.9732Y-2.961
X4.9732Y-3.4177
X4.9732Y-3.5343
X4.9732Y-3.991
X4.9732Y-4.1077
X4.9732Y-4.5643
X4.9732Y-4.681
X4.9732Y-5.1377
X4.9732Y-5.2543
X4.9732Y-5.711
X5.0232Y-1.8144
X5.0232Y-2.2711
X5.0232Y-2.3877
X5.0232Y-2.8444
X5.0232Y-2.961
X5.0232Y-3.4177
X5.0232Y-3.5343
X5.0232Y-3.991
X5.0232Y-4.1077
X5.0232Y-4.5643
X5.0232Y-4.681
X5.0232Y-5.1377
X5.0232Y-5.2543
X5.0232Y-5.711
X5.0959Y-1.8678
X5.0959Y-1.9178
X5.0959Y-1.9678
X5.0959Y-2.0178
X5.0959Y-2.0678
X5.0959Y-2.1178
X5.0959Y-2.1678
X5.0959Y-2.2178
X5.0959Y-2.4411
X5.0959Y-2.4911
X5.0959Y-2.5411
X5.0959Y-2.5911
X5.0959Y-2.6411
X5.0959Y-2.6911
X5.0959Y-2.7411
X5.0959Y-2.7911
X5.0959Y-3.0144
X5.0959Y-3.0644
X5.0959Y-3.1144
X5.0959Y-3.1644
X5.0959Y-3.2144
X5.0959Y-3.2644
X5.0959Y-3.3144
X5.0959Y-3.3644
X5.0959Y-3.5877
X5.0959Y-3.6377
X5.0959Y-3.6877
X5.0959Y-3.7377
X5.0959Y-3.7877
X5.0959Y-3.8377
X5.0959Y-3.8877
X5.0959Y-3.9377
X5.0959Y-4.161
X5.0959Y-4.211
X5.0959Y-4.261
X5.0959Y-4.311
X5.0959Y-4.361
X5.0959Y-4.411
X5.0959Y-4.461
X5.0959Y-4.511
X5.0959Y-4.7343
X5.0959Y-4.7843
X5.0959Y-4.8343
X5.0959Y-4.8843
X5.0959Y-4.9343
X5.0959Y-4.9843
X5.0959Y-5.0343
X5.0959Y-5.0843
X5.0959Y-5.3076
X5.0959Y-5.3576
X5.0959Y-5.4076
X5.0959Y-5.4576
X5.0959Y-5.5076
X5.0959Y-5.5576
X5.0959Y-5.6076
X5.0959Y-5.6576
X5.3325Y-2.2606
X5.3325Y-2.3106
X5.3325Y-2.3606
X5.3325Y-2.4106
X5.3325Y-2.4606
X5.3325Y-2.5106
X5.3325Y-3.3139
X5.3325Y-3.3639
X5.3325Y-3.4139
X5.3325Y-3.4639
X5.3325Y-3.5139
X5.3325Y-3.5639
X5.3325Y-4.3672
X5.3325Y-4.4172
X5.3325Y-4.4672
X5.3325Y-4.5172
X5.3325Y-4.5672
X5.3325Y-4.6172
X5.3325Y-5.4211
X5.3325Y-5.4711
X5.3325Y-5.5211
X5.3325Y-5.5711
X5.3325Y-5.6211
X5.3325Y-5.6711
X5.947Y-2.2606
X5.947Y-2.3106
X5.947Y-2.3606
X5.947Y-2.4106
X5.947Y-2.4606
X5.947Y-2.5106
X5.947Y-3.3139
X5.947Y-3.3639
X5.947Y-3.4139
X5.947Y-3.4639
X5.947Y-3.5139
X5.947Y-3.5639
X5.947Y-4.3672
X5.947Y-4.4172
X5.947Y-4.4672
X5.947Y-4.5172
X5.947Y-4.5672
X5.947Y-4.6172
X5.947Y-5.4211
X5.947Y-5.4711
X5.947Y-5.5211
X5.947Y-5.5711
X5.947Y-5.6211
X5.947Y-5.6711
X6.1832Y-1.8823
X6.1832Y-1.9323
X6.1832Y-1.9823
X6.1832Y-2.0323
X6.1832Y-2.0823
X6.1832Y-2.1323
X6.1832Y-2.4676
X6.1832Y-2.5176
X6.1832Y-2.5676
X6.1832Y-2.6176
X6.1832Y-2.6676
X6.1832Y-2.7176
X6.1832Y-3.0528
X6.1832Y-3.1028
X6.1832Y-3.1528
X6.1832Y-3.2028
X6.1832Y-3.2528
X6.1832Y-3.3028
X6.1832Y-3.638
X6.1832Y-3.688
X6.1832Y-3.738
X6.1832Y-3.788
X6.1832Y-3.838
X6.1832Y-3.888
X6.1832Y-4.2232
X6.1832Y-4.2732
X6.1832Y-4.3232
X6.1832Y-4.3732
X6.1832Y-4.4232
X6.1832Y-4.4732
X6.1832Y-4.8085
X6.1832Y-4.8585
X6.1832Y-4.9085
X6.1832Y-4.9585
X6.1832Y-5.0085
X6.1832Y-5.0585
X6.1832Y-5.3937
X6.1832Y-5.4437
X6.1832Y-5.4937
X6.1832Y-5.5437
X6.1832Y-5.5937
X6.1832Y-5.6437
X6.7817Y-1.8823
X6.7817Y-1.9323
X6.7817Y-1.9823
X6.7817Y-2.0323
X6.7817Y-2.0823
X6.7817Y-2.1323
X6.7817Y-2.4676
X6.7817Y-2.5176
X6.7817Y-2.5676
X6.7817Y-2.6176
X6.7817Y-2.6676
X6.7817Y-2.7176
X6.7817Y-3.0528
X6.7817Y-3.1028
X6.7817Y-3.1528
X6.7817Y-3.2028
X6.7817Y-3.2528
X6.7817Y-3.3028
X6.7817Y-3.638
X6.7817Y-3.688
X6.7817Y-3.738
X6.7817Y-3.788
X6.7817Y-3.838
X6.7817Y-3.888
X6.7817Y-4.2232
X6.7817Y-4.2732
X6.7817Y-4.3232
X6.7817Y-4.3732
X6.7817Y-4.4232
X6.7817Y-4.4732
X6.7817Y-4.8085
X6.7817Y-4.8585
X6.7817Y-4.9085
X6.7817Y-4.9585
X6.7817Y-5.0085
X6.7817Y-5.0585
X6.7817Y-5.3937
X6.7817Y-5.4437
X6.7817Y-5.4937
X6.7817Y-5.5437
X6.7817Y-5.5937
X6.7817Y-5.6437
M30
