M48
INCH
T1C0.0236
T2C0.0787
%
G90
G05
T1
X3.4196Y-1.8257
X3.4196Y-5.7005
X3.455Y-1.8257
X3.455Y-5.7005
X3.4904Y-1.8257
X3.4904Y-5.7005
X3.5259Y-1.8257
X3.5259Y-5.7005
X3.5613Y-1.8257
X3.5613Y-5.7005
X3.5933Y-1.7442
X3.5933Y-2.7431
X3.5933Y-3.7419
X3.5933Y-4.7408
X3.5933Y-5.7397
X3.5933Y-1.7866
X3.5933Y-2.7854
X3.5933Y-3.7843
X3.5933Y-4.7831
X3.5933Y-5.782
X3.5967Y-1.8257
X3.5967Y-2.704
X3.5967Y-2.8246
X3.5967Y-3.7028
X3.5967Y-3.8234
X3.5967Y-4.7017
X3.5967Y-4.8223
X3.5967Y-5.7005
X3.6322Y-1.8257
X3.6322Y-2.704
X3.6322Y-2.8246
X3.6322Y-3.7028
X3.6322Y-3.8234
X3.6322Y-4.7017
X3.6322Y-4.8223
X3.6322Y-5.7005
X3.6356Y-1.7442
X3.6356Y-2.7431
X3.6356Y-3.7419
X3.6356Y-4.7408
X3.6356Y-5.7397
X3.6356Y-1.7866
X3.6356Y-2.7854
X3.6356Y-3.7843
X3.6356Y-4.7831
X3.6356Y-5.782
X3.675Y-1.5704
X3.675Y-1.6058
X3.675Y-1.6412
X3.675Y-1.6767
X3.675Y-1.7121
X3.675Y-1.7475
X3.675Y-2.7464
X3.675Y-3.7452
X3.675Y-4.7441
X3.675Y-5.743
X3.6752Y-1.7831
X3.6752Y-2.782
X3.6752Y-3.7808
X3.6752Y-4.7797
X3.6752Y-5.7785
X3.6752Y-5.814
X3.6752Y-5.8494
X3.6752Y-5.8848
X3.6752Y-5.9203
X3.6752Y-5.9557
X4.3028Y-1.7477
X4.3028Y-2.7465
X4.3028Y-3.7454
X4.3028Y-4.7443
X4.3028Y-5.7431
X4.303Y-1.7833
X4.303Y-2.7821
X4.303Y-3.781
X4.303Y-4.7798
X4.303Y-5.7787
X4.3423Y-1.7442
X4.3423Y-2.7431
X4.3423Y-3.7419
X4.3423Y-4.7408
X4.3423Y-5.7397
X4.3423Y-1.7866
X4.3423Y-2.7854
X4.3423Y-3.7843
X4.3423Y-4.7831
X4.3423Y-5.782
X4.3458Y-1.8257
X4.3458Y-2.704
X4.3458Y-2.8246
X4.3458Y-3.7028
X4.3458Y-3.8234
X4.3458Y-4.7017
X4.3458Y-4.8223
X4.3458Y-5.7005
X4.3812Y-1.8257
X4.3812Y-2.704
X4.3812Y-2.8246
X4.3812Y-3.7028
X4.3812Y-3.8234
X4.3812Y-4.7017
X4.3812Y-4.8223
X4.3812Y-5.7005
X4.3847Y-1.7442
X4.3847Y-2.7431
X4.3847Y-3.7419
X4.3847Y-4.7408
X4.3847Y-5.7397
X4.3847Y-1.7866
X4.3847Y-2.7854
X4.3847Y-3.7843
X4.3847Y-4.7831
X4.3847Y-5.782
X4.4802Y-1.744
X4.4802Y-1.7864
X4.4802Y-2.2991
X4.4802Y-2.3597
X4.4802Y-2.8725
X4.4802Y-2.933
X4.4802Y-3.4458
X4.4802Y-3.5063
X4.4802Y-4.0191
X4.4802Y-4.0796
X4.4802Y-4.5924
X4.4802Y-4.6529
X4.4802Y-5.1657
X4.4802Y-5.2262
X4.4802Y-5.739
X4.4802Y-5.7814
X4.4837Y-1.8285
X4.4837Y-2.257
X4.4837Y-2.4018
X4.4837Y-2.8304
X4.4837Y-2.9751
X4.4837Y-3.4037
X4.4837Y-3.5484
X4.4837Y-3.977
X4.4837Y-4.1217
X4.4837Y-4.5503
X4.4837Y-4.695
X4.4837Y-5.1236
X4.4837Y-5.2683
X4.4837Y-5.6969
X4.5191Y-1.8285
X4.5191Y-2.257
X4.5191Y-2.4018
X4.5191Y-2.8304
X4.5191Y-2.9751
X4.5191Y-3.4037
X4.5191Y-3.5484
X4.5191Y-3.977
X4.5191Y-4.1217
X4.5191Y-4.5503
X4.5191Y-4.695
X4.5191Y-5.1236
X4.5191Y-5.2683
X4.5191Y-5.6969
X4.5226Y-1.744
X4.5226Y-1.7864
X4.5226Y-2.2991
X4.5226Y-2.3597
X4.5226Y-2.8725
X4.5226Y-2.933
X4.5226Y-3.4458
X4.5226Y-3.5063
X4.5226Y-4.0191
X4.5226Y-4.0796
X4.5226Y-4.5924
X4.5226Y-4.6529
X4.5226Y-5.1657
X4.5226Y-5.2262
X4.5226Y-5.739
X4.5226Y-5.7814
X4.558Y-1.7475
X4.558Y-1.7829
X4.558Y-2.3026
X4.558Y-2.3562
X4.558Y-2.8759
X4.558Y-2.9295
X4.558Y-3.4492
X4.558Y-3.5028
X4.558Y-4.0225
X4.558Y-4.0762
X4.558Y-4.5958
X4.558Y-4.6495
X4.558Y-5.1692
X4.558Y-5.2228
X4.558Y-5.7425
X4.558Y-5.7779
X4.5934Y-1.7475
X4.5934Y-1.7829
X4.5934Y-2.3026
X4.5934Y-2.3562
X4.5934Y-2.8759
X4.5934Y-2.9295
X4.5934Y-3.4492
X4.5934Y-3.5028
X4.5934Y-4.0225
X4.5934Y-4.0762
X4.5934Y-4.5958
X4.5934Y-4.6495
X4.5934Y-5.1692
X4.5934Y-5.2228
X4.5934Y-5.7425
X4.5934Y-5.7779
X5.0531Y-1.7475
X5.0531Y-1.7829
X5.0531Y-2.3023
X5.0531Y-2.3562
X5.0531Y-2.8757
X5.0531Y-2.9295
X5.0531Y-3.449
X5.0531Y-3.5028
X5.0531Y-4.0225
X5.0531Y-4.0764
X5.0531Y-4.5958
X5.0531Y-4.6497
X5.0531Y-5.1692
X5.0531Y-5.223
X5.0531Y-5.7425
X5.0531Y-5.7779
X5.0885Y-1.7475
X5.0885Y-1.7829
X5.0885Y-2.3023
X5.0885Y-2.3562
X5.0885Y-2.8757
X5.0885Y-2.9295
X5.0885Y-3.449
X5.0885Y-3.5028
X5.0885Y-4.0225
X5.0885Y-4.0764
X5.0885Y-4.5958
X5.0885Y-4.6497
X5.0885Y-5.1692
X5.0885Y-5.223
X5.0885Y-5.7425
X5.0885Y-5.7779
X5.1239Y-1.744
X5.1239Y-1.7864
X5.1239Y-2.2989
X5.1239Y-2.3597
X5.1239Y-2.8722
X5.1239Y-2.933
X5.1239Y-3.4455
X5.1239Y-3.5063
X5.1239Y-4.0191
X5.1239Y-4.0799
X5.1239Y-4.5924
X5.1239Y-4.6532
X5.1239Y-5.1657
X5.1239Y-5.2265
X5.1239Y-5.739
X5.1239Y-5.7814
X5.1274Y-1.8285
X5.1274Y-2.2568
X5.1274Y-2.4018
X5.1274Y-2.8301
X5.1274Y-2.9751
X5.1274Y-3.4034
X5.1274Y-3.5484
X5.1274Y-3.977
X5.1274Y-4.122
X5.1274Y-4.5503
X5.1274Y-4.6953
X5.1274Y-5.1236
X5.1274Y-5.2686
X5.1274Y-5.6969
X5.1628Y-1.8285
X5.1628Y-2.2568
X5.1628Y-2.4018
X5.1628Y-2.8301
X5.1628Y-2.9751
X5.1628Y-3.4034
X5.1628Y-3.5484
X5.1628Y-3.977
X5.1628Y-4.122
X5.1628Y-4.5503
X5.1628Y-4.6953
X5.1628Y-5.1236
X5.1628Y-5.2686
X5.1628Y-5.6969
X5.1663Y-1.744
X5.1663Y-1.7864
X5.1663Y-2.2989
X5.1663Y-2.3597
X5.1663Y-2.8722
X5.1663Y-2.933
X5.1663Y-3.4455
X5.1663Y-3.5063
X5.1663Y-4.0191
X5.1663Y-4.0799
X5.1663Y-4.5924
X5.1663Y-4.6532
X5.1663Y-5.1657
X5.1663Y-5.2265
X5.1663Y-5.739
X5.1663Y-5.7814
X5.5689Y-1.7652
X5.5689Y-1.7652
X5.5689Y-1.7652
X5.5689Y-1.7652
X5.5689Y-2.6003
X5.5689Y-2.6003
X5.5689Y-2.6003
X5.5689Y-2.6003
X5.5689Y-2.6003
X5.5689Y-2.8185
X5.5689Y-2.8185
X5.5689Y-2.8185
X5.5689Y-2.8185
X5.5689Y-3.6536
X5.5689Y-3.6536
X5.5689Y-3.6536
X5.5689Y-3.6536
X5.5689Y-3.6536
X5.5689Y-3.8717
X5.5689Y-3.8717
X5.5689Y-3.8717
X5.5689Y-3.8717
X5.5689Y-4.7069
X5.5689Y-4.7069
X5.5689Y-4.7069
X5.5689Y-4.7069
X5.5689Y-4.7069
X5.5689Y-4.9257
X5.5689Y-4.9257
X5.5689Y-4.9257
X5.5689Y-4.9257
X5.5689Y-5.7608
X5.5689Y-5.7608
X5.5689Y-5.7608
X5.5689Y-5.7608
X5.5689Y-5.7608
X5.6043Y-1.7652
X5.6043Y-1.7652
X5.6043Y-1.7652
X5.6043Y-1.7652
X5.6043Y-2.6003
X5.6043Y-2.6003
X5.6043Y-2.6003
X5.6043Y-2.6003
X5.6043Y-2.8185
X5.6043Y-2.8185
X5.6043Y-2.8185
X5.6043Y-2.8185
X5.6043Y-3.6536
X5.6043Y-3.6536
X5.6043Y-3.6536
X5.6043Y-3.6536
X5.6043Y-3.8717
X5.6043Y-3.8717
X5.6043Y-3.8717
X5.6043Y-3.8717
X5.6043Y-4.7069
X5.6043Y-4.7069
X5.6043Y-4.7069
X5.6043Y-4.7069
X5.6043Y-4.9257
X5.6043Y-4.9257
X5.6043Y-4.9257
X5.6043Y-4.9257
X5.6043Y-5.7608
X5.6043Y-5.7608
X5.6043Y-5.7608
X5.6043Y-5.7608
X5.6398Y-1.7652
X5.6398Y-1.7652
X5.6398Y-1.7652
X5.6398Y-1.7652
X5.6398Y-2.6003
X5.6398Y-2.6003
X5.6398Y-2.6003
X5.6398Y-2.6003
X5.6398Y-2.8185
X5.6398Y-2.8185
X5.6398Y-2.8185
X5.6398Y-2.8185
X5.6398Y-3.6536
X5.6398Y-3.6536
X5.6398Y-3.6536
X5.6398Y-3.6536
X5.6398Y-3.8717
X5.6398Y-3.8717
X5.6398Y-3.8717
X5.6398Y-3.8717
X5.6398Y-4.7069
X5.6398Y-4.7069
X5.6398Y-4.7069
X5.6398Y-4.7069
X5.6398Y-4.9257
X5.6398Y-4.9257
X5.6398Y-4.9257
X5.6398Y-4.9257
X5.6398Y-5.7608
X5.6398Y-5.7608
X5.6398Y-5.7608
X5.6398Y-5.7608
X5.6752Y-1.7652
X5.6752Y-1.7652
X5.6752Y-1.7652
X5.6752Y-1.7652
X5.6752Y-2.6003
X5.6752Y-2.6003
X5.6752Y-2.6003
X5.6752Y-2.6003
X5.6752Y-2.8185
X5.6752Y-2.8185
X5.6752Y-2.8185
X5.6752Y-2.8185
X5.6752Y-3.6536
X5.6752Y-3.6536
X5.6752Y-3.6536
X5.6752Y-3.6536
X5.6752Y-3.8717
X5.6752Y-3.8717
X5.6752Y-3.8717
X5.6752Y-3.8717
X5.6752Y-4.7069
X5.6752Y-4.7069
X5.6752Y-4.7069
X5.6752Y-4.7069
X5.6752Y-4.9257
X5.6752Y-4.9257
X5.6752Y-4.9257
X5.6752Y-4.9257
X5.6752Y-5.7608
X5.6752Y-5.7608
X5.6752Y-5.7608
X5.6752Y-5.7608
X5.7106Y-1.7652
X5.7106Y-1.7652
X5.7106Y-1.7652
X5.7106Y-1.7652
X5.7106Y-1.7652
X5.7106Y-2.6003
X5.7106Y-2.6003
X5.7106Y-2.6003
X5.7106Y-2.6003
X5.7106Y-2.8185
X5.7106Y-2.8185
X5.7106Y-2.8185
X5.7106Y-2.8185
X5.7106Y-2.8185
X5.7106Y-3.6536
X5.7106Y-3.6536
X5.7106Y-3.6536
X5.7106Y-3.6536
X5.7106Y-3.8717
X5.7106Y-3.8717
X5.7106Y-3.8717
X5.7106Y-3.8717
X5.7106Y-3.8717
X5.7106Y-4.7069
X5.7106Y-4.7069
X5.7106Y-4.7069
X5.7106Y-4.7069
X5.7106Y-4.9257
X5.7106Y-4.9257
X5.7106Y-4.9257
X5.7106Y-4.9257
X5.7106Y-4.9257
X5.7106Y-5.7608
X5.7106Y-5.7608
X5.7106Y-5.7608
X5.7106Y-5.7608
X6.4116Y-1.7652
X6.4116Y-1.7652
X6.4116Y-1.7652
X6.4116Y-1.7652
X6.4116Y-2.2494
X6.4116Y-2.2494
X6.4116Y-2.2494
X6.4116Y-2.2494
X6.4116Y-2.2494
X6.4116Y-2.3504
X6.4116Y-2.3504
X6.4116Y-2.3504
X6.4116Y-2.3504
X6.4116Y-2.8347
X6.4116Y-2.8347
X6.4116Y-2.8347
X6.4116Y-2.8347
X6.4116Y-2.8347
X6.4116Y-2.9357
X6.4116Y-2.9357
X6.4116Y-2.9357
X6.4116Y-2.9357
X6.4116Y-3.4199
X6.4116Y-3.4199
X6.4116Y-3.4199
X6.4116Y-3.4199
X6.4116Y-3.4199
X6.4116Y-3.5209
X6.4116Y-3.5209
X6.4116Y-3.5209
X6.4116Y-3.5209
X6.4116Y-4.0052
X6.4116Y-4.0052
X6.4116Y-4.0052
X6.4116Y-4.0052
X6.4116Y-4.0052
X6.4116Y-4.1061
X6.4116Y-4.1061
X6.4116Y-4.1061
X6.4116Y-4.1061
X6.4116Y-4.5904
X6.4116Y-4.5904
X6.4116Y-4.5904
X6.4116Y-4.5904
X6.4116Y-4.5904
X6.4116Y-4.6914
X6.4116Y-4.6914
X6.4116Y-4.6914
X6.4116Y-4.6914
X6.4116Y-5.1756
X6.4116Y-5.1756
X6.4116Y-5.1756
X6.4116Y-5.1756
X6.4116Y-5.1756
X6.4116Y-5.2766
X6.4116Y-5.2766
X6.4116Y-5.2766
X6.4116Y-5.2766
X6.4116Y-5.7608
X6.4116Y-5.7608
X6.4116Y-5.7608
X6.4116Y-5.7608
X6.4116Y-5.7608
X6.447Y-1.7652
X6.447Y-1.7652
X6.447Y-1.7652
X6.447Y-1.7652
X6.447Y-2.2494
X6.447Y-2.2494
X6.447Y-2.2494
X6.447Y-2.2494
X6.447Y-2.3504
X6.447Y-2.3504
X6.447Y-2.3504
X6.447Y-2.3504
X6.447Y-2.8347
X6.447Y-2.8347
X6.447Y-2.8347
X6.447Y-2.8347
X6.447Y-2.9357
X6.447Y-2.9357
X6.447Y-2.9357
X6.447Y-2.9357
X6.447Y-3.4199
X6.447Y-3.4199
X6.447Y-3.4199
X6.447Y-3.4199
X6.447Y-3.5209
X6.447Y-3.5209
X6.447Y-3.5209
X6.447Y-3.5209
X6.447Y-4.0052
X6.447Y-4.0052
X6.447Y-4.0052
X6.447Y-4.0052
X6.447Y-4.1061
X6.447Y-4.1061
X6.447Y-4.1061
X6.447Y-4.1061
X6.447Y-4.5904
X6.447Y-4.5904
X6.447Y-4.5904
X6.447Y-4.5904
X6.447Y-4.6914
X6.447Y-4.6914
X6.447Y-4.6914
X6.447Y-4.6914
X6.447Y-5.1756
X6.447Y-5.1756
X6.447Y-5.1756
X6.447Y-5.1756
X6.447Y-5.2766
X6.447Y-5.2766
X6.447Y-5.2766
X6.447Y-5.2766
X6.447Y-5.7608
X6.447Y-5.7608
X6.447Y-5.7608
X6.447Y-5.7608
X6.4824Y-1.7652
X6.4824Y-1.7652
X6.4824Y-1.7652
X6.4824Y-1.7652
X6.4824Y-2.2494
X6.4824Y-2.2494
X6.4824Y-2.2494
X6.4824Y-2.2494
X6.4824Y-2.3504
X6.4824Y-2.3504
X6.4824Y-2.3504
X6.4824Y-2.3504
X6.4824Y-2.8347
X6.4824Y-2.8347
X6.4824Y-2.8347
X6.4824Y-2.8347
X6.4824Y-2.9357
X6.4824Y-2.9357
X6.4824Y-2.9357
X6.4824Y-2.9357
X6.4824Y-3.4199
X6.4824Y-3.4199
X6.4824Y-3.4199
X6.4824Y-3.4199
X6.4824Y-3.5209
X6.4824Y-3.5209
X6.4824Y-3.5209
X6.4824Y-3.5209
X6.4824Y-4.0052
X6.4824Y-4.0052
X6.4824Y-4.0052
X6.4824Y-4.0052
X6.4824Y-4.1061
X6.4824Y-4.1061
X6.4824Y-4.1061
X6.4824Y-4.1061
X6.4824Y-4.5904
X6.4824Y-4.5904
X6.4824Y-4.5904
X6.4824Y-4.5904
X6.4824Y-4.6914
X6.4824Y-4.6914
X6.4824Y-4.6914
X6.4824Y-4.6914
X6.4824Y-5.1756
X6.4824Y-5.1756
X6.4824Y-5.1756
X6.4824Y-5.1756
X6.4824Y-5.2766
X6.4824Y-5.2766
X6.4824Y-5.2766
X6.4824Y-5.2766
X6.4824Y-5.7608
X6.4824Y-5.7608
X6.4824Y-5.7608
X6.4824Y-5.7608
X6.5179Y-1.7652
X6.5179Y-1.7652
X6.5179Y-1.7652
X6.5179Y-1.7652
X6.5179Y-2.2494
X6.5179Y-2.2494
X6.5179Y-2.2494
X6.5179Y-2.2494
X6.5179Y-2.3504
X6.5179Y-2.3504
X6.5179Y-2.3504
X6.5179Y-2.3504
X6.5179Y-2.8347
X6.5179Y-2.8347
X6.5179Y-2.8347
X6.5179Y-2.8347
X6.5179Y-2.9357
X6.5179Y-2.9357
X6.5179Y-2.9357
X6.5179Y-2.9357
X6.5179Y-3.4199
X6.5179Y-3.4199
X6.5179Y-3.4199
X6.5179Y-3.4199
X6.5179Y-3.5209
X6.5179Y-3.5209
X6.5179Y-3.5209
X6.5179Y-3.5209
X6.5179Y-4.0052
X6.5179Y-4.0052
X6.5179Y-4.0052
X6.5179Y-4.0052
X6.5179Y-4.1061
X6.5179Y-4.1061
X6.5179Y-4.1061
X6.5179Y-4.1061
X6.5179Y-4.5904
X6.5179Y-4.5904
X6.5179Y-4.5904
X6.5179Y-4.5904
X6.5179Y-4.6914
X6.5179Y-4.6914
X6.5179Y-4.6914
X6.5179Y-4.6914
X6.5179Y-5.1756
X6.5179Y-5.1756
X6.5179Y-5.1756
X6.5179Y-5.1756
X6.5179Y-5.2766
X6.5179Y-5.2766
X6.5179Y-5.2766
X6.5179Y-5.2766
X6.5179Y-5.7608
X6.5179Y-5.7608
X6.5179Y-5.7608
X6.5179Y-5.7608
X6.5533Y-1.7652
X6.5533Y-1.7652
X6.5533Y-1.7652
X6.5533Y-1.7652
X6.5533Y-1.7652
X6.5533Y-2.2494
X6.5533Y-2.2494
X6.5533Y-2.2494
X6.5533Y-2.2494
X6.5533Y-2.3504
X6.5533Y-2.3504
X6.5533Y-2.3504
X6.5533Y-2.3504
X6.5533Y-2.3504
X6.5533Y-2.8347
X6.5533Y-2.8347
X6.5533Y-2.8347
X6.5533Y-2.8347
X6.5533Y-2.9357
X6.5533Y-2.9357
X6.5533Y-2.9357
X6.5533Y-2.9357
X6.5533Y-2.9357
X6.5533Y-3.4199
X6.5533Y-3.4199
X6.5533Y-3.4199
X6.5533Y-3.4199
X6.5533Y-3.5209
X6.5533Y-3.5209
X6.5533Y-3.5209
X6.5533Y-3.5209
X6.5533Y-3.5209
X6.5533Y-4.0052
X6.5533Y-4.0052
X6.5533Y-4.0052
X6.5533Y-4.0052
X6.5533Y-4.1061
X6.5533Y-4.1061
X6.5533Y-4.1061
X6.5533Y-4.1061
X6.5533Y-4.1061
X6.5533Y-4.5904
X6.5533Y-4.5904
X6.5533Y-4.5904
X6.5533Y-4.5904
X6.5533Y-4.6914
X6.5533Y-4.6914
X6.5533Y-4.6914
X6.5533Y-4.6914
X6.5533Y-4.6914
X6.5533Y-5.1756
X6.5533Y-5.1756
X6.5533Y-5.1756
X6.5533Y-5.1756
X6.5533Y-5.2766
X6.5533Y-5.2766
X6.5533Y-5.2766
X6.5533Y-5.2766
X6.5533Y-5.2766
X6.5533Y-5.7608
X6.5533Y-5.7608
X6.5533Y-5.7608
X6.5533Y-5.7608
X6.7703Y-5.8139
X6.7703Y-5.8494
X6.7703Y-5.8848
X6.7703Y-5.9202
X6.7703Y-5.9557
X6.7704Y-1.5703
X6.7704Y-1.6057
X6.7704Y-1.6412
X6.7704Y-1.6766
X6.7704Y-1.712
X6.884Y-1.8257
X6.884Y-5.7003
X6.9194Y-1.8257
X6.9195Y-5.7003
X6.9548Y-1.8257
X6.9549Y-5.7003
X6.9903Y-1.8257
X6.9903Y-5.7003
X7.0257Y-1.8257
X7.0258Y-5.7003
T2
X3.4865Y-1.6372
X3.4865Y-5.8888
X6.9588Y-1.6372
X6.9588Y-5.8888
M30
