<?xml version="1.0" encoding="UTF-8"?>
<!DOCTYPE svg PUBLIC "-//W3C//DTD SVG 1.1//EN" "http://www.w3.org/Graphics/SVG/1.1/DTD/svg11.dtd">
<svg xmlns="http://www.w3.org/2000/svg" version="1.1" width="1562px" height="415px" style="shape-rendering:geometricPrecision; text-rendering:geometricPrecision; image-rendering:optimizeQuality; fill-rule:evenodd; clip-rule:evenodd" xmlns:xlink="http://www.w3.org/1999/xlink">
<g><path style="opacity:1" fill="#232021" d="M -0.5,-0.5 C 520.167,-0.5 1040.83,-0.5 1561.5,-0.5C 1561.5,137.833 1561.5,276.167 1561.5,414.5C 1040.83,414.5 520.167,414.5 -0.5,414.5C -0.5,276.167 -0.5,137.833 -0.5,-0.5 Z"/></g>
<g><path style="opacity:1" fill="#fdfdfd" d="M 130.5,96.5 C 107.572,93.1241 84.9057,94.4574 62.5,100.5C 60.4978,90.8221 58.3312,81.1555 56,71.5C 55.3333,65.8333 55.3333,60.1667 56,54.5C 57.8333,51.3333 60.3333,48.8333 63.5,47C 70.6058,43.4472 77.9391,40.4472 85.5,38C 97.8771,36.0094 109.544,38.0094 120.5,44C 125.673,49.1744 129.173,55.3411 131,62.5C 131.81,73.9095 131.643,85.2428 130.5,96.5 Z"/></g>
<g><path style="opacity:1" fill="#fdfdfd" d="M 846.5,39.5 C 856.319,40.494 866.319,40.8274 876.5,40.5C 877.155,92.3834 876.489,144.05 874.5,195.5C 840.167,195.5 805.833,195.5 771.5,195.5C 771.5,182.5 771.5,169.5 771.5,156.5C 783.414,156.821 795.247,156.488 807,155.5C 807.5,132.169 807.667,108.836 807.5,85.5C 785.167,85.5 762.833,85.5 740.5,85.5C 734.384,163.796 728.55,242.129 723,320.5C 721.161,337.259 718.995,353.925 716.5,370.5C 714.139,370.326 711.806,369.993 709.5,369.5C 699.808,301.491 689.975,233.491 680,165.5C 675.7,123.17 671.534,80.8368 667.5,38.5C 727.169,38.4945 786.836,38.8278 846.5,39.5 Z"/></g>
<g><path style="opacity:1" fill="#c5c4c4" d="M 846.5,39.5 C 856.833,39.5 867.167,39.5 877.5,39.5C 877.5,91.5 877.5,143.5 877.5,195.5C 876.5,195.5 875.5,195.5 874.5,195.5C 876.489,144.05 877.155,92.3834 876.5,40.5C 866.319,40.8274 856.319,40.494 846.5,39.5 Z"/></g>
<g><path style="opacity:1" fill="#fefefe" d="M 606.5,175.5 C 608.265,176.461 610.265,176.795 612.5,176.5C 612.5,194.833 612.5,213.167 612.5,231.5C 598.851,232.338 585.184,232.671 571.5,232.5C 564.833,232.5 558.167,232.5 551.5,232.5C 551.5,240.5 551.5,248.5 551.5,256.5C 551.5,266.833 551.5,277.167 551.5,287.5C 589.167,287.5 626.833,287.5 664.5,287.5C 664.5,311.833 664.5,336.167 664.5,360.5C 618.5,360.5 572.5,360.5 526.5,360.5C 514.678,359.505 502.678,359.172 490.5,359.5C 490.832,300.664 490.499,241.998 489.5,183.5C 489.5,136.5 489.5,89.5 489.5,42.5C 543.833,42.5 598.167,42.5 652.5,42.5C 652.5,64.8333 652.5,87.1667 652.5,109.5C 635.442,108.706 618.442,107.206 601.5,105C 584.852,103.876 568.185,103.376 551.5,103.5C 552.579,127.172 552.579,150.839 551.5,174.5C 569.835,174.764 588.168,175.098 606.5,175.5 Z"/></g>
<g><path style="opacity:1" fill="#fefefe" d="M 394.5,104.5 C 386.35,103.507 378.017,103.174 369.5,103.5C 369.5,104.833 369.5,106.167 369.5,107.5C 369.5,109.833 369.5,112.167 369.5,114.5C 368.503,135.327 368.169,156.327 368.5,177.5C 373.695,177.821 378.695,177.487 383.5,176.5C 399.167,176.5 414.833,176.5 430.5,176.5C 430.281,194.85 430.614,213.183 431.5,231.5C 410.825,231.995 390.158,232.662 369.5,233.5C 369.5,251.833 369.5,270.167 369.5,288.5C 377.167,288.5 384.833,288.5 392.5,288.5C 420.328,289.498 448.328,289.831 476.5,289.5C 476.5,312.5 476.5,335.5 476.5,358.5C 454.343,359.833 431.843,360.5 409,360.5C 378.496,360.381 347.996,360.048 317.5,359.5C 317.5,254.5 317.5,149.5 317.5,44.5C 368.495,43.6429 419.495,43.3096 470.5,43.5C 470.5,65.8333 470.5,88.1667 470.5,110.5C 445.251,107.43 419.917,105.43 394.5,104.5 Z"/></g>
<g><path style="opacity:1" fill="#fefefe" d="M 237.5,45.5 C 259.167,45.5 280.833,45.5 302.5,45.5C 302.168,83.0037 302.502,120.337 303.5,157.5C 303.5,224.833 303.5,292.167 303.5,359.5C 281.5,359.5 259.5,359.5 237.5,359.5C 238.501,322.803 240.168,286.137 242.5,249.5C 233.167,249.5 223.833,249.5 214.5,249.5C 209.5,249.5 204.5,249.5 199.5,249.5C 199.5,245.5 199.5,241.5 199.5,237.5C 199.8,222.785 199.467,208.118 198.5,193.5C 198.5,192.5 198.5,191.5 198.5,190.5C 211.677,190.829 224.677,190.495 237.5,189.5C 238.818,186.742 239.485,183.576 239.5,180C 238.297,135.176 237.63,90.3424 237.5,45.5 Z"/></g>
<g><path style="opacity:1" fill="#8a898a" d="M 237.5,45.5 C 259.327,44.5026 281.327,44.1693 303.5,44.5C 303.5,82.1667 303.5,119.833 303.5,157.5C 302.502,120.337 302.168,83.0037 302.5,45.5C 280.833,45.5 259.167,45.5 237.5,45.5 Z"/></g>
<g><path style="opacity:1" fill="#fcfcaf" d="M 130.5,96.5 C 150.231,103.487 170.564,108.653 191.5,112C 201.195,118.554 208.695,127.054 214,137.5C 214.461,146.432 215.628,155.266 217.5,164C 217.112,165.951 216.112,167.451 214.5,168.5C 210.148,165.143 205.815,161.809 201.5,158.5C 201.217,157.711 200.717,157.044 200,156.5C 199.199,159.367 199.366,162.034 200.5,164.5C 202.945,167.21 205.278,170.044 207.5,173C 201.732,174.225 196.399,173.225 191.5,170C 182.806,163.973 175.473,156.639 169.5,148C 160.519,140.843 151.185,134.176 141.5,128C 137.074,125.471 132.408,123.638 127.5,122.5C 125.123,121.113 122.457,120.279 119.5,120C 104.749,118.98 90.0826,119.647 75.5,122C 73.6854,122.757 72.0188,123.59 70.5,124.5C 63.0588,125.48 56.8921,128.813 52,134.5C 50.5976,139.975 51.931,144.642 56,148.5C 61.8399,154.67 69.0066,158.003 77.5,158.5C 82.1931,168.279 84.1931,178.613 83.5,189.5C 67.9643,183.066 52.9643,175.566 38.5,167C 22.8186,153.116 20.9853,137.616 33,120.5C 41.3914,111.72 51.2247,105.053 62.5,100.5C 84.9057,94.4574 107.572,93.1241 130.5,96.5 Z"/></g>
<g><path style="opacity:1" fill="#918f90" d="M 394.5,104.5 C 386.5,104.5 378.5,104.5 370.5,104.5C 370.737,105.791 370.404,106.791 369.5,107.5C 369.5,106.167 369.5,104.833 369.5,103.5C 378.017,103.174 386.35,103.507 394.5,104.5 Z"/></g>
<g><path style="opacity:1" fill="#fdfdfd" d="M 127.5,122.5 C 125.749,133.333 123.249,144 120,154.5C 117.49,158.195 114.99,161.862 112.5,165.5C 108.695,174.021 108.529,182.688 112,191.5C 112.708,192.381 113.542,193.047 114.5,193.5C 118.141,198.815 121.808,204.149 125.5,209.5C 115.71,211.858 105.71,213.858 95.5,215.5C 90.4219,207.343 86.4219,198.676 83.5,189.5C 84.1931,178.613 82.1931,168.279 77.5,158.5C 75.8164,147.029 73.4831,135.695 70.5,124.5C 72.0188,123.59 73.6854,122.757 75.5,122C 90.0826,119.647 104.749,118.98 119.5,120C 122.457,120.279 125.123,121.113 127.5,122.5 Z"/></g>
<g><path style="opacity:1" fill="#262424" d="M 70.5,124.5 C 73.4831,135.695 75.8164,147.029 77.5,158.5C 69.0066,158.003 61.8399,154.67 56,148.5C 51.931,144.642 50.5976,139.975 52,134.5C 56.8921,128.813 63.0588,125.48 70.5,124.5 Z"/></g>
<g><path style="opacity:1" fill="#2b2826" d="M 180.5,128.5 C 184.76,129.924 188.76,131.924 192.5,134.5C 193.497,138.479 193.997,142.479 194,146.5C 189.667,143.5 185.333,140.5 181,137.5C 180.502,134.518 180.335,131.518 180.5,128.5 Z"/></g>
<g><path style="opacity:1" fill="#6c6b6b" d="M 369.5,114.5 C 369.5,135.167 369.5,155.833 369.5,176.5C 374.167,176.5 378.833,176.5 383.5,176.5C 378.695,177.487 373.695,177.821 368.5,177.5C 368.169,156.327 368.503,135.327 369.5,114.5 Z"/></g>
<g><path style="opacity:1" fill="#777558" d="M 201.5,158.5 C 200.539,160.265 200.205,162.265 200.5,164.5C 199.366,162.034 199.199,159.367 200,156.5C 200.717,157.044 201.217,157.711 201.5,158.5 Z"/></g>
<g><path style="opacity:1" fill="#fcfcaf" d="M 112.5,165.5 C 140.457,169.278 163.957,181.612 183,202.5C 185.254,206.007 187.254,209.673 189,213.5C 190.937,222.569 187.437,228.402 178.5,231C 163.85,233.608 149.184,236.108 134.5,238.5C 126.522,239.294 118.855,240.96 111.5,243.5C 104.358,244.086 98.0249,246.586 92.5,251C 93.7158,252.74 95.3825,253.74 97.5,254C 103.37,255.801 109.37,256.635 115.5,256.5C 115.625,262.203 115.292,267.87 114.5,273.5C 98.0319,268.844 81.6986,263.678 65.5,258C 57.201,252.914 54.3677,245.747 57,236.5C 59.9301,232.447 63.4301,228.947 67.5,226C 76.7606,221.973 86.0939,218.473 95.5,215.5C 105.71,213.858 115.71,211.858 125.5,209.5C 132.232,210.151 138.565,208.984 144.5,206C 134.349,202.119 124.349,197.952 114.5,193.5C 113.542,193.047 112.708,192.381 112,191.5C 108.529,182.688 108.695,174.021 112.5,165.5 Z"/></g>
<g><path style="opacity:1" fill="#b4b3b4" d="M 606.5,175.5 C 608.833,175.5 611.167,175.5 613.5,175.5C 613.83,194.341 613.497,213.007 612.5,231.5C 612.5,213.167 612.5,194.833 612.5,176.5C 610.265,176.795 608.265,176.461 606.5,175.5 Z"/></g>
<g><path style="opacity:1" fill="#7b797a" d="M 237.5,189.5 C 224.677,190.495 211.677,190.829 198.5,190.5C 198.5,191.5 198.5,192.5 198.5,193.5C 197.566,192.432 197.232,191.099 197.5,189.5C 210.833,189.5 224.167,189.5 237.5,189.5 Z"/></g>
<g><path style="opacity:1" fill="#282524" d="M 114.5,193.5 C 124.349,197.952 134.349,202.119 144.5,206C 138.565,208.984 132.232,210.151 125.5,209.5C 121.808,204.149 118.141,198.815 114.5,193.5 Z"/></g>
<g><path style="opacity:1" fill="#fbfbfb" d="M 983.5,210.5 C 1008.79,215.195 1032.96,223.195 1056,234.5C 1056.67,241.833 1056.67,249.167 1056,256.5C 1044.19,265.986 1032.69,275.819 1021.5,286C 1035.75,302.291 1050.58,318.124 1066,333.5C 1062.22,344.735 1057.56,355.735 1052,366.5C 1038.33,347.5 1024.67,328.5 1011,309.5C 1009.04,317.491 1009.04,325.491 1011,333.5C 1011.67,344.5 1011.67,355.5 1011,366.5C 1000.67,367.833 990.333,367.833 980,366.5C 978.092,318.172 978.092,269.839 980,221.5C 980.711,217.645 981.878,213.979 983.5,210.5 Z"/></g>
<g><path style="opacity:1" fill="#fbfbfb" d="M 1112.5,211.5 C 1113.5,211.414 1114.33,211.748 1115,212.5C 1145.5,258.167 1176,303.833 1206.5,349.5C 1200.01,355.822 1193.34,361.989 1186.5,368C 1185.83,368.667 1185.17,368.667 1184.5,368C 1164.46,332.086 1144.29,296.252 1124,260.5C 1119.37,269.441 1115.53,278.774 1112.5,288.5C 1117.46,289.494 1122.46,289.827 1127.5,289.5C 1127.5,296.833 1127.5,304.167 1127.5,311.5C 1121.57,311.192 1115.74,311.525 1110,312.5C 1103.13,330.287 1095.96,347.954 1088.5,365.5C 1080.19,366.498 1071.86,366.831 1063.5,366.5C 1079.63,314.778 1095.96,263.112 1112.5,211.5 Z"/></g>
<g><path style="opacity:1" fill="#fcfcfc" d="M 877.5,284.5 C 877.5,284.167 877.5,283.833 877.5,283.5C 898.963,260.869 920.63,238.369 942.5,216C 945.742,214.361 949.076,213.361 952.5,213C 957.173,219.167 960.007,226 961,233.5C 943.459,248.71 925.625,263.544 907.5,278C 906.101,279.062 905.101,280.395 904.5,282C 911.224,292.064 918.724,301.564 927,310.5C 940.333,323.833 953.667,337.167 967,350.5C 968.095,355.78 968.595,361.113 968.5,366.5C 961.843,367.429 955.176,367.929 948.5,368C 922.85,341.875 899.183,314.042 877.5,284.5 Z"/></g>
<g><path style="opacity:1" fill="#fbfbfb" d="M 1502.5,213.5 C 1509.74,218.737 1516.07,225.07 1521.5,232.5C 1498.55,238.547 1475.55,244.38 1452.5,250C 1483.63,268.88 1514.29,288.213 1544.5,308C 1541.88,314.522 1538.88,320.855 1535.5,327C 1501.79,339.39 1467.95,351.557 1434,363.5C 1431.97,362.48 1430.64,360.813 1430,358.5C 1427.79,352.048 1425.29,345.714 1422.5,339.5C 1422.83,339.167 1423.17,338.833 1423.5,338.5C 1450.51,327.831 1477.51,317.164 1504.5,306.5C 1495.16,300.494 1485.49,294.994 1475.5,290C 1452.38,278.604 1429.38,266.938 1406.5,255C 1405.52,247.587 1405.19,240.087 1405.5,232.5C 1438.02,226.529 1470.35,220.195 1502.5,213.5 Z"/></g>
<g><path style="opacity:1" fill="#fcfcfc" d="M 875.5,271.5 C 875.5,279.5 875.5,287.5 875.5,295.5C 874.567,319.536 864.567,338.703 845.5,353C 817.99,366.231 794.157,361.398 774,338.5C 761.813,321.438 755.313,302.438 754.5,281.5C 755.955,247.1 773.289,225.267 806.5,216C 844.168,212.004 867.001,228.504 875,265.5C 875.495,267.473 875.662,269.473 875.5,271.5 Z"/></g>
<g><path style="opacity:1" fill="#fdfdfd" d="M 1307.5,222.5 C 1335.83,222.5 1364.17,222.5 1392.5,222.5C 1392.5,229.833 1392.5,237.167 1392.5,244.5C 1373.17,245.062 1353.84,245.395 1334.5,245.5C 1334.87,256.499 1335.21,267.499 1335.5,278.5C 1337.5,278.5 1339.5,278.5 1341.5,278.5C 1352.73,279.187 1364.07,279.853 1375.5,280.5C 1375.5,287.833 1375.5,295.167 1375.5,302.5C 1362.5,302.5 1349.5,302.5 1336.5,302.5C 1336.5,315.833 1336.5,329.167 1336.5,342.5C 1357.5,342.5 1378.5,342.5 1399.5,342.5C 1399.5,349.833 1399.5,357.167 1399.5,364.5C 1397.83,364.5 1396.17,364.5 1394.5,364.5C 1365.5,364.5 1336.5,364.5 1307.5,364.5C 1307.5,317.167 1307.5,269.833 1307.5,222.5 Z"/></g>
<g><path style="opacity:1" fill="#fbfbfb" d="M 1164.5,222.5 C 1208.83,222.5 1253.17,222.5 1297.5,222.5C 1297.5,230.833 1297.5,239.167 1297.5,247.5C 1280.17,247.5 1262.83,247.5 1245.5,247.5C 1246.96,288.162 1248.29,328.829 1249.5,369.5C 1238.5,369.5 1227.5,369.5 1216.5,369.5C 1216.85,329.482 1217.85,289.482 1219.5,249.5C 1200.49,249.427 1181.49,249.76 1162.5,250.5C 1161.9,240.903 1162.57,231.57 1164.5,222.5 Z"/></g>
<g><path style="opacity:1" fill="#727171" d="M 1307.5,222.5 C 1307.5,269.833 1307.5,317.167 1307.5,364.5C 1336.5,364.5 1365.5,364.5 1394.5,364.5C 1365.34,365.498 1336,365.831 1306.5,365.5C 1306.17,317.664 1306.5,269.997 1307.5,222.5 Z"/></g>
<g><path style="opacity:1" fill="#fefefd" d="M 134.5,238.5 C 135.46,245.078 135.793,251.745 135.5,258.5C 135.5,270.833 135.5,283.167 135.5,295.5C 133.845,301.343 133.178,307.343 133.5,313.5C 125.937,312.473 118.77,310.139 112,306.5C 111.254,300.449 111.421,294.449 112.5,288.5C 113.593,283.694 114.259,278.694 114.5,273.5C 115.292,267.87 115.625,262.203 115.5,256.5C 115.326,253.126 114.826,249.793 114,246.5C 113.764,244.881 112.931,243.881 111.5,243.5C 118.855,240.96 126.522,239.294 134.5,238.5 Z"/></g>
<g><path style="opacity:1" fill="#232021" d="M 815.5,238.5 C 832.022,236.525 843.522,243.192 850,258.5C 858.26,278.373 858.594,298.373 851,318.5C 847.077,329.24 839.91,336.74 829.5,341C 822.169,342.598 815.502,341.265 809.5,337C 798.595,327.316 792.428,315.149 791,300.5C 788.531,281.029 792.865,263.362 804,247.5C 807.733,244.255 811.566,241.255 815.5,238.5 Z"/></g>
<g><path style="opacity:1" fill="#252223" d="M 1019.5,240.5 C 1028.04,240.211 1031.21,244.211 1029,252.5C 1026.33,259.502 1021.83,265.002 1015.5,269C 1011.93,270.405 1008.26,270.738 1004.5,270C 1000.67,264.691 1000.51,259.191 1004,253.5C 1007.87,247.452 1013.04,243.118 1019.5,240.5 Z"/></g>
<g><path style="opacity:1" fill="#2b2827" d="M 111.5,243.5 C 112.931,243.881 113.764,244.881 114,246.5C 114.826,249.793 115.326,253.126 115.5,256.5C 109.37,256.635 103.37,255.801 97.5,254C 95.3825,253.74 93.7158,252.74 92.5,251C 98.0249,246.586 104.358,244.086 111.5,243.5 Z"/></g>
<g><path style="opacity:1" fill="#4f4d4e" d="M 571.5,232.5 C 565.355,233.49 559.022,233.823 552.5,233.5C 552.825,241.352 552.492,249.018 551.5,256.5C 551.5,248.5 551.5,240.5 551.5,232.5C 558.167,232.5 564.833,232.5 571.5,232.5 Z"/></g>
<g><path style="opacity:1" fill="#bcbbbb" d="M 199.5,237.5 C 199.5,241.5 199.5,245.5 199.5,249.5C 204.5,249.5 209.5,249.5 214.5,249.5C 209.36,250.488 204.026,250.821 198.5,250.5C 198.182,245.968 198.515,241.634 199.5,237.5 Z"/></g>
<g><path style="opacity:1" fill="#b2b1b2" d="M 489.5,183.5 C 490.499,241.998 490.832,300.664 490.5,359.5C 502.678,359.172 514.678,359.505 526.5,360.5C 514.167,360.5 501.833,360.5 489.5,360.5C 489.5,301.5 489.5,242.5 489.5,183.5 Z"/></g>
<g><path style="opacity:1" fill="#fafaae" d="M 135.5,258.5 C 142.167,263.001 147.667,268.668 152,275.5C 152.837,279.295 152.504,282.961 151,286.5C 147.371,292.229 142.204,295.229 135.5,295.5C 135.5,283.167 135.5,270.833 135.5,258.5 Z"/></g>
<g><path style="opacity:1" fill="#c7c6c6" d="M 1341.5,278.5 C 1353.22,277.856 1364.55,278.522 1375.5,280.5C 1364.07,279.853 1352.73,279.187 1341.5,278.5 Z"/></g>
<g><path style="opacity:1" fill="#807f7f" d="M 875.5,271.5 C 876.167,275.5 876.833,279.5 877.5,283.5C 877.5,283.833 877.5,284.167 877.5,284.5C 876.833,288.167 876.167,291.833 875.5,295.5C 875.5,287.5 875.5,279.5 875.5,271.5 Z"/></g>
<g><path style="opacity:1" fill="#fafaad" d="M 112.5,288.5 C 111.421,294.449 111.254,300.449 112,306.5C 118.77,310.139 125.937,312.473 133.5,313.5C 140.115,315.615 144.615,319.948 147,326.5C 149.744,338.519 145.577,346.685 134.5,351C 139.895,344.595 141.395,337.428 139,329.5C 137.117,326.976 134.617,325.642 131.5,325.5C 124.656,324.681 117.656,324.014 110.5,323.5C 94.6538,320.476 89.8205,311.476 96,296.5C 100.001,290.75 105.501,288.083 112.5,288.5 Z"/></g>
<g><path style="opacity:1" fill="#a2a1a2" d="M 392.5,288.5 C 420.833,288.5 449.167,288.5 477.5,288.5C 477.831,312.006 477.498,335.339 476.5,358.5C 476.5,335.5 476.5,312.5 476.5,289.5C 448.328,289.831 420.328,289.498 392.5,288.5 Z"/></g>
<g><path style="opacity:1" fill="#f8f8f8" d="M 110.5,323.5 C 117.656,324.014 124.656,324.681 131.5,325.5C 128.44,331.944 124.607,337.944 120,343.5C 110.946,351.221 102.612,359.554 95,368.5C 94.3333,365.167 94.3333,361.833 95,358.5C 99.3333,350.5 103.667,342.5 108,334.5C 108.9,330.829 109.734,327.163 110.5,323.5 Z"/></g>
</svg>
